<svg xmlns="http://www.w3.org/2000/svg" viewBox="0 0 800 300"><rect x="0" y="0" width="800" height="300" ry="6" style="fill:rgb(30,30,30);stroke:none;fill-opacity:1;stroke-opacity:1;" /><path d="M 30 20 L 30 270" style="stroke:rgb(200,200,200);stroke-width:1" /><path d="M 30 270 L 780 270" style="stroke:rgb(200,200,200);stroke-width:1" /><path d="M 780 270 L 780 272" style="stroke:rgb(200,200,200);stroke-width:1" /><text x="780" y="282" style="font-size:10px;fill:rgb(200,200,200);text-anchor:middle;text-align:center;"> 0.01 </text><path d="M 630.77246 270 L 630.77246 272" style="stroke:rgb(200,200,200);stroke-width:1" /><text x="630.77246" y="282" style="font-size:10px;fill:rgb(200,200,200);text-anchor:middle;text-align:center;"> 0.025 </text><path d="M 517.8862 270 L 517.8862 272" style="stroke:rgb(200,200,200);stroke-width:1" /><text x="517.8862" y="282" style="font-size:10px;fill:rgb(200,200,200);text-anchor:middle;text-align:center;"> 0.05 </text><path d="M 451.85202 270 L 451.85202 272" style="stroke:rgb(200,200,200);stroke-width:1" /><text x="451.85202" y="282" style="font-size:10px;fill:rgb(200,200,200);text-anchor:middle;text-align:center;"> 0.075 </text><path d="M 405 270 L 405 272" style="stroke:rgb(200,200,200);stroke-width:1" /><text x="405" y="282" style="font-size:10px;fill:rgb(200,200,200);text-anchor:middle;text-align:center;"> 0.1 </text><path d="M 338.96576 270 L 338.96576 272" style="stroke:rgb(200,200,200);stroke-width:1" /><text x="338.96576" y="282" style="font-size:10px;fill:rgb(200,200,200);text-anchor:middle;text-align:center;"> 0.15 </text><path d="M 292.11377 270 L 292.11377 272" style="stroke:rgb(200,200,200);stroke-width:1" /><text x="292.11377" y="282" style="font-size:10px;fill:rgb(200,200,200);text-anchor:middle;text-align:center;"> 0.2 </text><path d="M 255.7725 270 L 255.7725 272" style="stroke:rgb(200,200,200);stroke-width:1" /><text x="255.7725" y="282" style="font-size:10px;fill:rgb(200,200,200);text-anchor:middle;text-align:center;"> 0.25 </text><path d="M 142.88626 270 L 142.88626 272" style="stroke:rgb(200,200,200);stroke-width:1" /><text x="142.88626" y="282" style="font-size:10px;fill:rgb(200,200,200);text-anchor:middle;text-align:center;"> 0.5 </text><path d="M 30 270 L 30 272" style="stroke:rgb(200,200,200);stroke-width:1" /><text x="30" y="282" style="font-size:10px;fill:rgb(200,200,200);text-anchor:middle;text-align:center;"> 1 </text><path d="M 28 270 L 30 270" style="stroke:rgb(200,200,200);stroke-width:1" /><text x="26" y="274" style="font-size:10px;fill:rgb(200,200,200);text-anchor:end;text-align:right;"> 0 </text><path d="M 28 207.5 L 30 207.5" style="stroke:rgb(200,200,200);stroke-width:1" /><text x="26" y="211.5" style="font-size:10px;fill:rgb(200,200,200);text-anchor:end;text-align:right;"> 0.25 </text><path d="M 28 145 L 30 145" style="stroke:rgb(200,200,200);stroke-width:1" /><text x="26" y="149" style="font-size:10px;fill:rgb(200,200,200);text-anchor:end;text-align:right;"> 0.5 </text><path d="M 28 82.5 L 30 82.5" style="stroke:rgb(200,200,200);stroke-width:1" /><text x="26" y="86.5" style="font-size:10px;fill:rgb(200,200,200);text-anchor:end;text-align:right;"> 0.75 </text><path d="M 28 20 L 30 20" style="stroke:rgb(200,200,200);stroke-width:1" /><text x="26" y="24" style="font-size:10px;fill:rgb(200,200,200);text-anchor:end;text-align:right;"> 1 </text><text x="400" y="294" style="font-size:10px;fill:rgb(200,200,200);text-anchor:middle;text-align:center;"> Tolerance </text><circle cx="780" cy="98.942505" r="2" style="fill:rgb(50,125,209);stroke:none;fill-opacity:1;stroke-opacity:1;" /><path d="M 780 98.942505 L 630.77246 136.8975" style="stroke:rgb(50,125,209);stroke-width:1" /><circle cx="630.77246" cy="136.8975" r="2" style="fill:rgb(50,125,209);stroke:none;fill-opacity:1;stroke-opacity:1;" /><path d="M 630.77246 136.8975 L 517.8862 154.0125" style="stroke:rgb(50,125,209);stroke-width:1" /><circle cx="517.8862" cy="154.0125" r="2" style="fill:rgb(50,125,209);stroke:none;fill-opacity:1;stroke-opacity:1;" /><path d="M 517.8862 154.0125 L 451.85202 172.9325" style="stroke:rgb(50,125,209);stroke-width:1" /><circle cx="451.85202" cy="172.9325" r="2" style="fill:rgb(50,125,209);stroke:none;fill-opacity:1;stroke-opacity:1;" /><path d="M 451.85202 172.9325 L 405 173.4725" style="stroke:rgb(50,125,209);stroke-width:1" /><circle cx="405" cy="173.4725" r="2" style="fill:rgb(50,125,209);stroke:none;fill-opacity:1;stroke-opacity:1;" /><path d="M 405 173.4725 L 338.96576 187.0625" style="stroke:rgb(50,125,209);stroke-width:1" /><circle cx="338.96576" cy="187.0625" r="2" style="fill:rgb(50,125,209);stroke:none;fill-opacity:1;stroke-opacity:1;" /><path d="M 338.96576 187.0625 L 292.11377 193.11" style="stroke:rgb(50,125,209);stroke-width:1" /><circle cx="292.11377" cy="193.11" r="2" style="fill:rgb(50,125,209);stroke:none;fill-opacity:1;stroke-opacity:1;" /><path d="M 292.11377 193.11 L 255.7725 196.265" style="stroke:rgb(50,125,209);stroke-width:1" /><circle cx="255.7725" cy="196.265" r="2" style="fill:rgb(50,125,209);stroke:none;fill-opacity:1;stroke-opacity:1;" /><path d="M 255.7725 196.265 L 142.88626 203.33" style="stroke:rgb(50,125,209);stroke-width:1" /><circle cx="142.88626" cy="203.33" r="2" style="fill:rgb(50,125,209);stroke:none;fill-opacity:1;stroke-opacity:1;" /><path d="M 142.88626 203.33 L 30 217.0525" style="stroke:rgb(50,125,209);stroke-width:1" /><circle cx="30" cy="217.0525" r="2" style="fill:rgb(50,125,209);stroke:none;fill-opacity:1;stroke-opacity:1;" /><circle cx="780" cy="222.865" r="2" style="fill:rgb(253,127,111);stroke:none;fill-opacity:1;stroke-opacity:1;" /><path d="M 780 222.865 L 630.77246 229.5875" style="stroke:rgb(253,127,111);stroke-width:1" /><circle cx="630.77246" cy="229.5875" r="2" style="fill:rgb(253,127,111);stroke:none;fill-opacity:1;stroke-opacity:1;" /><path d="M 630.77246 229.5875 L 517.8862 235.6775" style="stroke:rgb(253,127,111);stroke-width:1" /><circle cx="517.8862" cy="235.6775" r="2" style="fill:rgb(253,127,111);stroke:none;fill-opacity:1;stroke-opacity:1;" /><path d="M 517.8862 235.6775 L 451.85202 239.6375" style="stroke:rgb(253,127,111);stroke-width:1" /><circle cx="451.85202" cy="239.6375" r="2" style="fill:rgb(253,127,111);stroke:none;fill-opacity:1;stroke-opacity:1;" /><path d="M 451.85202 239.6375 L 405 243.6625" style="stroke:rgb(253,127,111);stroke-width:1" /><circle cx="405" cy="243.6625" r="2" style="fill:rgb(253,127,111);stroke:none;fill-opacity:1;stroke-opacity:1;" /><path d="M 405 243.6625 L 338.96576 246.155" style="stroke:rgb(253,127,111);stroke-width:1" /><circle cx="338.96576" cy="246.155" r="2" style="fill:rgb(253,127,111);stroke:none;fill-opacity:1;stroke-opacity:1;" /><path d="M 338.96576 246.155 L 292.11377 247.725" style="stroke:rgb(253,127,111);stroke-width:1" /><circle cx="292.11377" cy="247.725" r="2" style="fill:rgb(253,127,111);stroke:none;fill-opacity:1;stroke-opacity:1;" /><path d="M 292.11377 247.725 L 255.7725 250.27249" style="stroke:rgb(253,127,111);stroke-width:1" /><circle cx="255.7725" cy="250.27249" r="2" style="fill:rgb(253,127,111);stroke:none;fill-opacity:1;stroke-opacity:1;" /><path d="M 255.7725 250.27249 L 142.88626 252.89" style="stroke:rgb(253,127,111);stroke-width:1" /><circle cx="142.88626" cy="252.89" r="2" style="fill:rgb(253,127,111);stroke:none;fill-opacity:1;stroke-opacity:1;" /><path d="M 142.88626 252.89 L 30 254.85" style="stroke:rgb(253,127,111);stroke-width:1" /><circle cx="30" cy="254.85" r="2" style="fill:rgb(253,127,111);stroke:none;fill-opacity:1;stroke-opacity:1;" /><circle cx="780" cy="20" r="2" style="fill:rgb(255,238,101);stroke:none;fill-opacity:1;stroke-opacity:1;" /><path d="M 780 20 L 630.77246 108.134995" style="stroke:rgb(255,238,101);stroke-width:1" /><circle cx="630.77246" cy="108.134995" r="2" style="fill:rgb(255,238,101);stroke:none;fill-opacity:1;stroke-opacity:1;" /><path d="M 630.77246 108.134995 L 517.8862 162.2625" style="stroke:rgb(255,238,101);stroke-width:1" /><circle cx="517.8862" cy="162.2625" r="2" style="fill:rgb(255,238,101);stroke:none;fill-opacity:1;stroke-opacity:1;" /><path d="M 517.8862 162.2625 L 451.85202 182.70749" style="stroke:rgb(255,238,101);stroke-width:1" /><circle cx="451.85202" cy="182.70749" r="2" style="fill:rgb(255,238,101);stroke:none;fill-opacity:1;stroke-opacity:1;" /><path d="M 451.85202 182.70749 L 405 193" style="stroke:rgb(255,238,101);stroke-width:1" /><circle cx="405" cy="193" r="2" style="fill:rgb(255,238,101);stroke:none;fill-opacity:1;stroke-opacity:1;" /><path d="M 405 193 L 338.96576 212.0525" style="stroke:rgb(255,238,101);stroke-width:1" /><circle cx="338.96576" cy="212.0525" r="2" style="fill:rgb(255,238,101);stroke:none;fill-opacity:1;stroke-opacity:1;" /><path d="M 338.96576 212.0525 L 292.11377 221.965" style="stroke:rgb(255,238,101);stroke-width:1" /><circle cx="292.11377" cy="221.965" r="2" style="fill:rgb(255,238,101);stroke:none;fill-opacity:1;stroke-opacity:1;" /><path d="M 292.11377 221.965 L 255.7725 229.215" style="stroke:rgb(255,238,101);stroke-width:1" /><circle cx="255.7725" cy="229.215" r="2" style="fill:rgb(255,238,101);stroke:none;fill-opacity:1;stroke-opacity:1;" /><path d="M 255.7725 229.215 L 142.88626 243.1" style="stroke:rgb(255,238,101);stroke-width:1" /><circle cx="142.88626" cy="243.1" r="2" style="fill:rgb(255,238,101);stroke:none;fill-opacity:1;stroke-opacity:1;" /><path d="M 142.88626 243.1 L 30 253.555" style="stroke:rgb(255,238,101);stroke-width:1" /><circle cx="30" cy="253.555" r="2" style="fill:rgb(255,238,101);stroke:none;fill-opacity:1;stroke-opacity:1;" /><circle cx="780" cy="203.31" r="2" style="fill:rgb(126,176,213);stroke:none;fill-opacity:1;stroke-opacity:1;" /><path d="M 780 203.31 L 630.77246 214.92" style="stroke:rgb(126,176,213);stroke-width:1" /><circle cx="630.77246" cy="214.92" r="2" style="fill:rgb(126,176,213);stroke:none;fill-opacity:1;stroke-opacity:1;" /><path d="M 630.77246 214.92 L 517.8862 220.79001" style="stroke:rgb(126,176,213);stroke-width:1" /><circle cx="517.8862" cy="220.79001" r="2" style="fill:rgb(126,176,213);stroke:none;fill-opacity:1;stroke-opacity:1;" /><path d="M 517.8862 220.79001 L 451.85202 220.875" style="stroke:rgb(126,176,213);stroke-width:1" /><circle cx="451.85202" cy="220.875" r="2" style="fill:rgb(126,176,213);stroke:none;fill-opacity:1;stroke-opacity:1;" /><path d="M 451.85202 220.875 L 405 224.7225" style="stroke:rgb(126,176,213);stroke-width:1" /><circle cx="405" cy="224.7225" r="2" style="fill:rgb(126,176,213);stroke:none;fill-opacity:1;stroke-opacity:1;" /><path d="M 405 224.7225 L 338.96576 225.97751" style="stroke:rgb(126,176,213);stroke-width:1" /><circle cx="338.96576" cy="225.97751" r="2" style="fill:rgb(126,176,213);stroke:none;fill-opacity:1;stroke-opacity:1;" /><path d="M 338.96576 225.97751 L 292.11377 230.035" style="stroke:rgb(126,176,213);stroke-width:1" /><circle cx="292.11377" cy="230.035" r="2" style="fill:rgb(126,176,213);stroke:none;fill-opacity:1;stroke-opacity:1;" /><path d="M 292.11377 230.035 L 255.7725 232.0375" style="stroke:rgb(126,176,213);stroke-width:1" /><circle cx="255.7725" cy="232.0375" r="2" style="fill:rgb(126,176,213);stroke:none;fill-opacity:1;stroke-opacity:1;" /><path d="M 255.7725 232.0375 L 142.88626 233.9925" style="stroke:rgb(126,176,213);stroke-width:1" /><circle cx="142.88626" cy="233.9925" r="2" style="fill:rgb(126,176,213);stroke:none;fill-opacity:1;stroke-opacity:1;" /><path d="M 142.88626 233.9925 L 30 238.2975" style="stroke:rgb(126,176,213);stroke-width:1" /><circle cx="30" cy="238.2975" r="2" style="fill:rgb(126,176,213);stroke:none;fill-opacity:1;stroke-opacity:1;" /><circle cx="780" cy="23.785004" r="2" style="fill:rgb(128,214,87);stroke:none;fill-opacity:1;stroke-opacity:1;" /><path d="M 780 23.785004 L 630.77246 119.957504" style="stroke:rgb(128,214,87);stroke-width:1" /><circle cx="630.77246" cy="119.957504" r="2" style="fill:rgb(128,214,87);stroke:none;fill-opacity:1;stroke-opacity:1;" /><path d="M 630.77246 119.957504 L 517.8862 175.17" style="stroke:rgb(128,214,87);stroke-width:1" /><circle cx="517.8862" cy="175.17" r="2" style="fill:rgb(128,214,87);stroke:none;fill-opacity:1;stroke-opacity:1;" /><path d="M 517.8862 175.17 L 451.85202 195.195" style="stroke:rgb(128,214,87);stroke-width:1" /><circle cx="451.85202" cy="195.195" r="2" style="fill:rgb(128,214,87);stroke:none;fill-opacity:1;stroke-opacity:1;" /><path d="M 451.85202 195.195 L 405 211.3725" style="stroke:rgb(128,214,87);stroke-width:1" /><circle cx="405" cy="211.3725" r="2" style="fill:rgb(128,214,87);stroke:none;fill-opacity:1;stroke-opacity:1;" /><path d="M 405 211.3725 L 338.96576 227.9325" style="stroke:rgb(128,214,87);stroke-width:1" /><circle cx="338.96576" cy="227.9325" r="2" style="fill:rgb(128,214,87);stroke:none;fill-opacity:1;stroke-opacity:1;" /><path d="M 338.96576 227.9325 L 292.11377 234.8475" style="stroke:rgb(128,214,87);stroke-width:1" /><circle cx="292.11377" cy="234.8475" r="2" style="fill:rgb(128,214,87);stroke:none;fill-opacity:1;stroke-opacity:1;" /><path d="M 292.11377 234.8475 L 255.7725 240.9" style="stroke:rgb(128,214,87);stroke-width:1" /><circle cx="255.7725" cy="240.9" r="2" style="fill:rgb(128,214,87);stroke:none;fill-opacity:1;stroke-opacity:1;" /><path d="M 255.7725 240.9 L 142.88626 251.895" style="stroke:rgb(128,214,87);stroke-width:1" /><circle cx="142.88626" cy="251.895" r="2" style="fill:rgb(128,214,87);stroke:none;fill-opacity:1;stroke-opacity:1;" /><path d="M 142.88626 251.895 L 30 258.7125" style="stroke:rgb(128,214,87);stroke-width:1" /><circle cx="30" cy="258.7125" r="2" style="fill:rgb(128,214,87);stroke:none;fill-opacity:1;stroke-opacity:1;" /><circle cx="780" cy="219.1725" r="2" style="fill:rgb(253,204,229);stroke:none;fill-opacity:1;stroke-opacity:1;" /><path d="M 780 219.1725 L 630.77246 229.0475" style="stroke:rgb(253,204,229);stroke-width:1" /><circle cx="630.77246" cy="229.0475" r="2" style="fill:rgb(253,204,229);stroke:none;fill-opacity:1;stroke-opacity:1;" /><path d="M 630.77246 229.0475 L 517.8862 235.99" style="stroke:rgb(253,204,229);stroke-width:1" /><circle cx="517.8862" cy="235.99" r="2" style="fill:rgb(253,204,229);stroke:none;fill-opacity:1;stroke-opacity:1;" /><path d="M 517.8862 235.99 L 451.85202 239.3575" style="stroke:rgb(253,204,229);stroke-width:1" /><circle cx="451.85202" cy="239.3575" r="2" style="fill:rgb(253,204,229);stroke:none;fill-opacity:1;stroke-opacity:1;" /><path d="M 451.85202 239.3575 L 405 239.12" style="stroke:rgb(253,204,229);stroke-width:1" /><circle cx="405" cy="239.12" r="2" style="fill:rgb(253,204,229);stroke:none;fill-opacity:1;stroke-opacity:1;" /><path d="M 405 239.12 L 338.96576 243.065" style="stroke:rgb(253,204,229);stroke-width:1" /><circle cx="338.96576" cy="243.065" r="2" style="fill:rgb(253,204,229);stroke:none;fill-opacity:1;stroke-opacity:1;" /><path d="M 338.96576 243.065 L 292.11377 246.305" style="stroke:rgb(253,204,229);stroke-width:1" /><circle cx="292.11377" cy="246.305" r="2" style="fill:rgb(253,204,229);stroke:none;fill-opacity:1;stroke-opacity:1;" /><path d="M 292.11377 246.305 L 255.7725 248.05" style="stroke:rgb(253,204,229);stroke-width:1" /><circle cx="255.7725" cy="248.05" r="2" style="fill:rgb(253,204,229);stroke:none;fill-opacity:1;stroke-opacity:1;" /><path d="M 255.7725 248.05 L 142.88626 252.4675" style="stroke:rgb(253,204,229);stroke-width:1" /><circle cx="142.88626" cy="252.4675" r="2" style="fill:rgb(253,204,229);stroke:none;fill-opacity:1;stroke-opacity:1;" /><path d="M 142.88626 252.4675 L 30 254.61" style="stroke:rgb(253,204,229);stroke-width:1" /><circle cx="30" cy="254.61" r="2" style="fill:rgb(253,204,229);stroke:none;fill-opacity:1;stroke-opacity:1;" /><rect x="676" y="16" width="80" height="133" ry="4" style="fill:rgb(30,30,30);stroke:none;fill-opacity:0.8;stroke-opacity:1;" /><rect x="680" y="20" width="20" height="20" ry="2" style="fill:rgb(253,127,111);stroke:none;fill-opacity:1;stroke-opacity:1;" /><text x="705" y="33" style="font-size:10px;fill:rgb(255,255,255);text-anchor:start;text-align:left;"> fwd-diff </text><rect x="680" y="41" width="20" height="20" ry="2" style="fill:rgb(50,125,209);stroke:none;fill-opacity:1;stroke-opacity:1;" /><text x="705" y="54" style="font-size:10px;fill:rgb(255,255,255);text-anchor:start;text-align:left;"> levien </text><rect x="680" y="62" width="20" height="20" ry="2" style="fill:rgb(126,176,213);stroke:none;fill-opacity:1;stroke-opacity:1;" /><text x="705" y="75" style="font-size:10px;fill:rgb(255,255,255);text-anchor:start;text-align:left;"> levien-simd </text><rect x="680" y="83" width="20" height="20" ry="2" style="fill:rgb(128,214,87);stroke:none;fill-opacity:1;stroke-opacity:1;" /><text x="705" y="96" style="font-size:10px;fill:rgb(255,255,255);text-anchor:start;text-align:left;"> linear </text><rect x="680" y="104" width="20" height="20" ry="2" style="fill:rgb(255,238,101);stroke:none;fill-opacity:1;stroke-opacity:1;" /><text x="705" y="117" style="font-size:10px;fill:rgb(255,255,255);text-anchor:start;text-align:left;"> recursive </text><rect x="680" y="125" width="20" height="20" ry="2" style="fill:rgb(253,204,229);stroke:none;fill-opacity:1;stroke-opacity:1;" /><text x="705" y="138" style="font-size:10px;fill:rgb(255,255,255);text-anchor:start;text-align:left;"> wang </text><text x="400" y="30" style="font-size:20px;fill:rgb(255,255,255);text-anchor:middle;text-align:center;"> tiger dataset: quadratic </text><text x="400" y="42" style="font-size:8px;fill:rgb(200,200,200);text-anchor:middle;text-align:center;"> Normalized performance score (lower is better) </text></svg>