<svg xmlns="http://www.w3.org/2000/svg" viewBox="0 0 800 300"><rect x="0" y="0" width="800" height="300" ry="6" style="fill:rgb(30,30,30);stroke:none;fill-opacity:1;stroke-opacity:1;" /><path d="M 30 20 L 30 270" style="stroke:rgb(200,200,200);stroke-width:1" /><path d="M 30 270 L 780 270" style="stroke:rgb(200,200,200);stroke-width:1" /><path d="M 780 270 L 780 272" style="stroke:rgb(200,200,200);stroke-width:1" /><text x="780" y="282" style="font-size:10px;fill:rgb(200,200,200);text-anchor:middle;text-align:center;"> 0.01 </text><path d="M 630.77246 270 L 630.77246 272" style="stroke:rgb(200,200,200);stroke-width:1" /><text x="630.77246" y="282" style="font-size:10px;fill:rgb(200,200,200);text-anchor:middle;text-align:center;"> 0.025 </text><path d="M 517.8862 270 L 517.8862 272" style="stroke:rgb(200,200,200);stroke-width:1" /><text x="517.8862" y="282" style="font-size:10px;fill:rgb(200,200,200);text-anchor:middle;text-align:center;"> 0.05 </text><path d="M 451.85202 270 L 451.85202 272" style="stroke:rgb(200,200,200);stroke-width:1" /><text x="451.85202" y="282" style="font-size:10px;fill:rgb(200,200,200);text-anchor:middle;text-align:center;"> 0.075 </text><path d="M 405 270 L 405 272" style="stroke:rgb(200,200,200);stroke-width:1" /><text x="405" y="282" style="font-size:10px;fill:rgb(200,200,200);text-anchor:middle;text-align:center;"> 0.1 </text><path d="M 338.96576 270 L 338.96576 272" style="stroke:rgb(200,200,200);stroke-width:1" /><text x="338.96576" y="282" style="font-size:10px;fill:rgb(200,200,200);text-anchor:middle;text-align:center;"> 0.15 </text><path d="M 292.11377 270 L 292.11377 272" style="stroke:rgb(200,200,200);stroke-width:1" /><text x="292.11377" y="282" style="font-size:10px;fill:rgb(200,200,200);text-anchor:middle;text-align:center;"> 0.2 </text><path d="M 255.7725 270 L 255.7725 272" style="stroke:rgb(200,200,200);stroke-width:1" /><text x="255.7725" y="282" style="font-size:10px;fill:rgb(200,200,200);text-anchor:middle;text-align:center;"> 0.25 </text><path d="M 142.88626 270 L 142.88626 272" style="stroke:rgb(200,200,200);stroke-width:1" /><text x="142.88626" y="282" style="font-size:10px;fill:rgb(200,200,200);text-anchor:middle;text-align:center;"> 0.5 </text><path d="M 30 270 L 30 272" style="stroke:rgb(200,200,200);stroke-width:1" /><text x="30" y="282" style="font-size:10px;fill:rgb(200,200,200);text-anchor:middle;text-align:center;"> 1 </text><path d="M 28 270 L 30 270" style="stroke:rgb(200,200,200);stroke-width:1" /><text x="26" y="274" style="font-size:10px;fill:rgb(200,200,200);text-anchor:end;text-align:right;"> 0 </text><path d="M 28 207.5 L 30 207.5" style="stroke:rgb(200,200,200);stroke-width:1" /><text x="26" y="211.5" style="font-size:10px;fill:rgb(200,200,200);text-anchor:end;text-align:right;"> 0.25 </text><path d="M 28 145 L 30 145" style="stroke:rgb(200,200,200);stroke-width:1" /><text x="26" y="149" style="font-size:10px;fill:rgb(200,200,200);text-anchor:end;text-align:right;"> 0.5 </text><path d="M 28 82.5 L 30 82.5" style="stroke:rgb(200,200,200);stroke-width:1" /><text x="26" y="86.5" style="font-size:10px;fill:rgb(200,200,200);text-anchor:end;text-align:right;"> 0.75 </text><path d="M 28 20 L 30 20" style="stroke:rgb(200,200,200);stroke-width:1" /><text x="26" y="24" style="font-size:10px;fill:rgb(200,200,200);text-anchor:end;text-align:right;"> 1 </text><text x="400" y="294" style="font-size:10px;fill:rgb(200,200,200);text-anchor:middle;text-align:center;"> Tolerance </text><circle cx="780" cy="20" r="2" style="fill:rgb(128,214,87);stroke:none;fill-opacity:1;stroke-opacity:1;" /><path d="M 780 20 L 630.77246 117.8775" style="stroke:rgb(128,214,87);stroke-width:1" /><circle cx="630.77246" cy="117.8775" r="2" style="fill:rgb(128,214,87);stroke:none;fill-opacity:1;stroke-opacity:1;" /><path d="M 630.77246 117.8775 L 517.8862 161.1225" style="stroke:rgb(128,214,87);stroke-width:1" /><circle cx="517.8862" cy="161.1225" r="2" style="fill:rgb(128,214,87);stroke:none;fill-opacity:1;stroke-opacity:1;" /><path d="M 517.8862 161.1225 L 451.85202 179.2225" style="stroke:rgb(128,214,87);stroke-width:1" /><circle cx="451.85202" cy="179.2225" r="2" style="fill:rgb(128,214,87);stroke:none;fill-opacity:1;stroke-opacity:1;" /><path d="M 451.85202 179.2225 L 405 191.15" style="stroke:rgb(128,214,87);stroke-width:1" /><circle cx="405" cy="191.15" r="2" style="fill:rgb(128,214,87);stroke:none;fill-opacity:1;stroke-opacity:1;" /><path d="M 405 191.15 L 338.96576 205.5975" style="stroke:rgb(128,214,87);stroke-width:1" /><circle cx="338.96576" cy="205.5975" r="2" style="fill:rgb(128,214,87);stroke:none;fill-opacity:1;stroke-opacity:1;" /><path d="M 338.96576 205.5975 L 292.11377 211.9875" style="stroke:rgb(128,214,87);stroke-width:1" /><circle cx="292.11377" cy="211.9875" r="2" style="fill:rgb(128,214,87);stroke:none;fill-opacity:1;stroke-opacity:1;" /><path d="M 292.11377 211.9875 L 255.7725 222.2175" style="stroke:rgb(128,214,87);stroke-width:1" /><circle cx="255.7725" cy="222.2175" r="2" style="fill:rgb(128,214,87);stroke:none;fill-opacity:1;stroke-opacity:1;" /><path d="M 255.7725 222.2175 L 142.88626 233.675" style="stroke:rgb(128,214,87);stroke-width:1" /><circle cx="142.88626" cy="233.675" r="2" style="fill:rgb(128,214,87);stroke:none;fill-opacity:1;stroke-opacity:1;" /><path d="M 142.88626 233.675 L 30 245.0075" style="stroke:rgb(128,214,87);stroke-width:1" /><circle cx="30" cy="245.0075" r="2" style="fill:rgb(128,214,87);stroke:none;fill-opacity:1;stroke-opacity:1;" /><circle cx="780" cy="250.635" r="2" style="fill:rgb(120,68,33);stroke:none;fill-opacity:1;stroke-opacity:1;" /><path d="M 780 250.635 L 630.77246 254.28" style="stroke:rgb(120,68,33);stroke-width:1" /><circle cx="630.77246" cy="254.28" r="2" style="fill:rgb(120,68,33);stroke:none;fill-opacity:1;stroke-opacity:1;" /><path d="M 630.77246 254.28 L 517.8862 255.09" style="stroke:rgb(120,68,33);stroke-width:1" /><circle cx="517.8862" cy="255.09" r="2" style="fill:rgb(120,68,33);stroke:none;fill-opacity:1;stroke-opacity:1;" /><path d="M 517.8862 255.09 L 451.85202 256.7475" style="stroke:rgb(120,68,33);stroke-width:1" /><circle cx="451.85202" cy="256.7475" r="2" style="fill:rgb(120,68,33);stroke:none;fill-opacity:1;stroke-opacity:1;" /><path d="M 451.85202 256.7475 L 405 257.385" style="stroke:rgb(120,68,33);stroke-width:1" /><circle cx="405" cy="257.385" r="2" style="fill:rgb(120,68,33);stroke:none;fill-opacity:1;stroke-opacity:1;" /><path d="M 405 257.385 L 338.96576 258.095" style="stroke:rgb(120,68,33);stroke-width:1" /><circle cx="338.96576" cy="258.095" r="2" style="fill:rgb(120,68,33);stroke:none;fill-opacity:1;stroke-opacity:1;" /><path d="M 338.96576 258.095 L 292.11377 258.315" style="stroke:rgb(120,68,33);stroke-width:1" /><circle cx="292.11377" cy="258.315" r="2" style="fill:rgb(120,68,33);stroke:none;fill-opacity:1;stroke-opacity:1;" /><path d="M 292.11377 258.315 L 255.7725 258.775" style="stroke:rgb(120,68,33);stroke-width:1" /><circle cx="255.7725" cy="258.775" r="2" style="fill:rgb(120,68,33);stroke:none;fill-opacity:1;stroke-opacity:1;" /><path d="M 255.7725 258.775 L 142.88626 259.8025" style="stroke:rgb(120,68,33);stroke-width:1" /><circle cx="142.88626" cy="259.8025" r="2" style="fill:rgb(120,68,33);stroke:none;fill-opacity:1;stroke-opacity:1;" /><path d="M 142.88626 259.8025 L 30 260.675" style="stroke:rgb(120,68,33);stroke-width:1" /><circle cx="30" cy="260.675" r="2" style="fill:rgb(120,68,33);stroke:none;fill-opacity:1;stroke-opacity:1;" /><circle cx="780" cy="255.97" r="2" style="fill:rgb(253,127,111);stroke:none;fill-opacity:1;stroke-opacity:1;" /><path d="M 780 255.97 L 630.77246 259.98" style="stroke:rgb(253,127,111);stroke-width:1" /><circle cx="630.77246" cy="259.98" r="2" style="fill:rgb(253,127,111);stroke:none;fill-opacity:1;stroke-opacity:1;" /><path d="M 630.77246 259.98 L 517.8862 261.5375" style="stroke:rgb(253,127,111);stroke-width:1" /><circle cx="517.8862" cy="261.5375" r="2" style="fill:rgb(253,127,111);stroke:none;fill-opacity:1;stroke-opacity:1;" /><path d="M 517.8862 261.5375 L 451.85202 262.94" style="stroke:rgb(253,127,111);stroke-width:1" /><circle cx="451.85202" cy="262.94" r="2" style="fill:rgb(253,127,111);stroke:none;fill-opacity:1;stroke-opacity:1;" /><path d="M 451.85202 262.94 L 405 263.39" style="stroke:rgb(253,127,111);stroke-width:1" /><circle cx="405" cy="263.39" r="2" style="fill:rgb(253,127,111);stroke:none;fill-opacity:1;stroke-opacity:1;" /><path d="M 405 263.39 L 338.96576 264.1325" style="stroke:rgb(253,127,111);stroke-width:1" /><circle cx="338.96576" cy="264.1325" r="2" style="fill:rgb(253,127,111);stroke:none;fill-opacity:1;stroke-opacity:1;" /><path d="M 338.96576 264.1325 L 292.11377 264.625" style="stroke:rgb(253,127,111);stroke-width:1" /><circle cx="292.11377" cy="264.625" r="2" style="fill:rgb(253,127,111);stroke:none;fill-opacity:1;stroke-opacity:1;" /><path d="M 292.11377 264.625 L 255.7725 264.9825" style="stroke:rgb(253,127,111);stroke-width:1" /><circle cx="255.7725" cy="264.9825" r="2" style="fill:rgb(253,127,111);stroke:none;fill-opacity:1;stroke-opacity:1;" /><path d="M 255.7725 264.9825 L 142.88626 265.6725" style="stroke:rgb(253,127,111);stroke-width:1" /><circle cx="142.88626" cy="265.6725" r="2" style="fill:rgb(253,127,111);stroke:none;fill-opacity:1;stroke-opacity:1;" /><path d="M 142.88626 265.6725 L 30 266.355" style="stroke:rgb(253,127,111);stroke-width:1" /><circle cx="30" cy="266.355" r="2" style="fill:rgb(253,127,111);stroke:none;fill-opacity:1;stroke-opacity:1;" /><circle cx="780" cy="253.905" r="2" style="fill:rgb(200,113,55);stroke:none;fill-opacity:1;stroke-opacity:1;" /><path d="M 780 253.905 L 630.77246 256.1075" style="stroke:rgb(200,113,55);stroke-width:1" /><circle cx="630.77246" cy="256.1075" r="2" style="fill:rgb(200,113,55);stroke:none;fill-opacity:1;stroke-opacity:1;" /><path d="M 630.77246 256.1075 L 517.8862 257.475" style="stroke:rgb(200,113,55);stroke-width:1" /><circle cx="517.8862" cy="257.475" r="2" style="fill:rgb(200,113,55);stroke:none;fill-opacity:1;stroke-opacity:1;" /><path d="M 517.8862 257.475 L 451.85202 258.4" style="stroke:rgb(200,113,55);stroke-width:1" /><circle cx="451.85202" cy="258.4" r="2" style="fill:rgb(200,113,55);stroke:none;fill-opacity:1;stroke-opacity:1;" /><path d="M 451.85202 258.4 L 405 259.0325" style="stroke:rgb(200,113,55);stroke-width:1" /><circle cx="405" cy="259.0325" r="2" style="fill:rgb(200,113,55);stroke:none;fill-opacity:1;stroke-opacity:1;" /><path d="M 405 259.0325 L 338.96576 259.03" style="stroke:rgb(200,113,55);stroke-width:1" /><circle cx="338.96576" cy="259.03" r="2" style="fill:rgb(200,113,55);stroke:none;fill-opacity:1;stroke-opacity:1;" /><path d="M 338.96576 259.03 L 292.11377 259.8225" style="stroke:rgb(200,113,55);stroke-width:1" /><circle cx="292.11377" cy="259.8225" r="2" style="fill:rgb(200,113,55);stroke:none;fill-opacity:1;stroke-opacity:1;" /><path d="M 292.11377 259.8225 L 255.7725 260.115" style="stroke:rgb(200,113,55);stroke-width:1" /><circle cx="255.7725" cy="260.115" r="2" style="fill:rgb(200,113,55);stroke:none;fill-opacity:1;stroke-opacity:1;" /><path d="M 255.7725 260.115 L 142.88626 260.755" style="stroke:rgb(200,113,55);stroke-width:1" /><circle cx="142.88626" cy="260.755" r="2" style="fill:rgb(200,113,55);stroke:none;fill-opacity:1;stroke-opacity:1;" /><path d="M 142.88626 260.755 L 30 261.3125" style="stroke:rgb(200,113,55);stroke-width:1" /><circle cx="30" cy="261.3125" r="2" style="fill:rgb(200,113,55);stroke:none;fill-opacity:1;stroke-opacity:1;" /><circle cx="780" cy="20.61" r="2" style="fill:rgb(255,181,90);stroke:none;fill-opacity:1;stroke-opacity:1;" /><path d="M 780 20.61 L 630.77246 114.6875" style="stroke:rgb(255,181,90);stroke-width:1" /><circle cx="630.77246" cy="114.6875" r="2" style="fill:rgb(255,181,90);stroke:none;fill-opacity:1;stroke-opacity:1;" /><path d="M 630.77246 114.6875 L 517.8862 150.0375" style="stroke:rgb(255,181,90);stroke-width:1" /><circle cx="517.8862" cy="150.0375" r="2" style="fill:rgb(255,181,90);stroke:none;fill-opacity:1;stroke-opacity:1;" /><path d="M 517.8862 150.0375 L 451.85202 165.155" style="stroke:rgb(255,181,90);stroke-width:1" /><circle cx="451.85202" cy="165.155" r="2" style="fill:rgb(255,181,90);stroke:none;fill-opacity:1;stroke-opacity:1;" /><path d="M 451.85202 165.155 L 405 172.42749" style="stroke:rgb(255,181,90);stroke-width:1" /><circle cx="405" cy="172.42749" r="2" style="fill:rgb(255,181,90);stroke:none;fill-opacity:1;stroke-opacity:1;" /><path d="M 405 172.42749 L 338.96576 182.575" style="stroke:rgb(255,181,90);stroke-width:1" /><circle cx="338.96576" cy="182.575" r="2" style="fill:rgb(255,181,90);stroke:none;fill-opacity:1;stroke-opacity:1;" /><path d="M 338.96576 182.575 L 292.11377 179.425" style="stroke:rgb(255,181,90);stroke-width:1" /><circle cx="292.11377" cy="179.425" r="2" style="fill:rgb(255,181,90);stroke:none;fill-opacity:1;stroke-opacity:1;" /><path d="M 292.11377 179.425 L 255.7725 175.695" style="stroke:rgb(255,181,90);stroke-width:1" /><circle cx="255.7725" cy="175.695" r="2" style="fill:rgb(255,181,90);stroke:none;fill-opacity:1;stroke-opacity:1;" /><path d="M 255.7725 175.695 L 142.88626 202.2875" style="stroke:rgb(255,181,90);stroke-width:1" /><circle cx="142.88626" cy="202.2875" r="2" style="fill:rgb(255,181,90);stroke:none;fill-opacity:1;stroke-opacity:1;" /><path d="M 142.88626 202.2875 L 30 218.10251" style="stroke:rgb(255,181,90);stroke-width:1" /><circle cx="30" cy="218.10251" r="2" style="fill:rgb(255,181,90);stroke:none;fill-opacity:1;stroke-opacity:1;" /><circle cx="780" cy="259.565" r="2" style="fill:rgb(199,126,190);stroke:none;fill-opacity:1;stroke-opacity:1;" /><path d="M 780 259.565 L 630.77246 262.4" style="stroke:rgb(199,126,190);stroke-width:1" /><circle cx="630.77246" cy="262.4" r="2" style="fill:rgb(199,126,190);stroke:none;fill-opacity:1;stroke-opacity:1;" /><path d="M 630.77246 262.4 L 517.8862 263.735" style="stroke:rgb(199,126,190);stroke-width:1" /><circle cx="517.8862" cy="263.735" r="2" style="fill:rgb(199,126,190);stroke:none;fill-opacity:1;stroke-opacity:1;" /><path d="M 517.8862 263.735 L 451.85202 264.23" style="stroke:rgb(199,126,190);stroke-width:1" /><circle cx="451.85202" cy="264.23" r="2" style="fill:rgb(199,126,190);stroke:none;fill-opacity:1;stroke-opacity:1;" /><path d="M 451.85202 264.23 L 405 264.595" style="stroke:rgb(199,126,190);stroke-width:1" /><circle cx="405" cy="264.595" r="2" style="fill:rgb(199,126,190);stroke:none;fill-opacity:1;stroke-opacity:1;" /><path d="M 405 264.595 L 338.96576 264.865" style="stroke:rgb(199,126,190);stroke-width:1" /><circle cx="338.96576" cy="264.865" r="2" style="fill:rgb(199,126,190);stroke:none;fill-opacity:1;stroke-opacity:1;" /><path d="M 338.96576 264.865 L 292.11377 265.3225" style="stroke:rgb(199,126,190);stroke-width:1" /><circle cx="292.11377" cy="265.3225" r="2" style="fill:rgb(199,126,190);stroke:none;fill-opacity:1;stroke-opacity:1;" /><path d="M 292.11377 265.3225 L 255.7725 265.4925" style="stroke:rgb(199,126,190);stroke-width:1" /><circle cx="255.7725" cy="265.4925" r="2" style="fill:rgb(199,126,190);stroke:none;fill-opacity:1;stroke-opacity:1;" /><path d="M 255.7725 265.4925 L 142.88626 266.2825" style="stroke:rgb(199,126,190);stroke-width:1" /><circle cx="142.88626" cy="266.2825" r="2" style="fill:rgb(199,126,190);stroke:none;fill-opacity:1;stroke-opacity:1;" /><path d="M 142.88626 266.2825 L 30 266.7775" style="stroke:rgb(199,126,190);stroke-width:1" /><circle cx="30" cy="266.7775" r="2" style="fill:rgb(199,126,190);stroke:none;fill-opacity:1;stroke-opacity:1;" /><circle cx="780" cy="229.1725" r="2" style="fill:rgb(119,211,179);stroke:none;fill-opacity:1;stroke-opacity:1;" /><path d="M 780 229.1725 L 630.77246 240.315" style="stroke:rgb(119,211,179);stroke-width:1" /><circle cx="630.77246" cy="240.315" r="2" style="fill:rgb(119,211,179);stroke:none;fill-opacity:1;stroke-opacity:1;" /><path d="M 630.77246 240.315 L 517.8862 244.94" style="stroke:rgb(119,211,179);stroke-width:1" /><circle cx="517.8862" cy="244.94" r="2" style="fill:rgb(119,211,179);stroke:none;fill-opacity:1;stroke-opacity:1;" /><path d="M 517.8862 244.94 L 451.85202 248.805" style="stroke:rgb(119,211,179);stroke-width:1" /><circle cx="451.85202" cy="248.805" r="2" style="fill:rgb(119,211,179);stroke:none;fill-opacity:1;stroke-opacity:1;" /><path d="M 451.85202 248.805 L 405 250.355" style="stroke:rgb(119,211,179);stroke-width:1" /><circle cx="405" cy="250.355" r="2" style="fill:rgb(119,211,179);stroke:none;fill-opacity:1;stroke-opacity:1;" /><path d="M 405 250.355 L 338.96576 252.3" style="stroke:rgb(119,211,179);stroke-width:1" /><circle cx="338.96576" cy="252.3" r="2" style="fill:rgb(119,211,179);stroke:none;fill-opacity:1;stroke-opacity:1;" /><path d="M 338.96576 252.3 L 292.11377 253.51" style="stroke:rgb(119,211,179);stroke-width:1" /><circle cx="292.11377" cy="253.51" r="2" style="fill:rgb(119,211,179);stroke:none;fill-opacity:1;stroke-opacity:1;" /><path d="M 292.11377 253.51 L 255.7725 255.1625" style="stroke:rgb(119,211,179);stroke-width:1" /><circle cx="255.7725" cy="255.1625" r="2" style="fill:rgb(119,211,179);stroke:none;fill-opacity:1;stroke-opacity:1;" /><path d="M 255.7725 255.1625 L 142.88626 258.1" style="stroke:rgb(119,211,179);stroke-width:1" /><circle cx="142.88626" cy="258.1" r="2" style="fill:rgb(119,211,179);stroke:none;fill-opacity:1;stroke-opacity:1;" /><path d="M 142.88626 258.1 L 30 259.8775" style="stroke:rgb(119,211,179);stroke-width:1" /><circle cx="30" cy="259.8775" r="2" style="fill:rgb(119,211,179);stroke:none;fill-opacity:1;stroke-opacity:1;" /><circle cx="780" cy="189.51999" r="2" style="fill:rgb(50,125,209);stroke:none;fill-opacity:1;stroke-opacity:1;" /><path d="M 780 189.51999 L 630.77246 216.465" style="stroke:rgb(50,125,209);stroke-width:1" /><circle cx="630.77246" cy="216.465" r="2" style="fill:rgb(50,125,209);stroke:none;fill-opacity:1;stroke-opacity:1;" /><path d="M 630.77246 216.465 L 517.8862 227.7975" style="stroke:rgb(50,125,209);stroke-width:1" /><circle cx="517.8862" cy="227.7975" r="2" style="fill:rgb(50,125,209);stroke:none;fill-opacity:1;stroke-opacity:1;" /><path d="M 517.8862 227.7975 L 451.85202 232.8125" style="stroke:rgb(50,125,209);stroke-width:1" /><circle cx="451.85202" cy="232.8125" r="2" style="fill:rgb(50,125,209);stroke:none;fill-opacity:1;stroke-opacity:1;" /><path d="M 451.85202 232.8125 L 405 236.61" style="stroke:rgb(50,125,209);stroke-width:1" /><circle cx="405" cy="236.61" r="2" style="fill:rgb(50,125,209);stroke:none;fill-opacity:1;stroke-opacity:1;" /><path d="M 405 236.61 L 338.96576 240.0925" style="stroke:rgb(50,125,209);stroke-width:1" /><circle cx="338.96576" cy="240.0925" r="2" style="fill:rgb(50,125,209);stroke:none;fill-opacity:1;stroke-opacity:1;" /><path d="M 338.96576 240.0925 L 292.11377 241.9525" style="stroke:rgb(50,125,209);stroke-width:1" /><circle cx="292.11377" cy="241.9525" r="2" style="fill:rgb(50,125,209);stroke:none;fill-opacity:1;stroke-opacity:1;" /><path d="M 292.11377 241.9525 L 255.7725 244.72" style="stroke:rgb(50,125,209);stroke-width:1" /><circle cx="255.7725" cy="244.72" r="2" style="fill:rgb(50,125,209);stroke:none;fill-opacity:1;stroke-opacity:1;" /><path d="M 255.7725 244.72 L 142.88626 248.7625" style="stroke:rgb(50,125,209);stroke-width:1" /><circle cx="142.88626" cy="248.7625" r="2" style="fill:rgb(50,125,209);stroke:none;fill-opacity:1;stroke-opacity:1;" /><path d="M 142.88626 248.7625 L 30 251.58499" style="stroke:rgb(50,125,209);stroke-width:1" /><circle cx="30" cy="251.58499" r="2" style="fill:rgb(50,125,209);stroke:none;fill-opacity:1;stroke-opacity:1;" /><circle cx="780" cy="228.1825" r="2" style="fill:rgb(126,176,213);stroke:none;fill-opacity:1;stroke-opacity:1;" /><path d="M 780 228.1825 L 630.77246 239.9975" style="stroke:rgb(126,176,213);stroke-width:1" /><circle cx="630.77246" cy="239.9975" r="2" style="fill:rgb(126,176,213);stroke:none;fill-opacity:1;stroke-opacity:1;" /><path d="M 630.77246 239.9975 L 517.8862 244.2975" style="stroke:rgb(126,176,213);stroke-width:1" /><circle cx="517.8862" cy="244.2975" r="2" style="fill:rgb(126,176,213);stroke:none;fill-opacity:1;stroke-opacity:1;" /><path d="M 517.8862 244.2975 L 451.85202 247.47751" style="stroke:rgb(126,176,213);stroke-width:1" /><circle cx="451.85202" cy="247.47751" r="2" style="fill:rgb(126,176,213);stroke:none;fill-opacity:1;stroke-opacity:1;" /><path d="M 451.85202 247.47751 L 405 247.015" style="stroke:rgb(126,176,213);stroke-width:1" /><circle cx="405" cy="247.015" r="2" style="fill:rgb(126,176,213);stroke:none;fill-opacity:1;stroke-opacity:1;" /><path d="M 405 247.015 L 338.96576 250.7125" style="stroke:rgb(126,176,213);stroke-width:1" /><circle cx="338.96576" cy="250.7125" r="2" style="fill:rgb(126,176,213);stroke:none;fill-opacity:1;stroke-opacity:1;" /><path d="M 338.96576 250.7125 L 292.11377 250.94" style="stroke:rgb(126,176,213);stroke-width:1" /><circle cx="292.11377" cy="250.94" r="2" style="fill:rgb(126,176,213);stroke:none;fill-opacity:1;stroke-opacity:1;" /><path d="M 292.11377 250.94 L 255.7725 252.4925" style="stroke:rgb(126,176,213);stroke-width:1" /><circle cx="255.7725" cy="252.4925" r="2" style="fill:rgb(126,176,213);stroke:none;fill-opacity:1;stroke-opacity:1;" /><path d="M 255.7725 252.4925 L 142.88626 253.885" style="stroke:rgb(126,176,213);stroke-width:1" /><circle cx="142.88626" cy="253.885" r="2" style="fill:rgb(126,176,213);stroke:none;fill-opacity:1;stroke-opacity:1;" /><path d="M 142.88626 253.885 L 30 255.285" style="stroke:rgb(126,176,213);stroke-width:1" /><circle cx="30" cy="255.285" r="2" style="fill:rgb(126,176,213);stroke:none;fill-opacity:1;stroke-opacity:1;" /><circle cx="780" cy="67.1375" r="2" style="fill:rgb(255,238,101);stroke:none;fill-opacity:1;stroke-opacity:1;" /><path d="M 780 67.1375 L 630.77246 148.63" style="stroke:rgb(255,238,101);stroke-width:1" /><circle cx="630.77246" cy="148.63" r="2" style="fill:rgb(255,238,101);stroke:none;fill-opacity:1;stroke-opacity:1;" /><path d="M 630.77246 148.63 L 517.8862 175.7525" style="stroke:rgb(255,238,101);stroke-width:1" /><circle cx="517.8862" cy="175.7525" r="2" style="fill:rgb(255,238,101);stroke:none;fill-opacity:1;stroke-opacity:1;" /><path d="M 517.8862 175.7525 L 451.85202 194.6525" style="stroke:rgb(255,238,101);stroke-width:1" /><circle cx="451.85202" cy="194.6525" r="2" style="fill:rgb(255,238,101);stroke:none;fill-opacity:1;stroke-opacity:1;" /><path d="M 451.85202 194.6525 L 405 210.1875" style="stroke:rgb(255,238,101);stroke-width:1" /><circle cx="405" cy="210.1875" r="2" style="fill:rgb(255,238,101);stroke:none;fill-opacity:1;stroke-opacity:1;" /><path d="M 405 210.1875 L 338.96576 217.0575" style="stroke:rgb(255,238,101);stroke-width:1" /><circle cx="338.96576" cy="217.0575" r="2" style="fill:rgb(255,238,101);stroke:none;fill-opacity:1;stroke-opacity:1;" /><path d="M 338.96576 217.0575 L 292.11377 223.34" style="stroke:rgb(255,238,101);stroke-width:1" /><circle cx="292.11377" cy="223.34" r="2" style="fill:rgb(255,238,101);stroke:none;fill-opacity:1;stroke-opacity:1;" /><path d="M 292.11377 223.34 L 255.7725 228.91" style="stroke:rgb(255,238,101);stroke-width:1" /><circle cx="255.7725" cy="228.91" r="2" style="fill:rgb(255,238,101);stroke:none;fill-opacity:1;stroke-opacity:1;" /><path d="M 255.7725 228.91 L 142.88626 242.83499" style="stroke:rgb(255,238,101);stroke-width:1" /><circle cx="142.88626" cy="242.83499" r="2" style="fill:rgb(255,238,101);stroke:none;fill-opacity:1;stroke-opacity:1;" /><path d="M 142.88626 242.83499 L 30 249.7325" style="stroke:rgb(255,238,101);stroke-width:1" /><circle cx="30" cy="249.7325" r="2" style="fill:rgb(255,238,101);stroke:none;fill-opacity:1;stroke-opacity:1;" /><circle cx="780" cy="254.4775" r="2" style="fill:rgb(253,204,229);stroke:none;fill-opacity:1;stroke-opacity:1;" /><path d="M 780 254.4775 L 630.77246 259.025" style="stroke:rgb(253,204,229);stroke-width:1" /><circle cx="630.77246" cy="259.025" r="2" style="fill:rgb(253,204,229);stroke:none;fill-opacity:1;stroke-opacity:1;" /><path d="M 630.77246 259.025 L 517.8862 261.0375" style="stroke:rgb(253,204,229);stroke-width:1" /><circle cx="517.8862" cy="261.0375" r="2" style="fill:rgb(253,204,229);stroke:none;fill-opacity:1;stroke-opacity:1;" /><path d="M 517.8862 261.0375 L 451.85202 262.45" style="stroke:rgb(253,204,229);stroke-width:1" /><circle cx="451.85202" cy="262.45" r="2" style="fill:rgb(253,204,229);stroke:none;fill-opacity:1;stroke-opacity:1;" /><path d="M 451.85202 262.45 L 405 263.0275" style="stroke:rgb(253,204,229);stroke-width:1" /><circle cx="405" cy="263.0275" r="2" style="fill:rgb(253,204,229);stroke:none;fill-opacity:1;stroke-opacity:1;" /><path d="M 405 263.0275 L 338.96576 264.025" style="stroke:rgb(253,204,229);stroke-width:1" /><circle cx="338.96576" cy="264.025" r="2" style="fill:rgb(253,204,229);stroke:none;fill-opacity:1;stroke-opacity:1;" /><path d="M 338.96576 264.025 L 292.11377 264.475" style="stroke:rgb(253,204,229);stroke-width:1" /><circle cx="292.11377" cy="264.475" r="2" style="fill:rgb(253,204,229);stroke:none;fill-opacity:1;stroke-opacity:1;" /><path d="M 292.11377 264.475 L 255.7725 264.7225" style="stroke:rgb(253,204,229);stroke-width:1" /><circle cx="255.7725" cy="264.7225" r="2" style="fill:rgb(253,204,229);stroke:none;fill-opacity:1;stroke-opacity:1;" /><path d="M 255.7725 264.7225 L 142.88626 265.8325" style="stroke:rgb(253,204,229);stroke-width:1" /><circle cx="142.88626" cy="265.8325" r="2" style="fill:rgb(253,204,229);stroke:none;fill-opacity:1;stroke-opacity:1;" /><path d="M 142.88626 265.8325 L 30 266.435" style="stroke:rgb(253,204,229);stroke-width:1" /><circle cx="30" cy="266.435" r="2" style="fill:rgb(253,204,229);stroke:none;fill-opacity:1;stroke-opacity:1;" /><rect x="676" y="16" width="80" height="238" ry="4" style="fill:rgb(30,30,30);stroke:none;fill-opacity:0.8;stroke-opacity:1;" /><rect x="680" y="20" width="20" height="20" ry="2" style="fill:rgb(253,127,111);stroke:none;fill-opacity:1;stroke-opacity:1;" /><text x="705" y="33" style="font-size:10px;fill:rgb(255,255,255);text-anchor:start;text-align:left;"> fwd-diff </text><rect x="680" y="41" width="20" height="20" ry="2" style="fill:rgb(255,181,90);stroke:none;fill-opacity:1;stroke-opacity:1;" /><text x="705" y="54" style="font-size:10px;fill:rgb(255,255,255);text-anchor:start;text-align:left;"> hain </text><rect x="680" y="62" width="20" height="20" ry="2" style="fill:rgb(50,125,209);stroke:none;fill-opacity:1;stroke-opacity:1;" /><text x="705" y="75" style="font-size:10px;fill:rgb(255,255,255);text-anchor:start;text-align:left;"> levien </text><rect x="680" y="83" width="20" height="20" ry="2" style="fill:rgb(119,211,179);stroke:none;fill-opacity:1;stroke-opacity:1;" /><text x="705" y="96" style="font-size:10px;fill:rgb(255,255,255);text-anchor:start;text-align:left;"> levien-linear </text><rect x="680" y="104" width="20" height="20" ry="2" style="fill:rgb(126,176,213);stroke:none;fill-opacity:1;stroke-opacity:1;" /><text x="705" y="117" style="font-size:10px;fill:rgb(255,255,255);text-anchor:start;text-align:left;"> levien-simd </text><rect x="680" y="125" width="20" height="20" ry="2" style="fill:rgb(128,214,87);stroke:none;fill-opacity:1;stroke-opacity:1;" /><text x="705" y="138" style="font-size:10px;fill:rgb(255,255,255);text-anchor:start;text-align:left;"> linear </text><rect x="680" y="146" width="20" height="20" ry="2" style="fill:rgb(255,238,101);stroke:none;fill-opacity:1;stroke-opacity:1;" /><text x="705" y="159" style="font-size:10px;fill:rgb(255,255,255);text-anchor:start;text-align:left;"> recursive </text><rect x="680" y="167" width="20" height="20" ry="2" style="fill:rgb(253,204,229);stroke:none;fill-opacity:1;stroke-opacity:1;" /><text x="705" y="180" style="font-size:10px;fill:rgb(255,255,255);text-anchor:start;text-align:left;"> wang </text><rect x="680" y="188" width="20" height="20" ry="2" style="fill:rgb(199,126,190);stroke:none;fill-opacity:1;stroke-opacity:1;" /><text x="705" y="201" style="font-size:10px;fill:rgb(255,255,255);text-anchor:start;text-align:left;"> wang-simd </text><rect x="680" y="209" width="20" height="20" ry="2" style="fill:rgb(120,68,33);stroke:none;fill-opacity:1;stroke-opacity:1;" /><text x="705" y="222" style="font-size:10px;fill:rgb(255,255,255);text-anchor:start;text-align:left;"> yzerman </text><rect x="680" y="230" width="20" height="20" ry="2" style="fill:rgb(200,113,55);stroke:none;fill-opacity:1;stroke-opacity:1;" /><text x="705" y="243" style="font-size:10px;fill:rgb(255,255,255);text-anchor:start;text-align:left;"> yzerman-simd </text><text x="400" y="30" style="font-size:20px;fill:rgb(255,255,255);text-anchor:middle;text-align:center;"> nehab dataset: cubic </text><text x="400" y="42" style="font-size:8px;fill:rgb(200,200,200);text-anchor:middle;text-align:center;"> Normalized performance score (lower is better) </text></svg>