<svg xmlns="http://www.w3.org/2000/svg" viewBox="0 0 800 300"><rect x="0" y="0" width="800" height="300" ry="6" style="fill:rgb(30,30,30);stroke:none;fill-opacity:1;stroke-opacity:1;" /><path d="M 30 20 L 30 270" style="stroke:rgb(200,200,200);stroke-width:1" /><path d="M 30 270 L 780 270" style="stroke:rgb(200,200,200);stroke-width:1" /><path d="M 780 270 L 780 272" style="stroke:rgb(200,200,200);stroke-width:1" /><text x="780" y="282" style="font-size:10px;fill:rgb(200,200,200);text-anchor:middle;text-align:center;"> 0.01 </text><path d="M 630.77246 270 L 630.77246 272" style="stroke:rgb(200,200,200);stroke-width:1" /><text x="630.77246" y="282" style="font-size:10px;fill:rgb(200,200,200);text-anchor:middle;text-align:center;"> 0.025 </text><path d="M 517.8862 270 L 517.8862 272" style="stroke:rgb(200,200,200);stroke-width:1" /><text x="517.8862" y="282" style="font-size:10px;fill:rgb(200,200,200);text-anchor:middle;text-align:center;"> 0.05 </text><path d="M 451.85202 270 L 451.85202 272" style="stroke:rgb(200,200,200);stroke-width:1" /><text x="451.85202" y="282" style="font-size:10px;fill:rgb(200,200,200);text-anchor:middle;text-align:center;"> 0.075 </text><path d="M 405 270 L 405 272" style="stroke:rgb(200,200,200);stroke-width:1" /><text x="405" y="282" style="font-size:10px;fill:rgb(200,200,200);text-anchor:middle;text-align:center;"> 0.1 </text><path d="M 338.96576 270 L 338.96576 272" style="stroke:rgb(200,200,200);stroke-width:1" /><text x="338.96576" y="282" style="font-size:10px;fill:rgb(200,200,200);text-anchor:middle;text-align:center;"> 0.15 </text><path d="M 292.11377 270 L 292.11377 272" style="stroke:rgb(200,200,200);stroke-width:1" /><text x="292.11377" y="282" style="font-size:10px;fill:rgb(200,200,200);text-anchor:middle;text-align:center;"> 0.2 </text><path d="M 255.7725 270 L 255.7725 272" style="stroke:rgb(200,200,200);stroke-width:1" /><text x="255.7725" y="282" style="font-size:10px;fill:rgb(200,200,200);text-anchor:middle;text-align:center;"> 0.25 </text><path d="M 142.88626 270 L 142.88626 272" style="stroke:rgb(200,200,200);stroke-width:1" /><text x="142.88626" y="282" style="font-size:10px;fill:rgb(200,200,200);text-anchor:middle;text-align:center;"> 0.5 </text><path d="M 30 270 L 30 272" style="stroke:rgb(200,200,200);stroke-width:1" /><text x="30" y="282" style="font-size:10px;fill:rgb(200,200,200);text-anchor:middle;text-align:center;"> 1 </text><path d="M 28 270 L 30 270" style="stroke:rgb(200,200,200);stroke-width:1" /><text x="26" y="274" style="font-size:10px;fill:rgb(200,200,200);text-anchor:end;text-align:right;"> 0 </text><path d="M 28 207.5 L 30 207.5" style="stroke:rgb(200,200,200);stroke-width:1" /><text x="26" y="211.5" style="font-size:10px;fill:rgb(200,200,200);text-anchor:end;text-align:right;"> 0.25 </text><path d="M 28 145 L 30 145" style="stroke:rgb(200,200,200);stroke-width:1" /><text x="26" y="149" style="font-size:10px;fill:rgb(200,200,200);text-anchor:end;text-align:right;"> 0.5 </text><path d="M 28 82.5 L 30 82.5" style="stroke:rgb(200,200,200);stroke-width:1" /><text x="26" y="86.5" style="font-size:10px;fill:rgb(200,200,200);text-anchor:end;text-align:right;"> 0.75 </text><path d="M 28 20 L 30 20" style="stroke:rgb(200,200,200);stroke-width:1" /><text x="26" y="24" style="font-size:10px;fill:rgb(200,200,200);text-anchor:end;text-align:right;"> 1 </text><text x="400" y="294" style="font-size:10px;fill:rgb(200,200,200);text-anchor:middle;text-align:center;"> Tolerance </text><circle cx="780" cy="234.6425" r="2" style="fill:rgb(126,176,213);stroke:none;fill-opacity:1;stroke-opacity:1;" /><path d="M 780 234.6425 L 630.77246 244.905" style="stroke:rgb(126,176,213);stroke-width:1" /><circle cx="630.77246" cy="244.905" r="2" style="fill:rgb(126,176,213);stroke:none;fill-opacity:1;stroke-opacity:1;" /><path d="M 630.77246 244.905 L 517.8862 250.055" style="stroke:rgb(126,176,213);stroke-width:1" /><circle cx="517.8862" cy="250.055" r="2" style="fill:rgb(126,176,213);stroke:none;fill-opacity:1;stroke-opacity:1;" /><path d="M 517.8862 250.055 L 451.85202 252.525" style="stroke:rgb(126,176,213);stroke-width:1" /><circle cx="451.85202" cy="252.525" r="2" style="fill:rgb(126,176,213);stroke:none;fill-opacity:1;stroke-opacity:1;" /><path d="M 451.85202 252.525 L 405 254.22751" style="stroke:rgb(126,176,213);stroke-width:1" /><circle cx="405" cy="254.22751" r="2" style="fill:rgb(126,176,213);stroke:none;fill-opacity:1;stroke-opacity:1;" /><path d="M 405 254.22751 L 338.96576 255.6975" style="stroke:rgb(126,176,213);stroke-width:1" /><circle cx="338.96576" cy="255.6975" r="2" style="fill:rgb(126,176,213);stroke:none;fill-opacity:1;stroke-opacity:1;" /><path d="M 338.96576 255.6975 L 292.11377 257.6075" style="stroke:rgb(126,176,213);stroke-width:1" /><circle cx="292.11377" cy="257.6075" r="2" style="fill:rgb(126,176,213);stroke:none;fill-opacity:1;stroke-opacity:1;" /><path d="M 292.11377 257.6075 L 255.7725 258.255" style="stroke:rgb(126,176,213);stroke-width:1" /><circle cx="255.7725" cy="258.255" r="2" style="fill:rgb(126,176,213);stroke:none;fill-opacity:1;stroke-opacity:1;" /><path d="M 255.7725 258.255 L 142.88626 260.0125" style="stroke:rgb(126,176,213);stroke-width:1" /><circle cx="142.88626" cy="260.0125" r="2" style="fill:rgb(126,176,213);stroke:none;fill-opacity:1;stroke-opacity:1;" /><path d="M 142.88626 260.0125 L 30 261.8225" style="stroke:rgb(126,176,213);stroke-width:1" /><circle cx="30" cy="261.8225" r="2" style="fill:rgb(126,176,213);stroke:none;fill-opacity:1;stroke-opacity:1;" /><circle cx="780" cy="20" r="2" style="fill:rgb(128,214,87);stroke:none;fill-opacity:1;stroke-opacity:1;" /><path d="M 780 20 L 630.77246 112.175" style="stroke:rgb(128,214,87);stroke-width:1" /><circle cx="630.77246" cy="112.175" r="2" style="fill:rgb(128,214,87);stroke:none;fill-opacity:1;stroke-opacity:1;" /><path d="M 630.77246 112.175 L 517.8862 156.9825" style="stroke:rgb(128,214,87);stroke-width:1" /><circle cx="517.8862" cy="156.9825" r="2" style="fill:rgb(128,214,87);stroke:none;fill-opacity:1;stroke-opacity:1;" /><path d="M 517.8862 156.9825 L 451.85202 175.9975" style="stroke:rgb(128,214,87);stroke-width:1" /><circle cx="451.85202" cy="175.9975" r="2" style="fill:rgb(128,214,87);stroke:none;fill-opacity:1;stroke-opacity:1;" /><path d="M 451.85202 175.9975 L 405 190.8075" style="stroke:rgb(128,214,87);stroke-width:1" /><circle cx="405" cy="190.8075" r="2" style="fill:rgb(128,214,87);stroke:none;fill-opacity:1;stroke-opacity:1;" /><path d="M 405 190.8075 L 338.96576 204.675" style="stroke:rgb(128,214,87);stroke-width:1" /><circle cx="338.96576" cy="204.675" r="2" style="fill:rgb(128,214,87);stroke:none;fill-opacity:1;stroke-opacity:1;" /><path d="M 338.96576 204.675 L 292.11377 212.3625" style="stroke:rgb(128,214,87);stroke-width:1" /><circle cx="292.11377" cy="212.3625" r="2" style="fill:rgb(128,214,87);stroke:none;fill-opacity:1;stroke-opacity:1;" /><path d="M 292.11377 212.3625 L 255.7725 220.51" style="stroke:rgb(128,214,87);stroke-width:1" /><circle cx="255.7725" cy="220.51" r="2" style="fill:rgb(128,214,87);stroke:none;fill-opacity:1;stroke-opacity:1;" /><path d="M 255.7725 220.51 L 142.88626 234.9075" style="stroke:rgb(128,214,87);stroke-width:1" /><circle cx="142.88626" cy="234.9075" r="2" style="fill:rgb(128,214,87);stroke:none;fill-opacity:1;stroke-opacity:1;" /><path d="M 142.88626 234.9075 L 30 245.0775" style="stroke:rgb(128,214,87);stroke-width:1" /><circle cx="30" cy="245.0775" r="2" style="fill:rgb(128,214,87);stroke:none;fill-opacity:1;stroke-opacity:1;" /><circle cx="780" cy="249.1725" r="2" style="fill:rgb(253,127,111);stroke:none;fill-opacity:1;stroke-opacity:1;" /><path d="M 780 249.1725 L 630.77246 254.905" style="stroke:rgb(253,127,111);stroke-width:1" /><circle cx="630.77246" cy="254.905" r="2" style="fill:rgb(253,127,111);stroke:none;fill-opacity:1;stroke-opacity:1;" /><path d="M 630.77246 254.905 L 517.8862 258.4625" style="stroke:rgb(253,127,111);stroke-width:1" /><circle cx="517.8862" cy="258.4625" r="2" style="fill:rgb(253,127,111);stroke:none;fill-opacity:1;stroke-opacity:1;" /><path d="M 517.8862 258.4625 L 451.85202 259.5725" style="stroke:rgb(253,127,111);stroke-width:1" /><circle cx="451.85202" cy="259.5725" r="2" style="fill:rgb(253,127,111);stroke:none;fill-opacity:1;stroke-opacity:1;" /><path d="M 451.85202 259.5725 L 405 260.25" style="stroke:rgb(253,127,111);stroke-width:1" /><circle cx="405" cy="260.25" r="2" style="fill:rgb(253,127,111);stroke:none;fill-opacity:1;stroke-opacity:1;" /><path d="M 405 260.25 L 338.96576 261.575" style="stroke:rgb(253,127,111);stroke-width:1" /><circle cx="338.96576" cy="261.575" r="2" style="fill:rgb(253,127,111);stroke:none;fill-opacity:1;stroke-opacity:1;" /><path d="M 338.96576 261.575 L 292.11377 262.75" style="stroke:rgb(253,127,111);stroke-width:1" /><circle cx="292.11377" cy="262.75" r="2" style="fill:rgb(253,127,111);stroke:none;fill-opacity:1;stroke-opacity:1;" /><path d="M 292.11377 262.75 L 255.7725 263.25" style="stroke:rgb(253,127,111);stroke-width:1" /><circle cx="255.7725" cy="263.25" r="2" style="fill:rgb(253,127,111);stroke:none;fill-opacity:1;stroke-opacity:1;" /><path d="M 255.7725 263.25 L 142.88626 264.53" style="stroke:rgb(253,127,111);stroke-width:1" /><circle cx="142.88626" cy="264.53" r="2" style="fill:rgb(253,127,111);stroke:none;fill-opacity:1;stroke-opacity:1;" /><path d="M 142.88626 264.53 L 30 265.405" style="stroke:rgb(253,127,111);stroke-width:1" /><circle cx="30" cy="265.405" r="2" style="fill:rgb(253,127,111);stroke:none;fill-opacity:1;stroke-opacity:1;" /><circle cx="780" cy="26.912506" r="2" style="fill:rgb(255,238,101);stroke:none;fill-opacity:1;stroke-opacity:1;" /><path d="M 780 26.912506 L 630.77246 125.34" style="stroke:rgb(255,238,101);stroke-width:1" /><circle cx="630.77246" cy="125.34" r="2" style="fill:rgb(255,238,101);stroke:none;fill-opacity:1;stroke-opacity:1;" /><path d="M 630.77246 125.34 L 517.8862 158.1575" style="stroke:rgb(255,238,101);stroke-width:1" /><circle cx="517.8862" cy="158.1575" r="2" style="fill:rgb(255,238,101);stroke:none;fill-opacity:1;stroke-opacity:1;" /><path d="M 517.8862 158.1575 L 451.85202 182.5075" style="stroke:rgb(255,238,101);stroke-width:1" /><circle cx="451.85202" cy="182.5075" r="2" style="fill:rgb(255,238,101);stroke:none;fill-opacity:1;stroke-opacity:1;" /><path d="M 451.85202 182.5075 L 405 195.9875" style="stroke:rgb(255,238,101);stroke-width:1" /><circle cx="405" cy="195.9875" r="2" style="fill:rgb(255,238,101);stroke:none;fill-opacity:1;stroke-opacity:1;" /><path d="M 405 195.9875 L 338.96576 205.5625" style="stroke:rgb(255,238,101);stroke-width:1" /><circle cx="338.96576" cy="205.5625" r="2" style="fill:rgb(255,238,101);stroke:none;fill-opacity:1;stroke-opacity:1;" /><path d="M 338.96576 205.5625 L 292.11377 214.1325" style="stroke:rgb(255,238,101);stroke-width:1" /><circle cx="292.11377" cy="214.1325" r="2" style="fill:rgb(255,238,101);stroke:none;fill-opacity:1;stroke-opacity:1;" /><path d="M 292.11377 214.1325 L 255.7725 217.9275" style="stroke:rgb(255,238,101);stroke-width:1" /><circle cx="255.7725" cy="217.9275" r="2" style="fill:rgb(255,238,101);stroke:none;fill-opacity:1;stroke-opacity:1;" /><path d="M 255.7725 217.9275 L 142.88626 236.675" style="stroke:rgb(255,238,101);stroke-width:1" /><circle cx="142.88626" cy="236.675" r="2" style="fill:rgb(255,238,101);stroke:none;fill-opacity:1;stroke-opacity:1;" /><path d="M 142.88626 236.675 L 30 244.36" style="stroke:rgb(255,238,101);stroke-width:1" /><circle cx="30" cy="244.36" r="2" style="fill:rgb(255,238,101);stroke:none;fill-opacity:1;stroke-opacity:1;" /><circle cx="780" cy="143.0825" r="2" style="fill:rgb(50,125,209);stroke:none;fill-opacity:1;stroke-opacity:1;" /><path d="M 780 143.0825 L 630.77246 185.9725" style="stroke:rgb(50,125,209);stroke-width:1" /><circle cx="630.77246" cy="185.9725" r="2" style="fill:rgb(50,125,209);stroke:none;fill-opacity:1;stroke-opacity:1;" /><path d="M 630.77246 185.9725 L 517.8862 207.49" style="stroke:rgb(50,125,209);stroke-width:1" /><circle cx="517.8862" cy="207.49" r="2" style="fill:rgb(50,125,209);stroke:none;fill-opacity:1;stroke-opacity:1;" /><path d="M 517.8862 207.49 L 451.85202 218.83" style="stroke:rgb(50,125,209);stroke-width:1" /><circle cx="451.85202" cy="218.83" r="2" style="fill:rgb(50,125,209);stroke:none;fill-opacity:1;stroke-opacity:1;" /><path d="M 451.85202 218.83 L 405 223.605" style="stroke:rgb(50,125,209);stroke-width:1" /><circle cx="405" cy="223.605" r="2" style="fill:rgb(50,125,209);stroke:none;fill-opacity:1;stroke-opacity:1;" /><path d="M 405 223.605 L 338.96576 231.17" style="stroke:rgb(50,125,209);stroke-width:1" /><circle cx="338.96576" cy="231.17" r="2" style="fill:rgb(50,125,209);stroke:none;fill-opacity:1;stroke-opacity:1;" /><path d="M 338.96576 231.17 L 292.11377 234.975" style="stroke:rgb(50,125,209);stroke-width:1" /><circle cx="292.11377" cy="234.975" r="2" style="fill:rgb(50,125,209);stroke:none;fill-opacity:1;stroke-opacity:1;" /><path d="M 292.11377 234.975 L 255.7725 238.125" style="stroke:rgb(50,125,209);stroke-width:1" /><circle cx="255.7725" cy="238.125" r="2" style="fill:rgb(50,125,209);stroke:none;fill-opacity:1;stroke-opacity:1;" /><path d="M 255.7725 238.125 L 142.88626 244.60251" style="stroke:rgb(50,125,209);stroke-width:1" /><circle cx="142.88626" cy="244.60251" r="2" style="fill:rgb(50,125,209);stroke:none;fill-opacity:1;stroke-opacity:1;" /><path d="M 142.88626 244.60251 L 30 250.0775" style="stroke:rgb(50,125,209);stroke-width:1" /><circle cx="30" cy="250.0775" r="2" style="fill:rgb(50,125,209);stroke:none;fill-opacity:1;stroke-opacity:1;" /><circle cx="780" cy="248.1825" r="2" style="fill:rgb(253,204,229);stroke:none;fill-opacity:1;stroke-opacity:1;" /><path d="M 780 248.1825 L 630.77246 254.1525" style="stroke:rgb(253,204,229);stroke-width:1" /><circle cx="630.77246" cy="254.1525" r="2" style="fill:rgb(253,204,229);stroke:none;fill-opacity:1;stroke-opacity:1;" /><path d="M 630.77246 254.1525 L 517.8862 257.67" style="stroke:rgb(253,204,229);stroke-width:1" /><circle cx="517.8862" cy="257.67" r="2" style="fill:rgb(253,204,229);stroke:none;fill-opacity:1;stroke-opacity:1;" /><path d="M 517.8862 257.67 L 451.85202 259.2775" style="stroke:rgb(253,204,229);stroke-width:1" /><circle cx="451.85202" cy="259.2775" r="2" style="fill:rgb(253,204,229);stroke:none;fill-opacity:1;stroke-opacity:1;" /><path d="M 451.85202 259.2775 L 405 260.35" style="stroke:rgb(253,204,229);stroke-width:1" /><circle cx="405" cy="260.35" r="2" style="fill:rgb(253,204,229);stroke:none;fill-opacity:1;stroke-opacity:1;" /><path d="M 405 260.35 L 338.96576 261.56" style="stroke:rgb(253,204,229);stroke-width:1" /><circle cx="338.96576" cy="261.56" r="2" style="fill:rgb(253,204,229);stroke:none;fill-opacity:1;stroke-opacity:1;" /><path d="M 338.96576 261.56 L 292.11377 262.13" style="stroke:rgb(253,204,229);stroke-width:1" /><circle cx="292.11377" cy="262.13" r="2" style="fill:rgb(253,204,229);stroke:none;fill-opacity:1;stroke-opacity:1;" /><path d="M 292.11377 262.13 L 255.7725 262.965" style="stroke:rgb(253,204,229);stroke-width:1" /><circle cx="255.7725" cy="262.965" r="2" style="fill:rgb(253,204,229);stroke:none;fill-opacity:1;stroke-opacity:1;" /><path d="M 255.7725 262.965 L 142.88626 264.02" style="stroke:rgb(253,204,229);stroke-width:1" /><circle cx="142.88626" cy="264.02" r="2" style="fill:rgb(253,204,229);stroke:none;fill-opacity:1;stroke-opacity:1;" /><path d="M 142.88626 264.02 L 30 265.225" style="stroke:rgb(253,204,229);stroke-width:1" /><circle cx="30" cy="265.225" r="2" style="fill:rgb(253,204,229);stroke:none;fill-opacity:1;stroke-opacity:1;" /><rect x="676" y="16" width="80" height="133" ry="4" style="fill:rgb(30,30,30);stroke:none;fill-opacity:0.8;stroke-opacity:1;" /><rect x="680" y="20" width="20" height="20" ry="2" style="fill:rgb(253,127,111);stroke:none;fill-opacity:1;stroke-opacity:1;" /><text x="705" y="33" style="font-size:10px;fill:rgb(255,255,255);text-anchor:start;text-align:left;"> fwd-diff </text><rect x="680" y="41" width="20" height="20" ry="2" style="fill:rgb(50,125,209);stroke:none;fill-opacity:1;stroke-opacity:1;" /><text x="705" y="54" style="font-size:10px;fill:rgb(255,255,255);text-anchor:start;text-align:left;"> levien </text><rect x="680" y="62" width="20" height="20" ry="2" style="fill:rgb(126,176,213);stroke:none;fill-opacity:1;stroke-opacity:1;" /><text x="705" y="75" style="font-size:10px;fill:rgb(255,255,255);text-anchor:start;text-align:left;"> levien-simd </text><rect x="680" y="83" width="20" height="20" ry="2" style="fill:rgb(128,214,87);stroke:none;fill-opacity:1;stroke-opacity:1;" /><text x="705" y="96" style="font-size:10px;fill:rgb(255,255,255);text-anchor:start;text-align:left;"> linear </text><rect x="680" y="104" width="20" height="20" ry="2" style="fill:rgb(255,238,101);stroke:none;fill-opacity:1;stroke-opacity:1;" /><text x="705" y="117" style="font-size:10px;fill:rgb(255,255,255);text-anchor:start;text-align:left;"> recursive </text><rect x="680" y="125" width="20" height="20" ry="2" style="fill:rgb(253,204,229);stroke:none;fill-opacity:1;stroke-opacity:1;" /><text x="705" y="138" style="font-size:10px;fill:rgb(255,255,255);text-anchor:start;text-align:left;"> wang </text><text x="400" y="30" style="font-size:20px;fill:rgb(255,255,255);text-anchor:middle;text-align:center;"> nehab dataset: quadratic </text><text x="400" y="42" style="font-size:8px;fill:rgb(200,200,200);text-anchor:middle;text-align:center;"> Normalized performance score (lower is better) </text></svg>