<svg xmlns="http://www.w3.org/2000/svg" viewBox="0 0 800 300"><rect x="0" y="0" width="800" height="300" ry="6" style="fill:rgb(30,30,30);stroke:none;fill-opacity:1;stroke-opacity:1;" /><path d="M 30 20 L 30 270" style="stroke:rgb(200,200,200);stroke-width:1" /><path d="M 30 270 L 780 270" style="stroke:rgb(200,200,200);stroke-width:1" /><path d="M 780 270 L 780 272" style="stroke:rgb(200,200,200);stroke-width:1" /><text x="780" y="282" style="font-size:10px;fill:rgb(200,200,200);text-anchor:middle;text-align:center;"> 0.01 </text><path d="M 630.77246 270 L 630.77246 272" style="stroke:rgb(200,200,200);stroke-width:1" /><text x="630.77246" y="282" style="font-size:10px;fill:rgb(200,200,200);text-anchor:middle;text-align:center;"> 0.025 </text><path d="M 517.8862 270 L 517.8862 272" style="stroke:rgb(200,200,200);stroke-width:1" /><text x="517.8862" y="282" style="font-size:10px;fill:rgb(200,200,200);text-anchor:middle;text-align:center;"> 0.05 </text><path d="M 451.85202 270 L 451.85202 272" style="stroke:rgb(200,200,200);stroke-width:1" /><text x="451.85202" y="282" style="font-size:10px;fill:rgb(200,200,200);text-anchor:middle;text-align:center;"> 0.075 </text><path d="M 405 270 L 405 272" style="stroke:rgb(200,200,200);stroke-width:1" /><text x="405" y="282" style="font-size:10px;fill:rgb(200,200,200);text-anchor:middle;text-align:center;"> 0.1 </text><path d="M 338.96576 270 L 338.96576 272" style="stroke:rgb(200,200,200);stroke-width:1" /><text x="338.96576" y="282" style="font-size:10px;fill:rgb(200,200,200);text-anchor:middle;text-align:center;"> 0.15 </text><path d="M 292.11377 270 L 292.11377 272" style="stroke:rgb(200,200,200);stroke-width:1" /><text x="292.11377" y="282" style="font-size:10px;fill:rgb(200,200,200);text-anchor:middle;text-align:center;"> 0.2 </text><path d="M 255.7725 270 L 255.7725 272" style="stroke:rgb(200,200,200);stroke-width:1" /><text x="255.7725" y="282" style="font-size:10px;fill:rgb(200,200,200);text-anchor:middle;text-align:center;"> 0.25 </text><path d="M 142.88626 270 L 142.88626 272" style="stroke:rgb(200,200,200);stroke-width:1" /><text x="142.88626" y="282" style="font-size:10px;fill:rgb(200,200,200);text-anchor:middle;text-align:center;"> 0.5 </text><path d="M 30 270 L 30 272" style="stroke:rgb(200,200,200);stroke-width:1" /><text x="30" y="282" style="font-size:10px;fill:rgb(200,200,200);text-anchor:middle;text-align:center;"> 1 </text><path d="M 28 270 L 30 270" style="stroke:rgb(200,200,200);stroke-width:1" /><text x="26" y="274" style="font-size:10px;fill:rgb(200,200,200);text-anchor:end;text-align:right;"> 0 </text><path d="M 28 207.5 L 30 207.5" style="stroke:rgb(200,200,200);stroke-width:1" /><text x="26" y="211.5" style="font-size:10px;fill:rgb(200,200,200);text-anchor:end;text-align:right;"> 0.25 </text><path d="M 28 145 L 30 145" style="stroke:rgb(200,200,200);stroke-width:1" /><text x="26" y="149" style="font-size:10px;fill:rgb(200,200,200);text-anchor:end;text-align:right;"> 0.5 </text><path d="M 28 82.5 L 30 82.5" style="stroke:rgb(200,200,200);stroke-width:1" /><text x="26" y="86.5" style="font-size:10px;fill:rgb(200,200,200);text-anchor:end;text-align:right;"> 0.75 </text><path d="M 28 20 L 30 20" style="stroke:rgb(200,200,200);stroke-width:1" /><text x="26" y="24" style="font-size:10px;fill:rgb(200,200,200);text-anchor:end;text-align:right;"> 1 </text><text x="400" y="294" style="font-size:10px;fill:rgb(200,200,200);text-anchor:middle;text-align:center;"> Tolerance </text><circle cx="780" cy="247.565" r="2" style="fill:rgb(253,127,111);stroke:none;fill-opacity:1;stroke-opacity:1;" /><path d="M 780 247.565 L 630.77246 253.025" style="stroke:rgb(253,127,111);stroke-width:1" /><circle cx="630.77246" cy="253.025" r="2" style="fill:rgb(253,127,111);stroke:none;fill-opacity:1;stroke-opacity:1;" /><path d="M 630.77246 253.025 L 517.8862 256.0975" style="stroke:rgb(253,127,111);stroke-width:1" /><circle cx="517.8862" cy="256.0975" r="2" style="fill:rgb(253,127,111);stroke:none;fill-opacity:1;stroke-opacity:1;" /><path d="M 517.8862 256.0975 L 451.85202 257.1575" style="stroke:rgb(253,127,111);stroke-width:1" /><circle cx="451.85202" cy="257.1575" r="2" style="fill:rgb(253,127,111);stroke:none;fill-opacity:1;stroke-opacity:1;" /><path d="M 451.85202 257.1575 L 405 258.16" style="stroke:rgb(253,127,111);stroke-width:1" /><circle cx="405" cy="258.16" r="2" style="fill:rgb(253,127,111);stroke:none;fill-opacity:1;stroke-opacity:1;" /><path d="M 405 258.16 L 338.96576 259.07" style="stroke:rgb(253,127,111);stroke-width:1" /><circle cx="338.96576" cy="259.07" r="2" style="fill:rgb(253,127,111);stroke:none;fill-opacity:1;stroke-opacity:1;" /><path d="M 338.96576 259.07 L 292.11377 259.0375" style="stroke:rgb(253,127,111);stroke-width:1" /><circle cx="292.11377" cy="259.0375" r="2" style="fill:rgb(253,127,111);stroke:none;fill-opacity:1;stroke-opacity:1;" /><path d="M 292.11377 259.0375 L 255.7725 260.015" style="stroke:rgb(253,127,111);stroke-width:1" /><circle cx="255.7725" cy="260.015" r="2" style="fill:rgb(253,127,111);stroke:none;fill-opacity:1;stroke-opacity:1;" /><path d="M 255.7725 260.015 L 142.88626 261.18" style="stroke:rgb(253,127,111);stroke-width:1" /><circle cx="142.88626" cy="261.18" r="2" style="fill:rgb(253,127,111);stroke:none;fill-opacity:1;stroke-opacity:1;" /><path d="M 142.88626 261.18 L 30 262.245" style="stroke:rgb(253,127,111);stroke-width:1" /><circle cx="30" cy="262.245" r="2" style="fill:rgb(253,127,111);stroke:none;fill-opacity:1;stroke-opacity:1;" /><circle cx="780" cy="109.685" r="2" style="fill:rgb(128,214,87);stroke:none;fill-opacity:1;stroke-opacity:1;" /><path d="M 780 109.685 L 630.77246 168.675" style="stroke:rgb(128,214,87);stroke-width:1" /><circle cx="630.77246" cy="168.675" r="2" style="fill:rgb(128,214,87);stroke:none;fill-opacity:1;stroke-opacity:1;" /><path d="M 630.77246 168.675 L 517.8862 200.09" style="stroke:rgb(128,214,87);stroke-width:1" /><circle cx="517.8862" cy="200.09" r="2" style="fill:rgb(128,214,87);stroke:none;fill-opacity:1;stroke-opacity:1;" /><path d="M 517.8862 200.09 L 451.85202 211.4125" style="stroke:rgb(128,214,87);stroke-width:1" /><circle cx="451.85202" cy="211.4125" r="2" style="fill:rgb(128,214,87);stroke:none;fill-opacity:1;stroke-opacity:1;" /><path d="M 451.85202 211.4125 L 405 224.3875" style="stroke:rgb(128,214,87);stroke-width:1" /><circle cx="405" cy="224.3875" r="2" style="fill:rgb(128,214,87);stroke:none;fill-opacity:1;stroke-opacity:1;" /><path d="M 405 224.3875 L 338.96576 235.7525" style="stroke:rgb(128,214,87);stroke-width:1" /><circle cx="338.96576" cy="235.7525" r="2" style="fill:rgb(128,214,87);stroke:none;fill-opacity:1;stroke-opacity:1;" /><path d="M 338.96576 235.7525 L 292.11377 242.4675" style="stroke:rgb(128,214,87);stroke-width:1" /><circle cx="292.11377" cy="242.4675" r="2" style="fill:rgb(128,214,87);stroke:none;fill-opacity:1;stroke-opacity:1;" /><path d="M 292.11377 242.4675 L 255.7725 247.405" style="stroke:rgb(128,214,87);stroke-width:1" /><circle cx="255.7725" cy="247.405" r="2" style="fill:rgb(128,214,87);stroke:none;fill-opacity:1;stroke-opacity:1;" /><path d="M 255.7725 247.405 L 142.88626 255.93" style="stroke:rgb(128,214,87);stroke-width:1" /><circle cx="142.88626" cy="255.93" r="2" style="fill:rgb(128,214,87);stroke:none;fill-opacity:1;stroke-opacity:1;" /><path d="M 142.88626 255.93 L 30 260.53" style="stroke:rgb(128,214,87);stroke-width:1" /><circle cx="30" cy="260.53" r="2" style="fill:rgb(128,214,87);stroke:none;fill-opacity:1;stroke-opacity:1;" /><circle cx="780" cy="139.1425" r="2" style="fill:rgb(255,181,90);stroke:none;fill-opacity:1;stroke-opacity:1;" /><path d="M 780 139.1425 L 630.77246 182.70999" style="stroke:rgb(255,181,90);stroke-width:1" /><circle cx="630.77246" cy="182.70999" r="2" style="fill:rgb(255,181,90);stroke:none;fill-opacity:1;stroke-opacity:1;" /><path d="M 630.77246 182.70999 L 517.8862 200.76999" style="stroke:rgb(255,181,90);stroke-width:1" /><circle cx="517.8862" cy="200.76999" r="2" style="fill:rgb(255,181,90);stroke:none;fill-opacity:1;stroke-opacity:1;" /><path d="M 517.8862 200.76999 L 451.85202 208.7675" style="stroke:rgb(255,181,90);stroke-width:1" /><circle cx="451.85202" cy="208.7675" r="2" style="fill:rgb(255,181,90);stroke:none;fill-opacity:1;stroke-opacity:1;" /><path d="M 451.85202 208.7675 L 405 213.855" style="stroke:rgb(255,181,90);stroke-width:1" /><circle cx="405" cy="213.855" r="2" style="fill:rgb(255,181,90);stroke:none;fill-opacity:1;stroke-opacity:1;" /><path d="M 405 213.855 L 338.96576 216.5725" style="stroke:rgb(255,181,90);stroke-width:1" /><circle cx="338.96576" cy="216.5725" r="2" style="fill:rgb(255,181,90);stroke:none;fill-opacity:1;stroke-opacity:1;" /><path d="M 338.96576 216.5725 L 292.11377 215.9425" style="stroke:rgb(255,181,90);stroke-width:1" /><circle cx="292.11377" cy="215.9425" r="2" style="fill:rgb(255,181,90);stroke:none;fill-opacity:1;stroke-opacity:1;" /><path d="M 292.11377 215.9425 L 255.7725 214.3875" style="stroke:rgb(255,181,90);stroke-width:1" /><circle cx="255.7725" cy="214.3875" r="2" style="fill:rgb(255,181,90);stroke:none;fill-opacity:1;stroke-opacity:1;" /><path d="M 255.7725 214.3875 L 142.88626 230.18" style="stroke:rgb(255,181,90);stroke-width:1" /><circle cx="142.88626" cy="230.18" r="2" style="fill:rgb(255,181,90);stroke:none;fill-opacity:1;stroke-opacity:1;" /><path d="M 142.88626 230.18 L 30 240.58" style="stroke:rgb(255,181,90);stroke-width:1" /><circle cx="30" cy="240.58" r="2" style="fill:rgb(255,181,90);stroke:none;fill-opacity:1;stroke-opacity:1;" /><circle cx="780" cy="20" r="2" style="fill:rgb(50,125,209);stroke:none;fill-opacity:1;stroke-opacity:1;" /><path d="M 780 20 L 630.77246 79.990005" style="stroke:rgb(50,125,209);stroke-width:1" /><circle cx="630.77246" cy="79.990005" r="2" style="fill:rgb(50,125,209);stroke:none;fill-opacity:1;stroke-opacity:1;" /><path d="M 630.77246 79.990005 L 517.8862 113.94" style="stroke:rgb(50,125,209);stroke-width:1" /><circle cx="517.8862" cy="113.94" r="2" style="fill:rgb(50,125,209);stroke:none;fill-opacity:1;stroke-opacity:1;" /><path d="M 517.8862 113.94 L 451.85202 136.4625" style="stroke:rgb(50,125,209);stroke-width:1" /><circle cx="451.85202" cy="136.4625" r="2" style="fill:rgb(50,125,209);stroke:none;fill-opacity:1;stroke-opacity:1;" /><path d="M 451.85202 136.4625 L 405 145.475" style="stroke:rgb(50,125,209);stroke-width:1" /><circle cx="405" cy="145.475" r="2" style="fill:rgb(50,125,209);stroke:none;fill-opacity:1;stroke-opacity:1;" /><path d="M 405 145.475 L 338.96576 160.25" style="stroke:rgb(50,125,209);stroke-width:1" /><circle cx="338.96576" cy="160.25" r="2" style="fill:rgb(50,125,209);stroke:none;fill-opacity:1;stroke-opacity:1;" /><path d="M 338.96576 160.25 L 292.11377 166.2325" style="stroke:rgb(50,125,209);stroke-width:1" /><circle cx="292.11377" cy="166.2325" r="2" style="fill:rgb(50,125,209);stroke:none;fill-opacity:1;stroke-opacity:1;" /><path d="M 292.11377 166.2325 L 255.7725 173.52249" style="stroke:rgb(50,125,209);stroke-width:1" /><circle cx="255.7725" cy="173.52249" r="2" style="fill:rgb(50,125,209);stroke:none;fill-opacity:1;stroke-opacity:1;" /><path d="M 255.7725 173.52249 L 142.88626 188.0475" style="stroke:rgb(50,125,209);stroke-width:1" /><circle cx="142.88626" cy="188.0475" r="2" style="fill:rgb(50,125,209);stroke:none;fill-opacity:1;stroke-opacity:1;" /><path d="M 142.88626 188.0475 L 30 200.3175" style="stroke:rgb(50,125,209);stroke-width:1" /><circle cx="30" cy="200.3175" r="2" style="fill:rgb(50,125,209);stroke:none;fill-opacity:1;stroke-opacity:1;" /><circle cx="780" cy="153.3725" r="2" style="fill:rgb(119,211,179);stroke:none;fill-opacity:1;stroke-opacity:1;" /><path d="M 780 153.3725 L 630.77246 175.39749" style="stroke:rgb(119,211,179);stroke-width:1" /><circle cx="630.77246" cy="175.39749" r="2" style="fill:rgb(119,211,179);stroke:none;fill-opacity:1;stroke-opacity:1;" /><path d="M 630.77246 175.39749 L 517.8862 197.805" style="stroke:rgb(119,211,179);stroke-width:1" /><circle cx="517.8862" cy="197.805" r="2" style="fill:rgb(119,211,179);stroke:none;fill-opacity:1;stroke-opacity:1;" /><path d="M 517.8862 197.805 L 451.85202 205.41751" style="stroke:rgb(119,211,179);stroke-width:1" /><circle cx="451.85202" cy="205.41751" r="2" style="fill:rgb(119,211,179);stroke:none;fill-opacity:1;stroke-opacity:1;" /><path d="M 451.85202 205.41751 L 405 212.73" style="stroke:rgb(119,211,179);stroke-width:1" /><circle cx="405" cy="212.73" r="2" style="fill:rgb(119,211,179);stroke:none;fill-opacity:1;stroke-opacity:1;" /><path d="M 405 212.73 L 338.96576 222.31" style="stroke:rgb(119,211,179);stroke-width:1" /><circle cx="338.96576" cy="222.31" r="2" style="fill:rgb(119,211,179);stroke:none;fill-opacity:1;stroke-opacity:1;" /><path d="M 338.96576 222.31 L 292.11377 228.9725" style="stroke:rgb(119,211,179);stroke-width:1" /><circle cx="292.11377" cy="228.9725" r="2" style="fill:rgb(119,211,179);stroke:none;fill-opacity:1;stroke-opacity:1;" /><path d="M 292.11377 228.9725 L 255.7725 234.5075" style="stroke:rgb(119,211,179);stroke-width:1" /><circle cx="255.7725" cy="234.5075" r="2" style="fill:rgb(119,211,179);stroke:none;fill-opacity:1;stroke-opacity:1;" /><path d="M 255.7725 234.5075 L 142.88626 249.3425" style="stroke:rgb(119,211,179);stroke-width:1" /><circle cx="142.88626" cy="249.3425" r="2" style="fill:rgb(119,211,179);stroke:none;fill-opacity:1;stroke-opacity:1;" /><path d="M 142.88626 249.3425 L 30 257.535" style="stroke:rgb(119,211,179);stroke-width:1" /><circle cx="30" cy="257.535" r="2" style="fill:rgb(119,211,179);stroke:none;fill-opacity:1;stroke-opacity:1;" /><circle cx="780" cy="246.6675" r="2" style="fill:rgb(253,204,229);stroke:none;fill-opacity:1;stroke-opacity:1;" /><path d="M 780 246.6675 L 630.77246 252.2325" style="stroke:rgb(253,204,229);stroke-width:1" /><circle cx="630.77246" cy="252.2325" r="2" style="fill:rgb(253,204,229);stroke:none;fill-opacity:1;stroke-opacity:1;" /><path d="M 630.77246 252.2325 L 517.8862 256.22" style="stroke:rgb(253,204,229);stroke-width:1" /><circle cx="517.8862" cy="256.22" r="2" style="fill:rgb(253,204,229);stroke:none;fill-opacity:1;stroke-opacity:1;" /><path d="M 517.8862 256.22 L 451.85202 257.685" style="stroke:rgb(253,204,229);stroke-width:1" /><circle cx="451.85202" cy="257.685" r="2" style="fill:rgb(253,204,229);stroke:none;fill-opacity:1;stroke-opacity:1;" /><path d="M 451.85202 257.685 L 405 258.3325" style="stroke:rgb(253,204,229);stroke-width:1" /><circle cx="405" cy="258.3325" r="2" style="fill:rgb(253,204,229);stroke:none;fill-opacity:1;stroke-opacity:1;" /><path d="M 405 258.3325 L 338.96576 258.6275" style="stroke:rgb(253,204,229);stroke-width:1" /><circle cx="338.96576" cy="258.6275" r="2" style="fill:rgb(253,204,229);stroke:none;fill-opacity:1;stroke-opacity:1;" /><path d="M 338.96576 258.6275 L 292.11377 259.98" style="stroke:rgb(253,204,229);stroke-width:1" /><circle cx="292.11377" cy="259.98" r="2" style="fill:rgb(253,204,229);stroke:none;fill-opacity:1;stroke-opacity:1;" /><path d="M 292.11377 259.98 L 255.7725 260.485" style="stroke:rgb(253,204,229);stroke-width:1" /><circle cx="255.7725" cy="260.485" r="2" style="fill:rgb(253,204,229);stroke:none;fill-opacity:1;stroke-opacity:1;" /><path d="M 255.7725 260.485 L 142.88626 261.9725" style="stroke:rgb(253,204,229);stroke-width:1" /><circle cx="142.88626" cy="261.9725" r="2" style="fill:rgb(253,204,229);stroke:none;fill-opacity:1;stroke-opacity:1;" /><path d="M 142.88626 261.9725 L 30 262.525" style="stroke:rgb(253,204,229);stroke-width:1" /><circle cx="30" cy="262.525" r="2" style="fill:rgb(253,204,229);stroke:none;fill-opacity:1;stroke-opacity:1;" /><circle cx="780" cy="145.35" r="2" style="fill:rgb(255,238,101);stroke:none;fill-opacity:1;stroke-opacity:1;" /><path d="M 780 145.35 L 630.77246 188.965" style="stroke:rgb(255,238,101);stroke-width:1" /><circle cx="630.77246" cy="188.965" r="2" style="fill:rgb(255,238,101);stroke:none;fill-opacity:1;stroke-opacity:1;" /><path d="M 630.77246 188.965 L 517.8862 209.595" style="stroke:rgb(255,238,101);stroke-width:1" /><circle cx="517.8862" cy="209.595" r="2" style="fill:rgb(255,238,101);stroke:none;fill-opacity:1;stroke-opacity:1;" /><path d="M 517.8862 209.595 L 451.85202 221.1175" style="stroke:rgb(255,238,101);stroke-width:1" /><circle cx="451.85202" cy="221.1175" r="2" style="fill:rgb(255,238,101);stroke:none;fill-opacity:1;stroke-opacity:1;" /><path d="M 451.85202 221.1175 L 405 229.4425" style="stroke:rgb(255,238,101);stroke-width:1" /><circle cx="405" cy="229.4425" r="2" style="fill:rgb(255,238,101);stroke:none;fill-opacity:1;stroke-opacity:1;" /><path d="M 405 229.4425 L 338.96576 237.4375" style="stroke:rgb(255,238,101);stroke-width:1" /><circle cx="338.96576" cy="237.4375" r="2" style="fill:rgb(255,238,101);stroke:none;fill-opacity:1;stroke-opacity:1;" /><path d="M 338.96576 237.4375 L 292.11377 242.5525" style="stroke:rgb(255,238,101);stroke-width:1" /><circle cx="292.11377" cy="242.5525" r="2" style="fill:rgb(255,238,101);stroke:none;fill-opacity:1;stroke-opacity:1;" /><path d="M 292.11377 242.5525 L 255.7725 244.52" style="stroke:rgb(255,238,101);stroke-width:1" /><circle cx="255.7725" cy="244.52" r="2" style="fill:rgb(255,238,101);stroke:none;fill-opacity:1;stroke-opacity:1;" /><path d="M 255.7725 244.52 L 142.88626 254.2975" style="stroke:rgb(255,238,101);stroke-width:1" /><circle cx="142.88626" cy="254.2975" r="2" style="fill:rgb(255,238,101);stroke:none;fill-opacity:1;stroke-opacity:1;" /><path d="M 142.88626 254.2975 L 30 259.8525" style="stroke:rgb(255,238,101);stroke-width:1" /><circle cx="30" cy="259.8525" r="2" style="fill:rgb(255,238,101);stroke:none;fill-opacity:1;stroke-opacity:1;" /><circle cx="780" cy="154.37" r="2" style="fill:rgb(126,176,213);stroke:none;fill-opacity:1;stroke-opacity:1;" /><path d="M 780 154.37 L 630.77246 177.425" style="stroke:rgb(126,176,213);stroke-width:1" /><circle cx="630.77246" cy="177.425" r="2" style="fill:rgb(126,176,213);stroke:none;fill-opacity:1;stroke-opacity:1;" /><path d="M 630.77246 177.425 L 517.8862 195.5975" style="stroke:rgb(126,176,213);stroke-width:1" /><circle cx="517.8862" cy="195.5975" r="2" style="fill:rgb(126,176,213);stroke:none;fill-opacity:1;stroke-opacity:1;" /><path d="M 517.8862 195.5975 L 451.85202 200.60251" style="stroke:rgb(126,176,213);stroke-width:1" /><circle cx="451.85202" cy="200.60251" r="2" style="fill:rgb(126,176,213);stroke:none;fill-opacity:1;stroke-opacity:1;" /><path d="M 451.85202 200.60251 L 405 204.58249" style="stroke:rgb(126,176,213);stroke-width:1" /><circle cx="405" cy="204.58249" r="2" style="fill:rgb(126,176,213);stroke:none;fill-opacity:1;stroke-opacity:1;" /><path d="M 405 204.58249 L 338.96576 213.07" style="stroke:rgb(126,176,213);stroke-width:1" /><circle cx="338.96576" cy="213.07" r="2" style="fill:rgb(126,176,213);stroke:none;fill-opacity:1;stroke-opacity:1;" /><path d="M 338.96576 213.07 L 292.11377 217.45" style="stroke:rgb(126,176,213);stroke-width:1" /><circle cx="292.11377" cy="217.45" r="2" style="fill:rgb(126,176,213);stroke:none;fill-opacity:1;stroke-opacity:1;" /><path d="M 292.11377 217.45 L 255.7725 217.0075" style="stroke:rgb(126,176,213);stroke-width:1" /><circle cx="255.7725" cy="217.0075" r="2" style="fill:rgb(126,176,213);stroke:none;fill-opacity:1;stroke-opacity:1;" /><path d="M 255.7725 217.0075 L 142.88626 227.2775" style="stroke:rgb(126,176,213);stroke-width:1" /><circle cx="142.88626" cy="227.2775" r="2" style="fill:rgb(126,176,213);stroke:none;fill-opacity:1;stroke-opacity:1;" /><path d="M 142.88626 227.2775 L 30 232.08" style="stroke:rgb(126,176,213);stroke-width:1" /><circle cx="30" cy="232.08" r="2" style="fill:rgb(126,176,213);stroke:none;fill-opacity:1;stroke-opacity:1;" /><circle cx="780" cy="253.2375" r="2" style="fill:rgb(199,126,190);stroke:none;fill-opacity:1;stroke-opacity:1;" /><path d="M 780 253.2375 L 630.77246 256.7775" style="stroke:rgb(199,126,190);stroke-width:1" /><circle cx="630.77246" cy="256.7775" r="2" style="fill:rgb(199,126,190);stroke:none;fill-opacity:1;stroke-opacity:1;" /><path d="M 630.77246 256.7775 L 517.8862 258.895" style="stroke:rgb(199,126,190);stroke-width:1" /><circle cx="517.8862" cy="258.895" r="2" style="fill:rgb(199,126,190);stroke:none;fill-opacity:1;stroke-opacity:1;" /><path d="M 517.8862 258.895 L 451.85202 259.9625" style="stroke:rgb(199,126,190);stroke-width:1" /><circle cx="451.85202" cy="259.9625" r="2" style="fill:rgb(199,126,190);stroke:none;fill-opacity:1;stroke-opacity:1;" /><path d="M 451.85202 259.9625 L 405 260.35" style="stroke:rgb(199,126,190);stroke-width:1" /><circle cx="405" cy="260.35" r="2" style="fill:rgb(199,126,190);stroke:none;fill-opacity:1;stroke-opacity:1;" /><path d="M 405 260.35 L 338.96576 261.2475" style="stroke:rgb(199,126,190);stroke-width:1" /><circle cx="338.96576" cy="261.2475" r="2" style="fill:rgb(199,126,190);stroke:none;fill-opacity:1;stroke-opacity:1;" /><path d="M 338.96576 261.2475 L 292.11377 261.915" style="stroke:rgb(199,126,190);stroke-width:1" /><circle cx="292.11377" cy="261.915" r="2" style="fill:rgb(199,126,190);stroke:none;fill-opacity:1;stroke-opacity:1;" /><path d="M 292.11377 261.915 L 255.7725 262.025" style="stroke:rgb(199,126,190);stroke-width:1" /><circle cx="255.7725" cy="262.025" r="2" style="fill:rgb(199,126,190);stroke:none;fill-opacity:1;stroke-opacity:1;" /><path d="M 255.7725 262.025 L 142.88626 263.0975" style="stroke:rgb(199,126,190);stroke-width:1" /><circle cx="142.88626" cy="263.0975" r="2" style="fill:rgb(199,126,190);stroke:none;fill-opacity:1;stroke-opacity:1;" /><path d="M 142.88626 263.0975 L 30 263.605" style="stroke:rgb(199,126,190);stroke-width:1" /><circle cx="30" cy="263.605" r="2" style="fill:rgb(199,126,190);stroke:none;fill-opacity:1;stroke-opacity:1;" /><circle cx="780" cy="228.9875" r="2" style="fill:rgb(120,68,33);stroke:none;fill-opacity:1;stroke-opacity:1;" /><path d="M 780 228.9875 L 630.77246 227.745" style="stroke:rgb(120,68,33);stroke-width:1" /><circle cx="630.77246" cy="227.745" r="2" style="fill:rgb(120,68,33);stroke:none;fill-opacity:1;stroke-opacity:1;" /><path d="M 630.77246 227.745 L 517.8862 226.27" style="stroke:rgb(120,68,33);stroke-width:1" /><circle cx="517.8862" cy="226.27" r="2" style="fill:rgb(120,68,33);stroke:none;fill-opacity:1;stroke-opacity:1;" /><path d="M 517.8862 226.27 L 451.85202 226.655" style="stroke:rgb(120,68,33);stroke-width:1" /><circle cx="451.85202" cy="226.655" r="2" style="fill:rgb(120,68,33);stroke:none;fill-opacity:1;stroke-opacity:1;" /><path d="M 451.85202 226.655 L 405 227.6875" style="stroke:rgb(120,68,33);stroke-width:1" /><circle cx="405" cy="227.6875" r="2" style="fill:rgb(120,68,33);stroke:none;fill-opacity:1;stroke-opacity:1;" /><path d="M 405 227.6875 L 338.96576 229.0075" style="stroke:rgb(120,68,33);stroke-width:1" /><circle cx="338.96576" cy="229.0075" r="2" style="fill:rgb(120,68,33);stroke:none;fill-opacity:1;stroke-opacity:1;" /><path d="M 338.96576 229.0075 L 292.11377 231.44" style="stroke:rgb(120,68,33);stroke-width:1" /><circle cx="292.11377" cy="231.44" r="2" style="fill:rgb(120,68,33);stroke:none;fill-opacity:1;stroke-opacity:1;" /><path d="M 292.11377 231.44 L 255.7725 231.8775" style="stroke:rgb(120,68,33);stroke-width:1" /><circle cx="255.7725" cy="231.8775" r="2" style="fill:rgb(120,68,33);stroke:none;fill-opacity:1;stroke-opacity:1;" /><path d="M 255.7725 231.8775 L 142.88626 237.355" style="stroke:rgb(120,68,33);stroke-width:1" /><circle cx="142.88626" cy="237.355" r="2" style="fill:rgb(120,68,33);stroke:none;fill-opacity:1;stroke-opacity:1;" /><path d="M 142.88626 237.355 L 30 238.4275" style="stroke:rgb(120,68,33);stroke-width:1" /><circle cx="30" cy="238.4275" r="2" style="fill:rgb(120,68,33);stroke:none;fill-opacity:1;stroke-opacity:1;" /><circle cx="780" cy="236.7625" r="2" style="fill:rgb(200,113,55);stroke:none;fill-opacity:1;stroke-opacity:1;" /><path d="M 780 236.7625 L 630.77246 239.4575" style="stroke:rgb(200,113,55);stroke-width:1" /><circle cx="630.77246" cy="239.4575" r="2" style="fill:rgb(200,113,55);stroke:none;fill-opacity:1;stroke-opacity:1;" /><path d="M 630.77246 239.4575 L 517.8862 241.4025" style="stroke:rgb(200,113,55);stroke-width:1" /><circle cx="517.8862" cy="241.4025" r="2" style="fill:rgb(200,113,55);stroke:none;fill-opacity:1;stroke-opacity:1;" /><path d="M 517.8862 241.4025 L 451.85202 240.8025" style="stroke:rgb(200,113,55);stroke-width:1" /><circle cx="451.85202" cy="240.8025" r="2" style="fill:rgb(200,113,55);stroke:none;fill-opacity:1;stroke-opacity:1;" /><path d="M 451.85202 240.8025 L 405 242.3325" style="stroke:rgb(200,113,55);stroke-width:1" /><circle cx="405" cy="242.3325" r="2" style="fill:rgb(200,113,55);stroke:none;fill-opacity:1;stroke-opacity:1;" /><path d="M 405 242.3325 L 338.96576 242.36" style="stroke:rgb(200,113,55);stroke-width:1" /><circle cx="338.96576" cy="242.36" r="2" style="fill:rgb(200,113,55);stroke:none;fill-opacity:1;stroke-opacity:1;" /><path d="M 338.96576 242.36 L 292.11377 242.2475" style="stroke:rgb(200,113,55);stroke-width:1" /><circle cx="292.11377" cy="242.2475" r="2" style="fill:rgb(200,113,55);stroke:none;fill-opacity:1;stroke-opacity:1;" /><path d="M 292.11377 242.2475 L 255.7725 242.64" style="stroke:rgb(200,113,55);stroke-width:1" /><circle cx="255.7725" cy="242.64" r="2" style="fill:rgb(200,113,55);stroke:none;fill-opacity:1;stroke-opacity:1;" /><path d="M 255.7725 242.64 L 142.88626 243.005" style="stroke:rgb(200,113,55);stroke-width:1" /><circle cx="142.88626" cy="243.005" r="2" style="fill:rgb(200,113,55);stroke:none;fill-opacity:1;stroke-opacity:1;" /><path d="M 142.88626 243.005 L 30 240.445" style="stroke:rgb(200,113,55);stroke-width:1" /><circle cx="30" cy="240.445" r="2" style="fill:rgb(200,113,55);stroke:none;fill-opacity:1;stroke-opacity:1;" /><rect x="676" y="16" width="80" height="238" ry="4" style="fill:rgb(30,30,30);stroke:none;fill-opacity:0.8;stroke-opacity:1;" /><rect x="680" y="20" width="20" height="20" ry="2" style="fill:rgb(253,127,111);stroke:none;fill-opacity:1;stroke-opacity:1;" /><text x="705" y="33" style="font-size:10px;fill:rgb(255,255,255);text-anchor:start;text-align:left;"> fwd-diff </text><rect x="680" y="41" width="20" height="20" ry="2" style="fill:rgb(255,181,90);stroke:none;fill-opacity:1;stroke-opacity:1;" /><text x="705" y="54" style="font-size:10px;fill:rgb(255,255,255);text-anchor:start;text-align:left;"> hain </text><rect x="680" y="62" width="20" height="20" ry="2" style="fill:rgb(50,125,209);stroke:none;fill-opacity:1;stroke-opacity:1;" /><text x="705" y="75" style="font-size:10px;fill:rgb(255,255,255);text-anchor:start;text-align:left;"> levien </text><rect x="680" y="83" width="20" height="20" ry="2" style="fill:rgb(119,211,179);stroke:none;fill-opacity:1;stroke-opacity:1;" /><text x="705" y="96" style="font-size:10px;fill:rgb(255,255,255);text-anchor:start;text-align:left;"> levien-linear </text><rect x="680" y="104" width="20" height="20" ry="2" style="fill:rgb(126,176,213);stroke:none;fill-opacity:1;stroke-opacity:1;" /><text x="705" y="117" style="font-size:10px;fill:rgb(255,255,255);text-anchor:start;text-align:left;"> levien-simd </text><rect x="680" y="125" width="20" height="20" ry="2" style="fill:rgb(128,214,87);stroke:none;fill-opacity:1;stroke-opacity:1;" /><text x="705" y="138" style="font-size:10px;fill:rgb(255,255,255);text-anchor:start;text-align:left;"> linear </text><rect x="680" y="146" width="20" height="20" ry="2" style="fill:rgb(255,238,101);stroke:none;fill-opacity:1;stroke-opacity:1;" /><text x="705" y="159" style="font-size:10px;fill:rgb(255,255,255);text-anchor:start;text-align:left;"> recursive </text><rect x="680" y="167" width="20" height="20" ry="2" style="fill:rgb(253,204,229);stroke:none;fill-opacity:1;stroke-opacity:1;" /><text x="705" y="180" style="font-size:10px;fill:rgb(255,255,255);text-anchor:start;text-align:left;"> wang </text><rect x="680" y="188" width="20" height="20" ry="2" style="fill:rgb(199,126,190);stroke:none;fill-opacity:1;stroke-opacity:1;" /><text x="705" y="201" style="font-size:10px;fill:rgb(255,255,255);text-anchor:start;text-align:left;"> wang-simd </text><rect x="680" y="209" width="20" height="20" ry="2" style="fill:rgb(120,68,33);stroke:none;fill-opacity:1;stroke-opacity:1;" /><text x="705" y="222" style="font-size:10px;fill:rgb(255,255,255);text-anchor:start;text-align:left;"> yzerman </text><rect x="680" y="230" width="20" height="20" ry="2" style="fill:rgb(200,113,55);stroke:none;fill-opacity:1;stroke-opacity:1;" /><text x="705" y="243" style="font-size:10px;fill:rgb(255,255,255);text-anchor:start;text-align:left;"> yzerman-simd </text><text x="400" y="30" style="font-size:20px;fill:rgb(255,255,255);text-anchor:middle;text-align:center;"> tiger dataset: cubic </text><text x="400" y="42" style="font-size:8px;fill:rgb(200,200,200);text-anchor:middle;text-align:center;"> Normalized performance score (lower is better) </text></svg>