<svg xmlns="http://www.w3.org/2000/svg" viewBox="0 0 800 300"><rect x="0" y="0" width="800" height="300" ry="6" style="fill:rgb(30,30,30);stroke:none;fill-opacity:1;stroke-opacity:1;" /><path d="M 30 20 L 30 270" style="stroke:rgb(200,200,200);stroke-width:1" /><path d="M 30 270 L 780 270" style="stroke:rgb(200,200,200);stroke-width:1" /><path d="M 780 270 L 780 272" style="stroke:rgb(200,200,200);stroke-width:1" /><text x="780" y="282" style="font-size:10px;fill:rgb(200,200,200);text-anchor:middle;text-align:center;"> 0.01 </text><path d="M 630.77246 270 L 630.77246 272" style="stroke:rgb(200,200,200);stroke-width:1" /><text x="630.77246" y="282" style="font-size:10px;fill:rgb(200,200,200);text-anchor:middle;text-align:center;"> 0.025 </text><path d="M 517.8862 270 L 517.8862 272" style="stroke:rgb(200,200,200);stroke-width:1" /><text x="517.8862" y="282" style="font-size:10px;fill:rgb(200,200,200);text-anchor:middle;text-align:center;"> 0.05 </text><path d="M 451.85202 270 L 451.85202 272" style="stroke:rgb(200,200,200);stroke-width:1" /><text x="451.85202" y="282" style="font-size:10px;fill:rgb(200,200,200);text-anchor:middle;text-align:center;"> 0.075 </text><path d="M 405 270 L 405 272" style="stroke:rgb(200,200,200);stroke-width:1" /><text x="405" y="282" style="font-size:10px;fill:rgb(200,200,200);text-anchor:middle;text-align:center;"> 0.1 </text><path d="M 338.96576 270 L 338.96576 272" style="stroke:rgb(200,200,200);stroke-width:1" /><text x="338.96576" y="282" style="font-size:10px;fill:rgb(200,200,200);text-anchor:middle;text-align:center;"> 0.15 </text><path d="M 292.11377 270 L 292.11377 272" style="stroke:rgb(200,200,200);stroke-width:1" /><text x="292.11377" y="282" style="font-size:10px;fill:rgb(200,200,200);text-anchor:middle;text-align:center;"> 0.2 </text><path d="M 255.7725 270 L 255.7725 272" style="stroke:rgb(200,200,200);stroke-width:1" /><text x="255.7725" y="282" style="font-size:10px;fill:rgb(200,200,200);text-anchor:middle;text-align:center;"> 0.25 </text><path d="M 142.88626 270 L 142.88626 272" style="stroke:rgb(200,200,200);stroke-width:1" /><text x="142.88626" y="282" style="font-size:10px;fill:rgb(200,200,200);text-anchor:middle;text-align:center;"> 0.5 </text><path d="M 30 270 L 30 272" style="stroke:rgb(200,200,200);stroke-width:1" /><text x="30" y="282" style="font-size:10px;fill:rgb(200,200,200);text-anchor:middle;text-align:center;"> 1 </text><path d="M 28 270 L 30 270" style="stroke:rgb(200,200,200);stroke-width:1" /><text x="26" y="274" style="font-size:10px;fill:rgb(200,200,200);text-anchor:end;text-align:right;"> 0 </text><path d="M 28 207.5 L 30 207.5" style="stroke:rgb(200,200,200);stroke-width:1" /><text x="26" y="211.5" style="font-size:10px;fill:rgb(200,200,200);text-anchor:end;text-align:right;"> 0.25 </text><path d="M 28 145 L 30 145" style="stroke:rgb(200,200,200);stroke-width:1" /><text x="26" y="149" style="font-size:10px;fill:rgb(200,200,200);text-anchor:end;text-align:right;"> 0.5 </text><path d="M 28 82.5 L 30 82.5" style="stroke:rgb(200,200,200);stroke-width:1" /><text x="26" y="86.5" style="font-size:10px;fill:rgb(200,200,200);text-anchor:end;text-align:right;"> 0.75 </text><path d="M 28 20 L 30 20" style="stroke:rgb(200,200,200);stroke-width:1" /><text x="26" y="24" style="font-size:10px;fill:rgb(200,200,200);text-anchor:end;text-align:right;"> 1 </text><text x="400" y="294" style="font-size:10px;fill:rgb(200,200,200);text-anchor:middle;text-align:center;"> Tolerance </text><circle cx="780" cy="191.6" r="2" style="fill:rgb(253,127,111);stroke:none;fill-opacity:1;stroke-opacity:1;" /><path d="M 780 191.6 L 630.77246 205.5275" style="stroke:rgb(253,127,111);stroke-width:1" /><circle cx="630.77246" cy="205.5275" r="2" style="fill:rgb(253,127,111);stroke:none;fill-opacity:1;stroke-opacity:1;" /><path d="M 630.77246 205.5275 L 517.8862 217.675" style="stroke:rgb(253,127,111);stroke-width:1" /><circle cx="517.8862" cy="217.675" r="2" style="fill:rgb(253,127,111);stroke:none;fill-opacity:1;stroke-opacity:1;" /><path d="M 517.8862 217.675 L 451.85202 220.85251" style="stroke:rgb(253,127,111);stroke-width:1" /><circle cx="451.85202" cy="220.85251" r="2" style="fill:rgb(253,127,111);stroke:none;fill-opacity:1;stroke-opacity:1;" /><path d="M 451.85202 220.85251 L 405 225.6325" style="stroke:rgb(253,127,111);stroke-width:1" /><circle cx="405" cy="225.6325" r="2" style="fill:rgb(253,127,111);stroke:none;fill-opacity:1;stroke-opacity:1;" /><path d="M 405 225.6325 L 338.96576 231.27249" style="stroke:rgb(253,127,111);stroke-width:1" /><circle cx="338.96576" cy="231.27249" r="2" style="fill:rgb(253,127,111);stroke:none;fill-opacity:1;stroke-opacity:1;" /><path d="M 338.96576 231.27249 L 292.11377 233.25" style="stroke:rgb(253,127,111);stroke-width:1" /><circle cx="292.11377" cy="233.25" r="2" style="fill:rgb(253,127,111);stroke:none;fill-opacity:1;stroke-opacity:1;" /><path d="M 292.11377 233.25 L 255.7725 232.3775" style="stroke:rgb(253,127,111);stroke-width:1" /><circle cx="255.7725" cy="232.3775" r="2" style="fill:rgb(253,127,111);stroke:none;fill-opacity:1;stroke-opacity:1;" /><path d="M 255.7725 232.3775 L 142.88626 234.975" style="stroke:rgb(253,127,111);stroke-width:1" /><circle cx="142.88626" cy="234.975" r="2" style="fill:rgb(253,127,111);stroke:none;fill-opacity:1;stroke-opacity:1;" /><path d="M 142.88626 234.975 L 30 235.215" style="stroke:rgb(253,127,111);stroke-width:1" /><circle cx="30" cy="235.215" r="2" style="fill:rgb(253,127,111);stroke:none;fill-opacity:1;stroke-opacity:1;" /><circle cx="780" cy="190.2125" r="2" style="fill:rgb(253,204,229);stroke:none;fill-opacity:1;stroke-opacity:1;" /><path d="M 780 190.2125 L 630.77246 208.4425" style="stroke:rgb(253,204,229);stroke-width:1" /><circle cx="630.77246" cy="208.4425" r="2" style="fill:rgb(253,204,229);stroke:none;fill-opacity:1;stroke-opacity:1;" /><path d="M 630.77246 208.4425 L 517.8862 217.365" style="stroke:rgb(253,204,229);stroke-width:1" /><circle cx="517.8862" cy="217.365" r="2" style="fill:rgb(253,204,229);stroke:none;fill-opacity:1;stroke-opacity:1;" /><path d="M 517.8862 217.365 L 451.85202 222.9425" style="stroke:rgb(253,204,229);stroke-width:1" /><circle cx="451.85202" cy="222.9425" r="2" style="fill:rgb(253,204,229);stroke:none;fill-opacity:1;stroke-opacity:1;" /><path d="M 451.85202 222.9425 L 405 225.5325" style="stroke:rgb(253,204,229);stroke-width:1" /><circle cx="405" cy="225.5325" r="2" style="fill:rgb(253,204,229);stroke:none;fill-opacity:1;stroke-opacity:1;" /><path d="M 405 225.5325 L 338.96576 231.765" style="stroke:rgb(253,204,229);stroke-width:1" /><circle cx="338.96576" cy="231.765" r="2" style="fill:rgb(253,204,229);stroke:none;fill-opacity:1;stroke-opacity:1;" /><path d="M 338.96576 231.765 L 292.11377 231.1275" style="stroke:rgb(253,204,229);stroke-width:1" /><circle cx="292.11377" cy="231.1275" r="2" style="fill:rgb(253,204,229);stroke:none;fill-opacity:1;stroke-opacity:1;" /><path d="M 292.11377 231.1275 L 255.7725 231.5825" style="stroke:rgb(253,204,229);stroke-width:1" /><circle cx="255.7725" cy="231.5825" r="2" style="fill:rgb(253,204,229);stroke:none;fill-opacity:1;stroke-opacity:1;" /><path d="M 255.7725 231.5825 L 142.88626 234.975" style="stroke:rgb(253,204,229);stroke-width:1" /><circle cx="142.88626" cy="234.975" r="2" style="fill:rgb(253,204,229);stroke:none;fill-opacity:1;stroke-opacity:1;" /><path d="M 142.88626 234.975 L 30 234.6875" style="stroke:rgb(253,204,229);stroke-width:1" /><circle cx="30" cy="234.6875" r="2" style="fill:rgb(253,204,229);stroke:none;fill-opacity:1;stroke-opacity:1;" /><circle cx="780" cy="20" r="2" style="fill:rgb(50,125,209);stroke:none;fill-opacity:1;stroke-opacity:1;" /><path d="M 780 20 L 630.77246 59.384995" style="stroke:rgb(50,125,209);stroke-width:1" /><circle cx="630.77246" cy="59.384995" r="2" style="fill:rgb(50,125,209);stroke:none;fill-opacity:1;stroke-opacity:1;" /><path d="M 630.77246 59.384995 L 517.8862 85.774994" style="stroke:rgb(50,125,209);stroke-width:1" /><circle cx="517.8862" cy="85.774994" r="2" style="fill:rgb(50,125,209);stroke:none;fill-opacity:1;stroke-opacity:1;" /><path d="M 517.8862 85.774994 L 451.85202 88.927505" style="stroke:rgb(50,125,209);stroke-width:1" /><circle cx="451.85202" cy="88.927505" r="2" style="fill:rgb(50,125,209);stroke:none;fill-opacity:1;stroke-opacity:1;" /><path d="M 451.85202 88.927505 L 405 102.95" style="stroke:rgb(50,125,209);stroke-width:1" /><circle cx="405" cy="102.95" r="2" style="fill:rgb(50,125,209);stroke:none;fill-opacity:1;stroke-opacity:1;" /><path d="M 405 102.95 L 338.96576 106.697495" style="stroke:rgb(50,125,209);stroke-width:1" /><circle cx="338.96576" cy="106.697495" r="2" style="fill:rgb(50,125,209);stroke:none;fill-opacity:1;stroke-opacity:1;" /><path d="M 338.96576 106.697495 L 292.11377 93.677505" style="stroke:rgb(50,125,209);stroke-width:1" /><circle cx="292.11377" cy="93.677505" r="2" style="fill:rgb(50,125,209);stroke:none;fill-opacity:1;stroke-opacity:1;" /><path d="M 292.11377 93.677505 L 255.7725 109.06" style="stroke:rgb(50,125,209);stroke-width:1" /><circle cx="255.7725" cy="109.06" r="2" style="fill:rgb(50,125,209);stroke:none;fill-opacity:1;stroke-opacity:1;" /><path d="M 255.7725 109.06 L 142.88626 111.0325" style="stroke:rgb(50,125,209);stroke-width:1" /><circle cx="142.88626" cy="111.0325" r="2" style="fill:rgb(50,125,209);stroke:none;fill-opacity:1;stroke-opacity:1;" /><path d="M 142.88626 111.0325 L 30 99.8875" style="stroke:rgb(50,125,209);stroke-width:1" /><circle cx="30" cy="99.8875" r="2" style="fill:rgb(50,125,209);stroke:none;fill-opacity:1;stroke-opacity:1;" /><circle cx="780" cy="121.28999" r="2" style="fill:rgb(126,176,213);stroke:none;fill-opacity:1;stroke-opacity:1;" /><path d="M 780 121.28999 L 630.77246 145.4075" style="stroke:rgb(126,176,213);stroke-width:1" /><circle cx="630.77246" cy="145.4075" r="2" style="fill:rgb(126,176,213);stroke:none;fill-opacity:1;stroke-opacity:1;" /><path d="M 630.77246 145.4075 L 517.8862 161.42" style="stroke:rgb(126,176,213);stroke-width:1" /><circle cx="517.8862" cy="161.42" r="2" style="fill:rgb(126,176,213);stroke:none;fill-opacity:1;stroke-opacity:1;" /><path d="M 517.8862 161.42 L 451.85202 171.255" style="stroke:rgb(126,176,213);stroke-width:1" /><circle cx="451.85202" cy="171.255" r="2" style="fill:rgb(126,176,213);stroke:none;fill-opacity:1;stroke-opacity:1;" /><path d="M 451.85202 171.255 L 405 176.2475" style="stroke:rgb(126,176,213);stroke-width:1" /><circle cx="405" cy="176.2475" r="2" style="fill:rgb(126,176,213);stroke:none;fill-opacity:1;stroke-opacity:1;" /><path d="M 405 176.2475 L 338.96576 176.2525" style="stroke:rgb(126,176,213);stroke-width:1" /><circle cx="338.96576" cy="176.2525" r="2" style="fill:rgb(126,176,213);stroke:none;fill-opacity:1;stroke-opacity:1;" /><path d="M 338.96576 176.2525 L 292.11377 180.6" style="stroke:rgb(126,176,213);stroke-width:1" /><circle cx="292.11377" cy="180.6" r="2" style="fill:rgb(126,176,213);stroke:none;fill-opacity:1;stroke-opacity:1;" /><path d="M 292.11377 180.6 L 255.7725 182.2475" style="stroke:rgb(126,176,213);stroke-width:1" /><circle cx="255.7725" cy="182.2475" r="2" style="fill:rgb(126,176,213);stroke:none;fill-opacity:1;stroke-opacity:1;" /><path d="M 255.7725 182.2475 L 142.88626 182.4125" style="stroke:rgb(126,176,213);stroke-width:1" /><circle cx="142.88626" cy="182.4125" r="2" style="fill:rgb(126,176,213);stroke:none;fill-opacity:1;stroke-opacity:1;" /><path d="M 142.88626 182.4125 L 30 181.7525" style="stroke:rgb(126,176,213);stroke-width:1" /><circle cx="30" cy="181.7525" r="2" style="fill:rgb(126,176,213);stroke:none;fill-opacity:1;stroke-opacity:1;" /><circle cx="780" cy="162.435" r="2" style="fill:rgb(255,238,101);stroke:none;fill-opacity:1;stroke-opacity:1;" /><path d="M 780 162.435 L 630.77246 211.9525" style="stroke:rgb(255,238,101);stroke-width:1" /><circle cx="630.77246" cy="211.9525" r="2" style="fill:rgb(255,238,101);stroke:none;fill-opacity:1;stroke-opacity:1;" /><path d="M 630.77246 211.9525 L 517.8862 228.9675" style="stroke:rgb(255,238,101);stroke-width:1" /><circle cx="517.8862" cy="228.9675" r="2" style="fill:rgb(255,238,101);stroke:none;fill-opacity:1;stroke-opacity:1;" /><path d="M 517.8862 228.9675 L 451.85202 238.0075" style="stroke:rgb(255,238,101);stroke-width:1" /><circle cx="451.85202" cy="238.0075" r="2" style="fill:rgb(255,238,101);stroke:none;fill-opacity:1;stroke-opacity:1;" /><path d="M 451.85202 238.0075 L 405 240.4325" style="stroke:rgb(255,238,101);stroke-width:1" /><circle cx="405" cy="240.4325" r="2" style="fill:rgb(255,238,101);stroke:none;fill-opacity:1;stroke-opacity:1;" /><path d="M 405 240.4325 L 338.96576 244.5" style="stroke:rgb(255,238,101);stroke-width:1" /><circle cx="338.96576" cy="244.5" r="2" style="fill:rgb(255,238,101);stroke:none;fill-opacity:1;stroke-opacity:1;" /><path d="M 338.96576 244.5 L 292.11377 245.20999" style="stroke:rgb(255,238,101);stroke-width:1" /><circle cx="292.11377" cy="245.20999" r="2" style="fill:rgb(255,238,101);stroke:none;fill-opacity:1;stroke-opacity:1;" /><path d="M 292.11377 245.20999 L 255.7725 246.4" style="stroke:rgb(255,238,101);stroke-width:1" /><circle cx="255.7725" cy="246.4" r="2" style="fill:rgb(255,238,101);stroke:none;fill-opacity:1;stroke-opacity:1;" /><path d="M 255.7725 246.4 L 142.88626 247.0725" style="stroke:rgb(255,238,101);stroke-width:1" /><circle cx="142.88626" cy="247.0725" r="2" style="fill:rgb(255,238,101);stroke:none;fill-opacity:1;stroke-opacity:1;" /><path d="M 142.88626 247.0725 L 30 248.1525" style="stroke:rgb(255,238,101);stroke-width:1" /><circle cx="30" cy="248.1525" r="2" style="fill:rgb(255,238,101);stroke:none;fill-opacity:1;stroke-opacity:1;" /><circle cx="780" cy="192.83" r="2" style="fill:rgb(128,214,87);stroke:none;fill-opacity:1;stroke-opacity:1;" /><path d="M 780 192.83 L 630.77246 225.42" style="stroke:rgb(128,214,87);stroke-width:1" /><circle cx="630.77246" cy="225.42" r="2" style="fill:rgb(128,214,87);stroke:none;fill-opacity:1;stroke-opacity:1;" /><path d="M 630.77246 225.42 L 517.8862 238.565" style="stroke:rgb(128,214,87);stroke-width:1" /><circle cx="517.8862" cy="238.565" r="2" style="fill:rgb(128,214,87);stroke:none;fill-opacity:1;stroke-opacity:1;" /><path d="M 517.8862 238.565 L 451.85202 243.7475" style="stroke:rgb(128,214,87);stroke-width:1" /><circle cx="451.85202" cy="243.7475" r="2" style="fill:rgb(128,214,87);stroke:none;fill-opacity:1;stroke-opacity:1;" /><path d="M 451.85202 243.7475 L 405 247.7975" style="stroke:rgb(128,214,87);stroke-width:1" /><circle cx="405" cy="247.7975" r="2" style="fill:rgb(128,214,87);stroke:none;fill-opacity:1;stroke-opacity:1;" /><path d="M 405 247.7975 L 338.96576 249.25" style="stroke:rgb(128,214,87);stroke-width:1" /><circle cx="338.96576" cy="249.25" r="2" style="fill:rgb(128,214,87);stroke:none;fill-opacity:1;stroke-opacity:1;" /><path d="M 338.96576 249.25 L 292.11377 250.245" style="stroke:rgb(128,214,87);stroke-width:1" /><circle cx="292.11377" cy="250.245" r="2" style="fill:rgb(128,214,87);stroke:none;fill-opacity:1;stroke-opacity:1;" /><path d="M 292.11377 250.245 L 255.7725 247.91501" style="stroke:rgb(128,214,87);stroke-width:1" /><circle cx="255.7725" cy="247.91501" r="2" style="fill:rgb(128,214,87);stroke:none;fill-opacity:1;stroke-opacity:1;" /><path d="M 255.7725 247.91501 L 142.88626 251.065" style="stroke:rgb(128,214,87);stroke-width:1" /><circle cx="142.88626" cy="251.065" r="2" style="fill:rgb(128,214,87);stroke:none;fill-opacity:1;stroke-opacity:1;" /><path d="M 142.88626 251.065 L 30 251.34" style="stroke:rgb(128,214,87);stroke-width:1" /><circle cx="30" cy="251.34" r="2" style="fill:rgb(128,214,87);stroke:none;fill-opacity:1;stroke-opacity:1;" /><rect x="676" y="16" width="80" height="133" ry="4" style="fill:rgb(30,30,30);stroke:none;fill-opacity:0.8;stroke-opacity:1;" /><rect x="680" y="20" width="20" height="20" ry="2" style="fill:rgb(253,127,111);stroke:none;fill-opacity:1;stroke-opacity:1;" /><text x="705" y="33" style="font-size:10px;fill:rgb(255,255,255);text-anchor:start;text-align:left;"> fwd-diff </text><rect x="680" y="41" width="20" height="20" ry="2" style="fill:rgb(50,125,209);stroke:none;fill-opacity:1;stroke-opacity:1;" /><text x="705" y="54" style="font-size:10px;fill:rgb(255,255,255);text-anchor:start;text-align:left;"> levien </text><rect x="680" y="62" width="20" height="20" ry="2" style="fill:rgb(126,176,213);stroke:none;fill-opacity:1;stroke-opacity:1;" /><text x="705" y="75" style="font-size:10px;fill:rgb(255,255,255);text-anchor:start;text-align:left;"> levien-simd </text><rect x="680" y="83" width="20" height="20" ry="2" style="fill:rgb(128,214,87);stroke:none;fill-opacity:1;stroke-opacity:1;" /><text x="705" y="96" style="font-size:10px;fill:rgb(255,255,255);text-anchor:start;text-align:left;"> linear </text><rect x="680" y="104" width="20" height="20" ry="2" style="fill:rgb(255,238,101);stroke:none;fill-opacity:1;stroke-opacity:1;" /><text x="705" y="117" style="font-size:10px;fill:rgb(255,255,255);text-anchor:start;text-align:left;"> recursive </text><rect x="680" y="125" width="20" height="20" ry="2" style="fill:rgb(253,204,229);stroke:none;fill-opacity:1;stroke-opacity:1;" /><text x="705" y="138" style="font-size:10px;fill:rgb(255,255,255);text-anchor:start;text-align:left;"> wang </text><text x="400" y="30" style="font-size:20px;fill:rgb(255,255,255);text-anchor:middle;text-align:center;"> font dataset: quadratic </text><text x="400" y="42" style="font-size:8px;fill:rgb(200,200,200);text-anchor:middle;text-align:center;"> Normalized performance score (lower is better) </text></svg>