<svg xmlns="http://www.w3.org/2000/svg" viewBox="0 0 800 300"><rect x="0" y="0" width="800" height="300" ry="6" style="fill:rgb(30,30,30);stroke:none;fill-opacity:1;stroke-opacity:1;" /><path d="M 30 20 L 30 270" style="stroke:rgb(200,200,200);stroke-width:1" /><path d="M 30 270 L 780 270" style="stroke:rgb(200,200,200);stroke-width:1" /><path d="M 780 270 L 780 272" style="stroke:rgb(200,200,200);stroke-width:1" /><text x="780" y="282" style="font-size:10px;fill:rgb(200,200,200);text-anchor:middle;text-align:center;"> 0.01 </text><path d="M 630.77246 270 L 630.77246 272" style="stroke:rgb(200,200,200);stroke-width:1" /><text x="630.77246" y="282" style="font-size:10px;fill:rgb(200,200,200);text-anchor:middle;text-align:center;"> 0.025 </text><path d="M 517.8862 270 L 517.8862 272" style="stroke:rgb(200,200,200);stroke-width:1" /><text x="517.8862" y="282" style="font-size:10px;fill:rgb(200,200,200);text-anchor:middle;text-align:center;"> 0.05 </text><path d="M 451.85202 270 L 451.85202 272" style="stroke:rgb(200,200,200);stroke-width:1" /><text x="451.85202" y="282" style="font-size:10px;fill:rgb(200,200,200);text-anchor:middle;text-align:center;"> 0.075 </text><path d="M 405 270 L 405 272" style="stroke:rgb(200,200,200);stroke-width:1" /><text x="405" y="282" style="font-size:10px;fill:rgb(200,200,200);text-anchor:middle;text-align:center;"> 0.1 </text><path d="M 338.96576 270 L 338.96576 272" style="stroke:rgb(200,200,200);stroke-width:1" /><text x="338.96576" y="282" style="font-size:10px;fill:rgb(200,200,200);text-anchor:middle;text-align:center;"> 0.15 </text><path d="M 292.11377 270 L 292.11377 272" style="stroke:rgb(200,200,200);stroke-width:1" /><text x="292.11377" y="282" style="font-size:10px;fill:rgb(200,200,200);text-anchor:middle;text-align:center;"> 0.2 </text><path d="M 255.7725 270 L 255.7725 272" style="stroke:rgb(200,200,200);stroke-width:1" /><text x="255.7725" y="282" style="font-size:10px;fill:rgb(200,200,200);text-anchor:middle;text-align:center;"> 0.25 </text><path d="M 142.88626 270 L 142.88626 272" style="stroke:rgb(200,200,200);stroke-width:1" /><text x="142.88626" y="282" style="font-size:10px;fill:rgb(200,200,200);text-anchor:middle;text-align:center;"> 0.5 </text><path d="M 30 270 L 30 272" style="stroke:rgb(200,200,200);stroke-width:1" /><text x="30" y="282" style="font-size:10px;fill:rgb(200,200,200);text-anchor:middle;text-align:center;"> 1 </text><path d="M 28 270 L 30 270" style="stroke:rgb(200,200,200);stroke-width:1" /><text x="26" y="274" style="font-size:10px;fill:rgb(200,200,200);text-anchor:end;text-align:right;"> 0 </text><path d="M 28 207.5 L 30 207.5" style="stroke:rgb(200,200,200);stroke-width:1" /><text x="26" y="211.5" style="font-size:10px;fill:rgb(200,200,200);text-anchor:end;text-align:right;"> 0.25 </text><path d="M 28 145 L 30 145" style="stroke:rgb(200,200,200);stroke-width:1" /><text x="26" y="149" style="font-size:10px;fill:rgb(200,200,200);text-anchor:end;text-align:right;"> 0.5 </text><path d="M 28 82.5 L 30 82.5" style="stroke:rgb(200,200,200);stroke-width:1" /><text x="26" y="86.5" style="font-size:10px;fill:rgb(200,200,200);text-anchor:end;text-align:right;"> 0.75 </text><path d="M 28 20 L 30 20" style="stroke:rgb(200,200,200);stroke-width:1" /><text x="26" y="24" style="font-size:10px;fill:rgb(200,200,200);text-anchor:end;text-align:right;"> 1 </text><text x="400" y="294" style="font-size:10px;fill:rgb(200,200,200);text-anchor:middle;text-align:center;"> Tolerance </text><circle cx="780" cy="253.215" r="2" style="fill:rgb(253,127,111);stroke:none;fill-opacity:1;stroke-opacity:1;" /><path d="M 780 253.215 L 630.77246 257.5825" style="stroke:rgb(253,127,111);stroke-width:1" /><circle cx="630.77246" cy="257.5825" r="2" style="fill:rgb(253,127,111);stroke:none;fill-opacity:1;stroke-opacity:1;" /><path d="M 630.77246 257.5825 L 517.8862 259.8475" style="stroke:rgb(253,127,111);stroke-width:1" /><circle cx="517.8862" cy="259.8475" r="2" style="fill:rgb(253,127,111);stroke:none;fill-opacity:1;stroke-opacity:1;" /><path d="M 517.8862 259.8475 L 451.85202 260.7075" style="stroke:rgb(253,127,111);stroke-width:1" /><circle cx="451.85202" cy="260.7075" r="2" style="fill:rgb(253,127,111);stroke:none;fill-opacity:1;stroke-opacity:1;" /><path d="M 451.85202 260.7075 L 405 261.0825" style="stroke:rgb(253,127,111);stroke-width:1" /><circle cx="405" cy="261.0825" r="2" style="fill:rgb(253,127,111);stroke:none;fill-opacity:1;stroke-opacity:1;" /><path d="M 405 261.0825 L 338.96576 262.2525" style="stroke:rgb(253,127,111);stroke-width:1" /><circle cx="338.96576" cy="262.2525" r="2" style="fill:rgb(253,127,111);stroke:none;fill-opacity:1;stroke-opacity:1;" /><path d="M 338.96576 262.2525 L 292.11377 262.6925" style="stroke:rgb(253,127,111);stroke-width:1" /><circle cx="292.11377" cy="262.6925" r="2" style="fill:rgb(253,127,111);stroke:none;fill-opacity:1;stroke-opacity:1;" /><path d="M 292.11377 262.6925 L 255.7725 263.2625" style="stroke:rgb(253,127,111);stroke-width:1" /><circle cx="255.7725" cy="263.2625" r="2" style="fill:rgb(253,127,111);stroke:none;fill-opacity:1;stroke-opacity:1;" /><path d="M 255.7725 263.2625 L 142.88626 264.1325" style="stroke:rgb(253,127,111);stroke-width:1" /><circle cx="142.88626" cy="264.1325" r="2" style="fill:rgb(253,127,111);stroke:none;fill-opacity:1;stroke-opacity:1;" /><path d="M 142.88626 264.1325 L 30 265.1" style="stroke:rgb(253,127,111);stroke-width:1" /><circle cx="30" cy="265.1" r="2" style="fill:rgb(253,127,111);stroke:none;fill-opacity:1;stroke-opacity:1;" /><circle cx="780" cy="216.615" r="2" style="fill:rgb(119,211,179);stroke:none;fill-opacity:1;stroke-opacity:1;" /><path d="M 780 216.615 L 630.77246 232.49" style="stroke:rgb(119,211,179);stroke-width:1" /><circle cx="630.77246" cy="232.49" r="2" style="fill:rgb(119,211,179);stroke:none;fill-opacity:1;stroke-opacity:1;" /><path d="M 630.77246 232.49 L 517.8862 239.94" style="stroke:rgb(119,211,179);stroke-width:1" /><circle cx="517.8862" cy="239.94" r="2" style="fill:rgb(119,211,179);stroke:none;fill-opacity:1;stroke-opacity:1;" /><path d="M 517.8862 239.94 L 451.85202 243.70999" style="stroke:rgb(119,211,179);stroke-width:1" /><circle cx="451.85202" cy="243.70999" r="2" style="fill:rgb(119,211,179);stroke:none;fill-opacity:1;stroke-opacity:1;" /><path d="M 451.85202 243.70999 L 405 246.985" style="stroke:rgb(119,211,179);stroke-width:1" /><circle cx="405" cy="246.985" r="2" style="fill:rgb(119,211,179);stroke:none;fill-opacity:1;stroke-opacity:1;" /><path d="M 405 246.985 L 338.96576 249.035" style="stroke:rgb(119,211,179);stroke-width:1" /><circle cx="338.96576" cy="249.035" r="2" style="fill:rgb(119,211,179);stroke:none;fill-opacity:1;stroke-opacity:1;" /><path d="M 338.96576 249.035 L 292.11377 250.975" style="stroke:rgb(119,211,179);stroke-width:1" /><circle cx="292.11377" cy="250.975" r="2" style="fill:rgb(119,211,179);stroke:none;fill-opacity:1;stroke-opacity:1;" /><path d="M 292.11377 250.975 L 255.7725 252.785" style="stroke:rgb(119,211,179);stroke-width:1" /><circle cx="255.7725" cy="252.785" r="2" style="fill:rgb(119,211,179);stroke:none;fill-opacity:1;stroke-opacity:1;" /><path d="M 255.7725 252.785 L 142.88626 256.095" style="stroke:rgb(119,211,179);stroke-width:1" /><circle cx="142.88626" cy="256.095" r="2" style="fill:rgb(119,211,179);stroke:none;fill-opacity:1;stroke-opacity:1;" /><path d="M 142.88626 256.095 L 30 259.1325" style="stroke:rgb(119,211,179);stroke-width:1" /><circle cx="30" cy="259.1325" r="2" style="fill:rgb(119,211,179);stroke:none;fill-opacity:1;stroke-opacity:1;" /><circle cx="780" cy="245.075" r="2" style="fill:rgb(200,113,55);stroke:none;fill-opacity:1;stroke-opacity:1;" /><path d="M 780 245.075 L 630.77246 247.2075" style="stroke:rgb(200,113,55);stroke-width:1" /><circle cx="630.77246" cy="247.2075" r="2" style="fill:rgb(200,113,55);stroke:none;fill-opacity:1;stroke-opacity:1;" /><path d="M 630.77246 247.2075 L 517.8862 249.7225" style="stroke:rgb(200,113,55);stroke-width:1" /><circle cx="517.8862" cy="249.7225" r="2" style="fill:rgb(200,113,55);stroke:none;fill-opacity:1;stroke-opacity:1;" /><path d="M 517.8862 249.7225 L 451.85202 250.4025" style="stroke:rgb(200,113,55);stroke-width:1" /><circle cx="451.85202" cy="250.4025" r="2" style="fill:rgb(200,113,55);stroke:none;fill-opacity:1;stroke-opacity:1;" /><path d="M 451.85202 250.4025 L 405 250.68" style="stroke:rgb(200,113,55);stroke-width:1" /><circle cx="405" cy="250.68" r="2" style="fill:rgb(200,113,55);stroke:none;fill-opacity:1;stroke-opacity:1;" /><path d="M 405 250.68 L 338.96576 251.2175" style="stroke:rgb(200,113,55);stroke-width:1" /><circle cx="338.96576" cy="251.2175" r="2" style="fill:rgb(200,113,55);stroke:none;fill-opacity:1;stroke-opacity:1;" /><path d="M 338.96576 251.2175 L 292.11377 252.715" style="stroke:rgb(200,113,55);stroke-width:1" /><circle cx="292.11377" cy="252.715" r="2" style="fill:rgb(200,113,55);stroke:none;fill-opacity:1;stroke-opacity:1;" /><path d="M 292.11377 252.715 L 255.7725 252.19" style="stroke:rgb(200,113,55);stroke-width:1" /><circle cx="255.7725" cy="252.19" r="2" style="fill:rgb(200,113,55);stroke:none;fill-opacity:1;stroke-opacity:1;" /><path d="M 255.7725 252.19 L 142.88626 253.91" style="stroke:rgb(200,113,55);stroke-width:1" /><circle cx="142.88626" cy="253.91" r="2" style="fill:rgb(200,113,55);stroke:none;fill-opacity:1;stroke-opacity:1;" /><path d="M 142.88626 253.91 L 30 254.53" style="stroke:rgb(200,113,55);stroke-width:1" /><circle cx="30" cy="254.53" r="2" style="fill:rgb(200,113,55);stroke:none;fill-opacity:1;stroke-opacity:1;" /><circle cx="780" cy="166.095" r="2" style="fill:rgb(50,125,209);stroke:none;fill-opacity:1;stroke-opacity:1;" /><path d="M 780 166.095 L 630.77246 195.825" style="stroke:rgb(50,125,209);stroke-width:1" /><circle cx="630.77246" cy="195.825" r="2" style="fill:rgb(50,125,209);stroke:none;fill-opacity:1;stroke-opacity:1;" /><path d="M 630.77246 195.825 L 517.8862 209.845" style="stroke:rgb(50,125,209);stroke-width:1" /><circle cx="517.8862" cy="209.845" r="2" style="fill:rgb(50,125,209);stroke:none;fill-opacity:1;stroke-opacity:1;" /><path d="M 517.8862 209.845 L 451.85202 213.2975" style="stroke:rgb(50,125,209);stroke-width:1" /><circle cx="451.85202" cy="213.2975" r="2" style="fill:rgb(50,125,209);stroke:none;fill-opacity:1;stroke-opacity:1;" /><path d="M 451.85202 213.2975 L 405 216.53" style="stroke:rgb(50,125,209);stroke-width:1" /><circle cx="405" cy="216.53" r="2" style="fill:rgb(50,125,209);stroke:none;fill-opacity:1;stroke-opacity:1;" /><path d="M 405 216.53 L 338.96576 222.87" style="stroke:rgb(50,125,209);stroke-width:1" /><circle cx="338.96576" cy="222.87" r="2" style="fill:rgb(50,125,209);stroke:none;fill-opacity:1;stroke-opacity:1;" /><path d="M 338.96576 222.87 L 292.11377 227.925" style="stroke:rgb(50,125,209);stroke-width:1" /><circle cx="292.11377" cy="227.925" r="2" style="fill:rgb(50,125,209);stroke:none;fill-opacity:1;stroke-opacity:1;" /><path d="M 292.11377 227.925 L 255.7725 229.02" style="stroke:rgb(50,125,209);stroke-width:1" /><circle cx="255.7725" cy="229.02" r="2" style="fill:rgb(50,125,209);stroke:none;fill-opacity:1;stroke-opacity:1;" /><path d="M 255.7725 229.02 L 142.88626 235.1225" style="stroke:rgb(50,125,209);stroke-width:1" /><circle cx="142.88626" cy="235.1225" r="2" style="fill:rgb(50,125,209);stroke:none;fill-opacity:1;stroke-opacity:1;" /><path d="M 142.88626 235.1225 L 30 239.61" style="stroke:rgb(50,125,209);stroke-width:1" /><circle cx="30" cy="239.61" r="2" style="fill:rgb(50,125,209);stroke:none;fill-opacity:1;stroke-opacity:1;" /><circle cx="780" cy="242.19" r="2" style="fill:rgb(120,68,33);stroke:none;fill-opacity:1;stroke-opacity:1;" /><path d="M 780 242.19 L 630.77246 245.8675" style="stroke:rgb(120,68,33);stroke-width:1" /><circle cx="630.77246" cy="245.8675" r="2" style="fill:rgb(120,68,33);stroke:none;fill-opacity:1;stroke-opacity:1;" /><path d="M 630.77246 245.8675 L 517.8862 247.14" style="stroke:rgb(120,68,33);stroke-width:1" /><circle cx="517.8862" cy="247.14" r="2" style="fill:rgb(120,68,33);stroke:none;fill-opacity:1;stroke-opacity:1;" /><path d="M 517.8862 247.14 L 451.85202 248.2525" style="stroke:rgb(120,68,33);stroke-width:1" /><circle cx="451.85202" cy="248.2525" r="2" style="fill:rgb(120,68,33);stroke:none;fill-opacity:1;stroke-opacity:1;" /><path d="M 451.85202 248.2525 L 405 249.75" style="stroke:rgb(120,68,33);stroke-width:1" /><circle cx="405" cy="249.75" r="2" style="fill:rgb(120,68,33);stroke:none;fill-opacity:1;stroke-opacity:1;" /><path d="M 405 249.75 L 338.96576 250.2675" style="stroke:rgb(120,68,33);stroke-width:1" /><circle cx="338.96576" cy="250.2675" r="2" style="fill:rgb(120,68,33);stroke:none;fill-opacity:1;stroke-opacity:1;" /><path d="M 338.96576 250.2675 L 292.11377 251.465" style="stroke:rgb(120,68,33);stroke-width:1" /><circle cx="292.11377" cy="251.465" r="2" style="fill:rgb(120,68,33);stroke:none;fill-opacity:1;stroke-opacity:1;" /><path d="M 292.11377 251.465 L 255.7725 252.4175" style="stroke:rgb(120,68,33);stroke-width:1" /><circle cx="255.7725" cy="252.4175" r="2" style="fill:rgb(120,68,33);stroke:none;fill-opacity:1;stroke-opacity:1;" /><path d="M 255.7725 252.4175 L 142.88626 253.1175" style="stroke:rgb(120,68,33);stroke-width:1" /><circle cx="142.88626" cy="253.1175" r="2" style="fill:rgb(120,68,33);stroke:none;fill-opacity:1;stroke-opacity:1;" /><path d="M 142.88626 253.1175 L 30 254.3225" style="stroke:rgb(120,68,33);stroke-width:1" /><circle cx="30" cy="254.3225" r="2" style="fill:rgb(120,68,33);stroke:none;fill-opacity:1;stroke-opacity:1;" /><circle cx="780" cy="69.509995" r="2" style="fill:rgb(255,238,101);stroke:none;fill-opacity:1;stroke-opacity:1;" /><path d="M 780 69.509995 L 630.77246 150.0025" style="stroke:rgb(255,238,101);stroke-width:1" /><circle cx="630.77246" cy="150.0025" r="2" style="fill:rgb(255,238,101);stroke:none;fill-opacity:1;stroke-opacity:1;" /><path d="M 630.77246 150.0025 L 517.8862 177.95" style="stroke:rgb(255,238,101);stroke-width:1" /><circle cx="517.8862" cy="177.95" r="2" style="fill:rgb(255,238,101);stroke:none;fill-opacity:1;stroke-opacity:1;" /><path d="M 517.8862 177.95 L 451.85202 194.36" style="stroke:rgb(255,238,101);stroke-width:1" /><circle cx="451.85202" cy="194.36" r="2" style="fill:rgb(255,238,101);stroke:none;fill-opacity:1;stroke-opacity:1;" /><path d="M 451.85202 194.36 L 405 208.9825" style="stroke:rgb(255,238,101);stroke-width:1" /><circle cx="405" cy="208.9825" r="2" style="fill:rgb(255,238,101);stroke:none;fill-opacity:1;stroke-opacity:1;" /><path d="M 405 208.9825 L 338.96576 217.61" style="stroke:rgb(255,238,101);stroke-width:1" /><circle cx="338.96576" cy="217.61" r="2" style="fill:rgb(255,238,101);stroke:none;fill-opacity:1;stroke-opacity:1;" /><path d="M 338.96576 217.61 L 292.11377 221.535" style="stroke:rgb(255,238,101);stroke-width:1" /><circle cx="292.11377" cy="221.535" r="2" style="fill:rgb(255,238,101);stroke:none;fill-opacity:1;stroke-opacity:1;" /><path d="M 292.11377 221.535 L 255.7725 227.55" style="stroke:rgb(255,238,101);stroke-width:1" /><circle cx="255.7725" cy="227.55" r="2" style="fill:rgb(255,238,101);stroke:none;fill-opacity:1;stroke-opacity:1;" /><path d="M 255.7725 227.55 L 142.88626 242.1775" style="stroke:rgb(255,238,101);stroke-width:1" /><circle cx="142.88626" cy="242.1775" r="2" style="fill:rgb(255,238,101);stroke:none;fill-opacity:1;stroke-opacity:1;" /><path d="M 142.88626 242.1775 L 30 249.1525" style="stroke:rgb(255,238,101);stroke-width:1" /><circle cx="30" cy="249.1525" r="2" style="fill:rgb(255,238,101);stroke:none;fill-opacity:1;stroke-opacity:1;" /><circle cx="780" cy="20" r="2" style="fill:rgb(128,214,87);stroke:none;fill-opacity:1;stroke-opacity:1;" /><path d="M 780 20 L 630.77246 110.7975" style="stroke:rgb(128,214,87);stroke-width:1" /><circle cx="630.77246" cy="110.7975" r="2" style="fill:rgb(128,214,87);stroke:none;fill-opacity:1;stroke-opacity:1;" /><path d="M 630.77246 110.7975 L 517.8862 158.5775" style="stroke:rgb(128,214,87);stroke-width:1" /><circle cx="517.8862" cy="158.5775" r="2" style="fill:rgb(128,214,87);stroke:none;fill-opacity:1;stroke-opacity:1;" /><path d="M 517.8862 158.5775 L 451.85202 181.32" style="stroke:rgb(128,214,87);stroke-width:1" /><circle cx="451.85202" cy="181.32" r="2" style="fill:rgb(128,214,87);stroke:none;fill-opacity:1;stroke-opacity:1;" /><path d="M 451.85202 181.32 L 405 190.86" style="stroke:rgb(128,214,87);stroke-width:1" /><circle cx="405" cy="190.86" r="2" style="fill:rgb(128,214,87);stroke:none;fill-opacity:1;stroke-opacity:1;" /><path d="M 405 190.86 L 338.96576 207.3975" style="stroke:rgb(128,214,87);stroke-width:1" /><circle cx="338.96576" cy="207.3975" r="2" style="fill:rgb(128,214,87);stroke:none;fill-opacity:1;stroke-opacity:1;" /><path d="M 338.96576 207.3975 L 292.11377 214.68" style="stroke:rgb(128,214,87);stroke-width:1" /><circle cx="292.11377" cy="214.68" r="2" style="fill:rgb(128,214,87);stroke:none;fill-opacity:1;stroke-opacity:1;" /><path d="M 292.11377 214.68 L 255.7725 221.9175" style="stroke:rgb(128,214,87);stroke-width:1" /><circle cx="255.7725" cy="221.9175" r="2" style="fill:rgb(128,214,87);stroke:none;fill-opacity:1;stroke-opacity:1;" /><path d="M 255.7725 221.9175 L 142.88626 236.33499" style="stroke:rgb(128,214,87);stroke-width:1" /><circle cx="142.88626" cy="236.33499" r="2" style="fill:rgb(128,214,87);stroke:none;fill-opacity:1;stroke-opacity:1;" /><path d="M 142.88626 236.33499 L 30 245.365" style="stroke:rgb(128,214,87);stroke-width:1" /><circle cx="30" cy="245.365" r="2" style="fill:rgb(128,214,87);stroke:none;fill-opacity:1;stroke-opacity:1;" /><circle cx="780" cy="251.8925" r="2" style="fill:rgb(253,204,229);stroke:none;fill-opacity:1;stroke-opacity:1;" /><path d="M 780 251.8925 L 630.77246 256.62" style="stroke:rgb(253,204,229);stroke-width:1" /><circle cx="630.77246" cy="256.62" r="2" style="fill:rgb(253,204,229);stroke:none;fill-opacity:1;stroke-opacity:1;" /><path d="M 630.77246 256.62 L 517.8862 259.015" style="stroke:rgb(253,204,229);stroke-width:1" /><circle cx="517.8862" cy="259.015" r="2" style="fill:rgb(253,204,229);stroke:none;fill-opacity:1;stroke-opacity:1;" /><path d="M 517.8862 259.015 L 451.85202 260.4675" style="stroke:rgb(253,204,229);stroke-width:1" /><circle cx="451.85202" cy="260.4675" r="2" style="fill:rgb(253,204,229);stroke:none;fill-opacity:1;stroke-opacity:1;" /><path d="M 451.85202 260.4675 L 405 261.145" style="stroke:rgb(253,204,229);stroke-width:1" /><circle cx="405" cy="261.145" r="2" style="fill:rgb(253,204,229);stroke:none;fill-opacity:1;stroke-opacity:1;" /><path d="M 405 261.145 L 338.96576 261.7425" style="stroke:rgb(253,204,229);stroke-width:1" /><circle cx="338.96576" cy="261.7425" r="2" style="fill:rgb(253,204,229);stroke:none;fill-opacity:1;stroke-opacity:1;" /><path d="M 338.96576 261.7425 L 292.11377 262.74" style="stroke:rgb(253,204,229);stroke-width:1" /><circle cx="292.11377" cy="262.74" r="2" style="fill:rgb(253,204,229);stroke:none;fill-opacity:1;stroke-opacity:1;" /><path d="M 292.11377 262.74 L 255.7725 262.895" style="stroke:rgb(253,204,229);stroke-width:1" /><circle cx="255.7725" cy="262.895" r="2" style="fill:rgb(253,204,229);stroke:none;fill-opacity:1;stroke-opacity:1;" /><path d="M 255.7725 262.895 L 142.88626 264.445" style="stroke:rgb(253,204,229);stroke-width:1" /><circle cx="142.88626" cy="264.445" r="2" style="fill:rgb(253,204,229);stroke:none;fill-opacity:1;stroke-opacity:1;" /><path d="M 142.88626 264.445 L 30 265.2675" style="stroke:rgb(253,204,229);stroke-width:1" /><circle cx="30" cy="265.2675" r="2" style="fill:rgb(253,204,229);stroke:none;fill-opacity:1;stroke-opacity:1;" /><circle cx="780" cy="34.197495" r="2" style="fill:rgb(255,181,90);stroke:none;fill-opacity:1;stroke-opacity:1;" /><path d="M 780 34.197495 L 630.77246 109.1725" style="stroke:rgb(255,181,90);stroke-width:1" /><circle cx="630.77246" cy="109.1725" r="2" style="fill:rgb(255,181,90);stroke:none;fill-opacity:1;stroke-opacity:1;" /><path d="M 630.77246 109.1725 L 517.8862 144.0425" style="stroke:rgb(255,181,90);stroke-width:1" /><circle cx="517.8862" cy="144.0425" r="2" style="fill:rgb(255,181,90);stroke:none;fill-opacity:1;stroke-opacity:1;" /><path d="M 517.8862 144.0425 L 451.85202 164.30249" style="stroke:rgb(255,181,90);stroke-width:1" /><circle cx="451.85202" cy="164.30249" r="2" style="fill:rgb(255,181,90);stroke:none;fill-opacity:1;stroke-opacity:1;" /><path d="M 451.85202 164.30249 L 405 171.83" style="stroke:rgb(255,181,90);stroke-width:1" /><circle cx="405" cy="171.83" r="2" style="fill:rgb(255,181,90);stroke:none;fill-opacity:1;stroke-opacity:1;" /><path d="M 405 171.83 L 338.96576 178.16501" style="stroke:rgb(255,181,90);stroke-width:1" /><circle cx="338.96576" cy="178.16501" r="2" style="fill:rgb(255,181,90);stroke:none;fill-opacity:1;stroke-opacity:1;" /><path d="M 338.96576 178.16501 L 292.11377 178.1825" style="stroke:rgb(255,181,90);stroke-width:1" /><circle cx="292.11377" cy="178.1825" r="2" style="fill:rgb(255,181,90);stroke:none;fill-opacity:1;stroke-opacity:1;" /><path d="M 292.11377 178.1825 L 255.7725 174.2675" style="stroke:rgb(255,181,90);stroke-width:1" /><circle cx="255.7725" cy="174.2675" r="2" style="fill:rgb(255,181,90);stroke:none;fill-opacity:1;stroke-opacity:1;" /><path d="M 255.7725 174.2675 L 142.88626 201.2525" style="stroke:rgb(255,181,90);stroke-width:1" /><circle cx="142.88626" cy="201.2525" r="2" style="fill:rgb(255,181,90);stroke:none;fill-opacity:1;stroke-opacity:1;" /><path d="M 142.88626 201.2525 L 30 217.95" style="stroke:rgb(255,181,90);stroke-width:1" /><circle cx="30" cy="217.95" r="2" style="fill:rgb(255,181,90);stroke:none;fill-opacity:1;stroke-opacity:1;" /><circle cx="780" cy="256.5475" r="2" style="fill:rgb(199,126,190);stroke:none;fill-opacity:1;stroke-opacity:1;" /><path d="M 780 256.5475 L 630.77246 259.485" style="stroke:rgb(199,126,190);stroke-width:1" /><circle cx="630.77246" cy="259.485" r="2" style="fill:rgb(199,126,190);stroke:none;fill-opacity:1;stroke-opacity:1;" /><path d="M 630.77246 259.485 L 517.8862 261.095" style="stroke:rgb(199,126,190);stroke-width:1" /><circle cx="517.8862" cy="261.095" r="2" style="fill:rgb(199,126,190);stroke:none;fill-opacity:1;stroke-opacity:1;" /><path d="M 517.8862 261.095 L 451.85202 262.0075" style="stroke:rgb(199,126,190);stroke-width:1" /><circle cx="451.85202" cy="262.0075" r="2" style="fill:rgb(199,126,190);stroke:none;fill-opacity:1;stroke-opacity:1;" /><path d="M 451.85202 262.0075 L 405 262.6425" style="stroke:rgb(199,126,190);stroke-width:1" /><circle cx="405" cy="262.6425" r="2" style="fill:rgb(199,126,190);stroke:none;fill-opacity:1;stroke-opacity:1;" /><path d="M 405 262.6425 L 338.96576 262.955" style="stroke:rgb(199,126,190);stroke-width:1" /><circle cx="338.96576" cy="262.955" r="2" style="fill:rgb(199,126,190);stroke:none;fill-opacity:1;stroke-opacity:1;" /><path d="M 338.96576 262.955 L 292.11377 263.3775" style="stroke:rgb(199,126,190);stroke-width:1" /><circle cx="292.11377" cy="263.3775" r="2" style="fill:rgb(199,126,190);stroke:none;fill-opacity:1;stroke-opacity:1;" /><path d="M 292.11377 263.3775 L 255.7725 263.945" style="stroke:rgb(199,126,190);stroke-width:1" /><circle cx="255.7725" cy="263.945" r="2" style="fill:rgb(199,126,190);stroke:none;fill-opacity:1;stroke-opacity:1;" /><path d="M 255.7725 263.945 L 142.88626 264.745" style="stroke:rgb(199,126,190);stroke-width:1" /><circle cx="142.88626" cy="264.745" r="2" style="fill:rgb(199,126,190);stroke:none;fill-opacity:1;stroke-opacity:1;" /><path d="M 142.88626 264.745 L 30 265.3075" style="stroke:rgb(199,126,190);stroke-width:1" /><circle cx="30" cy="265.3075" r="2" style="fill:rgb(199,126,190);stroke:none;fill-opacity:1;stroke-opacity:1;" /><circle cx="780" cy="213.7875" r="2" style="fill:rgb(126,176,213);stroke:none;fill-opacity:1;stroke-opacity:1;" /><path d="M 780 213.7875 L 630.77246 223.685" style="stroke:rgb(126,176,213);stroke-width:1" /><circle cx="630.77246" cy="223.685" r="2" style="fill:rgb(126,176,213);stroke:none;fill-opacity:1;stroke-opacity:1;" /><path d="M 630.77246 223.685 L 517.8862 230.45999" style="stroke:rgb(126,176,213);stroke-width:1" /><circle cx="517.8862" cy="230.45999" r="2" style="fill:rgb(126,176,213);stroke:none;fill-opacity:1;stroke-opacity:1;" /><path d="M 517.8862 230.45999 L 451.85202 233.785" style="stroke:rgb(126,176,213);stroke-width:1" /><circle cx="451.85202" cy="233.785" r="2" style="fill:rgb(126,176,213);stroke:none;fill-opacity:1;stroke-opacity:1;" /><path d="M 451.85202 233.785 L 405 235.2525" style="stroke:rgb(126,176,213);stroke-width:1" /><circle cx="405" cy="235.2525" r="2" style="fill:rgb(126,176,213);stroke:none;fill-opacity:1;stroke-opacity:1;" /><path d="M 405 235.2525 L 338.96576 238.5675" style="stroke:rgb(126,176,213);stroke-width:1" /><circle cx="338.96576" cy="238.5675" r="2" style="fill:rgb(126,176,213);stroke:none;fill-opacity:1;stroke-opacity:1;" /><path d="M 338.96576 238.5675 L 292.11377 238.605" style="stroke:rgb(126,176,213);stroke-width:1" /><circle cx="292.11377" cy="238.605" r="2" style="fill:rgb(126,176,213);stroke:none;fill-opacity:1;stroke-opacity:1;" /><path d="M 292.11377 238.605 L 255.7725 239.9725" style="stroke:rgb(126,176,213);stroke-width:1" /><circle cx="255.7725" cy="239.9725" r="2" style="fill:rgb(126,176,213);stroke:none;fill-opacity:1;stroke-opacity:1;" /><path d="M 255.7725 239.9725 L 142.88626 241.65" style="stroke:rgb(126,176,213);stroke-width:1" /><circle cx="142.88626" cy="241.65" r="2" style="fill:rgb(126,176,213);stroke:none;fill-opacity:1;stroke-opacity:1;" /><path d="M 142.88626 241.65 L 30 244.1175" style="stroke:rgb(126,176,213);stroke-width:1" /><circle cx="30" cy="244.1175" r="2" style="fill:rgb(126,176,213);stroke:none;fill-opacity:1;stroke-opacity:1;" /><rect x="676" y="16" width="80" height="238" ry="4" style="fill:rgb(30,30,30);stroke:none;fill-opacity:0.8;stroke-opacity:1;" /><rect x="680" y="20" width="20" height="20" ry="2" style="fill:rgb(253,127,111);stroke:none;fill-opacity:1;stroke-opacity:1;" /><text x="705" y="33" style="font-size:10px;fill:rgb(255,255,255);text-anchor:start;text-align:left;"> fwd-diff </text><rect x="680" y="41" width="20" height="20" ry="2" style="fill:rgb(255,181,90);stroke:none;fill-opacity:1;stroke-opacity:1;" /><text x="705" y="54" style="font-size:10px;fill:rgb(255,255,255);text-anchor:start;text-align:left;"> hain </text><rect x="680" y="62" width="20" height="20" ry="2" style="fill:rgb(50,125,209);stroke:none;fill-opacity:1;stroke-opacity:1;" /><text x="705" y="75" style="font-size:10px;fill:rgb(255,255,255);text-anchor:start;text-align:left;"> levien </text><rect x="680" y="83" width="20" height="20" ry="2" style="fill:rgb(119,211,179);stroke:none;fill-opacity:1;stroke-opacity:1;" /><text x="705" y="96" style="font-size:10px;fill:rgb(255,255,255);text-anchor:start;text-align:left;"> levien-linear </text><rect x="680" y="104" width="20" height="20" ry="2" style="fill:rgb(126,176,213);stroke:none;fill-opacity:1;stroke-opacity:1;" /><text x="705" y="117" style="font-size:10px;fill:rgb(255,255,255);text-anchor:start;text-align:left;"> levien-simd </text><rect x="680" y="125" width="20" height="20" ry="2" style="fill:rgb(128,214,87);stroke:none;fill-opacity:1;stroke-opacity:1;" /><text x="705" y="138" style="font-size:10px;fill:rgb(255,255,255);text-anchor:start;text-align:left;"> linear </text><rect x="680" y="146" width="20" height="20" ry="2" style="fill:rgb(255,238,101);stroke:none;fill-opacity:1;stroke-opacity:1;" /><text x="705" y="159" style="font-size:10px;fill:rgb(255,255,255);text-anchor:start;text-align:left;"> recursive </text><rect x="680" y="167" width="20" height="20" ry="2" style="fill:rgb(253,204,229);stroke:none;fill-opacity:1;stroke-opacity:1;" /><text x="705" y="180" style="font-size:10px;fill:rgb(255,255,255);text-anchor:start;text-align:left;"> wang </text><rect x="680" y="188" width="20" height="20" ry="2" style="fill:rgb(199,126,190);stroke:none;fill-opacity:1;stroke-opacity:1;" /><text x="705" y="201" style="font-size:10px;fill:rgb(255,255,255);text-anchor:start;text-align:left;"> wang-simd </text><rect x="680" y="209" width="20" height="20" ry="2" style="fill:rgb(120,68,33);stroke:none;fill-opacity:1;stroke-opacity:1;" /><text x="705" y="222" style="font-size:10px;fill:rgb(255,255,255);text-anchor:start;text-align:left;"> yzerman </text><rect x="680" y="230" width="20" height="20" ry="2" style="fill:rgb(200,113,55);stroke:none;fill-opacity:1;stroke-opacity:1;" /><text x="705" y="243" style="font-size:10px;fill:rgb(255,255,255);text-anchor:start;text-align:left;"> yzerman-simd </text><text x="400" y="30" style="font-size:20px;fill:rgb(255,255,255);text-anchor:middle;text-align:center;"> all dataset: cubic </text><text x="400" y="42" style="font-size:8px;fill:rgb(200,200,200);text-anchor:middle;text-align:center;"> Normalized performance score (lower is better) </text></svg>