<svg xmlns="http://www.w3.org/2000/svg" viewBox="0 0 800 300"><rect x="0" y="0" width="800" height="300" ry="6" style="fill:rgb(30,30,30);stroke:none;fill-opacity:1;stroke-opacity:1;" /><path d="M 30 20 L 30 270" style="stroke:rgb(200,200,200);stroke-width:1" /><path d="M 30 270 L 780 270" style="stroke:rgb(200,200,200);stroke-width:1" /><path d="M 780 270 L 780 272" style="stroke:rgb(200,200,200);stroke-width:1" /><text x="780" y="282" style="font-size:10px;fill:rgb(200,200,200);text-anchor:middle;text-align:center;"> 0.01 </text><path d="M 630.77246 270 L 630.77246 272" style="stroke:rgb(200,200,200);stroke-width:1" /><text x="630.77246" y="282" style="font-size:10px;fill:rgb(200,200,200);text-anchor:middle;text-align:center;"> 0.025 </text><path d="M 517.8862 270 L 517.8862 272" style="stroke:rgb(200,200,200);stroke-width:1" /><text x="517.8862" y="282" style="font-size:10px;fill:rgb(200,200,200);text-anchor:middle;text-align:center;"> 0.05 </text><path d="M 451.85202 270 L 451.85202 272" style="stroke:rgb(200,200,200);stroke-width:1" /><text x="451.85202" y="282" style="font-size:10px;fill:rgb(200,200,200);text-anchor:middle;text-align:center;"> 0.075 </text><path d="M 405 270 L 405 272" style="stroke:rgb(200,200,200);stroke-width:1" /><text x="405" y="282" style="font-size:10px;fill:rgb(200,200,200);text-anchor:middle;text-align:center;"> 0.1 </text><path d="M 338.96576 270 L 338.96576 272" style="stroke:rgb(200,200,200);stroke-width:1" /><text x="338.96576" y="282" style="font-size:10px;fill:rgb(200,200,200);text-anchor:middle;text-align:center;"> 0.15 </text><path d="M 292.11377 270 L 292.11377 272" style="stroke:rgb(200,200,200);stroke-width:1" /><text x="292.11377" y="282" style="font-size:10px;fill:rgb(200,200,200);text-anchor:middle;text-align:center;"> 0.2 </text><path d="M 255.7725 270 L 255.7725 272" style="stroke:rgb(200,200,200);stroke-width:1" /><text x="255.7725" y="282" style="font-size:10px;fill:rgb(200,200,200);text-anchor:middle;text-align:center;"> 0.25 </text><path d="M 142.88626 270 L 142.88626 272" style="stroke:rgb(200,200,200);stroke-width:1" /><text x="142.88626" y="282" style="font-size:10px;fill:rgb(200,200,200);text-anchor:middle;text-align:center;"> 0.5 </text><path d="M 30 270 L 30 272" style="stroke:rgb(200,200,200);stroke-width:1" /><text x="30" y="282" style="font-size:10px;fill:rgb(200,200,200);text-anchor:middle;text-align:center;"> 1 </text><path d="M 28 270 L 30 270" style="stroke:rgb(200,200,200);stroke-width:1" /><text x="26" y="274" style="font-size:10px;fill:rgb(200,200,200);text-anchor:end;text-align:right;"> 0 </text><path d="M 28 207.5 L 30 207.5" style="stroke:rgb(200,200,200);stroke-width:1" /><text x="26" y="211.5" style="font-size:10px;fill:rgb(200,200,200);text-anchor:end;text-align:right;"> 0.25 </text><path d="M 28 145 L 30 145" style="stroke:rgb(200,200,200);stroke-width:1" /><text x="26" y="149" style="font-size:10px;fill:rgb(200,200,200);text-anchor:end;text-align:right;"> 0.5 </text><path d="M 28 82.5 L 30 82.5" style="stroke:rgb(200,200,200);stroke-width:1" /><text x="26" y="86.5" style="font-size:10px;fill:rgb(200,200,200);text-anchor:end;text-align:right;"> 0.75 </text><path d="M 28 20 L 30 20" style="stroke:rgb(200,200,200);stroke-width:1" /><text x="26" y="24" style="font-size:10px;fill:rgb(200,200,200);text-anchor:end;text-align:right;"> 1 </text><text x="400" y="294" style="font-size:10px;fill:rgb(200,200,200);text-anchor:middle;text-align:center;"> Tolerance </text><circle cx="780" cy="232.675" r="2" style="fill:rgb(253,204,229);stroke:none;fill-opacity:1;stroke-opacity:1;" /><path d="M 780 232.675 L 630.77246 237.9575" style="stroke:rgb(253,204,229);stroke-width:1" /><circle cx="630.77246" cy="237.9575" r="2" style="fill:rgb(253,204,229);stroke:none;fill-opacity:1;stroke-opacity:1;" /><path d="M 630.77246 237.9575 L 517.8862 243.19" style="stroke:rgb(253,204,229);stroke-width:1" /><circle cx="517.8862" cy="243.19" r="2" style="fill:rgb(253,204,229);stroke:none;fill-opacity:1;stroke-opacity:1;" /><path d="M 517.8862 243.19 L 451.85202 245.75" style="stroke:rgb(253,204,229);stroke-width:1" /><circle cx="451.85202" cy="245.75" r="2" style="fill:rgb(253,204,229);stroke:none;fill-opacity:1;stroke-opacity:1;" /><path d="M 451.85202 245.75 L 405 247.845" style="stroke:rgb(253,204,229);stroke-width:1" /><circle cx="405" cy="247.845" r="2" style="fill:rgb(253,204,229);stroke:none;fill-opacity:1;stroke-opacity:1;" /><path d="M 405 247.845 L 338.96576 249.97751" style="stroke:rgb(253,204,229);stroke-width:1" /><circle cx="338.96576" cy="249.97751" r="2" style="fill:rgb(253,204,229);stroke:none;fill-opacity:1;stroke-opacity:1;" /><path d="M 338.96576 249.97751 L 292.11377 249.975" style="stroke:rgb(253,204,229);stroke-width:1" /><circle cx="292.11377" cy="249.975" r="2" style="fill:rgb(253,204,229);stroke:none;fill-opacity:1;stroke-opacity:1;" /><path d="M 292.11377 249.975 L 255.7725 250.4925" style="stroke:rgb(253,204,229);stroke-width:1" /><circle cx="255.7725" cy="250.4925" r="2" style="fill:rgb(253,204,229);stroke:none;fill-opacity:1;stroke-opacity:1;" /><path d="M 255.7725 250.4925 L 142.88626 251.3075" style="stroke:rgb(253,204,229);stroke-width:1" /><circle cx="142.88626" cy="251.3075" r="2" style="fill:rgb(253,204,229);stroke:none;fill-opacity:1;stroke-opacity:1;" /><path d="M 142.88626 251.3075 L 30 251.72751" style="stroke:rgb(253,204,229);stroke-width:1" /><circle cx="30" cy="251.72751" r="2" style="fill:rgb(253,204,229);stroke:none;fill-opacity:1;stroke-opacity:1;" /><circle cx="780" cy="176.76001" r="2" style="fill:rgb(255,181,90);stroke:none;fill-opacity:1;stroke-opacity:1;" /><path d="M 780 176.76001 L 630.77246 202.8625" style="stroke:rgb(255,181,90);stroke-width:1" /><circle cx="630.77246" cy="202.8625" r="2" style="fill:rgb(255,181,90);stroke:none;fill-opacity:1;stroke-opacity:1;" /><path d="M 630.77246 202.8625 L 517.8862 213.7675" style="stroke:rgb(255,181,90);stroke-width:1" /><circle cx="517.8862" cy="213.7675" r="2" style="fill:rgb(255,181,90);stroke:none;fill-opacity:1;stroke-opacity:1;" /><path d="M 517.8862 213.7675 L 451.85202 217.9575" style="stroke:rgb(255,181,90);stroke-width:1" /><circle cx="451.85202" cy="217.9575" r="2" style="fill:rgb(255,181,90);stroke:none;fill-opacity:1;stroke-opacity:1;" /><path d="M 451.85202 217.9575 L 405 218.09" style="stroke:rgb(255,181,90);stroke-width:1" /><circle cx="405" cy="218.09" r="2" style="fill:rgb(255,181,90);stroke:none;fill-opacity:1;stroke-opacity:1;" /><path d="M 405 218.09 L 338.96576 218.0825" style="stroke:rgb(255,181,90);stroke-width:1" /><circle cx="338.96576" cy="218.0825" r="2" style="fill:rgb(255,181,90);stroke:none;fill-opacity:1;stroke-opacity:1;" /><path d="M 338.96576 218.0825 L 292.11377 219.9625" style="stroke:rgb(255,181,90);stroke-width:1" /><circle cx="292.11377" cy="219.9625" r="2" style="fill:rgb(255,181,90);stroke:none;fill-opacity:1;stroke-opacity:1;" /><path d="M 292.11377 219.9625 L 255.7725 219.54001" style="stroke:rgb(255,181,90);stroke-width:1" /><circle cx="255.7725" cy="219.54001" r="2" style="fill:rgb(255,181,90);stroke:none;fill-opacity:1;stroke-opacity:1;" /><path d="M 255.7725 219.54001 L 142.88626 222.5125" style="stroke:rgb(255,181,90);stroke-width:1" /><circle cx="142.88626" cy="222.5125" r="2" style="fill:rgb(255,181,90);stroke:none;fill-opacity:1;stroke-opacity:1;" /><path d="M 142.88626 222.5125 L 30 226.27" style="stroke:rgb(255,181,90);stroke-width:1" /><circle cx="30" cy="226.27" r="2" style="fill:rgb(255,181,90);stroke:none;fill-opacity:1;stroke-opacity:1;" /><circle cx="780" cy="210.84" r="2" style="fill:rgb(255,238,101);stroke:none;fill-opacity:1;stroke-opacity:1;" /><path d="M 780 210.84 L 630.77246 235.5675" style="stroke:rgb(255,238,101);stroke-width:1" /><circle cx="630.77246" cy="235.5675" r="2" style="fill:rgb(255,238,101);stroke:none;fill-opacity:1;stroke-opacity:1;" /><path d="M 630.77246 235.5675 L 517.8862 244.89" style="stroke:rgb(255,238,101);stroke-width:1" /><circle cx="517.8862" cy="244.89" r="2" style="fill:rgb(255,238,101);stroke:none;fill-opacity:1;stroke-opacity:1;" /><path d="M 517.8862 244.89 L 451.85202 249.54001" style="stroke:rgb(255,238,101);stroke-width:1" /><circle cx="451.85202" cy="249.54001" r="2" style="fill:rgb(255,238,101);stroke:none;fill-opacity:1;stroke-opacity:1;" /><path d="M 451.85202 249.54001 L 405 251.76" style="stroke:rgb(255,238,101);stroke-width:1" /><circle cx="405" cy="251.76" r="2" style="fill:rgb(255,238,101);stroke:none;fill-opacity:1;stroke-opacity:1;" /><path d="M 405 251.76 L 338.96576 253.33" style="stroke:rgb(255,238,101);stroke-width:1" /><circle cx="338.96576" cy="253.33" r="2" style="fill:rgb(255,238,101);stroke:none;fill-opacity:1;stroke-opacity:1;" /><path d="M 338.96576 253.33 L 292.11377 254.5475" style="stroke:rgb(255,238,101);stroke-width:1" /><circle cx="292.11377" cy="254.5475" r="2" style="fill:rgb(255,238,101);stroke:none;fill-opacity:1;stroke-opacity:1;" /><path d="M 292.11377 254.5475 L 255.7725 256.345" style="stroke:rgb(255,238,101);stroke-width:1" /><circle cx="255.7725" cy="256.345" r="2" style="fill:rgb(255,238,101);stroke:none;fill-opacity:1;stroke-opacity:1;" /><path d="M 255.7725 256.345 L 142.88626 261.105" style="stroke:rgb(255,238,101);stroke-width:1" /><circle cx="142.88626" cy="261.105" r="2" style="fill:rgb(255,238,101);stroke:none;fill-opacity:1;stroke-opacity:1;" /><path d="M 142.88626 261.105 L 30 263.835" style="stroke:rgb(255,238,101);stroke-width:1" /><circle cx="30" cy="263.835" r="2" style="fill:rgb(255,238,101);stroke:none;fill-opacity:1;stroke-opacity:1;" /><circle cx="780" cy="214.4725" r="2" style="fill:rgb(128,214,87);stroke:none;fill-opacity:1;stroke-opacity:1;" /><path d="M 780 214.4725 L 630.77246 237.35251" style="stroke:rgb(128,214,87);stroke-width:1" /><circle cx="630.77246" cy="237.35251" r="2" style="fill:rgb(128,214,87);stroke:none;fill-opacity:1;stroke-opacity:1;" /><path d="M 630.77246 237.35251 L 517.8862 245.675" style="stroke:rgb(128,214,87);stroke-width:1" /><circle cx="517.8862" cy="245.675" r="2" style="fill:rgb(128,214,87);stroke:none;fill-opacity:1;stroke-opacity:1;" /><path d="M 517.8862 245.675 L 451.85202 248.8325" style="stroke:rgb(128,214,87);stroke-width:1" /><circle cx="451.85202" cy="248.8325" r="2" style="fill:rgb(128,214,87);stroke:none;fill-opacity:1;stroke-opacity:1;" /><path d="M 451.85202 248.8325 L 405 249.52249" style="stroke:rgb(128,214,87);stroke-width:1" /><circle cx="405" cy="249.52249" r="2" style="fill:rgb(128,214,87);stroke:none;fill-opacity:1;stroke-opacity:1;" /><path d="M 405 249.52249 L 338.96576 249.08" style="stroke:rgb(128,214,87);stroke-width:1" /><circle cx="338.96576" cy="249.08" r="2" style="fill:rgb(128,214,87);stroke:none;fill-opacity:1;stroke-opacity:1;" /><path d="M 338.96576 249.08 L 292.11377 247.4675" style="stroke:rgb(128,214,87);stroke-width:1" /><circle cx="292.11377" cy="247.4675" r="2" style="fill:rgb(128,214,87);stroke:none;fill-opacity:1;stroke-opacity:1;" /><path d="M 292.11377 247.4675 L 255.7725 246.9225" style="stroke:rgb(128,214,87);stroke-width:1" /><circle cx="255.7725" cy="246.9225" r="2" style="fill:rgb(128,214,87);stroke:none;fill-opacity:1;stroke-opacity:1;" /><path d="M 255.7725 246.9225 L 142.88626 253.7325" style="stroke:rgb(128,214,87);stroke-width:1" /><circle cx="142.88626" cy="253.7325" r="2" style="fill:rgb(128,214,87);stroke:none;fill-opacity:1;stroke-opacity:1;" /><path d="M 142.88626 253.7325 L 30 259.8125" style="stroke:rgb(128,214,87);stroke-width:1" /><circle cx="30" cy="259.8125" r="2" style="fill:rgb(128,214,87);stroke:none;fill-opacity:1;stroke-opacity:1;" /><circle cx="780" cy="169.6575" r="2" style="fill:rgb(119,211,179);stroke:none;fill-opacity:1;stroke-opacity:1;" /><path d="M 780 169.6575 L 630.77246 228.2" style="stroke:rgb(119,211,179);stroke-width:1" /><circle cx="630.77246" cy="228.2" r="2" style="fill:rgb(119,211,179);stroke:none;fill-opacity:1;stroke-opacity:1;" /><path d="M 630.77246 228.2 L 517.8862 243.9025" style="stroke:rgb(119,211,179);stroke-width:1" /><circle cx="517.8862" cy="243.9025" r="2" style="fill:rgb(119,211,179);stroke:none;fill-opacity:1;stroke-opacity:1;" /><path d="M 517.8862 243.9025 L 451.85202 247.195" style="stroke:rgb(119,211,179);stroke-width:1" /><circle cx="451.85202" cy="247.195" r="2" style="fill:rgb(119,211,179);stroke:none;fill-opacity:1;stroke-opacity:1;" /><path d="M 451.85202 247.195 L 405 248.38" style="stroke:rgb(119,211,179);stroke-width:1" /><circle cx="405" cy="248.38" r="2" style="fill:rgb(119,211,179);stroke:none;fill-opacity:1;stroke-opacity:1;" /><path d="M 405 248.38 L 338.96576 248.015" style="stroke:rgb(119,211,179);stroke-width:1" /><circle cx="338.96576" cy="248.015" r="2" style="fill:rgb(119,211,179);stroke:none;fill-opacity:1;stroke-opacity:1;" /><path d="M 338.96576 248.015 L 292.11377 245.92" style="stroke:rgb(119,211,179);stroke-width:1" /><circle cx="292.11377" cy="245.92" r="2" style="fill:rgb(119,211,179);stroke:none;fill-opacity:1;stroke-opacity:1;" /><path d="M 292.11377 245.92 L 255.7725 245.7525" style="stroke:rgb(119,211,179);stroke-width:1" /><circle cx="255.7725" cy="245.7525" r="2" style="fill:rgb(119,211,179);stroke:none;fill-opacity:1;stroke-opacity:1;" /><path d="M 255.7725 245.7525 L 142.88626 252.695" style="stroke:rgb(119,211,179);stroke-width:1" /><circle cx="142.88626" cy="252.695" r="2" style="fill:rgb(119,211,179);stroke:none;fill-opacity:1;stroke-opacity:1;" /><path d="M 142.88626 252.695 L 30 259.115" style="stroke:rgb(119,211,179);stroke-width:1" /><circle cx="30" cy="259.115" r="2" style="fill:rgb(119,211,179);stroke:none;fill-opacity:1;stroke-opacity:1;" /><circle cx="780" cy="20" r="2" style="fill:rgb(50,125,209);stroke:none;fill-opacity:1;stroke-opacity:1;" /><path d="M 780 20 L 630.77246 46.58" style="stroke:rgb(50,125,209);stroke-width:1" /><circle cx="630.77246" cy="46.58" r="2" style="fill:rgb(50,125,209);stroke:none;fill-opacity:1;stroke-opacity:1;" /><path d="M 630.77246 46.58 L 517.8862 55.89" style="stroke:rgb(50,125,209);stroke-width:1" /><circle cx="517.8862" cy="55.89" r="2" style="fill:rgb(50,125,209);stroke:none;fill-opacity:1;stroke-opacity:1;" /><path d="M 517.8862 55.89 L 451.85202 68.5775" style="stroke:rgb(50,125,209);stroke-width:1" /><circle cx="451.85202" cy="68.5775" r="2" style="fill:rgb(50,125,209);stroke:none;fill-opacity:1;stroke-opacity:1;" /><path d="M 451.85202 68.5775 L 405 72.3275" style="stroke:rgb(50,125,209);stroke-width:1" /><circle cx="405" cy="72.3275" r="2" style="fill:rgb(50,125,209);stroke:none;fill-opacity:1;stroke-opacity:1;" /><path d="M 405 72.3275 L 338.96576 75.9975" style="stroke:rgb(50,125,209);stroke-width:1" /><circle cx="338.96576" cy="75.9975" r="2" style="fill:rgb(50,125,209);stroke:none;fill-opacity:1;stroke-opacity:1;" /><path d="M 338.96576 75.9975 L 292.11377 78.485" style="stroke:rgb(50,125,209);stroke-width:1" /><circle cx="292.11377" cy="78.485" r="2" style="fill:rgb(50,125,209);stroke:none;fill-opacity:1;stroke-opacity:1;" /><path d="M 292.11377 78.485 L 255.7725 71.3925" style="stroke:rgb(50,125,209);stroke-width:1" /><circle cx="255.7725" cy="71.3925" r="2" style="fill:rgb(50,125,209);stroke:none;fill-opacity:1;stroke-opacity:1;" /><path d="M 255.7725 71.3925 L 142.88626 81.1225" style="stroke:rgb(50,125,209);stroke-width:1" /><circle cx="142.88626" cy="81.1225" r="2" style="fill:rgb(50,125,209);stroke:none;fill-opacity:1;stroke-opacity:1;" /><path d="M 142.88626 81.1225 L 30 81.4875" style="stroke:rgb(50,125,209);stroke-width:1" /><circle cx="30" cy="81.4875" r="2" style="fill:rgb(50,125,209);stroke:none;fill-opacity:1;stroke-opacity:1;" /><circle cx="780" cy="230.8675" r="2" style="fill:rgb(199,126,190);stroke:none;fill-opacity:1;stroke-opacity:1;" /><path d="M 780 230.8675 L 630.77246 234.88" style="stroke:rgb(199,126,190);stroke-width:1" /><circle cx="630.77246" cy="234.88" r="2" style="fill:rgb(199,126,190);stroke:none;fill-opacity:1;stroke-opacity:1;" /><path d="M 630.77246 234.88 L 517.8862 240.77" style="stroke:rgb(199,126,190);stroke-width:1" /><circle cx="517.8862" cy="240.77" r="2" style="fill:rgb(199,126,190);stroke:none;fill-opacity:1;stroke-opacity:1;" /><path d="M 517.8862 240.77 L 451.85202 243.20999" style="stroke:rgb(199,126,190);stroke-width:1" /><circle cx="451.85202" cy="243.20999" r="2" style="fill:rgb(199,126,190);stroke:none;fill-opacity:1;stroke-opacity:1;" /><path d="M 451.85202 243.20999 L 405 245.7975" style="stroke:rgb(199,126,190);stroke-width:1" /><circle cx="405" cy="245.7975" r="2" style="fill:rgb(199,126,190);stroke:none;fill-opacity:1;stroke-opacity:1;" /><path d="M 405 245.7975 L 338.96576 247.3475" style="stroke:rgb(199,126,190);stroke-width:1" /><circle cx="338.96576" cy="247.3475" r="2" style="fill:rgb(199,126,190);stroke:none;fill-opacity:1;stroke-opacity:1;" /><path d="M 338.96576 247.3475 L 292.11377 248.4475" style="stroke:rgb(199,126,190);stroke-width:1" /><circle cx="292.11377" cy="248.4475" r="2" style="fill:rgb(199,126,190);stroke:none;fill-opacity:1;stroke-opacity:1;" /><path d="M 292.11377 248.4475 L 255.7725 248.59" style="stroke:rgb(199,126,190);stroke-width:1" /><circle cx="255.7725" cy="248.59" r="2" style="fill:rgb(199,126,190);stroke:none;fill-opacity:1;stroke-opacity:1;" /><path d="M 255.7725 248.59 L 142.88626 249.635" style="stroke:rgb(199,126,190);stroke-width:1" /><circle cx="142.88626" cy="249.635" r="2" style="fill:rgb(199,126,190);stroke:none;fill-opacity:1;stroke-opacity:1;" /><path d="M 142.88626 249.635 L 30 249.94" style="stroke:rgb(199,126,190);stroke-width:1" /><circle cx="30" cy="249.94" r="2" style="fill:rgb(199,126,190);stroke:none;fill-opacity:1;stroke-opacity:1;" /><circle cx="780" cy="130.2425" r="2" style="fill:rgb(120,68,33);stroke:none;fill-opacity:1;stroke-opacity:1;" /><path d="M 780 130.2425 L 630.77246 149.4925" style="stroke:rgb(120,68,33);stroke-width:1" /><circle cx="630.77246" cy="149.4925" r="2" style="fill:rgb(120,68,33);stroke:none;fill-opacity:1;stroke-opacity:1;" /><path d="M 630.77246 149.4925 L 517.8862 161.3725" style="stroke:rgb(120,68,33);stroke-width:1" /><circle cx="517.8862" cy="161.3725" r="2" style="fill:rgb(120,68,33);stroke:none;fill-opacity:1;stroke-opacity:1;" /><path d="M 517.8862 161.3725 L 451.85202 165.7425" style="stroke:rgb(120,68,33);stroke-width:1" /><circle cx="451.85202" cy="165.7425" r="2" style="fill:rgb(120,68,33);stroke:none;fill-opacity:1;stroke-opacity:1;" /><path d="M 451.85202 165.7425 L 405 168.08499" style="stroke:rgb(120,68,33);stroke-width:1" /><circle cx="405" cy="168.08499" r="2" style="fill:rgb(120,68,33);stroke:none;fill-opacity:1;stroke-opacity:1;" /><path d="M 405 168.08499 L 338.96576 169.98001" style="stroke:rgb(120,68,33);stroke-width:1" /><circle cx="338.96576" cy="169.98001" r="2" style="fill:rgb(120,68,33);stroke:none;fill-opacity:1;stroke-opacity:1;" /><path d="M 338.96576 169.98001 L 292.11377 167.3675" style="stroke:rgb(120,68,33);stroke-width:1" /><circle cx="292.11377" cy="167.3675" r="2" style="fill:rgb(120,68,33);stroke:none;fill-opacity:1;stroke-opacity:1;" /><path d="M 292.11377 167.3675 L 255.7725 170.89499" style="stroke:rgb(120,68,33);stroke-width:1" /><circle cx="255.7725" cy="170.89499" r="2" style="fill:rgb(120,68,33);stroke:none;fill-opacity:1;stroke-opacity:1;" /><path d="M 255.7725 170.89499 L 142.88626 171.5475" style="stroke:rgb(120,68,33);stroke-width:1" /><circle cx="142.88626" cy="171.5475" r="2" style="fill:rgb(120,68,33);stroke:none;fill-opacity:1;stroke-opacity:1;" /><path d="M 142.88626 171.5475 L 30 166.16751" style="stroke:rgb(120,68,33);stroke-width:1" /><circle cx="30" cy="166.16751" r="2" style="fill:rgb(120,68,33);stroke:none;fill-opacity:1;stroke-opacity:1;" /><circle cx="780" cy="42.574997" r="2" style="fill:rgb(126,176,213);stroke:none;fill-opacity:1;stroke-opacity:1;" /><path d="M 780 42.574997 L 630.77246 50.5625" style="stroke:rgb(126,176,213);stroke-width:1" /><circle cx="630.77246" cy="50.5625" r="2" style="fill:rgb(126,176,213);stroke:none;fill-opacity:1;stroke-opacity:1;" /><path d="M 630.77246 50.5625 L 517.8862 63.554993" style="stroke:rgb(126,176,213);stroke-width:1" /><circle cx="517.8862" cy="63.554993" r="2" style="fill:rgb(126,176,213);stroke:none;fill-opacity:1;stroke-opacity:1;" /><path d="M 517.8862 63.554993 L 451.85202 73.925" style="stroke:rgb(126,176,213);stroke-width:1" /><circle cx="451.85202" cy="73.925" r="2" style="fill:rgb(126,176,213);stroke:none;fill-opacity:1;stroke-opacity:1;" /><path d="M 451.85202 73.925 L 405 76.33" style="stroke:rgb(126,176,213);stroke-width:1" /><circle cx="405" cy="76.33" r="2" style="fill:rgb(126,176,213);stroke:none;fill-opacity:1;stroke-opacity:1;" /><path d="M 405 76.33 L 338.96576 75.765" style="stroke:rgb(126,176,213);stroke-width:1" /><circle cx="338.96576" cy="75.765" r="2" style="fill:rgb(126,176,213);stroke:none;fill-opacity:1;stroke-opacity:1;" /><path d="M 338.96576 75.765 L 292.11377 79.25751" style="stroke:rgb(126,176,213);stroke-width:1" /><circle cx="292.11377" cy="79.25751" r="2" style="fill:rgb(126,176,213);stroke:none;fill-opacity:1;stroke-opacity:1;" /><path d="M 292.11377 79.25751 L 255.7725 79.61" style="stroke:rgb(126,176,213);stroke-width:1" /><circle cx="255.7725" cy="79.61" r="2" style="fill:rgb(126,176,213);stroke:none;fill-opacity:1;stroke-opacity:1;" /><path d="M 255.7725 79.61 L 142.88626 77.7625" style="stroke:rgb(126,176,213);stroke-width:1" /><circle cx="142.88626" cy="77.7625" r="2" style="fill:rgb(126,176,213);stroke:none;fill-opacity:1;stroke-opacity:1;" /><path d="M 142.88626 77.7625 L 30 78.634995" style="stroke:rgb(126,176,213);stroke-width:1" /><circle cx="30" cy="78.634995" r="2" style="fill:rgb(126,176,213);stroke:none;fill-opacity:1;stroke-opacity:1;" /><circle cx="780" cy="120.235" r="2" style="fill:rgb(200,113,55);stroke:none;fill-opacity:1;stroke-opacity:1;" /><path d="M 780 120.235 L 630.77246 123.315" style="stroke:rgb(200,113,55);stroke-width:1" /><circle cx="630.77246" cy="123.315" r="2" style="fill:rgb(200,113,55);stroke:none;fill-opacity:1;stroke-opacity:1;" /><path d="M 630.77246 123.315 L 517.8862 136.385" style="stroke:rgb(200,113,55);stroke-width:1" /><circle cx="517.8862" cy="136.385" r="2" style="fill:rgb(200,113,55);stroke:none;fill-opacity:1;stroke-opacity:1;" /><path d="M 517.8862 136.385 L 451.85202 142.155" style="stroke:rgb(200,113,55);stroke-width:1" /><circle cx="451.85202" cy="142.155" r="2" style="fill:rgb(200,113,55);stroke:none;fill-opacity:1;stroke-opacity:1;" /><path d="M 451.85202 142.155 L 405 145.905" style="stroke:rgb(200,113,55);stroke-width:1" /><circle cx="405" cy="145.905" r="2" style="fill:rgb(200,113,55);stroke:none;fill-opacity:1;stroke-opacity:1;" /><path d="M 405 145.905 L 338.96576 146.0125" style="stroke:rgb(200,113,55);stroke-width:1" /><circle cx="338.96576" cy="146.0125" r="2" style="fill:rgb(200,113,55);stroke:none;fill-opacity:1;stroke-opacity:1;" /><path d="M 338.96576 146.0125 L 292.11377 152.4675" style="stroke:rgb(200,113,55);stroke-width:1" /><circle cx="292.11377" cy="152.4675" r="2" style="fill:rgb(200,113,55);stroke:none;fill-opacity:1;stroke-opacity:1;" /><path d="M 292.11377 152.4675 L 255.7725 149.67" style="stroke:rgb(200,113,55);stroke-width:1" /><circle cx="255.7725" cy="149.67" r="2" style="fill:rgb(200,113,55);stroke:none;fill-opacity:1;stroke-opacity:1;" /><path d="M 255.7725 149.67 L 142.88626 153.92" style="stroke:rgb(200,113,55);stroke-width:1" /><circle cx="142.88626" cy="153.92" r="2" style="fill:rgb(200,113,55);stroke:none;fill-opacity:1;stroke-opacity:1;" /><path d="M 142.88626 153.92 L 30 149.685" style="stroke:rgb(200,113,55);stroke-width:1" /><circle cx="30" cy="149.685" r="2" style="fill:rgb(200,113,55);stroke:none;fill-opacity:1;stroke-opacity:1;" /><circle cx="780" cy="230.125" r="2" style="fill:rgb(253,127,111);stroke:none;fill-opacity:1;stroke-opacity:1;" /><path d="M 780 230.125 L 630.77246 236.785" style="stroke:rgb(253,127,111);stroke-width:1" /><circle cx="630.77246" cy="236.785" r="2" style="fill:rgb(253,127,111);stroke:none;fill-opacity:1;stroke-opacity:1;" /><path d="M 630.77246 236.785 L 517.8862 242.69" style="stroke:rgb(253,127,111);stroke-width:1" /><circle cx="517.8862" cy="242.69" r="2" style="fill:rgb(253,127,111);stroke:none;fill-opacity:1;stroke-opacity:1;" /><path d="M 517.8862 242.69 L 451.85202 245.4575" style="stroke:rgb(253,127,111);stroke-width:1" /><circle cx="451.85202" cy="245.4575" r="2" style="fill:rgb(253,127,111);stroke:none;fill-opacity:1;stroke-opacity:1;" /><path d="M 451.85202 245.4575 L 405 247.25" style="stroke:rgb(253,127,111);stroke-width:1" /><circle cx="405" cy="247.25" r="2" style="fill:rgb(253,127,111);stroke:none;fill-opacity:1;stroke-opacity:1;" /><path d="M 405 247.25 L 338.96576 249.6" style="stroke:rgb(253,127,111);stroke-width:1" /><circle cx="338.96576" cy="249.6" r="2" style="fill:rgb(253,127,111);stroke:none;fill-opacity:1;stroke-opacity:1;" /><path d="M 338.96576 249.6 L 292.11377 250.0575" style="stroke:rgb(253,127,111);stroke-width:1" /><circle cx="292.11377" cy="250.0575" r="2" style="fill:rgb(253,127,111);stroke:none;fill-opacity:1;stroke-opacity:1;" /><path d="M 292.11377 250.0575 L 255.7725 250.3025" style="stroke:rgb(253,127,111);stroke-width:1" /><circle cx="255.7725" cy="250.3025" r="2" style="fill:rgb(253,127,111);stroke:none;fill-opacity:1;stroke-opacity:1;" /><path d="M 255.7725 250.3025 L 142.88626 251.1" style="stroke:rgb(253,127,111);stroke-width:1" /><circle cx="142.88626" cy="251.1" r="2" style="fill:rgb(253,127,111);stroke:none;fill-opacity:1;stroke-opacity:1;" /><path d="M 142.88626 251.1 L 30 251.5425" style="stroke:rgb(253,127,111);stroke-width:1" /><circle cx="30" cy="251.5425" r="2" style="fill:rgb(253,127,111);stroke:none;fill-opacity:1;stroke-opacity:1;" /><rect x="676" y="16" width="80" height="238" ry="4" style="fill:rgb(30,30,30);stroke:none;fill-opacity:0.8;stroke-opacity:1;" /><rect x="680" y="20" width="20" height="20" ry="2" style="fill:rgb(253,127,111);stroke:none;fill-opacity:1;stroke-opacity:1;" /><text x="705" y="33" style="font-size:10px;fill:rgb(255,255,255);text-anchor:start;text-align:left;"> fwd-diff </text><rect x="680" y="41" width="20" height="20" ry="2" style="fill:rgb(255,181,90);stroke:none;fill-opacity:1;stroke-opacity:1;" /><text x="705" y="54" style="font-size:10px;fill:rgb(255,255,255);text-anchor:start;text-align:left;"> hain </text><rect x="680" y="62" width="20" height="20" ry="2" style="fill:rgb(50,125,209);stroke:none;fill-opacity:1;stroke-opacity:1;" /><text x="705" y="75" style="font-size:10px;fill:rgb(255,255,255);text-anchor:start;text-align:left;"> levien </text><rect x="680" y="83" width="20" height="20" ry="2" style="fill:rgb(119,211,179);stroke:none;fill-opacity:1;stroke-opacity:1;" /><text x="705" y="96" style="font-size:10px;fill:rgb(255,255,255);text-anchor:start;text-align:left;"> levien-linear </text><rect x="680" y="104" width="20" height="20" ry="2" style="fill:rgb(126,176,213);stroke:none;fill-opacity:1;stroke-opacity:1;" /><text x="705" y="117" style="font-size:10px;fill:rgb(255,255,255);text-anchor:start;text-align:left;"> levien-simd </text><rect x="680" y="125" width="20" height="20" ry="2" style="fill:rgb(128,214,87);stroke:none;fill-opacity:1;stroke-opacity:1;" /><text x="705" y="138" style="font-size:10px;fill:rgb(255,255,255);text-anchor:start;text-align:left;"> linear </text><rect x="680" y="146" width="20" height="20" ry="2" style="fill:rgb(255,238,101);stroke:none;fill-opacity:1;stroke-opacity:1;" /><text x="705" y="159" style="font-size:10px;fill:rgb(255,255,255);text-anchor:start;text-align:left;"> recursive </text><rect x="680" y="167" width="20" height="20" ry="2" style="fill:rgb(253,204,229);stroke:none;fill-opacity:1;stroke-opacity:1;" /><text x="705" y="180" style="font-size:10px;fill:rgb(255,255,255);text-anchor:start;text-align:left;"> wang </text><rect x="680" y="188" width="20" height="20" ry="2" style="fill:rgb(199,126,190);stroke:none;fill-opacity:1;stroke-opacity:1;" /><text x="705" y="201" style="font-size:10px;fill:rgb(255,255,255);text-anchor:start;text-align:left;"> wang-simd </text><rect x="680" y="209" width="20" height="20" ry="2" style="fill:rgb(120,68,33);stroke:none;fill-opacity:1;stroke-opacity:1;" /><text x="705" y="222" style="font-size:10px;fill:rgb(255,255,255);text-anchor:start;text-align:left;"> yzerman </text><rect x="680" y="230" width="20" height="20" ry="2" style="fill:rgb(200,113,55);stroke:none;fill-opacity:1;stroke-opacity:1;" /><text x="705" y="243" style="font-size:10px;fill:rgb(255,255,255);text-anchor:start;text-align:left;"> yzerman-simd </text><text x="400" y="30" style="font-size:20px;fill:rgb(255,255,255);text-anchor:middle;text-align:center;"> font dataset: cubic </text><text x="400" y="42" style="font-size:8px;fill:rgb(200,200,200);text-anchor:middle;text-align:center;"> Normalized performance score (lower is better) </text></svg>