<svg xmlns="http://www.w3.org/2000/svg" viewBox="0 0 800 300"><rect x="0" y="0" width="800" height="300" ry="6" style="fill:rgb(30,30,30);stroke:none;fill-opacity:1;stroke-opacity:1;" /><path d="M 30 20 L 30 270" style="stroke:rgb(200,200,200);stroke-width:1" /><path d="M 30 270 L 780 270" style="stroke:rgb(200,200,200);stroke-width:1" /><path d="M 780 270 L 780 272" style="stroke:rgb(200,200,200);stroke-width:1" /><text x="780" y="282" style="font-size:10px;fill:rgb(200,200,200);text-anchor:middle;text-align:center;"> 0.01 </text><path d="M 630.77246 270 L 630.77246 272" style="stroke:rgb(200,200,200);stroke-width:1" /><text x="630.77246" y="282" style="font-size:10px;fill:rgb(200,200,200);text-anchor:middle;text-align:center;"> 0.025 </text><path d="M 517.8862 270 L 517.8862 272" style="stroke:rgb(200,200,200);stroke-width:1" /><text x="517.8862" y="282" style="font-size:10px;fill:rgb(200,200,200);text-anchor:middle;text-align:center;"> 0.05 </text><path d="M 451.85202 270 L 451.85202 272" style="stroke:rgb(200,200,200);stroke-width:1" /><text x="451.85202" y="282" style="font-size:10px;fill:rgb(200,200,200);text-anchor:middle;text-align:center;"> 0.075 </text><path d="M 405 270 L 405 272" style="stroke:rgb(200,200,200);stroke-width:1" /><text x="405" y="282" style="font-size:10px;fill:rgb(200,200,200);text-anchor:middle;text-align:center;"> 0.1 </text><path d="M 338.96576 270 L 338.96576 272" style="stroke:rgb(200,200,200);stroke-width:1" /><text x="338.96576" y="282" style="font-size:10px;fill:rgb(200,200,200);text-anchor:middle;text-align:center;"> 0.15 </text><path d="M 292.11377 270 L 292.11377 272" style="stroke:rgb(200,200,200);stroke-width:1" /><text x="292.11377" y="282" style="font-size:10px;fill:rgb(200,200,200);text-anchor:middle;text-align:center;"> 0.2 </text><path d="M 255.7725 270 L 255.7725 272" style="stroke:rgb(200,200,200);stroke-width:1" /><text x="255.7725" y="282" style="font-size:10px;fill:rgb(200,200,200);text-anchor:middle;text-align:center;"> 0.25 </text><path d="M 142.88626 270 L 142.88626 272" style="stroke:rgb(200,200,200);stroke-width:1" /><text x="142.88626" y="282" style="font-size:10px;fill:rgb(200,200,200);text-anchor:middle;text-align:center;"> 0.5 </text><path d="M 30 270 L 30 272" style="stroke:rgb(200,200,200);stroke-width:1" /><text x="30" y="282" style="font-size:10px;fill:rgb(200,200,200);text-anchor:middle;text-align:center;"> 1 </text><path d="M 28 270 L 30 270" style="stroke:rgb(200,200,200);stroke-width:1" /><text x="26" y="274" style="font-size:10px;fill:rgb(200,200,200);text-anchor:end;text-align:right;"> 0 </text><path d="M 28 207.5 L 30 207.5" style="stroke:rgb(200,200,200);stroke-width:1" /><text x="26" y="211.5" style="font-size:10px;fill:rgb(200,200,200);text-anchor:end;text-align:right;"> 0.25 </text><path d="M 28 145 L 30 145" style="stroke:rgb(200,200,200);stroke-width:1" /><text x="26" y="149" style="font-size:10px;fill:rgb(200,200,200);text-anchor:end;text-align:right;"> 0.5 </text><path d="M 28 82.5 L 30 82.5" style="stroke:rgb(200,200,200);stroke-width:1" /><text x="26" y="86.5" style="font-size:10px;fill:rgb(200,200,200);text-anchor:end;text-align:right;"> 0.75 </text><path d="M 28 20 L 30 20" style="stroke:rgb(200,200,200);stroke-width:1" /><text x="26" y="24" style="font-size:10px;fill:rgb(200,200,200);text-anchor:end;text-align:right;"> 1 </text><text x="400" y="294" style="font-size:10px;fill:rgb(200,200,200);text-anchor:middle;text-align:center;"> Tolerance </text><circle cx="780" cy="30.632507" r="2" style="fill:rgb(50,125,209);stroke:none;fill-opacity:1;stroke-opacity:1;" /><path d="M 780 30.632507 L 630.77246 66.94" style="stroke:rgb(50,125,209);stroke-width:1" /><circle cx="630.77246" cy="66.94" r="2" style="fill:rgb(50,125,209);stroke:none;fill-opacity:1;stroke-opacity:1;" /><path d="M 630.77246 66.94 L 517.8862 91.1375" style="stroke:rgb(50,125,209);stroke-width:1" /><circle cx="517.8862" cy="91.1375" r="2" style="fill:rgb(50,125,209);stroke:none;fill-opacity:1;stroke-opacity:1;" /><path d="M 517.8862 91.1375 L 451.85202 103.465" style="stroke:rgb(50,125,209);stroke-width:1" /><circle cx="451.85202" cy="103.465" r="2" style="fill:rgb(50,125,209);stroke:none;fill-opacity:1;stroke-opacity:1;" /><path d="M 451.85202 103.465 L 405 115.192505" style="stroke:rgb(50,125,209);stroke-width:1" /><circle cx="405" cy="115.192505" r="2" style="fill:rgb(50,125,209);stroke:none;fill-opacity:1;stroke-opacity:1;" /><path d="M 405 115.192505 L 338.96576 127.167496" style="stroke:rgb(50,125,209);stroke-width:1" /><circle cx="338.96576" cy="127.167496" r="2" style="fill:rgb(50,125,209);stroke:none;fill-opacity:1;stroke-opacity:1;" /><path d="M 338.96576 127.167496 L 292.11377 130.785" style="stroke:rgb(50,125,209);stroke-width:1" /><circle cx="292.11377" cy="130.785" r="2" style="fill:rgb(50,125,209);stroke:none;fill-opacity:1;stroke-opacity:1;" /><path d="M 292.11377 130.785 L 255.7725 144.86" style="stroke:rgb(50,125,209);stroke-width:1" /><circle cx="255.7725" cy="144.86" r="2" style="fill:rgb(50,125,209);stroke:none;fill-opacity:1;stroke-opacity:1;" /><path d="M 255.7725 144.86 L 142.88626 158.9725" style="stroke:rgb(50,125,209);stroke-width:1" /><circle cx="142.88626" cy="158.9725" r="2" style="fill:rgb(50,125,209);stroke:none;fill-opacity:1;stroke-opacity:1;" /><path d="M 142.88626 158.9725 L 30 176.1875" style="stroke:rgb(50,125,209);stroke-width:1" /><circle cx="30" cy="176.1875" r="2" style="fill:rgb(50,125,209);stroke:none;fill-opacity:1;stroke-opacity:1;" /><circle cx="780" cy="127.7025" r="2" style="fill:rgb(126,176,213);stroke:none;fill-opacity:1;stroke-opacity:1;" /><path d="M 780 127.7025 L 630.77246 146.775" style="stroke:rgb(126,176,213);stroke-width:1" /><circle cx="630.77246" cy="146.775" r="2" style="fill:rgb(126,176,213);stroke:none;fill-opacity:1;stroke-opacity:1;" /><path d="M 630.77246 146.775 L 517.8862 158.8175" style="stroke:rgb(126,176,213);stroke-width:1" /><circle cx="517.8862" cy="158.8175" r="2" style="fill:rgb(126,176,213);stroke:none;fill-opacity:1;stroke-opacity:1;" /><path d="M 517.8862 158.8175 L 451.85202 166.4875" style="stroke:rgb(126,176,213);stroke-width:1" /><circle cx="451.85202" cy="166.4875" r="2" style="fill:rgb(126,176,213);stroke:none;fill-opacity:1;stroke-opacity:1;" /><path d="M 451.85202 166.4875 L 405 172.95" style="stroke:rgb(126,176,213);stroke-width:1" /><circle cx="405" cy="172.95" r="2" style="fill:rgb(126,176,213);stroke:none;fill-opacity:1;stroke-opacity:1;" /><path d="M 405 172.95 L 338.96576 189.32" style="stroke:rgb(126,176,213);stroke-width:1" /><circle cx="338.96576" cy="189.32" r="2" style="fill:rgb(126,176,213);stroke:none;fill-opacity:1;stroke-opacity:1;" /><path d="M 338.96576 189.32 L 292.11377 198.2975" style="stroke:rgb(126,176,213);stroke-width:1" /><circle cx="292.11377" cy="198.2975" r="2" style="fill:rgb(126,176,213);stroke:none;fill-opacity:1;stroke-opacity:1;" /><path d="M 292.11377 198.2975 L 255.7725 202.56" style="stroke:rgb(126,176,213);stroke-width:1" /><circle cx="255.7725" cy="202.56" r="2" style="fill:rgb(126,176,213);stroke:none;fill-opacity:1;stroke-opacity:1;" /><path d="M 255.7725 202.56 L 142.88626 215.625" style="stroke:rgb(126,176,213);stroke-width:1" /><circle cx="142.88626" cy="215.625" r="2" style="fill:rgb(126,176,213);stroke:none;fill-opacity:1;stroke-opacity:1;" /><path d="M 142.88626 215.625 L 30 221.25" style="stroke:rgb(126,176,213);stroke-width:1" /><circle cx="30" cy="221.25" r="2" style="fill:rgb(126,176,213);stroke:none;fill-opacity:1;stroke-opacity:1;" /><circle cx="780" cy="20" r="2" style="fill:rgb(128,214,87);stroke:none;fill-opacity:1;stroke-opacity:1;" /><path d="M 780 20 L 630.77246 125.182495" style="stroke:rgb(128,214,87);stroke-width:1" /><circle cx="630.77246" cy="125.182495" r="2" style="fill:rgb(128,214,87);stroke:none;fill-opacity:1;stroke-opacity:1;" /><path d="M 630.77246 125.182495 L 517.8862 175.85251" style="stroke:rgb(128,214,87);stroke-width:1" /><circle cx="517.8862" cy="175.85251" r="2" style="fill:rgb(128,214,87);stroke:none;fill-opacity:1;stroke-opacity:1;" /><path d="M 517.8862 175.85251 L 451.85202 200.54251" style="stroke:rgb(128,214,87);stroke-width:1" /><circle cx="451.85202" cy="200.54251" r="2" style="fill:rgb(128,214,87);stroke:none;fill-opacity:1;stroke-opacity:1;" /><path d="M 451.85202 200.54251 L 405 214.41501" style="stroke:rgb(128,214,87);stroke-width:1" /><circle cx="405" cy="214.41501" r="2" style="fill:rgb(128,214,87);stroke:none;fill-opacity:1;stroke-opacity:1;" /><path d="M 405 214.41501 L 338.96576 229.0775" style="stroke:rgb(128,214,87);stroke-width:1" /><circle cx="338.96576" cy="229.0775" r="2" style="fill:rgb(128,214,87);stroke:none;fill-opacity:1;stroke-opacity:1;" /><path d="M 338.96576 229.0775 L 292.11377 237.35" style="stroke:rgb(128,214,87);stroke-width:1" /><circle cx="292.11377" cy="237.35" r="2" style="fill:rgb(128,214,87);stroke:none;fill-opacity:1;stroke-opacity:1;" /><path d="M 292.11377 237.35 L 255.7725 244.1675" style="stroke:rgb(128,214,87);stroke-width:1" /><circle cx="255.7725" cy="244.1675" r="2" style="fill:rgb(128,214,87);stroke:none;fill-opacity:1;stroke-opacity:1;" /><path d="M 255.7725 244.1675 L 142.88626 253.6175" style="stroke:rgb(128,214,87);stroke-width:1" /><circle cx="142.88626" cy="253.6175" r="2" style="fill:rgb(128,214,87);stroke:none;fill-opacity:1;stroke-opacity:1;" /><path d="M 142.88626 253.6175 L 30 257.7575" style="stroke:rgb(128,214,87);stroke-width:1" /><circle cx="30" cy="257.7575" r="2" style="fill:rgb(128,214,87);stroke:none;fill-opacity:1;stroke-opacity:1;" /><circle cx="780" cy="175.525" r="2" style="fill:rgb(253,204,229);stroke:none;fill-opacity:1;stroke-opacity:1;" /><path d="M 780 175.525 L 630.77246 181.64499" style="stroke:rgb(253,204,229);stroke-width:1" /><circle cx="630.77246" cy="181.64499" r="2" style="fill:rgb(253,204,229);stroke:none;fill-opacity:1;stroke-opacity:1;" /><path d="M 630.77246 181.64499 L 517.8862 196.795" style="stroke:rgb(253,204,229);stroke-width:1" /><circle cx="517.8862" cy="196.795" r="2" style="fill:rgb(253,204,229);stroke:none;fill-opacity:1;stroke-opacity:1;" /><path d="M 517.8862 196.795 L 451.85202 208.065" style="stroke:rgb(253,204,229);stroke-width:1" /><circle cx="451.85202" cy="208.065" r="2" style="fill:rgb(253,204,229);stroke:none;fill-opacity:1;stroke-opacity:1;" /><path d="M 451.85202 208.065 L 405 210.945" style="stroke:rgb(253,204,229);stroke-width:1" /><circle cx="405" cy="210.945" r="2" style="fill:rgb(253,204,229);stroke:none;fill-opacity:1;stroke-opacity:1;" /><path d="M 405 210.945 L 338.96576 225.41" style="stroke:rgb(253,204,229);stroke-width:1" /><circle cx="338.96576" cy="225.41" r="2" style="fill:rgb(253,204,229);stroke:none;fill-opacity:1;stroke-opacity:1;" /><path d="M 338.96576 225.41 L 292.11377 232.6625" style="stroke:rgb(253,204,229);stroke-width:1" /><circle cx="292.11377" cy="232.6625" r="2" style="fill:rgb(253,204,229);stroke:none;fill-opacity:1;stroke-opacity:1;" /><path d="M 292.11377 232.6625 L 255.7725 233.7175" style="stroke:rgb(253,204,229);stroke-width:1" /><circle cx="255.7725" cy="233.7175" r="2" style="fill:rgb(253,204,229);stroke:none;fill-opacity:1;stroke-opacity:1;" /><path d="M 255.7725 233.7175 L 142.88626 244.1425" style="stroke:rgb(253,204,229);stroke-width:1" /><circle cx="142.88626" cy="244.1425" r="2" style="fill:rgb(253,204,229);stroke:none;fill-opacity:1;stroke-opacity:1;" /><path d="M 142.88626 244.1425 L 30 248.43" style="stroke:rgb(253,204,229);stroke-width:1" /><circle cx="30" cy="248.43" r="2" style="fill:rgb(253,204,229);stroke:none;fill-opacity:1;stroke-opacity:1;" /><circle cx="780" cy="175.29001" r="2" style="fill:rgb(253,127,111);stroke:none;fill-opacity:1;stroke-opacity:1;" /><path d="M 780 175.29001 L 630.77246 187.88" style="stroke:rgb(253,127,111);stroke-width:1" /><circle cx="630.77246" cy="187.88" r="2" style="fill:rgb(253,127,111);stroke:none;fill-opacity:1;stroke-opacity:1;" /><path d="M 630.77246 187.88 L 517.8862 198.11499" style="stroke:rgb(253,127,111);stroke-width:1" /><circle cx="517.8862" cy="198.11499" r="2" style="fill:rgb(253,127,111);stroke:none;fill-opacity:1;stroke-opacity:1;" /><path d="M 517.8862 198.11499 L 451.85202 209.0625" style="stroke:rgb(253,127,111);stroke-width:1" /><circle cx="451.85202" cy="209.0625" r="2" style="fill:rgb(253,127,111);stroke:none;fill-opacity:1;stroke-opacity:1;" /><path d="M 451.85202 209.0625 L 405 215.4825" style="stroke:rgb(253,127,111);stroke-width:1" /><circle cx="405" cy="215.4825" r="2" style="fill:rgb(253,127,111);stroke:none;fill-opacity:1;stroke-opacity:1;" /><path d="M 405 215.4825 L 338.96576 225.245" style="stroke:rgb(253,127,111);stroke-width:1" /><circle cx="338.96576" cy="225.245" r="2" style="fill:rgb(253,127,111);stroke:none;fill-opacity:1;stroke-opacity:1;" /><path d="M 338.96576 225.245 L 292.11377 230.2" style="stroke:rgb(253,127,111);stroke-width:1" /><circle cx="292.11377" cy="230.2" r="2" style="fill:rgb(253,127,111);stroke:none;fill-opacity:1;stroke-opacity:1;" /><path d="M 292.11377 230.2 L 255.7725 234.26" style="stroke:rgb(253,127,111);stroke-width:1" /><circle cx="255.7725" cy="234.26" r="2" style="fill:rgb(253,127,111);stroke:none;fill-opacity:1;stroke-opacity:1;" /><path d="M 255.7725 234.26 L 142.88626 243.9975" style="stroke:rgb(253,127,111);stroke-width:1" /><circle cx="142.88626" cy="243.9975" r="2" style="fill:rgb(253,127,111);stroke:none;fill-opacity:1;stroke-opacity:1;" /><path d="M 142.88626 243.9975 L 30 248.0125" style="stroke:rgb(253,127,111);stroke-width:1" /><circle cx="30" cy="248.0125" r="2" style="fill:rgb(253,127,111);stroke:none;fill-opacity:1;stroke-opacity:1;" /><circle cx="780" cy="57.352493" r="2" style="fill:rgb(255,238,101);stroke:none;fill-opacity:1;stroke-opacity:1;" /><path d="M 780 57.352493 L 630.77246 126.8425" style="stroke:rgb(255,238,101);stroke-width:1" /><circle cx="630.77246" cy="126.8425" r="2" style="fill:rgb(255,238,101);stroke:none;fill-opacity:1;stroke-opacity:1;" /><path d="M 630.77246 126.8425 L 517.8862 166.6425" style="stroke:rgb(255,238,101);stroke-width:1" /><circle cx="517.8862" cy="166.6425" r="2" style="fill:rgb(255,238,101);stroke:none;fill-opacity:1;stroke-opacity:1;" /><path d="M 517.8862 166.6425 L 451.85202 186.3825" style="stroke:rgb(255,238,101);stroke-width:1" /><circle cx="451.85202" cy="186.3825" r="2" style="fill:rgb(255,238,101);stroke:none;fill-opacity:1;stroke-opacity:1;" /><path d="M 451.85202 186.3825 L 405 200.8125" style="stroke:rgb(255,238,101);stroke-width:1" /><circle cx="405" cy="200.8125" r="2" style="fill:rgb(255,238,101);stroke:none;fill-opacity:1;stroke-opacity:1;" /><path d="M 405 200.8125 L 338.96576 215.85" style="stroke:rgb(255,238,101);stroke-width:1" /><circle cx="338.96576" cy="215.85" r="2" style="fill:rgb(255,238,101);stroke:none;fill-opacity:1;stroke-opacity:1;" /><path d="M 338.96576 215.85 L 292.11377 226.53" style="stroke:rgb(255,238,101);stroke-width:1" /><circle cx="292.11377" cy="226.53" r="2" style="fill:rgb(255,238,101);stroke:none;fill-opacity:1;stroke-opacity:1;" /><path d="M 292.11377 226.53 L 255.7725 231.4925" style="stroke:rgb(255,238,101);stroke-width:1" /><circle cx="255.7725" cy="231.4925" r="2" style="fill:rgb(255,238,101);stroke:none;fill-opacity:1;stroke-opacity:1;" /><path d="M 255.7725 231.4925 L 142.88626 248.6725" style="stroke:rgb(255,238,101);stroke-width:1" /><circle cx="142.88626" cy="248.6725" r="2" style="fill:rgb(255,238,101);stroke:none;fill-opacity:1;stroke-opacity:1;" /><path d="M 142.88626 248.6725 L 30 254.8425" style="stroke:rgb(255,238,101);stroke-width:1" /><circle cx="30" cy="254.8425" r="2" style="fill:rgb(255,238,101);stroke:none;fill-opacity:1;stroke-opacity:1;" /><rect x="676" y="16" width="80" height="133" ry="4" style="fill:rgb(30,30,30);stroke:none;fill-opacity:0.8;stroke-opacity:1;" /><rect x="680" y="20" width="20" height="20" ry="2" style="fill:rgb(253,127,111);stroke:none;fill-opacity:1;stroke-opacity:1;" /><text x="705" y="33" style="font-size:10px;fill:rgb(255,255,255);text-anchor:start;text-align:left;"> fwd-diff </text><rect x="680" y="41" width="20" height="20" ry="2" style="fill:rgb(50,125,209);stroke:none;fill-opacity:1;stroke-opacity:1;" /><text x="705" y="54" style="font-size:10px;fill:rgb(255,255,255);text-anchor:start;text-align:left;"> levien </text><rect x="680" y="62" width="20" height="20" ry="2" style="fill:rgb(126,176,213);stroke:none;fill-opacity:1;stroke-opacity:1;" /><text x="705" y="75" style="font-size:10px;fill:rgb(255,255,255);text-anchor:start;text-align:left;"> levien-simd </text><rect x="680" y="83" width="20" height="20" ry="2" style="fill:rgb(128,214,87);stroke:none;fill-opacity:1;stroke-opacity:1;" /><text x="705" y="96" style="font-size:10px;fill:rgb(255,255,255);text-anchor:start;text-align:left;"> linear </text><rect x="680" y="104" width="20" height="20" ry="2" style="fill:rgb(255,238,101);stroke:none;fill-opacity:1;stroke-opacity:1;" /><text x="705" y="117" style="font-size:10px;fill:rgb(255,255,255);text-anchor:start;text-align:left;"> recursive </text><rect x="680" y="125" width="20" height="20" ry="2" style="fill:rgb(253,204,229);stroke:none;fill-opacity:1;stroke-opacity:1;" /><text x="705" y="138" style="font-size:10px;fill:rgb(255,255,255);text-anchor:start;text-align:left;"> wang </text><text x="400" y="30" style="font-size:20px;fill:rgb(255,255,255);text-anchor:middle;text-align:center;"> inkscape dataset: quadratic </text><text x="400" y="42" style="font-size:8px;fill:rgb(200,200,200);text-anchor:middle;text-align:center;"> Normalized performance score (lower is better) </text></svg>