<svg xmlns="http://www.w3.org/2000/svg" viewBox="0 0 800 300"><rect x="0" y="0" width="800" height="300" ry="6" style="fill:rgb(30,30,30);stroke:none;fill-opacity:1;stroke-opacity:1;" /><path d="M 30 20 L 30 270" style="stroke:rgb(200,200,200);stroke-width:1" /><path d="M 30 270 L 780 270" style="stroke:rgb(200,200,200);stroke-width:1" /><path d="M 780 270 L 780 272" style="stroke:rgb(200,200,200);stroke-width:1" /><text x="780" y="282" style="font-size:10px;fill:rgb(200,200,200);text-anchor:middle;text-align:center;"> 0.01 </text><path d="M 630.77246 270 L 630.77246 272" style="stroke:rgb(200,200,200);stroke-width:1" /><text x="630.77246" y="282" style="font-size:10px;fill:rgb(200,200,200);text-anchor:middle;text-align:center;"> 0.025 </text><path d="M 517.8862 270 L 517.8862 272" style="stroke:rgb(200,200,200);stroke-width:1" /><text x="517.8862" y="282" style="font-size:10px;fill:rgb(200,200,200);text-anchor:middle;text-align:center;"> 0.05 </text><path d="M 451.85202 270 L 451.85202 272" style="stroke:rgb(200,200,200);stroke-width:1" /><text x="451.85202" y="282" style="font-size:10px;fill:rgb(200,200,200);text-anchor:middle;text-align:center;"> 0.075 </text><path d="M 405 270 L 405 272" style="stroke:rgb(200,200,200);stroke-width:1" /><text x="405" y="282" style="font-size:10px;fill:rgb(200,200,200);text-anchor:middle;text-align:center;"> 0.1 </text><path d="M 338.96576 270 L 338.96576 272" style="stroke:rgb(200,200,200);stroke-width:1" /><text x="338.96576" y="282" style="font-size:10px;fill:rgb(200,200,200);text-anchor:middle;text-align:center;"> 0.15 </text><path d="M 292.11377 270 L 292.11377 272" style="stroke:rgb(200,200,200);stroke-width:1" /><text x="292.11377" y="282" style="font-size:10px;fill:rgb(200,200,200);text-anchor:middle;text-align:center;"> 0.2 </text><path d="M 255.7725 270 L 255.7725 272" style="stroke:rgb(200,200,200);stroke-width:1" /><text x="255.7725" y="282" style="font-size:10px;fill:rgb(200,200,200);text-anchor:middle;text-align:center;"> 0.25 </text><path d="M 142.88626 270 L 142.88626 272" style="stroke:rgb(200,200,200);stroke-width:1" /><text x="142.88626" y="282" style="font-size:10px;fill:rgb(200,200,200);text-anchor:middle;text-align:center;"> 0.5 </text><path d="M 30 270 L 30 272" style="stroke:rgb(200,200,200);stroke-width:1" /><text x="30" y="282" style="font-size:10px;fill:rgb(200,200,200);text-anchor:middle;text-align:center;"> 1 </text><path d="M 28 270 L 30 270" style="stroke:rgb(200,200,200);stroke-width:1" /><text x="26" y="274" style="font-size:10px;fill:rgb(200,200,200);text-anchor:end;text-align:right;"> 0 </text><path d="M 28 207.5 L 30 207.5" style="stroke:rgb(200,200,200);stroke-width:1" /><text x="26" y="211.5" style="font-size:10px;fill:rgb(200,200,200);text-anchor:end;text-align:right;"> 0.25 </text><path d="M 28 145 L 30 145" style="stroke:rgb(200,200,200);stroke-width:1" /><text x="26" y="149" style="font-size:10px;fill:rgb(200,200,200);text-anchor:end;text-align:right;"> 0.5 </text><path d="M 28 82.5 L 30 82.5" style="stroke:rgb(200,200,200);stroke-width:1" /><text x="26" y="86.5" style="font-size:10px;fill:rgb(200,200,200);text-anchor:end;text-align:right;"> 0.75 </text><path d="M 28 20 L 30 20" style="stroke:rgb(200,200,200);stroke-width:1" /><text x="26" y="24" style="font-size:10px;fill:rgb(200,200,200);text-anchor:end;text-align:right;"> 1 </text><text x="400" y="294" style="font-size:10px;fill:rgb(200,200,200);text-anchor:middle;text-align:center;"> Tolerance </text><circle cx="780" cy="20" r="2" style="fill:rgb(50,125,209);stroke:none;fill-opacity:1;stroke-opacity:1;" /><path d="M 780 20 L 630.77246 71.315" style="stroke:rgb(50,125,209);stroke-width:1" /><circle cx="630.77246" cy="71.315" r="2" style="fill:rgb(50,125,209);stroke:none;fill-opacity:1;stroke-opacity:1;" /><path d="M 630.77246 71.315 L 517.8862 97.4725" style="stroke:rgb(50,125,209);stroke-width:1" /><circle cx="517.8862" cy="97.4725" r="2" style="fill:rgb(50,125,209);stroke:none;fill-opacity:1;stroke-opacity:1;" /><path d="M 517.8862 97.4725 L 451.85202 110.932495" style="stroke:rgb(50,125,209);stroke-width:1" /><circle cx="451.85202" cy="110.932495" r="2" style="fill:rgb(50,125,209);stroke:none;fill-opacity:1;stroke-opacity:1;" /><path d="M 451.85202 110.932495 L 405 120.6075" style="stroke:rgb(50,125,209);stroke-width:1" /><circle cx="405" cy="120.6075" r="2" style="fill:rgb(50,125,209);stroke:none;fill-opacity:1;stroke-opacity:1;" /><path d="M 405 120.6075 L 338.96576 132.62" style="stroke:rgb(50,125,209);stroke-width:1" /><circle cx="338.96576" cy="132.62" r="2" style="fill:rgb(50,125,209);stroke:none;fill-opacity:1;stroke-opacity:1;" /><path d="M 338.96576 132.62 L 292.11377 140.115" style="stroke:rgb(50,125,209);stroke-width:1" /><circle cx="292.11377" cy="140.115" r="2" style="fill:rgb(50,125,209);stroke:none;fill-opacity:1;stroke-opacity:1;" /><path d="M 292.11377 140.115 L 255.7725 145.5625" style="stroke:rgb(50,125,209);stroke-width:1" /><circle cx="255.7725" cy="145.5625" r="2" style="fill:rgb(50,125,209);stroke:none;fill-opacity:1;stroke-opacity:1;" /><path d="M 255.7725 145.5625 L 142.88626 161.13501" style="stroke:rgb(50,125,209);stroke-width:1" /><circle cx="142.88626" cy="161.13501" r="2" style="fill:rgb(50,125,209);stroke:none;fill-opacity:1;stroke-opacity:1;" /><path d="M 142.88626 161.13501 L 30 171.3675" style="stroke:rgb(50,125,209);stroke-width:1" /><circle cx="30" cy="171.3675" r="2" style="fill:rgb(50,125,209);stroke:none;fill-opacity:1;stroke-opacity:1;" /><circle cx="780" cy="119.36" r="2" style="fill:rgb(119,211,179);stroke:none;fill-opacity:1;stroke-opacity:1;" /><path d="M 780 119.36 L 630.77246 157.1375" style="stroke:rgb(119,211,179);stroke-width:1" /><circle cx="630.77246" cy="157.1375" r="2" style="fill:rgb(119,211,179);stroke:none;fill-opacity:1;stroke-opacity:1;" /><path d="M 630.77246 157.1375 L 517.8862 186.82251" style="stroke:rgb(119,211,179);stroke-width:1" /><circle cx="517.8862" cy="186.82251" r="2" style="fill:rgb(119,211,179);stroke:none;fill-opacity:1;stroke-opacity:1;" /><path d="M 517.8862 186.82251 L 451.85202 204.4725" style="stroke:rgb(119,211,179);stroke-width:1" /><circle cx="451.85202" cy="204.4725" r="2" style="fill:rgb(119,211,179);stroke:none;fill-opacity:1;stroke-opacity:1;" /><path d="M 451.85202 204.4725 L 405 214.58499" style="stroke:rgb(119,211,179);stroke-width:1" /><circle cx="405" cy="214.58499" r="2" style="fill:rgb(119,211,179);stroke:none;fill-opacity:1;stroke-opacity:1;" /><path d="M 405 214.58499 L 338.96576 230.20999" style="stroke:rgb(119,211,179);stroke-width:1" /><circle cx="338.96576" cy="230.20999" r="2" style="fill:rgb(119,211,179);stroke:none;fill-opacity:1;stroke-opacity:1;" /><path d="M 338.96576 230.20999 L 292.11377 239.8725" style="stroke:rgb(119,211,179);stroke-width:1" /><circle cx="292.11377" cy="239.8725" r="2" style="fill:rgb(119,211,179);stroke:none;fill-opacity:1;stroke-opacity:1;" /><path d="M 292.11377 239.8725 L 255.7725 243.62" style="stroke:rgb(119,211,179);stroke-width:1" /><circle cx="255.7725" cy="243.62" r="2" style="fill:rgb(119,211,179);stroke:none;fill-opacity:1;stroke-opacity:1;" /><path d="M 255.7725 243.62 L 142.88626 255.94" style="stroke:rgb(119,211,179);stroke-width:1" /><circle cx="142.88626" cy="255.94" r="2" style="fill:rgb(119,211,179);stroke:none;fill-opacity:1;stroke-opacity:1;" /><path d="M 142.88626 255.94 L 30 258.635" style="stroke:rgb(119,211,179);stroke-width:1" /><circle cx="30" cy="258.635" r="2" style="fill:rgb(119,211,179);stroke:none;fill-opacity:1;stroke-opacity:1;" /><circle cx="780" cy="149.14" r="2" style="fill:rgb(255,238,101);stroke:none;fill-opacity:1;stroke-opacity:1;" /><path d="M 780 149.14 L 630.77246 189.2475" style="stroke:rgb(255,238,101);stroke-width:1" /><circle cx="630.77246" cy="189.2475" r="2" style="fill:rgb(255,238,101);stroke:none;fill-opacity:1;stroke-opacity:1;" /><path d="M 630.77246 189.2475 L 517.8862 212.2375" style="stroke:rgb(255,238,101);stroke-width:1" /><circle cx="517.8862" cy="212.2375" r="2" style="fill:rgb(255,238,101);stroke:none;fill-opacity:1;stroke-opacity:1;" /><path d="M 517.8862 212.2375 L 451.85202 222.2425" style="stroke:rgb(255,238,101);stroke-width:1" /><circle cx="451.85202" cy="222.2425" r="2" style="fill:rgb(255,238,101);stroke:none;fill-opacity:1;stroke-opacity:1;" /><path d="M 451.85202 222.2425 L 405 230.19" style="stroke:rgb(255,238,101);stroke-width:1" /><circle cx="405" cy="230.19" r="2" style="fill:rgb(255,238,101);stroke:none;fill-opacity:1;stroke-opacity:1;" /><path d="M 405 230.19 L 338.96576 238.83" style="stroke:rgb(255,238,101);stroke-width:1" /><circle cx="338.96576" cy="238.83" r="2" style="fill:rgb(255,238,101);stroke:none;fill-opacity:1;stroke-opacity:1;" /><path d="M 338.96576 238.83 L 292.11377 242.7375" style="stroke:rgb(255,238,101);stroke-width:1" /><circle cx="292.11377" cy="242.7375" r="2" style="fill:rgb(255,238,101);stroke:none;fill-opacity:1;stroke-opacity:1;" /><path d="M 292.11377 242.7375 L 255.7725 248.01" style="stroke:rgb(255,238,101);stroke-width:1" /><circle cx="255.7725" cy="248.01" r="2" style="fill:rgb(255,238,101);stroke:none;fill-opacity:1;stroke-opacity:1;" /><path d="M 255.7725 248.01 L 142.88626 256.905" style="stroke:rgb(255,238,101);stroke-width:1" /><circle cx="142.88626" cy="256.905" r="2" style="fill:rgb(255,238,101);stroke:none;fill-opacity:1;stroke-opacity:1;" /><path d="M 142.88626 256.905 L 30 261.4175" style="stroke:rgb(255,238,101);stroke-width:1" /><circle cx="30" cy="261.4175" r="2" style="fill:rgb(255,238,101);stroke:none;fill-opacity:1;stroke-opacity:1;" /><circle cx="780" cy="236.8625" r="2" style="fill:rgb(199,126,190);stroke:none;fill-opacity:1;stroke-opacity:1;" /><path d="M 780 236.8625 L 630.77246 239.2875" style="stroke:rgb(199,126,190);stroke-width:1" /><circle cx="630.77246" cy="239.2875" r="2" style="fill:rgb(199,126,190);stroke:none;fill-opacity:1;stroke-opacity:1;" /><path d="M 630.77246 239.2875 L 517.8862 241.825" style="stroke:rgb(199,126,190);stroke-width:1" /><circle cx="517.8862" cy="241.825" r="2" style="fill:rgb(199,126,190);stroke:none;fill-opacity:1;stroke-opacity:1;" /><path d="M 517.8862 241.825 L 451.85202 243.385" style="stroke:rgb(199,126,190);stroke-width:1" /><circle cx="451.85202" cy="243.385" r="2" style="fill:rgb(199,126,190);stroke:none;fill-opacity:1;stroke-opacity:1;" /><path d="M 451.85202 243.385 L 405 245.1325" style="stroke:rgb(199,126,190);stroke-width:1" /><circle cx="405" cy="245.1325" r="2" style="fill:rgb(199,126,190);stroke:none;fill-opacity:1;stroke-opacity:1;" /><path d="M 405 245.1325 L 338.96576 247.7625" style="stroke:rgb(199,126,190);stroke-width:1" /><circle cx="338.96576" cy="247.7625" r="2" style="fill:rgb(199,126,190);stroke:none;fill-opacity:1;stroke-opacity:1;" /><path d="M 338.96576 247.7625 L 292.11377 249.16" style="stroke:rgb(199,126,190);stroke-width:1" /><circle cx="292.11377" cy="249.16" r="2" style="fill:rgb(199,126,190);stroke:none;fill-opacity:1;stroke-opacity:1;" /><path d="M 292.11377 249.16 L 255.7725 250.3875" style="stroke:rgb(199,126,190);stroke-width:1" /><circle cx="255.7725" cy="250.3875" r="2" style="fill:rgb(199,126,190);stroke:none;fill-opacity:1;stroke-opacity:1;" /><path d="M 255.7725 250.3875 L 142.88626 254.535" style="stroke:rgb(199,126,190);stroke-width:1" /><circle cx="142.88626" cy="254.535" r="2" style="fill:rgb(199,126,190);stroke:none;fill-opacity:1;stroke-opacity:1;" /><path d="M 142.88626 254.535 L 30 257.585" style="stroke:rgb(199,126,190);stroke-width:1" /><circle cx="30" cy="257.585" r="2" style="fill:rgb(199,126,190);stroke:none;fill-opacity:1;stroke-opacity:1;" /><circle cx="780" cy="184.69" r="2" style="fill:rgb(120,68,33);stroke:none;fill-opacity:1;stroke-opacity:1;" /><path d="M 780 184.69 L 630.77246 187.3925" style="stroke:rgb(120,68,33);stroke-width:1" /><circle cx="630.77246" cy="187.3925" r="2" style="fill:rgb(120,68,33);stroke:none;fill-opacity:1;stroke-opacity:1;" /><path d="M 630.77246 187.3925 L 517.8862 190.83249" style="stroke:rgb(120,68,33);stroke-width:1" /><circle cx="517.8862" cy="190.83249" r="2" style="fill:rgb(120,68,33);stroke:none;fill-opacity:1;stroke-opacity:1;" /><path d="M 517.8862 190.83249 L 451.85202 196.405" style="stroke:rgb(120,68,33);stroke-width:1" /><circle cx="451.85202" cy="196.405" r="2" style="fill:rgb(120,68,33);stroke:none;fill-opacity:1;stroke-opacity:1;" /><path d="M 451.85202 196.405 L 405 198.9725" style="stroke:rgb(120,68,33);stroke-width:1" /><circle cx="405" cy="198.9725" r="2" style="fill:rgb(120,68,33);stroke:none;fill-opacity:1;stroke-opacity:1;" /><path d="M 405 198.9725 L 338.96576 204.25" style="stroke:rgb(120,68,33);stroke-width:1" /><circle cx="338.96576" cy="204.25" r="2" style="fill:rgb(120,68,33);stroke:none;fill-opacity:1;stroke-opacity:1;" /><path d="M 338.96576 204.25 L 292.11377 208.4625" style="stroke:rgb(120,68,33);stroke-width:1" /><circle cx="292.11377" cy="208.4625" r="2" style="fill:rgb(120,68,33);stroke:none;fill-opacity:1;stroke-opacity:1;" /><path d="M 292.11377 208.4625 L 255.7725 211.41501" style="stroke:rgb(120,68,33);stroke-width:1" /><circle cx="255.7725" cy="211.41501" r="2" style="fill:rgb(120,68,33);stroke:none;fill-opacity:1;stroke-opacity:1;" /><path d="M 255.7725 211.41501 L 142.88626 215.72" style="stroke:rgb(120,68,33);stroke-width:1" /><circle cx="142.88626" cy="215.72" r="2" style="fill:rgb(120,68,33);stroke:none;fill-opacity:1;stroke-opacity:1;" /><path d="M 142.88626 215.72 L 30 214.2075" style="stroke:rgb(120,68,33);stroke-width:1" /><circle cx="30" cy="214.2075" r="2" style="fill:rgb(120,68,33);stroke:none;fill-opacity:1;stroke-opacity:1;" /><circle cx="780" cy="234.4225" r="2" style="fill:rgb(253,127,111);stroke:none;fill-opacity:1;stroke-opacity:1;" /><path d="M 780 234.4225 L 630.77246 237.7475" style="stroke:rgb(253,127,111);stroke-width:1" /><circle cx="630.77246" cy="237.7475" r="2" style="fill:rgb(253,127,111);stroke:none;fill-opacity:1;stroke-opacity:1;" /><path d="M 630.77246 237.7475 L 517.8862 240.3025" style="stroke:rgb(253,127,111);stroke-width:1" /><circle cx="517.8862" cy="240.3025" r="2" style="fill:rgb(253,127,111);stroke:none;fill-opacity:1;stroke-opacity:1;" /><path d="M 517.8862 240.3025 L 451.85202 243.03" style="stroke:rgb(253,127,111);stroke-width:1" /><circle cx="451.85202" cy="243.03" r="2" style="fill:rgb(253,127,111);stroke:none;fill-opacity:1;stroke-opacity:1;" /><path d="M 451.85202 243.03 L 405 244.8025" style="stroke:rgb(253,127,111);stroke-width:1" /><circle cx="405" cy="244.8025" r="2" style="fill:rgb(253,127,111);stroke:none;fill-opacity:1;stroke-opacity:1;" /><path d="M 405 244.8025 L 338.96576 247.385" style="stroke:rgb(253,127,111);stroke-width:1" /><circle cx="338.96576" cy="247.385" r="2" style="fill:rgb(253,127,111);stroke:none;fill-opacity:1;stroke-opacity:1;" /><path d="M 338.96576 247.385 L 292.11377 249.2175" style="stroke:rgb(253,127,111);stroke-width:1" /><circle cx="292.11377" cy="249.2175" r="2" style="fill:rgb(253,127,111);stroke:none;fill-opacity:1;stroke-opacity:1;" /><path d="M 292.11377 249.2175 L 255.7725 250.685" style="stroke:rgb(253,127,111);stroke-width:1" /><circle cx="255.7725" cy="250.685" r="2" style="fill:rgb(253,127,111);stroke:none;fill-opacity:1;stroke-opacity:1;" /><path d="M 255.7725 250.685 L 142.88626 255.05" style="stroke:rgb(253,127,111);stroke-width:1" /><circle cx="142.88626" cy="255.05" r="2" style="fill:rgb(253,127,111);stroke:none;fill-opacity:1;stroke-opacity:1;" /><path d="M 142.88626 255.05 L 30 258.265" style="stroke:rgb(253,127,111);stroke-width:1" /><circle cx="30" cy="258.265" r="2" style="fill:rgb(253,127,111);stroke:none;fill-opacity:1;stroke-opacity:1;" /><circle cx="780" cy="111.3" r="2" style="fill:rgb(126,176,213);stroke:none;fill-opacity:1;stroke-opacity:1;" /><path d="M 780 111.3 L 630.77246 127.21001" style="stroke:rgb(126,176,213);stroke-width:1" /><circle cx="630.77246" cy="127.21001" r="2" style="fill:rgb(126,176,213);stroke:none;fill-opacity:1;stroke-opacity:1;" /><path d="M 630.77246 127.21001 L 517.8862 143.09" style="stroke:rgb(126,176,213);stroke-width:1" /><circle cx="517.8862" cy="143.09" r="2" style="fill:rgb(126,176,213);stroke:none;fill-opacity:1;stroke-opacity:1;" /><path d="M 517.8862 143.09 L 451.85202 148.1225" style="stroke:rgb(126,176,213);stroke-width:1" /><circle cx="451.85202" cy="148.1225" r="2" style="fill:rgb(126,176,213);stroke:none;fill-opacity:1;stroke-opacity:1;" /><path d="M 451.85202 148.1225 L 405 148.7125" style="stroke:rgb(126,176,213);stroke-width:1" /><circle cx="405" cy="148.7125" r="2" style="fill:rgb(126,176,213);stroke:none;fill-opacity:1;stroke-opacity:1;" /><path d="M 405 148.7125 L 338.96576 159.195" style="stroke:rgb(126,176,213);stroke-width:1" /><circle cx="338.96576" cy="159.195" r="2" style="fill:rgb(126,176,213);stroke:none;fill-opacity:1;stroke-opacity:1;" /><path d="M 338.96576 159.195 L 292.11377 156.695" style="stroke:rgb(126,176,213);stroke-width:1" /><circle cx="292.11377" cy="156.695" r="2" style="fill:rgb(126,176,213);stroke:none;fill-opacity:1;stroke-opacity:1;" /><path d="M 292.11377 156.695 L 255.7725 163.64499" style="stroke:rgb(126,176,213);stroke-width:1" /><circle cx="255.7725" cy="163.64499" r="2" style="fill:rgb(126,176,213);stroke:none;fill-opacity:1;stroke-opacity:1;" /><path d="M 255.7725 163.64499 L 142.88626 172.5275" style="stroke:rgb(126,176,213);stroke-width:1" /><circle cx="142.88626" cy="172.5275" r="2" style="fill:rgb(126,176,213);stroke:none;fill-opacity:1;stroke-opacity:1;" /><path d="M 142.88626 172.5275 L 30 174.28" style="stroke:rgb(126,176,213);stroke-width:1" /><circle cx="30" cy="174.28" r="2" style="fill:rgb(126,176,213);stroke:none;fill-opacity:1;stroke-opacity:1;" /><circle cx="780" cy="115.2" r="2" style="fill:rgb(128,214,87);stroke:none;fill-opacity:1;stroke-opacity:1;" /><path d="M 780 115.2 L 630.77246 167.9075" style="stroke:rgb(128,214,87);stroke-width:1" /><circle cx="630.77246" cy="167.9075" r="2" style="fill:rgb(128,214,87);stroke:none;fill-opacity:1;stroke-opacity:1;" /><path d="M 630.77246 167.9075 L 517.8862 203.95999" style="stroke:rgb(128,214,87);stroke-width:1" /><circle cx="517.8862" cy="203.95999" r="2" style="fill:rgb(128,214,87);stroke:none;fill-opacity:1;stroke-opacity:1;" /><path d="M 517.8862 203.95999 L 451.85202 218.2375" style="stroke:rgb(128,214,87);stroke-width:1" /><circle cx="451.85202" cy="218.2375" r="2" style="fill:rgb(128,214,87);stroke:none;fill-opacity:1;stroke-opacity:1;" /><path d="M 451.85202 218.2375 L 405 226.97" style="stroke:rgb(128,214,87);stroke-width:1" /><circle cx="405" cy="226.97" r="2" style="fill:rgb(128,214,87);stroke:none;fill-opacity:1;stroke-opacity:1;" /><path d="M 405 226.97 L 338.96576 238.095" style="stroke:rgb(128,214,87);stroke-width:1" /><circle cx="338.96576" cy="238.095" r="2" style="fill:rgb(128,214,87);stroke:none;fill-opacity:1;stroke-opacity:1;" /><path d="M 338.96576 238.095 L 292.11377 244.2825" style="stroke:rgb(128,214,87);stroke-width:1" /><circle cx="292.11377" cy="244.2825" r="2" style="fill:rgb(128,214,87);stroke:none;fill-opacity:1;stroke-opacity:1;" /><path d="M 292.11377 244.2825 L 255.7725 248.0525" style="stroke:rgb(128,214,87);stroke-width:1" /><circle cx="255.7725" cy="248.0525" r="2" style="fill:rgb(128,214,87);stroke:none;fill-opacity:1;stroke-opacity:1;" /><path d="M 255.7725 248.0525 L 142.88626 256.545" style="stroke:rgb(128,214,87);stroke-width:1" /><circle cx="142.88626" cy="256.545" r="2" style="fill:rgb(128,214,87);stroke:none;fill-opacity:1;stroke-opacity:1;" /><path d="M 142.88626 256.545 L 30 259.1675" style="stroke:rgb(128,214,87);stroke-width:1" /><circle cx="30" cy="259.1675" r="2" style="fill:rgb(128,214,87);stroke:none;fill-opacity:1;stroke-opacity:1;" /><circle cx="780" cy="102.13251" r="2" style="fill:rgb(255,181,90);stroke:none;fill-opacity:1;stroke-opacity:1;" /><path d="M 780 102.13251 L 630.77246 149.07251" style="stroke:rgb(255,181,90);stroke-width:1" /><circle cx="630.77246" cy="149.07251" r="2" style="fill:rgb(255,181,90);stroke:none;fill-opacity:1;stroke-opacity:1;" /><path d="M 630.77246 149.07251 L 517.8862 173.86" style="stroke:rgb(255,181,90);stroke-width:1" /><circle cx="517.8862" cy="173.86" r="2" style="fill:rgb(255,181,90);stroke:none;fill-opacity:1;stroke-opacity:1;" /><path d="M 517.8862 173.86 L 451.85202 183.555" style="stroke:rgb(255,181,90);stroke-width:1" /><circle cx="451.85202" cy="183.555" r="2" style="fill:rgb(255,181,90);stroke:none;fill-opacity:1;stroke-opacity:1;" /><path d="M 451.85202 183.555 L 405 188.65" style="stroke:rgb(255,181,90);stroke-width:1" /><circle cx="405" cy="188.65" r="2" style="fill:rgb(255,181,90);stroke:none;fill-opacity:1;stroke-opacity:1;" /><path d="M 405 188.65 L 338.96576 193.445" style="stroke:rgb(255,181,90);stroke-width:1" /><circle cx="338.96576" cy="193.445" r="2" style="fill:rgb(255,181,90);stroke:none;fill-opacity:1;stroke-opacity:1;" /><path d="M 338.96576 193.445 L 292.11377 194.1175" style="stroke:rgb(255,181,90);stroke-width:1" /><circle cx="292.11377" cy="194.1175" r="2" style="fill:rgb(255,181,90);stroke:none;fill-opacity:1;stroke-opacity:1;" /><path d="M 292.11377 194.1175 L 255.7725 191.6425" style="stroke:rgb(255,181,90);stroke-width:1" /><circle cx="255.7725" cy="191.6425" r="2" style="fill:rgb(255,181,90);stroke:none;fill-opacity:1;stroke-opacity:1;" /><path d="M 255.7725 191.6425 L 142.88626 206.305" style="stroke:rgb(255,181,90);stroke-width:1" /><circle cx="142.88626" cy="206.305" r="2" style="fill:rgb(255,181,90);stroke:none;fill-opacity:1;stroke-opacity:1;" /><path d="M 142.88626 206.305 L 30 220.705" style="stroke:rgb(255,181,90);stroke-width:1" /><circle cx="30" cy="220.705" r="2" style="fill:rgb(255,181,90);stroke:none;fill-opacity:1;stroke-opacity:1;" /><circle cx="780" cy="236.7075" r="2" style="fill:rgb(253,204,229);stroke:none;fill-opacity:1;stroke-opacity:1;" /><path d="M 780 236.7075 L 630.77246 239.55" style="stroke:rgb(253,204,229);stroke-width:1" /><circle cx="630.77246" cy="239.55" r="2" style="fill:rgb(253,204,229);stroke:none;fill-opacity:1;stroke-opacity:1;" /><path d="M 630.77246 239.55 L 517.8862 241.8075" style="stroke:rgb(253,204,229);stroke-width:1" /><circle cx="517.8862" cy="241.8075" r="2" style="fill:rgb(253,204,229);stroke:none;fill-opacity:1;stroke-opacity:1;" /><path d="M 517.8862 241.8075 L 451.85202 243.7975" style="stroke:rgb(253,204,229);stroke-width:1" /><circle cx="451.85202" cy="243.7975" r="2" style="fill:rgb(253,204,229);stroke:none;fill-opacity:1;stroke-opacity:1;" /><path d="M 451.85202 243.7975 L 405 245.315" style="stroke:rgb(253,204,229);stroke-width:1" /><circle cx="405" cy="245.315" r="2" style="fill:rgb(253,204,229);stroke:none;fill-opacity:1;stroke-opacity:1;" /><path d="M 405 245.315 L 338.96576 248.08" style="stroke:rgb(253,204,229);stroke-width:1" /><circle cx="338.96576" cy="248.08" r="2" style="fill:rgb(253,204,229);stroke:none;fill-opacity:1;stroke-opacity:1;" /><path d="M 338.96576 248.08 L 292.11377 249.015" style="stroke:rgb(253,204,229);stroke-width:1" /><circle cx="292.11377" cy="249.015" r="2" style="fill:rgb(253,204,229);stroke:none;fill-opacity:1;stroke-opacity:1;" /><path d="M 292.11377 249.015 L 255.7725 250.995" style="stroke:rgb(253,204,229);stroke-width:1" /><circle cx="255.7725" cy="250.995" r="2" style="fill:rgb(253,204,229);stroke:none;fill-opacity:1;stroke-opacity:1;" /><path d="M 255.7725 250.995 L 142.88626 255.4725" style="stroke:rgb(253,204,229);stroke-width:1" /><circle cx="142.88626" cy="255.4725" r="2" style="fill:rgb(253,204,229);stroke:none;fill-opacity:1;stroke-opacity:1;" /><path d="M 142.88626 255.4725 L 30 258.5725" style="stroke:rgb(253,204,229);stroke-width:1" /><circle cx="30" cy="258.5725" r="2" style="fill:rgb(253,204,229);stroke:none;fill-opacity:1;stroke-opacity:1;" /><circle cx="780" cy="187.545" r="2" style="fill:rgb(200,113,55);stroke:none;fill-opacity:1;stroke-opacity:1;" /><path d="M 780 187.545 L 630.77246 189.5025" style="stroke:rgb(200,113,55);stroke-width:1" /><circle cx="630.77246" cy="189.5025" r="2" style="fill:rgb(200,113,55);stroke:none;fill-opacity:1;stroke-opacity:1;" /><path d="M 630.77246 189.5025 L 517.8862 193.68" style="stroke:rgb(200,113,55);stroke-width:1" /><circle cx="517.8862" cy="193.68" r="2" style="fill:rgb(200,113,55);stroke:none;fill-opacity:1;stroke-opacity:1;" /><path d="M 517.8862 193.68 L 451.85202 196.265" style="stroke:rgb(200,113,55);stroke-width:1" /><circle cx="451.85202" cy="196.265" r="2" style="fill:rgb(200,113,55);stroke:none;fill-opacity:1;stroke-opacity:1;" /><path d="M 451.85202 196.265 L 405 198.39749" style="stroke:rgb(200,113,55);stroke-width:1" /><circle cx="405" cy="198.39749" r="2" style="fill:rgb(200,113,55);stroke:none;fill-opacity:1;stroke-opacity:1;" /><path d="M 405 198.39749 L 338.96576 197.39749" style="stroke:rgb(200,113,55);stroke-width:1" /><circle cx="338.96576" cy="197.39749" r="2" style="fill:rgb(200,113,55);stroke:none;fill-opacity:1;stroke-opacity:1;" /><path d="M 338.96576 197.39749 L 292.11377 203.72751" style="stroke:rgb(200,113,55);stroke-width:1" /><circle cx="292.11377" cy="203.72751" r="2" style="fill:rgb(200,113,55);stroke:none;fill-opacity:1;stroke-opacity:1;" /><path d="M 292.11377 203.72751 L 255.7725 204.57251" style="stroke:rgb(200,113,55);stroke-width:1" /><circle cx="255.7725" cy="204.57251" r="2" style="fill:rgb(200,113,55);stroke:none;fill-opacity:1;stroke-opacity:1;" /><path d="M 255.7725 204.57251 L 142.88626 211.5875" style="stroke:rgb(200,113,55);stroke-width:1" /><circle cx="142.88626" cy="211.5875" r="2" style="fill:rgb(200,113,55);stroke:none;fill-opacity:1;stroke-opacity:1;" /><path d="M 142.88626 211.5875 L 30 211.85" style="stroke:rgb(200,113,55);stroke-width:1" /><circle cx="30" cy="211.85" r="2" style="fill:rgb(200,113,55);stroke:none;fill-opacity:1;stroke-opacity:1;" /><rect x="676" y="16" width="80" height="238" ry="4" style="fill:rgb(30,30,30);stroke:none;fill-opacity:0.8;stroke-opacity:1;" /><rect x="680" y="20" width="20" height="20" ry="2" style="fill:rgb(253,127,111);stroke:none;fill-opacity:1;stroke-opacity:1;" /><text x="705" y="33" style="font-size:10px;fill:rgb(255,255,255);text-anchor:start;text-align:left;"> fwd-diff </text><rect x="680" y="41" width="20" height="20" ry="2" style="fill:rgb(255,181,90);stroke:none;fill-opacity:1;stroke-opacity:1;" /><text x="705" y="54" style="font-size:10px;fill:rgb(255,255,255);text-anchor:start;text-align:left;"> hain </text><rect x="680" y="62" width="20" height="20" ry="2" style="fill:rgb(50,125,209);stroke:none;fill-opacity:1;stroke-opacity:1;" /><text x="705" y="75" style="font-size:10px;fill:rgb(255,255,255);text-anchor:start;text-align:left;"> levien </text><rect x="680" y="83" width="20" height="20" ry="2" style="fill:rgb(119,211,179);stroke:none;fill-opacity:1;stroke-opacity:1;" /><text x="705" y="96" style="font-size:10px;fill:rgb(255,255,255);text-anchor:start;text-align:left;"> levien-linear </text><rect x="680" y="104" width="20" height="20" ry="2" style="fill:rgb(126,176,213);stroke:none;fill-opacity:1;stroke-opacity:1;" /><text x="705" y="117" style="font-size:10px;fill:rgb(255,255,255);text-anchor:start;text-align:left;"> levien-simd </text><rect x="680" y="125" width="20" height="20" ry="2" style="fill:rgb(128,214,87);stroke:none;fill-opacity:1;stroke-opacity:1;" /><text x="705" y="138" style="font-size:10px;fill:rgb(255,255,255);text-anchor:start;text-align:left;"> linear </text><rect x="680" y="146" width="20" height="20" ry="2" style="fill:rgb(255,238,101);stroke:none;fill-opacity:1;stroke-opacity:1;" /><text x="705" y="159" style="font-size:10px;fill:rgb(255,255,255);text-anchor:start;text-align:left;"> recursive </text><rect x="680" y="167" width="20" height="20" ry="2" style="fill:rgb(253,204,229);stroke:none;fill-opacity:1;stroke-opacity:1;" /><text x="705" y="180" style="font-size:10px;fill:rgb(255,255,255);text-anchor:start;text-align:left;"> wang </text><rect x="680" y="188" width="20" height="20" ry="2" style="fill:rgb(199,126,190);stroke:none;fill-opacity:1;stroke-opacity:1;" /><text x="705" y="201" style="font-size:10px;fill:rgb(255,255,255);text-anchor:start;text-align:left;"> wang-simd </text><rect x="680" y="209" width="20" height="20" ry="2" style="fill:rgb(120,68,33);stroke:none;fill-opacity:1;stroke-opacity:1;" /><text x="705" y="222" style="font-size:10px;fill:rgb(255,255,255);text-anchor:start;text-align:left;"> yzerman </text><rect x="680" y="230" width="20" height="20" ry="2" style="fill:rgb(200,113,55);stroke:none;fill-opacity:1;stroke-opacity:1;" /><text x="705" y="243" style="font-size:10px;fill:rgb(255,255,255);text-anchor:start;text-align:left;"> yzerman-simd </text><text x="400" y="30" style="font-size:20px;fill:rgb(255,255,255);text-anchor:middle;text-align:center;"> inkscape dataset: cubic </text><text x="400" y="42" style="font-size:8px;fill:rgb(200,200,200);text-anchor:middle;text-align:center;"> Normalized performance score (lower is better) </text></svg>