<svg xmlns="http://www.w3.org/2000/svg" viewBox="0 0 800 300"><rect x="0" y="0" width="800" height="300" ry="6" style="fill:rgb(30,30,30);stroke:none;fill-opacity:1;stroke-opacity:1;" /><path d="M 30 20 L 30 270" style="stroke:rgb(200,200,200);stroke-width:1" /><path d="M 30 270 L 780 270" style="stroke:rgb(200,200,200);stroke-width:1" /><path d="M 780 270 L 780 272" style="stroke:rgb(200,200,200);stroke-width:1" /><text x="780" y="282" style="font-size:10px;fill:rgb(200,200,200);text-anchor:middle;text-align:center;"> 0.01 </text><path d="M 630.77246 270 L 630.77246 272" style="stroke:rgb(200,200,200);stroke-width:1" /><text x="630.77246" y="282" style="font-size:10px;fill:rgb(200,200,200);text-anchor:middle;text-align:center;"> 0.025 </text><path d="M 517.8862 270 L 517.8862 272" style="stroke:rgb(200,200,200);stroke-width:1" /><text x="517.8862" y="282" style="font-size:10px;fill:rgb(200,200,200);text-anchor:middle;text-align:center;"> 0.05 </text><path d="M 451.85202 270 L 451.85202 272" style="stroke:rgb(200,200,200);stroke-width:1" /><text x="451.85202" y="282" style="font-size:10px;fill:rgb(200,200,200);text-anchor:middle;text-align:center;"> 0.075 </text><path d="M 405 270 L 405 272" style="stroke:rgb(200,200,200);stroke-width:1" /><text x="405" y="282" style="font-size:10px;fill:rgb(200,200,200);text-anchor:middle;text-align:center;"> 0.1 </text><path d="M 338.96576 270 L 338.96576 272" style="stroke:rgb(200,200,200);stroke-width:1" /><text x="338.96576" y="282" style="font-size:10px;fill:rgb(200,200,200);text-anchor:middle;text-align:center;"> 0.15 </text><path d="M 292.11377 270 L 292.11377 272" style="stroke:rgb(200,200,200);stroke-width:1" /><text x="292.11377" y="282" style="font-size:10px;fill:rgb(200,200,200);text-anchor:middle;text-align:center;"> 0.2 </text><path d="M 255.7725 270 L 255.7725 272" style="stroke:rgb(200,200,200);stroke-width:1" /><text x="255.7725" y="282" style="font-size:10px;fill:rgb(200,200,200);text-anchor:middle;text-align:center;"> 0.25 </text><path d="M 142.88626 270 L 142.88626 272" style="stroke:rgb(200,200,200);stroke-width:1" /><text x="142.88626" y="282" style="font-size:10px;fill:rgb(200,200,200);text-anchor:middle;text-align:center;"> 0.5 </text><path d="M 30 270 L 30 272" style="stroke:rgb(200,200,200);stroke-width:1" /><text x="30" y="282" style="font-size:10px;fill:rgb(200,200,200);text-anchor:middle;text-align:center;"> 1 </text><path d="M 28 270 L 30 270" style="stroke:rgb(200,200,200);stroke-width:1" /><text x="26" y="274" style="font-size:10px;fill:rgb(200,200,200);text-anchor:end;text-align:right;"> 0 </text><path d="M 28 207.5 L 30 207.5" style="stroke:rgb(200,200,200);stroke-width:1" /><text x="26" y="211.5" style="font-size:10px;fill:rgb(200,200,200);text-anchor:end;text-align:right;"> 0.25 </text><path d="M 28 145 L 30 145" style="stroke:rgb(200,200,200);stroke-width:1" /><text x="26" y="149" style="font-size:10px;fill:rgb(200,200,200);text-anchor:end;text-align:right;"> 0.5 </text><path d="M 28 82.5 L 30 82.5" style="stroke:rgb(200,200,200);stroke-width:1" /><text x="26" y="86.5" style="font-size:10px;fill:rgb(200,200,200);text-anchor:end;text-align:right;"> 0.75 </text><path d="M 28 20 L 30 20" style="stroke:rgb(200,200,200);stroke-width:1" /><text x="26" y="24" style="font-size:10px;fill:rgb(200,200,200);text-anchor:end;text-align:right;"> 1 </text><text x="400" y="294" style="font-size:10px;fill:rgb(200,200,200);text-anchor:middle;text-align:center;"> Tolerance </text><circle cx="780" cy="245.875" r="2" style="fill:rgb(253,127,111);stroke:none;fill-opacity:1;stroke-opacity:1;" /><path d="M 780 245.875 L 630.77246 251.7425" style="stroke:rgb(253,127,111);stroke-width:1" /><circle cx="630.77246" cy="251.7425" r="2" style="fill:rgb(253,127,111);stroke:none;fill-opacity:1;stroke-opacity:1;" /><path d="M 630.77246 251.7425 L 517.8862 255.51" style="stroke:rgb(253,127,111);stroke-width:1" /><circle cx="517.8862" cy="255.51" r="2" style="fill:rgb(253,127,111);stroke:none;fill-opacity:1;stroke-opacity:1;" /><path d="M 517.8862 255.51 L 451.85202 257.1675" style="stroke:rgb(253,127,111);stroke-width:1" /><circle cx="451.85202" cy="257.1675" r="2" style="fill:rgb(253,127,111);stroke:none;fill-opacity:1;stroke-opacity:1;" /><path d="M 451.85202 257.1675 L 405 258.32" style="stroke:rgb(253,127,111);stroke-width:1" /><circle cx="405" cy="258.32" r="2" style="fill:rgb(253,127,111);stroke:none;fill-opacity:1;stroke-opacity:1;" /><path d="M 405 258.32 L 338.96576 259.73" style="stroke:rgb(253,127,111);stroke-width:1" /><circle cx="338.96576" cy="259.73" r="2" style="fill:rgb(253,127,111);stroke:none;fill-opacity:1;stroke-opacity:1;" /><path d="M 338.96576 259.73 L 292.11377 260.695" style="stroke:rgb(253,127,111);stroke-width:1" /><circle cx="292.11377" cy="260.695" r="2" style="fill:rgb(253,127,111);stroke:none;fill-opacity:1;stroke-opacity:1;" /><path d="M 292.11377 260.695 L 255.7725 261.2175" style="stroke:rgb(253,127,111);stroke-width:1" /><circle cx="255.7725" cy="261.2175" r="2" style="fill:rgb(253,127,111);stroke:none;fill-opacity:1;stroke-opacity:1;" /><path d="M 255.7725 261.2175 L 142.88626 263.0325" style="stroke:rgb(253,127,111);stroke-width:1" /><circle cx="142.88626" cy="263.0325" r="2" style="fill:rgb(253,127,111);stroke:none;fill-opacity:1;stroke-opacity:1;" /><path d="M 142.88626 263.0325 L 30 263.9275" style="stroke:rgb(253,127,111);stroke-width:1" /><circle cx="30" cy="263.9275" r="2" style="fill:rgb(253,127,111);stroke:none;fill-opacity:1;stroke-opacity:1;" /><circle cx="780" cy="24.472504" r="2" style="fill:rgb(255,238,101);stroke:none;fill-opacity:1;stroke-opacity:1;" /><path d="M 780 24.472504 L 630.77246 127.572495" style="stroke:rgb(255,238,101);stroke-width:1" /><circle cx="630.77246" cy="127.572495" r="2" style="fill:rgb(255,238,101);stroke:none;fill-opacity:1;stroke-opacity:1;" /><path d="M 630.77246 127.572495 L 517.8862 155.51999" style="stroke:rgb(255,238,101);stroke-width:1" /><circle cx="517.8862" cy="155.51999" r="2" style="fill:rgb(255,238,101);stroke:none;fill-opacity:1;stroke-opacity:1;" /><path d="M 517.8862 155.51999 L 451.85202 185.69751" style="stroke:rgb(255,238,101);stroke-width:1" /><circle cx="451.85202" cy="185.69751" r="2" style="fill:rgb(255,238,101);stroke:none;fill-opacity:1;stroke-opacity:1;" /><path d="M 451.85202 185.69751 L 405 197.57251" style="stroke:rgb(255,238,101);stroke-width:1" /><circle cx="405" cy="197.57251" r="2" style="fill:rgb(255,238,101);stroke:none;fill-opacity:1;stroke-opacity:1;" /><path d="M 405 197.57251 L 338.96576 208.3875" style="stroke:rgb(255,238,101);stroke-width:1" /><circle cx="338.96576" cy="208.3875" r="2" style="fill:rgb(255,238,101);stroke:none;fill-opacity:1;stroke-opacity:1;" /><path d="M 338.96576 208.3875 L 292.11377 216.555" style="stroke:rgb(255,238,101);stroke-width:1" /><circle cx="292.11377" cy="216.555" r="2" style="fill:rgb(255,238,101);stroke:none;fill-opacity:1;stroke-opacity:1;" /><path d="M 292.11377 216.555 L 255.7725 221.685" style="stroke:rgb(255,238,101);stroke-width:1" /><circle cx="255.7725" cy="221.685" r="2" style="fill:rgb(255,238,101);stroke:none;fill-opacity:1;stroke-opacity:1;" /><path d="M 255.7725 221.685 L 142.88626 238.1875" style="stroke:rgb(255,238,101);stroke-width:1" /><circle cx="142.88626" cy="238.1875" r="2" style="fill:rgb(255,238,101);stroke:none;fill-opacity:1;stroke-opacity:1;" /><path d="M 142.88626 238.1875 L 30 245.55" style="stroke:rgb(255,238,101);stroke-width:1" /><circle cx="30" cy="245.55" r="2" style="fill:rgb(255,238,101);stroke:none;fill-opacity:1;stroke-opacity:1;" /><circle cx="780" cy="244.12" r="2" style="fill:rgb(253,204,229);stroke:none;fill-opacity:1;stroke-opacity:1;" /><path d="M 780 244.12 L 630.77246 250.985" style="stroke:rgb(253,204,229);stroke-width:1" /><circle cx="630.77246" cy="250.985" r="2" style="fill:rgb(253,204,229);stroke:none;fill-opacity:1;stroke-opacity:1;" /><path d="M 630.77246 250.985 L 517.8862 254.2025" style="stroke:rgb(253,204,229);stroke-width:1" /><circle cx="517.8862" cy="254.2025" r="2" style="fill:rgb(253,204,229);stroke:none;fill-opacity:1;stroke-opacity:1;" /><path d="M 517.8862 254.2025 L 451.85202 256.41" style="stroke:rgb(253,204,229);stroke-width:1" /><circle cx="451.85202" cy="256.41" r="2" style="fill:rgb(253,204,229);stroke:none;fill-opacity:1;stroke-opacity:1;" /><path d="M 451.85202 256.41 L 405 257.81" style="stroke:rgb(253,204,229);stroke-width:1" /><circle cx="405" cy="257.81" r="2" style="fill:rgb(253,204,229);stroke:none;fill-opacity:1;stroke-opacity:1;" /><path d="M 405 257.81 L 338.96576 259.2375" style="stroke:rgb(253,204,229);stroke-width:1" /><circle cx="338.96576" cy="259.2375" r="2" style="fill:rgb(253,204,229);stroke:none;fill-opacity:1;stroke-opacity:1;" /><path d="M 338.96576 259.2375 L 292.11377 260.035" style="stroke:rgb(253,204,229);stroke-width:1" /><circle cx="292.11377" cy="260.035" r="2" style="fill:rgb(253,204,229);stroke:none;fill-opacity:1;stroke-opacity:1;" /><path d="M 292.11377 260.035 L 255.7725 260.855" style="stroke:rgb(253,204,229);stroke-width:1" /><circle cx="255.7725" cy="260.855" r="2" style="fill:rgb(253,204,229);stroke:none;fill-opacity:1;stroke-opacity:1;" /><path d="M 255.7725 260.855 L 142.88626 262.64" style="stroke:rgb(253,204,229);stroke-width:1" /><circle cx="142.88626" cy="262.64" r="2" style="fill:rgb(253,204,229);stroke:none;fill-opacity:1;stroke-opacity:1;" /><path d="M 142.88626 262.64 L 30 264.14" style="stroke:rgb(253,204,229);stroke-width:1" /><circle cx="30" cy="264.14" r="2" style="fill:rgb(253,204,229);stroke:none;fill-opacity:1;stroke-opacity:1;" /><circle cx="780" cy="231.2425" r="2" style="fill:rgb(126,176,213);stroke:none;fill-opacity:1;stroke-opacity:1;" /><path d="M 780 231.2425 L 630.77246 240.89749" style="stroke:rgb(126,176,213);stroke-width:1" /><circle cx="630.77246" cy="240.89749" r="2" style="fill:rgb(126,176,213);stroke:none;fill-opacity:1;stroke-opacity:1;" /><path d="M 630.77246 240.89749 L 517.8862 246.235" style="stroke:rgb(126,176,213);stroke-width:1" /><circle cx="517.8862" cy="246.235" r="2" style="fill:rgb(126,176,213);stroke:none;fill-opacity:1;stroke-opacity:1;" /><path d="M 517.8862 246.235 L 451.85202 248.135" style="stroke:rgb(126,176,213);stroke-width:1" /><circle cx="451.85202" cy="248.135" r="2" style="fill:rgb(126,176,213);stroke:none;fill-opacity:1;stroke-opacity:1;" /><path d="M 451.85202 248.135 L 405 250.24" style="stroke:rgb(126,176,213);stroke-width:1" /><circle cx="405" cy="250.24" r="2" style="fill:rgb(126,176,213);stroke:none;fill-opacity:1;stroke-opacity:1;" /><path d="M 405 250.24 L 338.96576 252.57" style="stroke:rgb(126,176,213);stroke-width:1" /><circle cx="338.96576" cy="252.57" r="2" style="fill:rgb(126,176,213);stroke:none;fill-opacity:1;stroke-opacity:1;" /><path d="M 338.96576 252.57 L 292.11377 253.3775" style="stroke:rgb(126,176,213);stroke-width:1" /><circle cx="292.11377" cy="253.3775" r="2" style="fill:rgb(126,176,213);stroke:none;fill-opacity:1;stroke-opacity:1;" /><path d="M 292.11377 253.3775 L 255.7725 254.7125" style="stroke:rgb(126,176,213);stroke-width:1" /><circle cx="255.7725" cy="254.7125" r="2" style="fill:rgb(126,176,213);stroke:none;fill-opacity:1;stroke-opacity:1;" /><path d="M 255.7725 254.7125 L 142.88626 256.635" style="stroke:rgb(126,176,213);stroke-width:1" /><circle cx="142.88626" cy="256.635" r="2" style="fill:rgb(126,176,213);stroke:none;fill-opacity:1;stroke-opacity:1;" /><path d="M 142.88626 256.635 L 30 259.0375" style="stroke:rgb(126,176,213);stroke-width:1" /><circle cx="30" cy="259.0375" r="2" style="fill:rgb(126,176,213);stroke:none;fill-opacity:1;stroke-opacity:1;" /><circle cx="780" cy="20" r="2" style="fill:rgb(128,214,87);stroke:none;fill-opacity:1;stroke-opacity:1;" /><path d="M 780 20 L 630.77246 111.4075" style="stroke:rgb(128,214,87);stroke-width:1" /><circle cx="630.77246" cy="111.4075" r="2" style="fill:rgb(128,214,87);stroke:none;fill-opacity:1;stroke-opacity:1;" /><path d="M 630.77246 111.4075 L 517.8862 161.425" style="stroke:rgb(128,214,87);stroke-width:1" /><circle cx="517.8862" cy="161.425" r="2" style="fill:rgb(128,214,87);stroke:none;fill-opacity:1;stroke-opacity:1;" /><path d="M 517.8862 161.425 L 451.85202 182.5075" style="stroke:rgb(128,214,87);stroke-width:1" /><circle cx="451.85202" cy="182.5075" r="2" style="fill:rgb(128,214,87);stroke:none;fill-opacity:1;stroke-opacity:1;" /><path d="M 451.85202 182.5075 L 405 194.14" style="stroke:rgb(128,214,87);stroke-width:1" /><circle cx="405" cy="194.14" r="2" style="fill:rgb(128,214,87);stroke:none;fill-opacity:1;stroke-opacity:1;" /><path d="M 405 194.14 L 338.96576 205.445" style="stroke:rgb(128,214,87);stroke-width:1" /><circle cx="338.96576" cy="205.445" r="2" style="fill:rgb(128,214,87);stroke:none;fill-opacity:1;stroke-opacity:1;" /><path d="M 338.96576 205.445 L 292.11377 214.9" style="stroke:rgb(128,214,87);stroke-width:1" /><circle cx="292.11377" cy="214.9" r="2" style="fill:rgb(128,214,87);stroke:none;fill-opacity:1;stroke-opacity:1;" /><path d="M 292.11377 214.9 L 255.7725 221.3575" style="stroke:rgb(128,214,87);stroke-width:1" /><circle cx="255.7725" cy="221.3575" r="2" style="fill:rgb(128,214,87);stroke:none;fill-opacity:1;stroke-opacity:1;" /><path d="M 255.7725 221.3575 L 142.88626 235.5175" style="stroke:rgb(128,214,87);stroke-width:1" /><circle cx="142.88626" cy="235.5175" r="2" style="fill:rgb(128,214,87);stroke:none;fill-opacity:1;stroke-opacity:1;" /><path d="M 142.88626 235.5175 L 30 246.60251" style="stroke:rgb(128,214,87);stroke-width:1" /><circle cx="30" cy="246.60251" r="2" style="fill:rgb(128,214,87);stroke:none;fill-opacity:1;stroke-opacity:1;" /><circle cx="780" cy="141.33" r="2" style="fill:rgb(50,125,209);stroke:none;fill-opacity:1;stroke-opacity:1;" /><path d="M 780 141.33 L 630.77246 183.88" style="stroke:rgb(50,125,209);stroke-width:1" /><circle cx="630.77246" cy="183.88" r="2" style="fill:rgb(50,125,209);stroke:none;fill-opacity:1;stroke-opacity:1;" /><path d="M 630.77246 183.88 L 517.8862 202.1225" style="stroke:rgb(50,125,209);stroke-width:1" /><circle cx="517.8862" cy="202.1225" r="2" style="fill:rgb(50,125,209);stroke:none;fill-opacity:1;stroke-opacity:1;" /><path d="M 517.8862 202.1225 L 451.85202 213.93" style="stroke:rgb(50,125,209);stroke-width:1" /><circle cx="451.85202" cy="213.93" r="2" style="fill:rgb(50,125,209);stroke:none;fill-opacity:1;stroke-opacity:1;" /><path d="M 451.85202 213.93 L 405 215.5" style="stroke:rgb(50,125,209);stroke-width:1" /><circle cx="405" cy="215.5" r="2" style="fill:rgb(50,125,209);stroke:none;fill-opacity:1;stroke-opacity:1;" /><path d="M 405 215.5 L 338.96576 225.105" style="stroke:rgb(50,125,209);stroke-width:1" /><circle cx="338.96576" cy="225.105" r="2" style="fill:rgb(50,125,209);stroke:none;fill-opacity:1;stroke-opacity:1;" /><path d="M 338.96576 225.105 L 292.11377 227.8575" style="stroke:rgb(50,125,209);stroke-width:1" /><circle cx="292.11377" cy="227.8575" r="2" style="fill:rgb(50,125,209);stroke:none;fill-opacity:1;stroke-opacity:1;" /><path d="M 292.11377 227.8575 L 255.7725 232.955" style="stroke:rgb(50,125,209);stroke-width:1" /><circle cx="255.7725" cy="232.955" r="2" style="fill:rgb(50,125,209);stroke:none;fill-opacity:1;stroke-opacity:1;" /><path d="M 255.7725 232.955 L 142.88626 238.5975" style="stroke:rgb(50,125,209);stroke-width:1" /><circle cx="142.88626" cy="238.5975" r="2" style="fill:rgb(50,125,209);stroke:none;fill-opacity:1;stroke-opacity:1;" /><path d="M 142.88626 238.5975 L 30 245.0525" style="stroke:rgb(50,125,209);stroke-width:1" /><circle cx="30" cy="245.0525" r="2" style="fill:rgb(50,125,209);stroke:none;fill-opacity:1;stroke-opacity:1;" /><rect x="676" y="16" width="80" height="133" ry="4" style="fill:rgb(30,30,30);stroke:none;fill-opacity:0.8;stroke-opacity:1;" /><rect x="680" y="20" width="20" height="20" ry="2" style="fill:rgb(253,127,111);stroke:none;fill-opacity:1;stroke-opacity:1;" /><text x="705" y="33" style="font-size:10px;fill:rgb(255,255,255);text-anchor:start;text-align:left;"> fwd-diff </text><rect x="680" y="41" width="20" height="20" ry="2" style="fill:rgb(50,125,209);stroke:none;fill-opacity:1;stroke-opacity:1;" /><text x="705" y="54" style="font-size:10px;fill:rgb(255,255,255);text-anchor:start;text-align:left;"> levien </text><rect x="680" y="62" width="20" height="20" ry="2" style="fill:rgb(126,176,213);stroke:none;fill-opacity:1;stroke-opacity:1;" /><text x="705" y="75" style="font-size:10px;fill:rgb(255,255,255);text-anchor:start;text-align:left;"> levien-simd </text><rect x="680" y="83" width="20" height="20" ry="2" style="fill:rgb(128,214,87);stroke:none;fill-opacity:1;stroke-opacity:1;" /><text x="705" y="96" style="font-size:10px;fill:rgb(255,255,255);text-anchor:start;text-align:left;"> linear </text><rect x="680" y="104" width="20" height="20" ry="2" style="fill:rgb(255,238,101);stroke:none;fill-opacity:1;stroke-opacity:1;" /><text x="705" y="117" style="font-size:10px;fill:rgb(255,255,255);text-anchor:start;text-align:left;"> recursive </text><rect x="680" y="125" width="20" height="20" ry="2" style="fill:rgb(253,204,229);stroke:none;fill-opacity:1;stroke-opacity:1;" /><text x="705" y="138" style="font-size:10px;fill:rgb(255,255,255);text-anchor:start;text-align:left;"> wang </text><text x="400" y="30" style="font-size:20px;fill:rgb(255,255,255);text-anchor:middle;text-align:center;"> all dataset: quadratic </text><text x="400" y="42" style="font-size:8px;fill:rgb(200,200,200);text-anchor:middle;text-align:center;"> Normalized performance score (lower is better) </text></svg>