<svg xmlns="http://www.w3.org/2000/svg" viewBox="0 0 800 300"><rect x="0" y="0" width="800" height="300" ry="6" style="fill:rgb(30,30,30);stroke:none;fill-opacity:1;stroke-opacity:1;" /><path d="M 30 20 L 30 270" style="stroke:rgb(200,200,200);stroke-width:1" /><path d="M 30 270 L 780 270" style="stroke:rgb(200,200,200);stroke-width:1" /><path d="M 780 270 L 780 272" style="stroke:rgb(200,200,200);stroke-width:1" /><text x="780" y="282" style="font-size:10px;fill:rgb(200,200,200);text-anchor:middle;text-align:center;"> 0.01 </text><path d="M 630.77246 270 L 630.77246 272" style="stroke:rgb(200,200,200);stroke-width:1" /><text x="630.77246" y="282" style="font-size:10px;fill:rgb(200,200,200);text-anchor:middle;text-align:center;"> 0.025 </text><path d="M 517.8862 270 L 517.8862 272" style="stroke:rgb(200,200,200);stroke-width:1" /><text x="517.8862" y="282" style="font-size:10px;fill:rgb(200,200,200);text-anchor:middle;text-align:center;"> 0.05 </text><path d="M 451.85202 270 L 451.85202 272" style="stroke:rgb(200,200,200);stroke-width:1" /><text x="451.85202" y="282" style="font-size:10px;fill:rgb(200,200,200);text-anchor:middle;text-align:center;"> 0.075 </text><path d="M 405 270 L 405 272" style="stroke:rgb(200,200,200);stroke-width:1" /><text x="405" y="282" style="font-size:10px;fill:rgb(200,200,200);text-anchor:middle;text-align:center;"> 0.1 </text><path d="M 338.96576 270 L 338.96576 272" style="stroke:rgb(200,200,200);stroke-width:1" /><text x="338.96576" y="282" style="font-size:10px;fill:rgb(200,200,200);text-anchor:middle;text-align:center;"> 0.15 </text><path d="M 292.11377 270 L 292.11377 272" style="stroke:rgb(200,200,200);stroke-width:1" /><text x="292.11377" y="282" style="font-size:10px;fill:rgb(200,200,200);text-anchor:middle;text-align:center;"> 0.2 </text><path d="M 255.7725 270 L 255.7725 272" style="stroke:rgb(200,200,200);stroke-width:1" /><text x="255.7725" y="282" style="font-size:10px;fill:rgb(200,200,200);text-anchor:middle;text-align:center;"> 0.25 </text><path d="M 142.88626 270 L 142.88626 272" style="stroke:rgb(200,200,200);stroke-width:1" /><text x="142.88626" y="282" style="font-size:10px;fill:rgb(200,200,200);text-anchor:middle;text-align:center;"> 0.5 </text><path d="M 30 270 L 30 272" style="stroke:rgb(200,200,200);stroke-width:1" /><text x="30" y="282" style="font-size:10px;fill:rgb(200,200,200);text-anchor:middle;text-align:center;"> 1 </text><path d="M 28 270 L 30 270" style="stroke:rgb(200,200,200);stroke-width:1" /><text x="26" y="274" style="font-size:10px;fill:rgb(200,200,200);text-anchor:end;text-align:right;"> 0 </text><path d="M 28 207.5 L 30 207.5" style="stroke:rgb(200,200,200);stroke-width:1" /><text x="26" y="211.5" style="font-size:10px;fill:rgb(200,200,200);text-anchor:end;text-align:right;"> 0.25 </text><path d="M 28 145 L 30 145" style="stroke:rgb(200,200,200);stroke-width:1" /><text x="26" y="149" style="font-size:10px;fill:rgb(200,200,200);text-anchor:end;text-align:right;"> 0.5 </text><path d="M 28 82.5 L 30 82.5" style="stroke:rgb(200,200,200);stroke-width:1" /><text x="26" y="86.5" style="font-size:10px;fill:rgb(200,200,200);text-anchor:end;text-align:right;"> 0.75 </text><path d="M 28 20 L 30 20" style="stroke:rgb(200,200,200);stroke-width:1" /><text x="26" y="24" style="font-size:10px;fill:rgb(200,200,200);text-anchor:end;text-align:right;"> 1 </text><text x="400" y="294" style="font-size:10px;fill:rgb(200,200,200);text-anchor:middle;text-align:center;"> Tolerance </text><circle cx="780" cy="20" r="2" style="fill:rgb(139,211,199);stroke:none;fill-opacity:1;stroke-opacity:1;" /><path d="M 780 20 L 630.77246 104.270004" style="stroke:rgb(139,211,199);stroke-width:1" /><circle cx="630.77246" cy="104.270004" r="2" style="fill:rgb(139,211,199);stroke:none;fill-opacity:1;stroke-opacity:1;" /><path d="M 630.77246 104.270004 L 517.8862 153.6" style="stroke:rgb(139,211,199);stroke-width:1" /><circle cx="517.8862" cy="153.6" r="2" style="fill:rgb(139,211,199);stroke:none;fill-opacity:1;stroke-opacity:1;" /><path d="M 517.8862 153.6 L 451.85202 170.9125" style="stroke:rgb(139,211,199);stroke-width:1" /><circle cx="451.85202" cy="170.9125" r="2" style="fill:rgb(139,211,199);stroke:none;fill-opacity:1;stroke-opacity:1;" /><path d="M 451.85202 170.9125 L 405 186.2225" style="stroke:rgb(139,211,199);stroke-width:1" /><circle cx="405" cy="186.2225" r="2" style="fill:rgb(139,211,199);stroke:none;fill-opacity:1;stroke-opacity:1;" /><path d="M 405 186.2225 L 338.96576 204.1125" style="stroke:rgb(139,211,199);stroke-width:1" /><circle cx="338.96576" cy="204.1125" r="2" style="fill:rgb(139,211,199);stroke:none;fill-opacity:1;stroke-opacity:1;" /><path d="M 338.96576 204.1125 L 292.11377 210.7925" style="stroke:rgb(139,211,199);stroke-width:1" /><circle cx="292.11377" cy="210.7925" r="2" style="fill:rgb(139,211,199);stroke:none;fill-opacity:1;stroke-opacity:1;" /><path d="M 292.11377 210.7925 L 255.7725 215.3775" style="stroke:rgb(139,211,199);stroke-width:1" /><circle cx="255.7725" cy="215.3775" r="2" style="fill:rgb(139,211,199);stroke:none;fill-opacity:1;stroke-opacity:1;" /><path d="M 255.7725 215.3775 L 142.88626 232.565" style="stroke:rgb(139,211,199);stroke-width:1" /><circle cx="142.88626" cy="232.565" r="2" style="fill:rgb(139,211,199);stroke:none;fill-opacity:1;stroke-opacity:1;" /><path d="M 142.88626 232.565 L 30 241.525" style="stroke:rgb(139,211,199);stroke-width:1" /><circle cx="30" cy="241.525" r="2" style="fill:rgb(139,211,199);stroke:none;fill-opacity:1;stroke-opacity:1;" /><circle cx="780" cy="55.972504" r="2" style="fill:rgb(128,214,87);stroke:none;fill-opacity:1;stroke-opacity:1;" /><path d="M 780 55.972504 L 630.77246 135.57" style="stroke:rgb(128,214,87);stroke-width:1" /><circle cx="630.77246" cy="135.57" r="2" style="fill:rgb(128,214,87);stroke:none;fill-opacity:1;stroke-opacity:1;" /><path d="M 630.77246 135.57 L 517.8862 174.475" style="stroke:rgb(128,214,87);stroke-width:1" /><circle cx="517.8862" cy="174.475" r="2" style="fill:rgb(128,214,87);stroke:none;fill-opacity:1;stroke-opacity:1;" /><path d="M 517.8862 174.475 L 451.85202 192.53" style="stroke:rgb(128,214,87);stroke-width:1" /><circle cx="451.85202" cy="192.53" r="2" style="fill:rgb(128,214,87);stroke:none;fill-opacity:1;stroke-opacity:1;" /><path d="M 451.85202 192.53 L 405 202.5075" style="stroke:rgb(128,214,87);stroke-width:1" /><circle cx="405" cy="202.5075" r="2" style="fill:rgb(128,214,87);stroke:none;fill-opacity:1;stroke-opacity:1;" /><path d="M 405 202.5075 L 338.96576 214.445" style="stroke:rgb(128,214,87);stroke-width:1" /><circle cx="338.96576" cy="214.445" r="2" style="fill:rgb(128,214,87);stroke:none;fill-opacity:1;stroke-opacity:1;" /><path d="M 338.96576 214.445 L 292.11377 222.0625" style="stroke:rgb(128,214,87);stroke-width:1" /><circle cx="292.11377" cy="222.0625" r="2" style="fill:rgb(128,214,87);stroke:none;fill-opacity:1;stroke-opacity:1;" /><path d="M 292.11377 222.0625 L 255.7725 227.38" style="stroke:rgb(128,214,87);stroke-width:1" /><circle cx="255.7725" cy="227.38" r="2" style="fill:rgb(128,214,87);stroke:none;fill-opacity:1;stroke-opacity:1;" /><path d="M 255.7725 227.38 L 142.88626 239.825" style="stroke:rgb(128,214,87);stroke-width:1" /><circle cx="142.88626" cy="239.825" r="2" style="fill:rgb(128,214,87);stroke:none;fill-opacity:1;stroke-opacity:1;" /><path d="M 142.88626 239.825 L 30 249.0125" style="stroke:rgb(128,214,87);stroke-width:1" /><circle cx="30" cy="249.0125" r="2" style="fill:rgb(128,214,87);stroke:none;fill-opacity:1;stroke-opacity:1;" /><circle cx="780" cy="102.759995" r="2" style="fill:rgb(253,204,229);stroke:none;fill-opacity:1;stroke-opacity:1;" /><path d="M 780 102.759995 L 630.77246 163.4875" style="stroke:rgb(253,204,229);stroke-width:1" /><circle cx="630.77246" cy="163.4875" r="2" style="fill:rgb(253,204,229);stroke:none;fill-opacity:1;stroke-opacity:1;" /><path d="M 630.77246 163.4875 L 517.8862 193.995" style="stroke:rgb(253,204,229);stroke-width:1" /><circle cx="517.8862" cy="193.995" r="2" style="fill:rgb(253,204,229);stroke:none;fill-opacity:1;stroke-opacity:1;" /><path d="M 517.8862 193.995 L 451.85202 207.4875" style="stroke:rgb(253,204,229);stroke-width:1" /><circle cx="451.85202" cy="207.4875" r="2" style="fill:rgb(253,204,229);stroke:none;fill-opacity:1;stroke-opacity:1;" /><path d="M 451.85202 207.4875 L 405 215.5375" style="stroke:rgb(253,204,229);stroke-width:1" /><circle cx="405" cy="215.5375" r="2" style="fill:rgb(253,204,229);stroke:none;fill-opacity:1;stroke-opacity:1;" /><path d="M 405 215.5375 L 338.96576 225.0425" style="stroke:rgb(253,204,229);stroke-width:1" /><circle cx="338.96576" cy="225.0425" r="2" style="fill:rgb(253,204,229);stroke:none;fill-opacity:1;stroke-opacity:1;" /><path d="M 338.96576 225.0425 L 292.11377 230.6825" style="stroke:rgb(253,204,229);stroke-width:1" /><circle cx="292.11377" cy="230.6825" r="2" style="fill:rgb(253,204,229);stroke:none;fill-opacity:1;stroke-opacity:1;" /><path d="M 292.11377 230.6825 L 255.7725 234.5525" style="stroke:rgb(253,204,229);stroke-width:1" /><circle cx="255.7725" cy="234.5525" r="2" style="fill:rgb(253,204,229);stroke:none;fill-opacity:1;stroke-opacity:1;" /><path d="M 255.7725 234.5525 L 142.88626 244.1" style="stroke:rgb(253,204,229);stroke-width:1" /><circle cx="142.88626" cy="244.1" r="2" style="fill:rgb(253,204,229);stroke:none;fill-opacity:1;stroke-opacity:1;" /><path d="M 142.88626 244.1 L 30 250.7925" style="stroke:rgb(253,204,229);stroke-width:1" /><circle cx="30" cy="250.7925" r="2" style="fill:rgb(253,204,229);stroke:none;fill-opacity:1;stroke-opacity:1;" /><circle cx="780" cy="110.0175" r="2" style="fill:rgb(50,125,209);stroke:none;fill-opacity:1;stroke-opacity:1;" /><path d="M 780 110.0175 L 630.77246 167.9875" style="stroke:rgb(50,125,209);stroke-width:1" /><circle cx="630.77246" cy="167.9875" r="2" style="fill:rgb(50,125,209);stroke:none;fill-opacity:1;stroke-opacity:1;" /><path d="M 630.77246 167.9875 L 517.8862 197.16" style="stroke:rgb(50,125,209);stroke-width:1" /><circle cx="517.8862" cy="197.16" r="2" style="fill:rgb(50,125,209);stroke:none;fill-opacity:1;stroke-opacity:1;" /><path d="M 517.8862 197.16 L 451.85202 210.015" style="stroke:rgb(50,125,209);stroke-width:1" /><circle cx="451.85202" cy="210.015" r="2" style="fill:rgb(50,125,209);stroke:none;fill-opacity:1;stroke-opacity:1;" /><path d="M 451.85202 210.015 L 405 217.695" style="stroke:rgb(50,125,209);stroke-width:1" /><circle cx="405" cy="217.695" r="2" style="fill:rgb(50,125,209);stroke:none;fill-opacity:1;stroke-opacity:1;" /><path d="M 405 217.695 L 338.96576 226.8125" style="stroke:rgb(50,125,209);stroke-width:1" /><circle cx="338.96576" cy="226.8125" r="2" style="fill:rgb(50,125,209);stroke:none;fill-opacity:1;stroke-opacity:1;" /><path d="M 338.96576 226.8125 L 292.11377 232.2075" style="stroke:rgb(50,125,209);stroke-width:1" /><circle cx="292.11377" cy="232.2075" r="2" style="fill:rgb(50,125,209);stroke:none;fill-opacity:1;stroke-opacity:1;" /><path d="M 292.11377 232.2075 L 255.7725 235.8875" style="stroke:rgb(50,125,209);stroke-width:1" /><circle cx="255.7725" cy="235.8875" r="2" style="fill:rgb(50,125,209);stroke:none;fill-opacity:1;stroke-opacity:1;" /><path d="M 255.7725 235.8875 L 142.88626 244.99" style="stroke:rgb(50,125,209);stroke-width:1" /><circle cx="142.88626" cy="244.99" r="2" style="fill:rgb(50,125,209);stroke:none;fill-opacity:1;stroke-opacity:1;" /><path d="M 142.88626 244.99 L 30 251.3675" style="stroke:rgb(50,125,209);stroke-width:1" /><circle cx="30" cy="251.3675" r="2" style="fill:rgb(50,125,209);stroke:none;fill-opacity:1;stroke-opacity:1;" /><circle cx="780" cy="110.095" r="2" style="fill:rgb(119,211,179);stroke:none;fill-opacity:1;stroke-opacity:1;" /><path d="M 780 110.095 L 630.77246 168.0075" style="stroke:rgb(119,211,179);stroke-width:1" /><circle cx="630.77246" cy="168.0075" r="2" style="fill:rgb(119,211,179);stroke:none;fill-opacity:1;stroke-opacity:1;" /><path d="M 630.77246 168.0075 L 517.8862 197.11" style="stroke:rgb(119,211,179);stroke-width:1" /><circle cx="517.8862" cy="197.11" r="2" style="fill:rgb(119,211,179);stroke:none;fill-opacity:1;stroke-opacity:1;" /><path d="M 517.8862 197.11 L 451.85202 210.02" style="stroke:rgb(119,211,179);stroke-width:1" /><circle cx="451.85202" cy="210.02" r="2" style="fill:rgb(119,211,179);stroke:none;fill-opacity:1;stroke-opacity:1;" /><path d="M 451.85202 210.02 L 405 217.7925" style="stroke:rgb(119,211,179);stroke-width:1" /><circle cx="405" cy="217.7925" r="2" style="fill:rgb(119,211,179);stroke:none;fill-opacity:1;stroke-opacity:1;" /><path d="M 405 217.7925 L 338.96576 227.0375" style="stroke:rgb(119,211,179);stroke-width:1" /><circle cx="338.96576" cy="227.0375" r="2" style="fill:rgb(119,211,179);stroke:none;fill-opacity:1;stroke-opacity:1;" /><path d="M 338.96576 227.0375 L 292.11377 232.5725" style="stroke:rgb(119,211,179);stroke-width:1" /><circle cx="292.11377" cy="232.5725" r="2" style="fill:rgb(119,211,179);stroke:none;fill-opacity:1;stroke-opacity:1;" /><path d="M 292.11377 232.5725 L 255.7725 236.405" style="stroke:rgb(119,211,179);stroke-width:1" /><circle cx="255.7725" cy="236.405" r="2" style="fill:rgb(119,211,179);stroke:none;fill-opacity:1;stroke-opacity:1;" /><path d="M 255.7725 236.405 L 142.88626 246.1625" style="stroke:rgb(119,211,179);stroke-width:1" /><circle cx="142.88626" cy="246.1625" r="2" style="fill:rgb(119,211,179);stroke:none;fill-opacity:1;stroke-opacity:1;" /><path d="M 142.88626 246.1625 L 30 253.01" style="stroke:rgb(119,211,179);stroke-width:1" /><circle cx="30" cy="253.01" r="2" style="fill:rgb(119,211,179);stroke:none;fill-opacity:1;stroke-opacity:1;" /><circle cx="780" cy="102.759995" r="2" style="fill:rgb(253,127,111);stroke:none;fill-opacity:1;stroke-opacity:1;" /><path d="M 780 102.759995 L 630.77246 163.4875" style="stroke:rgb(253,127,111);stroke-width:1" /><circle cx="630.77246" cy="163.4875" r="2" style="fill:rgb(253,127,111);stroke:none;fill-opacity:1;stroke-opacity:1;" /><path d="M 630.77246 163.4875 L 517.8862 193.995" style="stroke:rgb(253,127,111);stroke-width:1" /><circle cx="517.8862" cy="193.995" r="2" style="fill:rgb(253,127,111);stroke:none;fill-opacity:1;stroke-opacity:1;" /><path d="M 517.8862 193.995 L 451.85202 207.4875" style="stroke:rgb(253,127,111);stroke-width:1" /><circle cx="451.85202" cy="207.4875" r="2" style="fill:rgb(253,127,111);stroke:none;fill-opacity:1;stroke-opacity:1;" /><path d="M 451.85202 207.4875 L 405 215.5375" style="stroke:rgb(253,127,111);stroke-width:1" /><circle cx="405" cy="215.5375" r="2" style="fill:rgb(253,127,111);stroke:none;fill-opacity:1;stroke-opacity:1;" /><path d="M 405 215.5375 L 338.96576 225.0425" style="stroke:rgb(253,127,111);stroke-width:1" /><circle cx="338.96576" cy="225.0425" r="2" style="fill:rgb(253,127,111);stroke:none;fill-opacity:1;stroke-opacity:1;" /><path d="M 338.96576 225.0425 L 292.11377 230.6825" style="stroke:rgb(253,127,111);stroke-width:1" /><circle cx="292.11377" cy="230.6825" r="2" style="fill:rgb(253,127,111);stroke:none;fill-opacity:1;stroke-opacity:1;" /><path d="M 292.11377 230.6825 L 255.7725 234.5525" style="stroke:rgb(253,127,111);stroke-width:1" /><circle cx="255.7725" cy="234.5525" r="2" style="fill:rgb(253,127,111);stroke:none;fill-opacity:1;stroke-opacity:1;" /><path d="M 255.7725 234.5525 L 142.88626 244.1" style="stroke:rgb(253,127,111);stroke-width:1" /><circle cx="142.88626" cy="244.1" r="2" style="fill:rgb(253,127,111);stroke:none;fill-opacity:1;stroke-opacity:1;" /><path d="M 142.88626 244.1 L 30 250.7925" style="stroke:rgb(253,127,111);stroke-width:1" /><circle cx="30" cy="250.7925" r="2" style="fill:rgb(253,127,111);stroke:none;fill-opacity:1;stroke-opacity:1;" /><circle cx="780" cy="93.037506" r="2" style="fill:rgb(120,68,33);stroke:none;fill-opacity:1;stroke-opacity:1;" /><path d="M 780 93.037506 L 630.77246 157.055" style="stroke:rgb(120,68,33);stroke-width:1" /><circle cx="630.77246" cy="157.055" r="2" style="fill:rgb(120,68,33);stroke:none;fill-opacity:1;stroke-opacity:1;" /><path d="M 630.77246 157.055 L 517.8862 189.41" style="stroke:rgb(120,68,33);stroke-width:1" /><circle cx="517.8862" cy="189.41" r="2" style="fill:rgb(120,68,33);stroke:none;fill-opacity:1;stroke-opacity:1;" /><path d="M 517.8862 189.41 L 451.85202 203.70999" style="stroke:rgb(120,68,33);stroke-width:1" /><circle cx="451.85202" cy="203.70999" r="2" style="fill:rgb(120,68,33);stroke:none;fill-opacity:1;stroke-opacity:1;" /><path d="M 451.85202 203.70999 L 405 212.14749" style="stroke:rgb(120,68,33);stroke-width:1" /><circle cx="405" cy="212.14749" r="2" style="fill:rgb(120,68,33);stroke:none;fill-opacity:1;stroke-opacity:1;" /><path d="M 405 212.14749 L 338.96576 222.175" style="stroke:rgb(120,68,33);stroke-width:1" /><circle cx="338.96576" cy="222.175" r="2" style="fill:rgb(120,68,33);stroke:none;fill-opacity:1;stroke-opacity:1;" /><path d="M 338.96576 222.175 L 292.11377 228.0375" style="stroke:rgb(120,68,33);stroke-width:1" /><circle cx="292.11377" cy="228.0375" r="2" style="fill:rgb(120,68,33);stroke:none;fill-opacity:1;stroke-opacity:1;" /><path d="M 292.11377 228.0375 L 255.7725 232.0125" style="stroke:rgb(120,68,33);stroke-width:1" /><circle cx="255.7725" cy="232.0125" r="2" style="fill:rgb(120,68,33);stroke:none;fill-opacity:1;stroke-opacity:1;" /><path d="M 255.7725 232.0125 L 142.88626 241.57" style="stroke:rgb(120,68,33);stroke-width:1" /><circle cx="142.88626" cy="241.57" r="2" style="fill:rgb(120,68,33);stroke:none;fill-opacity:1;stroke-opacity:1;" /><path d="M 142.88626 241.57 L 30 247.735" style="stroke:rgb(120,68,33);stroke-width:1" /><circle cx="30" cy="247.735" r="2" style="fill:rgb(120,68,33);stroke:none;fill-opacity:1;stroke-opacity:1;" /><circle cx="780" cy="105.955" r="2" style="fill:rgb(253,204,229);stroke:none;fill-opacity:1;stroke-opacity:1;" /><path d="M 780 105.955 L 630.77246 165.235" style="stroke:rgb(253,204,229);stroke-width:1" /><circle cx="630.77246" cy="165.235" r="2" style="fill:rgb(253,204,229);stroke:none;fill-opacity:1;stroke-opacity:1;" /><path d="M 630.77246 165.235 L 517.8862 195.04001" style="stroke:rgb(253,204,229);stroke-width:1" /><circle cx="517.8862" cy="195.04001" r="2" style="fill:rgb(253,204,229);stroke:none;fill-opacity:1;stroke-opacity:1;" /><path d="M 517.8862 195.04001 L 451.85202 208.245" style="stroke:rgb(253,204,229);stroke-width:1" /><circle cx="451.85202" cy="208.245" r="2" style="fill:rgb(253,204,229);stroke:none;fill-opacity:1;stroke-opacity:1;" /><path d="M 451.85202 208.245 L 405 216.1925" style="stroke:rgb(253,204,229);stroke-width:1" /><circle cx="405" cy="216.1925" r="2" style="fill:rgb(253,204,229);stroke:none;fill-opacity:1;stroke-opacity:1;" /><path d="M 405 216.1925 L 338.96576 225.5275" style="stroke:rgb(253,204,229);stroke-width:1" /><circle cx="338.96576" cy="225.5275" r="2" style="fill:rgb(253,204,229);stroke:none;fill-opacity:1;stroke-opacity:1;" /><path d="M 338.96576 225.5275 L 292.11377 231.09" style="stroke:rgb(253,204,229);stroke-width:1" /><circle cx="292.11377" cy="231.09" r="2" style="fill:rgb(253,204,229);stroke:none;fill-opacity:1;stroke-opacity:1;" /><path d="M 292.11377 231.09 L 255.7725 234.8575" style="stroke:rgb(253,204,229);stroke-width:1" /><circle cx="255.7725" cy="234.8575" r="2" style="fill:rgb(253,204,229);stroke:none;fill-opacity:1;stroke-opacity:1;" /><path d="M 255.7725 234.8575 L 142.88626 244.1975" style="stroke:rgb(253,204,229);stroke-width:1" /><circle cx="142.88626" cy="244.1975" r="2" style="fill:rgb(253,204,229);stroke:none;fill-opacity:1;stroke-opacity:1;" /><path d="M 142.88626 244.1975 L 30 250.8325" style="stroke:rgb(253,204,229);stroke-width:1" /><circle cx="30" cy="250.8325" r="2" style="fill:rgb(253,204,229);stroke:none;fill-opacity:1;stroke-opacity:1;" /><circle cx="780" cy="52.677505" r="2" style="fill:rgb(255,238,101);stroke:none;fill-opacity:1;stroke-opacity:1;" /><path d="M 780 52.677505 L 630.77246 140.0075" style="stroke:rgb(255,238,101);stroke-width:1" /><circle cx="630.77246" cy="140.0075" r="2" style="fill:rgb(255,238,101);stroke:none;fill-opacity:1;stroke-opacity:1;" /><path d="M 630.77246 140.0075 L 517.8862 169.495" style="stroke:rgb(255,238,101);stroke-width:1" /><circle cx="517.8862" cy="169.495" r="2" style="fill:rgb(255,238,101);stroke:none;fill-opacity:1;stroke-opacity:1;" /><path d="M 517.8862 169.495 L 451.85202 191.1175" style="stroke:rgb(255,238,101);stroke-width:1" /><circle cx="451.85202" cy="191.1175" r="2" style="fill:rgb(255,238,101);stroke:none;fill-opacity:1;stroke-opacity:1;" /><path d="M 451.85202 191.1175 L 405 204.4375" style="stroke:rgb(255,238,101);stroke-width:1" /><circle cx="405" cy="204.4375" r="2" style="fill:rgb(255,238,101);stroke:none;fill-opacity:1;stroke-opacity:1;" /><path d="M 405 204.4375 L 338.96576 213.545" style="stroke:rgb(255,238,101);stroke-width:1" /><circle cx="338.96576" cy="213.545" r="2" style="fill:rgb(255,238,101);stroke:none;fill-opacity:1;stroke-opacity:1;" /><path d="M 338.96576 213.545 L 292.11377 219.345" style="stroke:rgb(255,238,101);stroke-width:1" /><circle cx="292.11377" cy="219.345" r="2" style="fill:rgb(255,238,101);stroke:none;fill-opacity:1;stroke-opacity:1;" /><path d="M 292.11377 219.345 L 255.7725 225.09" style="stroke:rgb(255,238,101);stroke-width:1" /><circle cx="255.7725" cy="225.09" r="2" style="fill:rgb(255,238,101);stroke:none;fill-opacity:1;stroke-opacity:1;" /><path d="M 255.7725 225.09 L 142.88626 240.1675" style="stroke:rgb(255,238,101);stroke-width:1" /><circle cx="142.88626" cy="240.1675" r="2" style="fill:rgb(255,238,101);stroke:none;fill-opacity:1;stroke-opacity:1;" /><path d="M 142.88626 240.1675 L 30 247.73" style="stroke:rgb(255,238,101);stroke-width:1" /><circle cx="30" cy="247.73" r="2" style="fill:rgb(255,238,101);stroke:none;fill-opacity:1;stroke-opacity:1;" /><circle cx="780" cy="116.899994" r="2" style="fill:rgb(255,181,90);stroke:none;fill-opacity:1;stroke-opacity:1;" /><path d="M 780 116.899994 L 630.77246 169.3675" style="stroke:rgb(255,181,90);stroke-width:1" /><circle cx="630.77246" cy="169.3675" r="2" style="fill:rgb(255,181,90);stroke:none;fill-opacity:1;stroke-opacity:1;" /><path d="M 630.77246 169.3675 L 517.8862 194.35" style="stroke:rgb(255,181,90);stroke-width:1" /><circle cx="517.8862" cy="194.35" r="2" style="fill:rgb(255,181,90);stroke:none;fill-opacity:1;stroke-opacity:1;" /><path d="M 517.8862 194.35 L 451.85202 204.295" style="stroke:rgb(255,181,90);stroke-width:1" /><circle cx="451.85202" cy="204.295" r="2" style="fill:rgb(255,181,90);stroke:none;fill-opacity:1;stroke-opacity:1;" /><path d="M 451.85202 204.295 L 405 209.3825" style="stroke:rgb(255,181,90);stroke-width:1" /><circle cx="405" cy="209.3825" r="2" style="fill:rgb(255,181,90);stroke:none;fill-opacity:1;stroke-opacity:1;" /><path d="M 405 209.3825 L 338.96576 213.3825" style="stroke:rgb(255,181,90);stroke-width:1" /><circle cx="338.96576" cy="213.3825" r="2" style="fill:rgb(255,181,90);stroke:none;fill-opacity:1;stroke-opacity:1;" /><path d="M 338.96576 213.3825 L 292.11377 212.9325" style="stroke:rgb(255,181,90);stroke-width:1" /><circle cx="292.11377" cy="212.9325" r="2" style="fill:rgb(255,181,90);stroke:none;fill-opacity:1;stroke-opacity:1;" /><path d="M 292.11377 212.9325 L 255.7725 209.0725" style="stroke:rgb(255,181,90);stroke-width:1" /><circle cx="255.7725" cy="209.0725" r="2" style="fill:rgb(255,181,90);stroke:none;fill-opacity:1;stroke-opacity:1;" /><path d="M 255.7725 209.0725 L 142.88626 226.1525" style="stroke:rgb(255,181,90);stroke-width:1" /><circle cx="142.88626" cy="226.1525" r="2" style="fill:rgb(255,181,90);stroke:none;fill-opacity:1;stroke-opacity:1;" /><path d="M 142.88626 226.1525 L 30 238.105" style="stroke:rgb(255,181,90);stroke-width:1" /><circle cx="30" cy="238.105" r="2" style="fill:rgb(255,181,90);stroke:none;fill-opacity:1;stroke-opacity:1;" /><rect x="676" y="16" width="80" height="217" ry="4" style="fill:rgb(30,30,30);stroke:none;fill-opacity:0.8;stroke-opacity:1;" /><rect x="680" y="20" width="20" height="20" ry="2" style="fill:rgb(253,127,111);stroke:none;fill-opacity:1;stroke-opacity:1;" /><text x="705" y="33" style="font-size:10px;fill:rgb(255,255,255);text-anchor:start;text-align:left;"> fwd-diff </text><rect x="680" y="41" width="20" height="20" ry="2" style="fill:rgb(255,181,90);stroke:none;fill-opacity:1;stroke-opacity:1;" /><text x="705" y="54" style="font-size:10px;fill:rgb(255,255,255);text-anchor:start;text-align:left;"> hain </text><rect x="680" y="62" width="20" height="20" ry="2" style="fill:rgb(139,211,199);stroke:none;fill-opacity:1;stroke-opacity:1;" /><text x="705" y="75" style="font-size:10px;fill:rgb(255,255,255);text-anchor:start;text-align:left;"> hfd </text><rect x="680" y="83" width="20" height="20" ry="2" style="fill:rgb(50,125,209);stroke:none;fill-opacity:1;stroke-opacity:1;" /><text x="705" y="96" style="font-size:10px;fill:rgb(255,255,255);text-anchor:start;text-align:left;"> levien </text><rect x="680" y="104" width="20" height="20" ry="2" style="fill:rgb(119,211,179);stroke:none;fill-opacity:1;stroke-opacity:1;" /><text x="705" y="117" style="font-size:10px;fill:rgb(255,255,255);text-anchor:start;text-align:left;"> levien-linear </text><rect x="680" y="125" width="20" height="20" ry="2" style="fill:rgb(253,204,229);stroke:none;fill-opacity:1;stroke-opacity:1;" /><text x="705" y="138" style="font-size:10px;fill:rgb(255,255,255);text-anchor:start;text-align:left;"> levien-quads </text><rect x="680" y="146" width="20" height="20" ry="2" style="fill:rgb(128,214,87);stroke:none;fill-opacity:1;stroke-opacity:1;" /><text x="705" y="159" style="font-size:10px;fill:rgb(255,255,255);text-anchor:start;text-align:left;"> linear </text><rect x="680" y="167" width="20" height="20" ry="2" style="fill:rgb(255,238,101);stroke:none;fill-opacity:1;stroke-opacity:1;" /><text x="705" y="180" style="font-size:10px;fill:rgb(255,255,255);text-anchor:start;text-align:left;"> recursive </text><rect x="680" y="188" width="20" height="20" ry="2" style="fill:rgb(253,204,229);stroke:none;fill-opacity:1;stroke-opacity:1;" /><text x="705" y="201" style="font-size:10px;fill:rgb(255,255,255);text-anchor:start;text-align:left;"> wang </text><rect x="680" y="209" width="20" height="20" ry="2" style="fill:rgb(120,68,33);stroke:none;fill-opacity:1;stroke-opacity:1;" /><text x="705" y="222" style="font-size:10px;fill:rgb(255,255,255);text-anchor:start;text-align:left;"> yzerman </text><text x="400" y="30" style="font-size:20px;fill:rgb(255,255,255);text-anchor:middle;text-align:center;"> All </text><text x="400" y="42" style="font-size:8px;fill:rgb(200,200,200);text-anchor:middle;text-align:center;"> Normalized edge count score (lower is better) </text></svg>