<svg xmlns="http://www.w3.org/2000/svg" viewBox="0 0 800 300"><rect x="0" y="0" width="800" height="300" ry="6" style="fill:rgb(30,30,30);stroke:none;fill-opacity:1;stroke-opacity:1;" /><path d="M 30 20 L 30 270" style="stroke:rgb(200,200,200);stroke-width:1" /><path d="M 30 270 L 780 270" style="stroke:rgb(200,200,200);stroke-width:1" /><path d="M 780 270 L 780 272" style="stroke:rgb(200,200,200);stroke-width:1" /><text x="780" y="282" style="font-size:10px;fill:rgb(200,200,200);text-anchor:middle;text-align:center;"> 0.01 </text><path d="M 630.77246 270 L 630.77246 272" style="stroke:rgb(200,200,200);stroke-width:1" /><text x="630.77246" y="282" style="font-size:10px;fill:rgb(200,200,200);text-anchor:middle;text-align:center;"> 0.025 </text><path d="M 517.8862 270 L 517.8862 272" style="stroke:rgb(200,200,200);stroke-width:1" /><text x="517.8862" y="282" style="font-size:10px;fill:rgb(200,200,200);text-anchor:middle;text-align:center;"> 0.05 </text><path d="M 451.85202 270 L 451.85202 272" style="stroke:rgb(200,200,200);stroke-width:1" /><text x="451.85202" y="282" style="font-size:10px;fill:rgb(200,200,200);text-anchor:middle;text-align:center;"> 0.075 </text><path d="M 405 270 L 405 272" style="stroke:rgb(200,200,200);stroke-width:1" /><text x="405" y="282" style="font-size:10px;fill:rgb(200,200,200);text-anchor:middle;text-align:center;"> 0.1 </text><path d="M 338.96576 270 L 338.96576 272" style="stroke:rgb(200,200,200);stroke-width:1" /><text x="338.96576" y="282" style="font-size:10px;fill:rgb(200,200,200);text-anchor:middle;text-align:center;"> 0.15 </text><path d="M 292.11377 270 L 292.11377 272" style="stroke:rgb(200,200,200);stroke-width:1" /><text x="292.11377" y="282" style="font-size:10px;fill:rgb(200,200,200);text-anchor:middle;text-align:center;"> 0.2 </text><path d="M 255.7725 270 L 255.7725 272" style="stroke:rgb(200,200,200);stroke-width:1" /><text x="255.7725" y="282" style="font-size:10px;fill:rgb(200,200,200);text-anchor:middle;text-align:center;"> 0.25 </text><path d="M 142.88626 270 L 142.88626 272" style="stroke:rgb(200,200,200);stroke-width:1" /><text x="142.88626" y="282" style="font-size:10px;fill:rgb(200,200,200);text-anchor:middle;text-align:center;"> 0.5 </text><path d="M 30 270 L 30 272" style="stroke:rgb(200,200,200);stroke-width:1" /><text x="30" y="282" style="font-size:10px;fill:rgb(200,200,200);text-anchor:middle;text-align:center;"> 1 </text><path d="M 28 270 L 30 270" style="stroke:rgb(200,200,200);stroke-width:1" /><text x="26" y="274" style="font-size:10px;fill:rgb(200,200,200);text-anchor:end;text-align:right;"> 0 </text><path d="M 28 207.5 L 30 207.5" style="stroke:rgb(200,200,200);stroke-width:1" /><text x="26" y="211.5" style="font-size:10px;fill:rgb(200,200,200);text-anchor:end;text-align:right;"> 0.25 </text><path d="M 28 145 L 30 145" style="stroke:rgb(200,200,200);stroke-width:1" /><text x="26" y="149" style="font-size:10px;fill:rgb(200,200,200);text-anchor:end;text-align:right;"> 0.5 </text><path d="M 28 82.5 L 30 82.5" style="stroke:rgb(200,200,200);stroke-width:1" /><text x="26" y="86.5" style="font-size:10px;fill:rgb(200,200,200);text-anchor:end;text-align:right;"> 0.75 </text><path d="M 28 20 L 30 20" style="stroke:rgb(200,200,200);stroke-width:1" /><text x="26" y="24" style="font-size:10px;fill:rgb(200,200,200);text-anchor:end;text-align:right;"> 1 </text><text x="400" y="294" style="font-size:10px;fill:rgb(200,200,200);text-anchor:middle;text-align:center;"> Tolerance </text><circle cx="780" cy="106.25" r="2" style="fill:rgb(253,127,111);stroke:none;fill-opacity:1;stroke-opacity:1;" /><path d="M 780 106.25 L 630.77246 166.04001" style="stroke:rgb(253,127,111);stroke-width:1" /><circle cx="630.77246" cy="166.04001" r="2" style="fill:rgb(253,127,111);stroke:none;fill-opacity:1;stroke-opacity:1;" /><path d="M 630.77246 166.04001 L 517.8862 196.185" style="stroke:rgb(253,127,111);stroke-width:1" /><circle cx="517.8862" cy="196.185" r="2" style="fill:rgb(253,127,111);stroke:none;fill-opacity:1;stroke-opacity:1;" /><path d="M 517.8862 196.185 L 451.85202 209.535" style="stroke:rgb(253,127,111);stroke-width:1" /><circle cx="451.85202" cy="209.535" r="2" style="fill:rgb(253,127,111);stroke:none;fill-opacity:1;stroke-opacity:1;" /><path d="M 451.85202 209.535 L 405 217.495" style="stroke:rgb(253,127,111);stroke-width:1" /><circle cx="405" cy="217.495" r="2" style="fill:rgb(253,127,111);stroke:none;fill-opacity:1;stroke-opacity:1;" /><path d="M 405 217.495 L 338.96576 226.9225" style="stroke:rgb(253,127,111);stroke-width:1" /><circle cx="338.96576" cy="226.9225" r="2" style="fill:rgb(253,127,111);stroke:none;fill-opacity:1;stroke-opacity:1;" /><path d="M 338.96576 226.9225 L 292.11377 232.5475" style="stroke:rgb(253,127,111);stroke-width:1" /><circle cx="292.11377" cy="232.5475" r="2" style="fill:rgb(253,127,111);stroke:none;fill-opacity:1;stroke-opacity:1;" /><path d="M 292.11377 232.5475 L 255.7725 236.41" style="stroke:rgb(253,127,111);stroke-width:1" /><circle cx="255.7725" cy="236.41" r="2" style="fill:rgb(253,127,111);stroke:none;fill-opacity:1;stroke-opacity:1;" /><path d="M 255.7725 236.41 L 142.88626 245.9425" style="stroke:rgb(253,127,111);stroke-width:1" /><circle cx="142.88626" cy="245.9425" r="2" style="fill:rgb(253,127,111);stroke:none;fill-opacity:1;stroke-opacity:1;" /><path d="M 142.88626 245.9425 L 30 252.66" style="stroke:rgb(253,127,111);stroke-width:1" /><circle cx="30" cy="252.66" r="2" style="fill:rgb(253,127,111);stroke:none;fill-opacity:1;stroke-opacity:1;" /><circle cx="780" cy="105.979996" r="2" style="fill:rgb(139,211,199);stroke:none;fill-opacity:1;stroke-opacity:1;" /><path d="M 780 105.979996 L 630.77246 165.8575" style="stroke:rgb(139,211,199);stroke-width:1" /><circle cx="630.77246" cy="165.8575" r="2" style="fill:rgb(139,211,199);stroke:none;fill-opacity:1;stroke-opacity:1;" /><path d="M 630.77246 165.8575 L 517.8862 195.95749" style="stroke:rgb(139,211,199);stroke-width:1" /><circle cx="517.8862" cy="195.95749" r="2" style="fill:rgb(139,211,199);stroke:none;fill-opacity:1;stroke-opacity:1;" /><path d="M 517.8862 195.95749 L 451.85202 209.305" style="stroke:rgb(139,211,199);stroke-width:1" /><circle cx="451.85202" cy="209.305" r="2" style="fill:rgb(139,211,199);stroke:none;fill-opacity:1;stroke-opacity:1;" /><path d="M 451.85202 209.305 L 405 217.305" style="stroke:rgb(139,211,199);stroke-width:1" /><circle cx="405" cy="217.305" r="2" style="fill:rgb(139,211,199);stroke:none;fill-opacity:1;stroke-opacity:1;" /><path d="M 405 217.305 L 338.96576 226.7625" style="stroke:rgb(139,211,199);stroke-width:1" /><circle cx="338.96576" cy="226.7625" r="2" style="fill:rgb(139,211,199);stroke:none;fill-opacity:1;stroke-opacity:1;" /><path d="M 338.96576 226.7625 L 292.11377 232.4075" style="stroke:rgb(139,211,199);stroke-width:1" /><circle cx="292.11377" cy="232.4075" r="2" style="fill:rgb(139,211,199);stroke:none;fill-opacity:1;stroke-opacity:1;" /><path d="M 292.11377 232.4075 L 255.7725 236.2375" style="stroke:rgb(139,211,199);stroke-width:1" /><circle cx="255.7725" cy="236.2375" r="2" style="fill:rgb(139,211,199);stroke:none;fill-opacity:1;stroke-opacity:1;" /><path d="M 255.7725 236.2375 L 142.88626 245.725" style="stroke:rgb(139,211,199);stroke-width:1" /><circle cx="142.88626" cy="245.725" r="2" style="fill:rgb(139,211,199);stroke:none;fill-opacity:1;stroke-opacity:1;" /><path d="M 142.88626 245.725 L 30 252.515" style="stroke:rgb(139,211,199);stroke-width:1" /><circle cx="30" cy="252.515" r="2" style="fill:rgb(139,211,199);stroke:none;fill-opacity:1;stroke-opacity:1;" /><circle cx="780" cy="52.274994" r="2" style="fill:rgb(128,214,87);stroke:none;fill-opacity:1;stroke-opacity:1;" /><path d="M 780 52.274994 L 630.77246 133.5875" style="stroke:rgb(128,214,87);stroke-width:1" /><circle cx="630.77246" cy="133.5875" r="2" style="fill:rgb(128,214,87);stroke:none;fill-opacity:1;stroke-opacity:1;" /><path d="M 630.77246 133.5875 L 517.8862 173.4075" style="stroke:rgb(128,214,87);stroke-width:1" /><circle cx="517.8862" cy="173.4075" r="2" style="fill:rgb(128,214,87);stroke:none;fill-opacity:1;stroke-opacity:1;" /><path d="M 517.8862 173.4075 L 451.85202 191.9075" style="stroke:rgb(128,214,87);stroke-width:1" /><circle cx="451.85202" cy="191.9075" r="2" style="fill:rgb(128,214,87);stroke:none;fill-opacity:1;stroke-opacity:1;" /><path d="M 451.85202 191.9075 L 405 202.0625" style="stroke:rgb(128,214,87);stroke-width:1" /><circle cx="405" cy="202.0625" r="2" style="fill:rgb(128,214,87);stroke:none;fill-opacity:1;stroke-opacity:1;" /><path d="M 405 202.0625 L 338.96576 214.2025" style="stroke:rgb(128,214,87);stroke-width:1" /><circle cx="338.96576" cy="214.2025" r="2" style="fill:rgb(128,214,87);stroke:none;fill-opacity:1;stroke-opacity:1;" /><path d="M 338.96576 214.2025 L 292.11377 221.935" style="stroke:rgb(128,214,87);stroke-width:1" /><circle cx="292.11377" cy="221.935" r="2" style="fill:rgb(128,214,87);stroke:none;fill-opacity:1;stroke-opacity:1;" /><path d="M 292.11377 221.935 L 255.7725 227.305" style="stroke:rgb(128,214,87);stroke-width:1" /><circle cx="255.7725" cy="227.305" r="2" style="fill:rgb(128,214,87);stroke:none;fill-opacity:1;stroke-opacity:1;" /><path d="M 255.7725 227.305 L 142.88626 239.535" style="stroke:rgb(128,214,87);stroke-width:1" /><circle cx="142.88626" cy="239.535" r="2" style="fill:rgb(128,214,87);stroke:none;fill-opacity:1;stroke-opacity:1;" /><path d="M 142.88626 239.535 L 30 248.69" style="stroke:rgb(128,214,87);stroke-width:1" /><circle cx="30" cy="248.69" r="2" style="fill:rgb(128,214,87);stroke:none;fill-opacity:1;stroke-opacity:1;" /><circle cx="780" cy="20" r="2" style="fill:rgb(253,204,229);stroke:none;fill-opacity:1;stroke-opacity:1;" /><path d="M 780 20 L 630.77246 104.13251" style="stroke:rgb(253,204,229);stroke-width:1" /><circle cx="630.77246" cy="104.13251" r="2" style="fill:rgb(253,204,229);stroke:none;fill-opacity:1;stroke-opacity:1;" /><path d="M 630.77246 104.13251 L 517.8862 153.8625" style="stroke:rgb(253,204,229);stroke-width:1" /><circle cx="517.8862" cy="153.8625" r="2" style="fill:rgb(253,204,229);stroke:none;fill-opacity:1;stroke-opacity:1;" /><path d="M 517.8862 153.8625 L 451.85202 171.13501" style="stroke:rgb(253,204,229);stroke-width:1" /><circle cx="451.85202" cy="171.13501" r="2" style="fill:rgb(253,204,229);stroke:none;fill-opacity:1;stroke-opacity:1;" /><path d="M 451.85202 171.13501 L 405 186.76001" style="stroke:rgb(253,204,229);stroke-width:1" /><circle cx="405" cy="186.76001" r="2" style="fill:rgb(253,204,229);stroke:none;fill-opacity:1;stroke-opacity:1;" /><path d="M 405 186.76001 L 338.96576 204.9925" style="stroke:rgb(253,204,229);stroke-width:1" /><circle cx="338.96576" cy="204.9925" r="2" style="fill:rgb(253,204,229);stroke:none;fill-opacity:1;stroke-opacity:1;" /><path d="M 338.96576 204.9925 L 292.11377 211.6625" style="stroke:rgb(253,204,229);stroke-width:1" /><circle cx="292.11377" cy="211.6625" r="2" style="fill:rgb(253,204,229);stroke:none;fill-opacity:1;stroke-opacity:1;" /><path d="M 292.11377 211.6625 L 255.7725 216.25" style="stroke:rgb(253,204,229);stroke-width:1" /><circle cx="255.7725" cy="216.25" r="2" style="fill:rgb(253,204,229);stroke:none;fill-opacity:1;stroke-opacity:1;" /><path d="M 255.7725 216.25 L 142.88626 233.8475" style="stroke:rgb(253,204,229);stroke-width:1" /><circle cx="142.88626" cy="233.8475" r="2" style="fill:rgb(253,204,229);stroke:none;fill-opacity:1;stroke-opacity:1;" /><path d="M 142.88626 233.8475 L 30 242.9" style="stroke:rgb(253,204,229);stroke-width:1" /><circle cx="30" cy="242.9" r="2" style="fill:rgb(253,204,229);stroke:none;fill-opacity:1;stroke-opacity:1;" /><circle cx="780" cy="106.25" r="2" style="fill:rgb(253,204,229);stroke:none;fill-opacity:1;stroke-opacity:1;" /><path d="M 780 106.25 L 630.77246 166.04001" style="stroke:rgb(253,204,229);stroke-width:1" /><circle cx="630.77246" cy="166.04001" r="2" style="fill:rgb(253,204,229);stroke:none;fill-opacity:1;stroke-opacity:1;" /><path d="M 630.77246 166.04001 L 517.8862 196.185" style="stroke:rgb(253,204,229);stroke-width:1" /><circle cx="517.8862" cy="196.185" r="2" style="fill:rgb(253,204,229);stroke:none;fill-opacity:1;stroke-opacity:1;" /><path d="M 517.8862 196.185 L 451.85202 209.535" style="stroke:rgb(253,204,229);stroke-width:1" /><circle cx="451.85202" cy="209.535" r="2" style="fill:rgb(253,204,229);stroke:none;fill-opacity:1;stroke-opacity:1;" /><path d="M 451.85202 209.535 L 405 217.495" style="stroke:rgb(253,204,229);stroke-width:1" /><circle cx="405" cy="217.495" r="2" style="fill:rgb(253,204,229);stroke:none;fill-opacity:1;stroke-opacity:1;" /><path d="M 405 217.495 L 338.96576 226.9225" style="stroke:rgb(253,204,229);stroke-width:1" /><circle cx="338.96576" cy="226.9225" r="2" style="fill:rgb(253,204,229);stroke:none;fill-opacity:1;stroke-opacity:1;" /><path d="M 338.96576 226.9225 L 292.11377 232.5475" style="stroke:rgb(253,204,229);stroke-width:1" /><circle cx="292.11377" cy="232.5475" r="2" style="fill:rgb(253,204,229);stroke:none;fill-opacity:1;stroke-opacity:1;" /><path d="M 292.11377 232.5475 L 255.7725 236.41" style="stroke:rgb(253,204,229);stroke-width:1" /><circle cx="255.7725" cy="236.41" r="2" style="fill:rgb(253,204,229);stroke:none;fill-opacity:1;stroke-opacity:1;" /><path d="M 255.7725 236.41 L 142.88626 245.9425" style="stroke:rgb(253,204,229);stroke-width:1" /><circle cx="142.88626" cy="245.9425" r="2" style="fill:rgb(253,204,229);stroke:none;fill-opacity:1;stroke-opacity:1;" /><path d="M 142.88626 245.9425 L 30 252.66" style="stroke:rgb(253,204,229);stroke-width:1" /><circle cx="30" cy="252.66" r="2" style="fill:rgb(253,204,229);stroke:none;fill-opacity:1;stroke-opacity:1;" /><circle cx="780" cy="108.49249" r="2" style="fill:rgb(119,211,179);stroke:none;fill-opacity:1;stroke-opacity:1;" /><path d="M 780 108.49249 L 630.77246 167.42749" style="stroke:rgb(119,211,179);stroke-width:1" /><circle cx="630.77246" cy="167.42749" r="2" style="fill:rgb(119,211,179);stroke:none;fill-opacity:1;stroke-opacity:1;" /><path d="M 630.77246 167.42749 L 517.8862 197.13" style="stroke:rgb(119,211,179);stroke-width:1" /><circle cx="517.8862" cy="197.13" r="2" style="fill:rgb(119,211,179);stroke:none;fill-opacity:1;stroke-opacity:1;" /><path d="M 517.8862 197.13 L 451.85202 210.2875" style="stroke:rgb(119,211,179);stroke-width:1" /><circle cx="451.85202" cy="210.2875" r="2" style="fill:rgb(119,211,179);stroke:none;fill-opacity:1;stroke-opacity:1;" /><path d="M 451.85202 210.2875 L 405 218.1625" style="stroke:rgb(119,211,179);stroke-width:1" /><circle cx="405" cy="218.1625" r="2" style="fill:rgb(119,211,179);stroke:none;fill-opacity:1;stroke-opacity:1;" /><path d="M 405 218.1625 L 338.96576 227.5125" style="stroke:rgb(119,211,179);stroke-width:1" /><circle cx="338.96576" cy="227.5125" r="2" style="fill:rgb(119,211,179);stroke:none;fill-opacity:1;stroke-opacity:1;" /><path d="M 338.96576 227.5125 L 292.11377 233.06" style="stroke:rgb(119,211,179);stroke-width:1" /><circle cx="292.11377" cy="233.06" r="2" style="fill:rgb(119,211,179);stroke:none;fill-opacity:1;stroke-opacity:1;" /><path d="M 292.11377 233.06 L 255.7725 236.87" style="stroke:rgb(119,211,179);stroke-width:1" /><circle cx="255.7725" cy="236.87" r="2" style="fill:rgb(119,211,179);stroke:none;fill-opacity:1;stroke-opacity:1;" /><path d="M 255.7725 236.87 L 142.88626 246.28" style="stroke:rgb(119,211,179);stroke-width:1" /><circle cx="142.88626" cy="246.28" r="2" style="fill:rgb(119,211,179);stroke:none;fill-opacity:1;stroke-opacity:1;" /><path d="M 142.88626 246.28 L 30 252.9525" style="stroke:rgb(119,211,179);stroke-width:1" /><circle cx="30" cy="252.9525" r="2" style="fill:rgb(119,211,179);stroke:none;fill-opacity:1;stroke-opacity:1;" /><circle cx="780" cy="92.545" r="2" style="fill:rgb(120,68,33);stroke:none;fill-opacity:1;stroke-opacity:1;" /><path d="M 780 92.545 L 630.77246 157.22751" style="stroke:rgb(120,68,33);stroke-width:1" /><circle cx="630.77246" cy="157.22751" r="2" style="fill:rgb(120,68,33);stroke:none;fill-opacity:1;stroke-opacity:1;" /><path d="M 630.77246 157.22751 L 517.8862 189.8275" style="stroke:rgb(120,68,33);stroke-width:1" /><circle cx="517.8862" cy="189.8275" r="2" style="fill:rgb(120,68,33);stroke:none;fill-opacity:1;stroke-opacity:1;" /><path d="M 517.8862 189.8275 L 451.85202 204.2625" style="stroke:rgb(120,68,33);stroke-width:1" /><circle cx="451.85202" cy="204.2625" r="2" style="fill:rgb(120,68,33);stroke:none;fill-opacity:1;stroke-opacity:1;" /><path d="M 451.85202 204.2625 L 405 212.82" style="stroke:rgb(120,68,33);stroke-width:1" /><circle cx="405" cy="212.82" r="2" style="fill:rgb(120,68,33);stroke:none;fill-opacity:1;stroke-opacity:1;" /><path d="M 405 212.82 L 338.96576 223.0325" style="stroke:rgb(120,68,33);stroke-width:1" /><circle cx="338.96576" cy="223.0325" r="2" style="fill:rgb(120,68,33);stroke:none;fill-opacity:1;stroke-opacity:1;" /><path d="M 338.96576 223.0325 L 292.11377 229.0525" style="stroke:rgb(120,68,33);stroke-width:1" /><circle cx="292.11377" cy="229.0525" r="2" style="fill:rgb(120,68,33);stroke:none;fill-opacity:1;stroke-opacity:1;" /><path d="M 292.11377 229.0525 L 255.7725 233.1625" style="stroke:rgb(120,68,33);stroke-width:1" /><circle cx="255.7725" cy="233.1625" r="2" style="fill:rgb(120,68,33);stroke:none;fill-opacity:1;stroke-opacity:1;" /><path d="M 255.7725 233.1625 L 142.88626 243.16" style="stroke:rgb(120,68,33);stroke-width:1" /><circle cx="142.88626" cy="243.16" r="2" style="fill:rgb(120,68,33);stroke:none;fill-opacity:1;stroke-opacity:1;" /><path d="M 142.88626 243.16 L 30 250.0275" style="stroke:rgb(120,68,33);stroke-width:1" /><circle cx="30" cy="250.0275" r="2" style="fill:rgb(120,68,33);stroke:none;fill-opacity:1;stroke-opacity:1;" /><circle cx="780" cy="108.475006" r="2" style="fill:rgb(50,125,209);stroke:none;fill-opacity:1;stroke-opacity:1;" /><path d="M 780 108.475006 L 630.77246 167.465" style="stroke:rgb(50,125,209);stroke-width:1" /><circle cx="630.77246" cy="167.465" r="2" style="fill:rgb(50,125,209);stroke:none;fill-opacity:1;stroke-opacity:1;" /><path d="M 630.77246 167.465 L 517.8862 197.2" style="stroke:rgb(50,125,209);stroke-width:1" /><circle cx="517.8862" cy="197.2" r="2" style="fill:rgb(50,125,209);stroke:none;fill-opacity:1;stroke-opacity:1;" /><path d="M 517.8862 197.2 L 451.85202 210.33499" style="stroke:rgb(50,125,209);stroke-width:1" /><circle cx="451.85202" cy="210.33499" r="2" style="fill:rgb(50,125,209);stroke:none;fill-opacity:1;stroke-opacity:1;" /><path d="M 451.85202 210.33499 L 405 218.1825" style="stroke:rgb(50,125,209);stroke-width:1" /><circle cx="405" cy="218.1825" r="2" style="fill:rgb(50,125,209);stroke:none;fill-opacity:1;stroke-opacity:1;" /><path d="M 405 218.1825 L 338.96576 227.52" style="stroke:rgb(50,125,209);stroke-width:1" /><circle cx="338.96576" cy="227.52" r="2" style="fill:rgb(50,125,209);stroke:none;fill-opacity:1;stroke-opacity:1;" /><path d="M 338.96576 227.52 L 292.11377 233.0625" style="stroke:rgb(50,125,209);stroke-width:1" /><circle cx="292.11377" cy="233.0625" r="2" style="fill:rgb(50,125,209);stroke:none;fill-opacity:1;stroke-opacity:1;" /><path d="M 292.11377 233.0625 L 255.7725 236.85" style="stroke:rgb(50,125,209);stroke-width:1" /><circle cx="255.7725" cy="236.85" r="2" style="fill:rgb(50,125,209);stroke:none;fill-opacity:1;stroke-opacity:1;" /><path d="M 255.7725 236.85 L 142.88626 246.225" style="stroke:rgb(50,125,209);stroke-width:1" /><circle cx="142.88626" cy="246.225" r="2" style="fill:rgb(50,125,209);stroke:none;fill-opacity:1;stroke-opacity:1;" /><path d="M 142.88626 246.225 L 30 252.8375" style="stroke:rgb(50,125,209);stroke-width:1" /><circle cx="30" cy="252.8375" r="2" style="fill:rgb(50,125,209);stroke:none;fill-opacity:1;stroke-opacity:1;" /><circle cx="780" cy="115.240005" r="2" style="fill:rgb(255,181,90);stroke:none;fill-opacity:1;stroke-opacity:1;" /><path d="M 780 115.240005 L 630.77246 168.7" style="stroke:rgb(255,181,90);stroke-width:1" /><circle cx="630.77246" cy="168.7" r="2" style="fill:rgb(255,181,90);stroke:none;fill-opacity:1;stroke-opacity:1;" /><path d="M 630.77246 168.7 L 517.8862 194.1925" style="stroke:rgb(255,181,90);stroke-width:1" /><circle cx="517.8862" cy="194.1925" r="2" style="fill:rgb(255,181,90);stroke:none;fill-opacity:1;stroke-opacity:1;" /><path d="M 517.8862 194.1925 L 451.85202 204.35251" style="stroke:rgb(255,181,90);stroke-width:1" /><circle cx="451.85202" cy="204.35251" r="2" style="fill:rgb(255,181,90);stroke:none;fill-opacity:1;stroke-opacity:1;" /><path d="M 451.85202 204.35251 L 405 209.5575" style="stroke:rgb(255,181,90);stroke-width:1" /><circle cx="405" cy="209.5575" r="2" style="fill:rgb(255,181,90);stroke:none;fill-opacity:1;stroke-opacity:1;" /><path d="M 405 209.5575 L 338.96576 213.6175" style="stroke:rgb(255,181,90);stroke-width:1" /><circle cx="338.96576" cy="213.6175" r="2" style="fill:rgb(255,181,90);stroke:none;fill-opacity:1;stroke-opacity:1;" /><path d="M 338.96576 213.6175 L 292.11377 213.13" style="stroke:rgb(255,181,90);stroke-width:1" /><circle cx="292.11377" cy="213.13" r="2" style="fill:rgb(255,181,90);stroke:none;fill-opacity:1;stroke-opacity:1;" /><path d="M 292.11377 213.13 L 255.7725 209.13" style="stroke:rgb(255,181,90);stroke-width:1" /><circle cx="255.7725" cy="209.13" r="2" style="fill:rgb(255,181,90);stroke:none;fill-opacity:1;stroke-opacity:1;" /><path d="M 255.7725 209.13 L 142.88626 226.6575" style="stroke:rgb(255,181,90);stroke-width:1" /><circle cx="142.88626" cy="226.6575" r="2" style="fill:rgb(255,181,90);stroke:none;fill-opacity:1;stroke-opacity:1;" /><path d="M 142.88626 226.6575 L 30 239.02" style="stroke:rgb(255,181,90);stroke-width:1" /><circle cx="30" cy="239.02" r="2" style="fill:rgb(255,181,90);stroke:none;fill-opacity:1;stroke-opacity:1;" /><circle cx="780" cy="49.137497" r="2" style="fill:rgb(255,238,101);stroke:none;fill-opacity:1;stroke-opacity:1;" /><path d="M 780 49.137497 L 630.77246 138.5675" style="stroke:rgb(255,238,101);stroke-width:1" /><circle cx="630.77246" cy="138.5675" r="2" style="fill:rgb(255,238,101);stroke:none;fill-opacity:1;stroke-opacity:1;" /><path d="M 630.77246 138.5675 L 517.8862 168.26001" style="stroke:rgb(255,238,101);stroke-width:1" /><circle cx="517.8862" cy="168.26001" r="2" style="fill:rgb(255,238,101);stroke:none;fill-opacity:1;stroke-opacity:1;" /><path d="M 517.8862 168.26001 L 451.85202 190.54251" style="stroke:rgb(255,238,101);stroke-width:1" /><circle cx="451.85202" cy="190.54251" r="2" style="fill:rgb(255,238,101);stroke:none;fill-opacity:1;stroke-opacity:1;" /><path d="M 451.85202 190.54251 L 405 204.22751" style="stroke:rgb(255,238,101);stroke-width:1" /><circle cx="405" cy="204.22751" r="2" style="fill:rgb(255,238,101);stroke:none;fill-opacity:1;stroke-opacity:1;" /><path d="M 405 204.22751 L 338.96576 213.3125" style="stroke:rgb(255,238,101);stroke-width:1" /><circle cx="338.96576" cy="213.3125" r="2" style="fill:rgb(255,238,101);stroke:none;fill-opacity:1;stroke-opacity:1;" /><path d="M 338.96576 213.3125 L 292.11377 219.0975" style="stroke:rgb(255,238,101);stroke-width:1" /><circle cx="292.11377" cy="219.0975" r="2" style="fill:rgb(255,238,101);stroke:none;fill-opacity:1;stroke-opacity:1;" /><path d="M 292.11377 219.0975 L 255.7725 224.9075" style="stroke:rgb(255,238,101);stroke-width:1" /><circle cx="255.7725" cy="224.9075" r="2" style="fill:rgb(255,238,101);stroke:none;fill-opacity:1;stroke-opacity:1;" /><path d="M 255.7725 224.9075 L 142.88626 239.93" style="stroke:rgb(255,238,101);stroke-width:1" /><circle cx="142.88626" cy="239.93" r="2" style="fill:rgb(255,238,101);stroke:none;fill-opacity:1;stroke-opacity:1;" /><path d="M 142.88626 239.93 L 30 247.325" style="stroke:rgb(255,238,101);stroke-width:1" /><circle cx="30" cy="247.325" r="2" style="fill:rgb(255,238,101);stroke:none;fill-opacity:1;stroke-opacity:1;" /><rect x="676" y="16" width="80" height="217" ry="4" style="fill:rgb(30,30,30);stroke:none;fill-opacity:0.8;stroke-opacity:1;" /><rect x="680" y="20" width="20" height="20" ry="2" style="fill:rgb(253,127,111);stroke:none;fill-opacity:1;stroke-opacity:1;" /><text x="705" y="33" style="font-size:10px;fill:rgb(255,255,255);text-anchor:start;text-align:left;"> fwd-diff </text><rect x="680" y="41" width="20" height="20" ry="2" style="fill:rgb(255,181,90);stroke:none;fill-opacity:1;stroke-opacity:1;" /><text x="705" y="54" style="font-size:10px;fill:rgb(255,255,255);text-anchor:start;text-align:left;"> hain </text><rect x="680" y="62" width="20" height="20" ry="2" style="fill:rgb(253,204,229);stroke:none;fill-opacity:1;stroke-opacity:1;" /><text x="705" y="75" style="font-size:10px;fill:rgb(255,255,255);text-anchor:start;text-align:left;"> hfd </text><rect x="680" y="83" width="20" height="20" ry="2" style="fill:rgb(50,125,209);stroke:none;fill-opacity:1;stroke-opacity:1;" /><text x="705" y="96" style="font-size:10px;fill:rgb(255,255,255);text-anchor:start;text-align:left;"> levien </text><rect x="680" y="104" width="20" height="20" ry="2" style="fill:rgb(119,211,179);stroke:none;fill-opacity:1;stroke-opacity:1;" /><text x="705" y="117" style="font-size:10px;fill:rgb(255,255,255);text-anchor:start;text-align:left;"> levien-linear </text><rect x="680" y="125" width="20" height="20" ry="2" style="fill:rgb(139,211,199);stroke:none;fill-opacity:1;stroke-opacity:1;" /><text x="705" y="138" style="font-size:10px;fill:rgb(255,255,255);text-anchor:start;text-align:left;"> levien-quads </text><rect x="680" y="146" width="20" height="20" ry="2" style="fill:rgb(128,214,87);stroke:none;fill-opacity:1;stroke-opacity:1;" /><text x="705" y="159" style="font-size:10px;fill:rgb(255,255,255);text-anchor:start;text-align:left;"> linear </text><rect x="680" y="167" width="20" height="20" ry="2" style="fill:rgb(255,238,101);stroke:none;fill-opacity:1;stroke-opacity:1;" /><text x="705" y="180" style="font-size:10px;fill:rgb(255,255,255);text-anchor:start;text-align:left;"> recursive </text><rect x="680" y="188" width="20" height="20" ry="2" style="fill:rgb(253,204,229);stroke:none;fill-opacity:1;stroke-opacity:1;" /><text x="705" y="201" style="font-size:10px;fill:rgb(255,255,255);text-anchor:start;text-align:left;"> wang </text><rect x="680" y="209" width="20" height="20" ry="2" style="fill:rgb(120,68,33);stroke:none;fill-opacity:1;stroke-opacity:1;" /><text x="705" y="222" style="font-size:10px;fill:rgb(255,255,255);text-anchor:start;text-align:left;"> yzerman </text><text x="400" y="30" style="font-size:20px;fill:rgb(255,255,255);text-anchor:middle;text-align:center;"> Nehab </text><text x="400" y="42" style="font-size:8px;fill:rgb(200,200,200);text-anchor:middle;text-align:center;"> Normalized edge count score (lower is better) </text></svg>