<svg xmlns="http://www.w3.org/2000/svg" viewBox="0 0 800 300"><rect x="0" y="0" width="800" height="300" ry="6" style="fill:rgb(30,30,30);stroke:none;fill-opacity:1;stroke-opacity:1;" /><path d="M 30 20 L 30 270" style="stroke:rgb(200,200,200);stroke-width:1" /><path d="M 30 270 L 780 270" style="stroke:rgb(200,200,200);stroke-width:1" /><path d="M 780 270 L 780 272" style="stroke:rgb(200,200,200);stroke-width:1" /><text x="780" y="282" style="font-size:10px;fill:rgb(200,200,200);text-anchor:middle;text-align:center;"> 0.01 </text><path d="M 630.77246 270 L 630.77246 272" style="stroke:rgb(200,200,200);stroke-width:1" /><text x="630.77246" y="282" style="font-size:10px;fill:rgb(200,200,200);text-anchor:middle;text-align:center;"> 0.025 </text><path d="M 517.8862 270 L 517.8862 272" style="stroke:rgb(200,200,200);stroke-width:1" /><text x="517.8862" y="282" style="font-size:10px;fill:rgb(200,200,200);text-anchor:middle;text-align:center;"> 0.05 </text><path d="M 451.85202 270 L 451.85202 272" style="stroke:rgb(200,200,200);stroke-width:1" /><text x="451.85202" y="282" style="font-size:10px;fill:rgb(200,200,200);text-anchor:middle;text-align:center;"> 0.075 </text><path d="M 405 270 L 405 272" style="stroke:rgb(200,200,200);stroke-width:1" /><text x="405" y="282" style="font-size:10px;fill:rgb(200,200,200);text-anchor:middle;text-align:center;"> 0.1 </text><path d="M 338.96576 270 L 338.96576 272" style="stroke:rgb(200,200,200);stroke-width:1" /><text x="338.96576" y="282" style="font-size:10px;fill:rgb(200,200,200);text-anchor:middle;text-align:center;"> 0.15 </text><path d="M 292.11377 270 L 292.11377 272" style="stroke:rgb(200,200,200);stroke-width:1" /><text x="292.11377" y="282" style="font-size:10px;fill:rgb(200,200,200);text-anchor:middle;text-align:center;"> 0.2 </text><path d="M 255.7725 270 L 255.7725 272" style="stroke:rgb(200,200,200);stroke-width:1" /><text x="255.7725" y="282" style="font-size:10px;fill:rgb(200,200,200);text-anchor:middle;text-align:center;"> 0.25 </text><path d="M 142.88626 270 L 142.88626 272" style="stroke:rgb(200,200,200);stroke-width:1" /><text x="142.88626" y="282" style="font-size:10px;fill:rgb(200,200,200);text-anchor:middle;text-align:center;"> 0.5 </text><path d="M 30 270 L 30 272" style="stroke:rgb(200,200,200);stroke-width:1" /><text x="30" y="282" style="font-size:10px;fill:rgb(200,200,200);text-anchor:middle;text-align:center;"> 1 </text><path d="M 28 270 L 30 270" style="stroke:rgb(200,200,200);stroke-width:1" /><text x="26" y="274" style="font-size:10px;fill:rgb(200,200,200);text-anchor:end;text-align:right;"> 0 </text><path d="M 28 207.5 L 30 207.5" style="stroke:rgb(200,200,200);stroke-width:1" /><text x="26" y="211.5" style="font-size:10px;fill:rgb(200,200,200);text-anchor:end;text-align:right;"> 0.25 </text><path d="M 28 145 L 30 145" style="stroke:rgb(200,200,200);stroke-width:1" /><text x="26" y="149" style="font-size:10px;fill:rgb(200,200,200);text-anchor:end;text-align:right;"> 0.5 </text><path d="M 28 82.5 L 30 82.5" style="stroke:rgb(200,200,200);stroke-width:1" /><text x="26" y="86.5" style="font-size:10px;fill:rgb(200,200,200);text-anchor:end;text-align:right;"> 0.75 </text><path d="M 28 20 L 30 20" style="stroke:rgb(200,200,200);stroke-width:1" /><text x="26" y="24" style="font-size:10px;fill:rgb(200,200,200);text-anchor:end;text-align:right;"> 1 </text><text x="400" y="294" style="font-size:10px;fill:rgb(200,200,200);text-anchor:middle;text-align:center;"> Tolerance </text><circle cx="780" cy="167.43" r="2" style="fill:rgb(119,211,179);stroke:none;fill-opacity:1;stroke-opacity:1;" /><path d="M 780 167.43 L 630.77246 203.64499" style="stroke:rgb(119,211,179);stroke-width:1" /><circle cx="630.77246" cy="203.64499" r="2" style="fill:rgb(119,211,179);stroke:none;fill-opacity:1;stroke-opacity:1;" /><path d="M 630.77246 203.64499 L 517.8862 221.8575" style="stroke:rgb(119,211,179);stroke-width:1" /><circle cx="517.8862" cy="221.8575" r="2" style="fill:rgb(119,211,179);stroke:none;fill-opacity:1;stroke-opacity:1;" /><path d="M 517.8862 221.8575 L 451.85202 229.8925" style="stroke:rgb(119,211,179);stroke-width:1" /><circle cx="451.85202" cy="229.8925" r="2" style="fill:rgb(119,211,179);stroke:none;fill-opacity:1;stroke-opacity:1;" /><path d="M 451.85202 229.8925 L 405 234.745" style="stroke:rgb(119,211,179);stroke-width:1" /><circle cx="405" cy="234.745" r="2" style="fill:rgb(119,211,179);stroke:none;fill-opacity:1;stroke-opacity:1;" /><path d="M 405 234.745 L 338.96576 239.855" style="stroke:rgb(119,211,179);stroke-width:1" /><circle cx="338.96576" cy="239.855" r="2" style="fill:rgb(119,211,179);stroke:none;fill-opacity:1;stroke-opacity:1;" /><path d="M 338.96576 239.855 L 292.11377 243.33" style="stroke:rgb(119,211,179);stroke-width:1" /><circle cx="292.11377" cy="243.33" r="2" style="fill:rgb(119,211,179);stroke:none;fill-opacity:1;stroke-opacity:1;" /><path d="M 292.11377 243.33 L 255.7725 245.5725" style="stroke:rgb(119,211,179);stroke-width:1" /><circle cx="255.7725" cy="245.5725" r="2" style="fill:rgb(119,211,179);stroke:none;fill-opacity:1;stroke-opacity:1;" /><path d="M 255.7725 245.5725 L 142.88626 251.4125" style="stroke:rgb(119,211,179);stroke-width:1" /><circle cx="142.88626" cy="251.4125" r="2" style="fill:rgb(119,211,179);stroke:none;fill-opacity:1;stroke-opacity:1;" /><path d="M 142.88626 251.4125 L 30 255.84" style="stroke:rgb(119,211,179);stroke-width:1" /><circle cx="30" cy="255.84" r="2" style="fill:rgb(119,211,179);stroke:none;fill-opacity:1;stroke-opacity:1;" /><circle cx="780" cy="20" r="2" style="fill:rgb(139,211,199);stroke:none;fill-opacity:1;stroke-opacity:1;" /><path d="M 780 20 L 630.77246 107.595" style="stroke:rgb(139,211,199);stroke-width:1" /><circle cx="630.77246" cy="107.595" r="2" style="fill:rgb(139,211,199);stroke:none;fill-opacity:1;stroke-opacity:1;" /><path d="M 630.77246 107.595 L 517.8862 153.8725" style="stroke:rgb(139,211,199);stroke-width:1" /><circle cx="517.8862" cy="153.8725" r="2" style="fill:rgb(139,211,199);stroke:none;fill-opacity:1;stroke-opacity:1;" /><path d="M 517.8862 153.8725 L 451.85202 173.22" style="stroke:rgb(139,211,199);stroke-width:1" /><circle cx="451.85202" cy="173.22" r="2" style="fill:rgb(139,211,199);stroke:none;fill-opacity:1;stroke-opacity:1;" /><path d="M 451.85202 173.22 L 405 185.59" style="stroke:rgb(139,211,199);stroke-width:1" /><circle cx="405" cy="185.59" r="2" style="fill:rgb(139,211,199);stroke:none;fill-opacity:1;stroke-opacity:1;" /><path d="M 405 185.59 L 338.96576 200.84" style="stroke:rgb(139,211,199);stroke-width:1" /><circle cx="338.96576" cy="200.84" r="2" style="fill:rgb(139,211,199);stroke:none;fill-opacity:1;stroke-opacity:1;" /><path d="M 338.96576 200.84 L 292.11377 209.07" style="stroke:rgb(139,211,199);stroke-width:1" /><circle cx="292.11377" cy="209.07" r="2" style="fill:rgb(139,211,199);stroke:none;fill-opacity:1;stroke-opacity:1;" /><path d="M 292.11377 209.07 L 255.7725 214.9025" style="stroke:rgb(139,211,199);stroke-width:1" /><circle cx="255.7725" cy="214.9025" r="2" style="fill:rgb(139,211,199);stroke:none;fill-opacity:1;stroke-opacity:1;" /><path d="M 255.7725 214.9025 L 142.88626 229.45999" style="stroke:rgb(139,211,199);stroke-width:1" /><circle cx="142.88626" cy="229.45999" r="2" style="fill:rgb(139,211,199);stroke:none;fill-opacity:1;stroke-opacity:1;" /><path d="M 142.88626 229.45999 L 30 240.315" style="stroke:rgb(139,211,199);stroke-width:1" /><circle cx="30" cy="240.315" r="2" style="fill:rgb(139,211,199);stroke:none;fill-opacity:1;stroke-opacity:1;" /><circle cx="780" cy="167.4375" r="2" style="fill:rgb(50,125,209);stroke:none;fill-opacity:1;stroke-opacity:1;" /><path d="M 780 167.4375 L 630.77246 203.8875" style="stroke:rgb(50,125,209);stroke-width:1" /><circle cx="630.77246" cy="203.8875" r="2" style="fill:rgb(50,125,209);stroke:none;fill-opacity:1;stroke-opacity:1;" /><path d="M 630.77246 203.8875 L 517.8862 222.275" style="stroke:rgb(50,125,209);stroke-width:1" /><circle cx="517.8862" cy="222.275" r="2" style="fill:rgb(50,125,209);stroke:none;fill-opacity:1;stroke-opacity:1;" /><path d="M 517.8862 222.275 L 451.85202 230.2175" style="stroke:rgb(50,125,209);stroke-width:1" /><circle cx="451.85202" cy="230.2175" r="2" style="fill:rgb(50,125,209);stroke:none;fill-opacity:1;stroke-opacity:1;" /><path d="M 451.85202 230.2175 L 405 235.245" style="stroke:rgb(50,125,209);stroke-width:1" /><circle cx="405" cy="235.245" r="2" style="fill:rgb(50,125,209);stroke:none;fill-opacity:1;stroke-opacity:1;" /><path d="M 405 235.245 L 338.96576 240.785" style="stroke:rgb(50,125,209);stroke-width:1" /><circle cx="338.96576" cy="240.785" r="2" style="fill:rgb(50,125,209);stroke:none;fill-opacity:1;stroke-opacity:1;" /><path d="M 338.96576 240.785 L 292.11377 244.3925" style="stroke:rgb(50,125,209);stroke-width:1" /><circle cx="292.11377" cy="244.3925" r="2" style="fill:rgb(50,125,209);stroke:none;fill-opacity:1;stroke-opacity:1;" /><path d="M 292.11377 244.3925 L 255.7725 246.7575" style="stroke:rgb(50,125,209);stroke-width:1" /><circle cx="255.7725" cy="246.7575" r="2" style="fill:rgb(50,125,209);stroke:none;fill-opacity:1;stroke-opacity:1;" /><path d="M 255.7725 246.7575 L 142.88626 252.5275" style="stroke:rgb(50,125,209);stroke-width:1" /><circle cx="142.88626" cy="252.5275" r="2" style="fill:rgb(50,125,209);stroke:none;fill-opacity:1;stroke-opacity:1;" /><path d="M 142.88626 252.5275 L 30 256.5025" style="stroke:rgb(50,125,209);stroke-width:1" /><circle cx="30" cy="256.5025" r="2" style="fill:rgb(50,125,209);stroke:none;fill-opacity:1;stroke-opacity:1;" /><circle cx="780" cy="107.5125" r="2" style="fill:rgb(120,68,33);stroke:none;fill-opacity:1;stroke-opacity:1;" /><path d="M 780 107.5125 L 630.77246 166.8175" style="stroke:rgb(120,68,33);stroke-width:1" /><circle cx="630.77246" cy="166.8175" r="2" style="fill:rgb(120,68,33);stroke:none;fill-opacity:1;stroke-opacity:1;" /><path d="M 630.77246 166.8175 L 517.8862 196.38" style="stroke:rgb(120,68,33);stroke-width:1" /><circle cx="517.8862" cy="196.38" r="2" style="fill:rgb(120,68,33);stroke:none;fill-opacity:1;stroke-opacity:1;" /><path d="M 517.8862 196.38 L 451.85202 209.2375" style="stroke:rgb(120,68,33);stroke-width:1" /><circle cx="451.85202" cy="209.2375" r="2" style="fill:rgb(120,68,33);stroke:none;fill-opacity:1;stroke-opacity:1;" /><path d="M 451.85202 209.2375 L 405 217.095" style="stroke:rgb(120,68,33);stroke-width:1" /><circle cx="405" cy="217.095" r="2" style="fill:rgb(120,68,33);stroke:none;fill-opacity:1;stroke-opacity:1;" /><path d="M 405 217.095 L 338.96576 226.7975" style="stroke:rgb(120,68,33);stroke-width:1" /><circle cx="338.96576" cy="226.7975" r="2" style="fill:rgb(120,68,33);stroke:none;fill-opacity:1;stroke-opacity:1;" /><path d="M 338.96576 226.7975 L 292.11377 232.0625" style="stroke:rgb(120,68,33);stroke-width:1" /><circle cx="292.11377" cy="232.0625" r="2" style="fill:rgb(120,68,33);stroke:none;fill-opacity:1;stroke-opacity:1;" /><path d="M 292.11377 232.0625 L 255.7725 235.7375" style="stroke:rgb(120,68,33);stroke-width:1" /><circle cx="255.7725" cy="235.7375" r="2" style="fill:rgb(120,68,33);stroke:none;fill-opacity:1;stroke-opacity:1;" /><path d="M 255.7725 235.7375 L 142.88626 244.9425" style="stroke:rgb(120,68,33);stroke-width:1" /><circle cx="142.88626" cy="244.9425" r="2" style="fill:rgb(120,68,33);stroke:none;fill-opacity:1;stroke-opacity:1;" /><path d="M 142.88626 244.9425 L 30 251.315" style="stroke:rgb(120,68,33);stroke-width:1" /><circle cx="30" cy="251.315" r="2" style="fill:rgb(120,68,33);stroke:none;fill-opacity:1;stroke-opacity:1;" /><circle cx="780" cy="133.715" r="2" style="fill:rgb(255,238,101);stroke:none;fill-opacity:1;stroke-opacity:1;" /><path d="M 780 133.715 L 630.77246 183.86499" style="stroke:rgb(255,238,101);stroke-width:1" /><circle cx="630.77246" cy="183.86499" r="2" style="fill:rgb(255,238,101);stroke:none;fill-opacity:1;stroke-opacity:1;" /><path d="M 630.77246 183.86499 L 517.8862 207.47751" style="stroke:rgb(255,238,101);stroke-width:1" /><circle cx="517.8862" cy="207.47751" r="2" style="fill:rgb(255,238,101);stroke:none;fill-opacity:1;stroke-opacity:1;" /><path d="M 517.8862 207.47751 L 451.85202 219.0925" style="stroke:rgb(255,238,101);stroke-width:1" /><circle cx="451.85202" cy="219.0925" r="2" style="fill:rgb(255,238,101);stroke:none;fill-opacity:1;stroke-opacity:1;" /><path d="M 451.85202 219.0925 L 405 226.16501" style="stroke:rgb(255,238,101);stroke-width:1" /><circle cx="405" cy="226.16501" r="2" style="fill:rgb(255,238,101);stroke:none;fill-opacity:1;stroke-opacity:1;" /><path d="M 405 226.16501 L 338.96576 233.7325" style="stroke:rgb(255,238,101);stroke-width:1" /><circle cx="338.96576" cy="233.7325" r="2" style="fill:rgb(255,238,101);stroke:none;fill-opacity:1;stroke-opacity:1;" /><path d="M 338.96576 233.7325 L 292.11377 238.02" style="stroke:rgb(255,238,101);stroke-width:1" /><circle cx="292.11377" cy="238.02" r="2" style="fill:rgb(255,238,101);stroke:none;fill-opacity:1;stroke-opacity:1;" /><path d="M 292.11377 238.02 L 255.7725 241.405" style="stroke:rgb(255,238,101);stroke-width:1" /><circle cx="255.7725" cy="241.405" r="2" style="fill:rgb(255,238,101);stroke:none;fill-opacity:1;stroke-opacity:1;" /><path d="M 255.7725 241.405 L 142.88626 249.4175" style="stroke:rgb(255,238,101);stroke-width:1" /><circle cx="142.88626" cy="249.4175" r="2" style="fill:rgb(255,238,101);stroke:none;fill-opacity:1;stroke-opacity:1;" /><path d="M 142.88626 249.4175 L 30 255.1375" style="stroke:rgb(255,238,101);stroke-width:1" /><circle cx="30" cy="255.1375" r="2" style="fill:rgb(255,238,101);stroke:none;fill-opacity:1;stroke-opacity:1;" /><circle cx="780" cy="39.78" r="2" style="fill:rgb(253,204,229);stroke:none;fill-opacity:1;stroke-opacity:1;" /><path d="M 780 39.78 L 630.77246 123.332504" style="stroke:rgb(253,204,229);stroke-width:1" /><circle cx="630.77246" cy="123.332504" r="2" style="fill:rgb(253,204,229);stroke:none;fill-opacity:1;stroke-opacity:1;" /><path d="M 630.77246 123.332504 L 517.8862 165.13501" style="stroke:rgb(253,204,229);stroke-width:1" /><circle cx="517.8862" cy="165.13501" r="2" style="fill:rgb(253,204,229);stroke:none;fill-opacity:1;stroke-opacity:1;" /><path d="M 517.8862 165.13501 L 451.85202 183.69751" style="stroke:rgb(253,204,229);stroke-width:1" /><circle cx="451.85202" cy="183.69751" r="2" style="fill:rgb(253,204,229);stroke:none;fill-opacity:1;stroke-opacity:1;" /><path d="M 451.85202 183.69751 L 405 194.94751" style="stroke:rgb(253,204,229);stroke-width:1" /><circle cx="405" cy="194.94751" r="2" style="fill:rgb(253,204,229);stroke:none;fill-opacity:1;stroke-opacity:1;" /><path d="M 405 194.94751 L 338.96576 207.9875" style="stroke:rgb(253,204,229);stroke-width:1" /><circle cx="338.96576" cy="207.9875" r="2" style="fill:rgb(253,204,229);stroke:none;fill-opacity:1;stroke-opacity:1;" /><path d="M 338.96576 207.9875 L 292.11377 215.8925" style="stroke:rgb(253,204,229);stroke-width:1" /><circle cx="292.11377" cy="215.8925" r="2" style="fill:rgb(253,204,229);stroke:none;fill-opacity:1;stroke-opacity:1;" /><path d="M 292.11377 215.8925 L 255.7725 221.215" style="stroke:rgb(253,204,229);stroke-width:1" /><circle cx="255.7725" cy="221.215" r="2" style="fill:rgb(253,204,229);stroke:none;fill-opacity:1;stroke-opacity:1;" /><path d="M 255.7725 221.215 L 142.88626 234.5625" style="stroke:rgb(253,204,229);stroke-width:1" /><circle cx="142.88626" cy="234.5625" r="2" style="fill:rgb(253,204,229);stroke:none;fill-opacity:1;stroke-opacity:1;" /><path d="M 142.88626 234.5625 L 30 243.91" style="stroke:rgb(253,204,229);stroke-width:1" /><circle cx="30" cy="243.91" r="2" style="fill:rgb(253,204,229);stroke:none;fill-opacity:1;stroke-opacity:1;" /><circle cx="780" cy="39.78" r="2" style="fill:rgb(253,127,111);stroke:none;fill-opacity:1;stroke-opacity:1;" /><path d="M 780 39.78 L 630.77246 123.332504" style="stroke:rgb(253,127,111);stroke-width:1" /><circle cx="630.77246" cy="123.332504" r="2" style="fill:rgb(253,127,111);stroke:none;fill-opacity:1;stroke-opacity:1;" /><path d="M 630.77246 123.332504 L 517.8862 165.13501" style="stroke:rgb(253,127,111);stroke-width:1" /><circle cx="517.8862" cy="165.13501" r="2" style="fill:rgb(253,127,111);stroke:none;fill-opacity:1;stroke-opacity:1;" /><path d="M 517.8862 165.13501 L 451.85202 183.69751" style="stroke:rgb(253,127,111);stroke-width:1" /><circle cx="451.85202" cy="183.69751" r="2" style="fill:rgb(253,127,111);stroke:none;fill-opacity:1;stroke-opacity:1;" /><path d="M 451.85202 183.69751 L 405 194.94751" style="stroke:rgb(253,127,111);stroke-width:1" /><circle cx="405" cy="194.94751" r="2" style="fill:rgb(253,127,111);stroke:none;fill-opacity:1;stroke-opacity:1;" /><path d="M 405 194.94751 L 338.96576 207.9875" style="stroke:rgb(253,127,111);stroke-width:1" /><circle cx="338.96576" cy="207.9875" r="2" style="fill:rgb(253,127,111);stroke:none;fill-opacity:1;stroke-opacity:1;" /><path d="M 338.96576 207.9875 L 292.11377 215.8925" style="stroke:rgb(253,127,111);stroke-width:1" /><circle cx="292.11377" cy="215.8925" r="2" style="fill:rgb(253,127,111);stroke:none;fill-opacity:1;stroke-opacity:1;" /><path d="M 292.11377 215.8925 L 255.7725 221.215" style="stroke:rgb(253,127,111);stroke-width:1" /><circle cx="255.7725" cy="221.215" r="2" style="fill:rgb(253,127,111);stroke:none;fill-opacity:1;stroke-opacity:1;" /><path d="M 255.7725 221.215 L 142.88626 234.5625" style="stroke:rgb(253,127,111);stroke-width:1" /><circle cx="142.88626" cy="234.5625" r="2" style="fill:rgb(253,127,111);stroke:none;fill-opacity:1;stroke-opacity:1;" /><path d="M 142.88626 234.5625 L 30 243.91" style="stroke:rgb(253,127,111);stroke-width:1" /><circle cx="30" cy="243.91" r="2" style="fill:rgb(253,127,111);stroke:none;fill-opacity:1;stroke-opacity:1;" /><circle cx="780" cy="134.73" r="2" style="fill:rgb(253,204,229);stroke:none;fill-opacity:1;stroke-opacity:1;" /><path d="M 780 134.73 L 630.77246 179.7125" style="stroke:rgb(253,204,229);stroke-width:1" /><circle cx="630.77246" cy="179.7125" r="2" style="fill:rgb(253,204,229);stroke:none;fill-opacity:1;stroke-opacity:1;" /><path d="M 630.77246 179.7125 L 517.8862 203.4525" style="stroke:rgb(253,204,229);stroke-width:1" /><circle cx="517.8862" cy="203.4525" r="2" style="fill:rgb(253,204,229);stroke:none;fill-opacity:1;stroke-opacity:1;" /><path d="M 517.8862 203.4525 L 451.85202 213.78" style="stroke:rgb(253,204,229);stroke-width:1" /><circle cx="451.85202" cy="213.78" r="2" style="fill:rgb(253,204,229);stroke:none;fill-opacity:1;stroke-opacity:1;" /><path d="M 451.85202 213.78 L 405 220.64749" style="stroke:rgb(253,204,229);stroke-width:1" /><circle cx="405" cy="220.64749" r="2" style="fill:rgb(253,204,229);stroke:none;fill-opacity:1;stroke-opacity:1;" /><path d="M 405 220.64749 L 338.96576 227.785" style="stroke:rgb(253,204,229);stroke-width:1" /><circle cx="338.96576" cy="227.785" r="2" style="fill:rgb(253,204,229);stroke:none;fill-opacity:1;stroke-opacity:1;" /><path d="M 338.96576 227.785 L 292.11377 232.345" style="stroke:rgb(253,204,229);stroke-width:1" /><circle cx="292.11377" cy="232.345" r="2" style="fill:rgb(253,204,229);stroke:none;fill-opacity:1;stroke-opacity:1;" /><path d="M 292.11377 232.345 L 255.7725 235.5025" style="stroke:rgb(253,204,229);stroke-width:1" /><circle cx="255.7725" cy="235.5025" r="2" style="fill:rgb(253,204,229);stroke:none;fill-opacity:1;stroke-opacity:1;" /><path d="M 255.7725 235.5025 L 142.88626 243.8625" style="stroke:rgb(253,204,229);stroke-width:1" /><circle cx="142.88626" cy="243.8625" r="2" style="fill:rgb(253,204,229);stroke:none;fill-opacity:1;stroke-opacity:1;" /><path d="M 142.88626 243.8625 L 30 249.865" style="stroke:rgb(253,204,229);stroke-width:1" /><circle cx="30" cy="249.865" r="2" style="fill:rgb(253,204,229);stroke:none;fill-opacity:1;stroke-opacity:1;" /><circle cx="780" cy="167.0775" r="2" style="fill:rgb(255,181,90);stroke:none;fill-opacity:1;stroke-opacity:1;" /><path d="M 780 167.0775 L 630.77246 202.92749" style="stroke:rgb(255,181,90);stroke-width:1" /><circle cx="630.77246" cy="202.92749" r="2" style="fill:rgb(255,181,90);stroke:none;fill-opacity:1;stroke-opacity:1;" /><path d="M 630.77246 202.92749 L 517.8862 221.0025" style="stroke:rgb(255,181,90);stroke-width:1" /><circle cx="517.8862" cy="221.0025" r="2" style="fill:rgb(255,181,90);stroke:none;fill-opacity:1;stroke-opacity:1;" /><path d="M 517.8862 221.0025 L 451.85202 229.1625" style="stroke:rgb(255,181,90);stroke-width:1" /><circle cx="451.85202" cy="229.1625" r="2" style="fill:rgb(255,181,90);stroke:none;fill-opacity:1;stroke-opacity:1;" /><path d="M 451.85202 229.1625 L 405 233.91501" style="stroke:rgb(255,181,90);stroke-width:1" /><circle cx="405" cy="233.91501" r="2" style="fill:rgb(255,181,90);stroke:none;fill-opacity:1;stroke-opacity:1;" /><path d="M 405 233.91501 L 338.96576 239.67" style="stroke:rgb(255,181,90);stroke-width:1" /><circle cx="338.96576" cy="239.67" r="2" style="fill:rgb(255,181,90);stroke:none;fill-opacity:1;stroke-opacity:1;" /><path d="M 338.96576 239.67 L 292.11377 243.0825" style="stroke:rgb(255,181,90);stroke-width:1" /><circle cx="292.11377" cy="243.0825" r="2" style="fill:rgb(255,181,90);stroke:none;fill-opacity:1;stroke-opacity:1;" /><path d="M 292.11377 243.0825 L 255.7725 245.4325" style="stroke:rgb(255,181,90);stroke-width:1" /><circle cx="255.7725" cy="245.4325" r="2" style="fill:rgb(255,181,90);stroke:none;fill-opacity:1;stroke-opacity:1;" /><path d="M 255.7725 245.4325 L 142.88626 251.2625" style="stroke:rgb(255,181,90);stroke-width:1" /><circle cx="142.88626" cy="251.2625" r="2" style="fill:rgb(255,181,90);stroke:none;fill-opacity:1;stroke-opacity:1;" /><path d="M 142.88626 251.2625 L 30 255.4025" style="stroke:rgb(255,181,90);stroke-width:1" /><circle cx="30" cy="255.4025" r="2" style="fill:rgb(255,181,90);stroke:none;fill-opacity:1;stroke-opacity:1;" /><circle cx="780" cy="136.5125" r="2" style="fill:rgb(128,214,87);stroke:none;fill-opacity:1;stroke-opacity:1;" /><path d="M 780 136.5125 L 630.77246 185.985" style="stroke:rgb(128,214,87);stroke-width:1" /><circle cx="630.77246" cy="185.985" r="2" style="fill:rgb(128,214,87);stroke:none;fill-opacity:1;stroke-opacity:1;" /><path d="M 630.77246 185.985 L 517.8862 209.715" style="stroke:rgb(128,214,87);stroke-width:1" /><circle cx="517.8862" cy="209.715" r="2" style="fill:rgb(128,214,87);stroke:none;fill-opacity:1;stroke-opacity:1;" /><path d="M 517.8862 209.715 L 451.85202 221.0025" style="stroke:rgb(128,214,87);stroke-width:1" /><circle cx="451.85202" cy="221.0025" r="2" style="fill:rgb(128,214,87);stroke:none;fill-opacity:1;stroke-opacity:1;" /><path d="M 451.85202 221.0025 L 405 227.4375" style="stroke:rgb(128,214,87);stroke-width:1" /><circle cx="405" cy="227.4375" r="2" style="fill:rgb(128,214,87);stroke:none;fill-opacity:1;stroke-opacity:1;" /><path d="M 405 227.4375 L 338.96576 234.81" style="stroke:rgb(128,214,87);stroke-width:1" /><circle cx="338.96576" cy="234.81" r="2" style="fill:rgb(128,214,87);stroke:none;fill-opacity:1;stroke-opacity:1;" /><path d="M 338.96576 234.81 L 292.11377 239.4375" style="stroke:rgb(128,214,87);stroke-width:1" /><circle cx="292.11377" cy="239.4375" r="2" style="fill:rgb(128,214,87);stroke:none;fill-opacity:1;stroke-opacity:1;" /><path d="M 292.11377 239.4375 L 255.7725 242.3925" style="stroke:rgb(128,214,87);stroke-width:1" /><circle cx="255.7725" cy="242.3925" r="2" style="fill:rgb(128,214,87);stroke:none;fill-opacity:1;stroke-opacity:1;" /><path d="M 255.7725 242.3925 L 142.88626 250.15" style="stroke:rgb(128,214,87);stroke-width:1" /><circle cx="142.88626" cy="250.15" r="2" style="fill:rgb(128,214,87);stroke:none;fill-opacity:1;stroke-opacity:1;" /><path d="M 142.88626 250.15 L 30 255.41" style="stroke:rgb(128,214,87);stroke-width:1" /><circle cx="30" cy="255.41" r="2" style="fill:rgb(128,214,87);stroke:none;fill-opacity:1;stroke-opacity:1;" /><rect x="676" y="16" width="80" height="217" ry="4" style="fill:rgb(30,30,30);stroke:none;fill-opacity:0.8;stroke-opacity:1;" /><rect x="680" y="20" width="20" height="20" ry="2" style="fill:rgb(253,127,111);stroke:none;fill-opacity:1;stroke-opacity:1;" /><text x="705" y="33" style="font-size:10px;fill:rgb(255,255,255);text-anchor:start;text-align:left;"> fwd-diff </text><rect x="680" y="41" width="20" height="20" ry="2" style="fill:rgb(255,181,90);stroke:none;fill-opacity:1;stroke-opacity:1;" /><text x="705" y="54" style="font-size:10px;fill:rgb(255,255,255);text-anchor:start;text-align:left;"> hain </text><rect x="680" y="62" width="20" height="20" ry="2" style="fill:rgb(139,211,199);stroke:none;fill-opacity:1;stroke-opacity:1;" /><text x="705" y="75" style="font-size:10px;fill:rgb(255,255,255);text-anchor:start;text-align:left;"> hfd </text><rect x="680" y="83" width="20" height="20" ry="2" style="fill:rgb(50,125,209);stroke:none;fill-opacity:1;stroke-opacity:1;" /><text x="705" y="96" style="font-size:10px;fill:rgb(255,255,255);text-anchor:start;text-align:left;"> levien </text><rect x="680" y="104" width="20" height="20" ry="2" style="fill:rgb(119,211,179);stroke:none;fill-opacity:1;stroke-opacity:1;" /><text x="705" y="117" style="font-size:10px;fill:rgb(255,255,255);text-anchor:start;text-align:left;"> levien-linear </text><rect x="680" y="125" width="20" height="20" ry="2" style="fill:rgb(253,204,229);stroke:none;fill-opacity:1;stroke-opacity:1;" /><text x="705" y="138" style="font-size:10px;fill:rgb(255,255,255);text-anchor:start;text-align:left;"> levien-quads </text><rect x="680" y="146" width="20" height="20" ry="2" style="fill:rgb(128,214,87);stroke:none;fill-opacity:1;stroke-opacity:1;" /><text x="705" y="159" style="font-size:10px;fill:rgb(255,255,255);text-anchor:start;text-align:left;"> linear </text><rect x="680" y="167" width="20" height="20" ry="2" style="fill:rgb(255,238,101);stroke:none;fill-opacity:1;stroke-opacity:1;" /><text x="705" y="180" style="font-size:10px;fill:rgb(255,255,255);text-anchor:start;text-align:left;"> recursive </text><rect x="680" y="188" width="20" height="20" ry="2" style="fill:rgb(253,204,229);stroke:none;fill-opacity:1;stroke-opacity:1;" /><text x="705" y="201" style="font-size:10px;fill:rgb(255,255,255);text-anchor:start;text-align:left;"> wang </text><rect x="680" y="209" width="20" height="20" ry="2" style="fill:rgb(120,68,33);stroke:none;fill-opacity:1;stroke-opacity:1;" /><text x="705" y="222" style="font-size:10px;fill:rgb(255,255,255);text-anchor:start;text-align:left;"> yzerman </text><text x="400" y="30" style="font-size:20px;fill:rgb(255,255,255);text-anchor:middle;text-align:center;"> Tiger </text><text x="400" y="42" style="font-size:8px;fill:rgb(200,200,200);text-anchor:middle;text-align:center;"> Normalized edge count score (lower is better) </text></svg>