<svg xmlns="http://www.w3.org/2000/svg" viewBox="0 0 800 300"><rect x="0" y="0" width="800" height="300" ry="6" style="fill:rgb(30,30,30);stroke:none;fill-opacity:1;stroke-opacity:1;" /><path d="M 30 20 L 30 270" style="stroke:rgb(200,200,200);stroke-width:1" /><path d="M 30 270 L 780 270" style="stroke:rgb(200,200,200);stroke-width:1" /><path d="M 780 270 L 780 272" style="stroke:rgb(200,200,200);stroke-width:1" /><text x="780" y="282" style="font-size:10px;fill:rgb(200,200,200);text-anchor:middle;text-align:center;"> 0.01 </text><path d="M 630.77246 270 L 630.77246 272" style="stroke:rgb(200,200,200);stroke-width:1" /><text x="630.77246" y="282" style="font-size:10px;fill:rgb(200,200,200);text-anchor:middle;text-align:center;"> 0.025 </text><path d="M 517.8862 270 L 517.8862 272" style="stroke:rgb(200,200,200);stroke-width:1" /><text x="517.8862" y="282" style="font-size:10px;fill:rgb(200,200,200);text-anchor:middle;text-align:center;"> 0.05 </text><path d="M 451.85202 270 L 451.85202 272" style="stroke:rgb(200,200,200);stroke-width:1" /><text x="451.85202" y="282" style="font-size:10px;fill:rgb(200,200,200);text-anchor:middle;text-align:center;"> 0.075 </text><path d="M 405 270 L 405 272" style="stroke:rgb(200,200,200);stroke-width:1" /><text x="405" y="282" style="font-size:10px;fill:rgb(200,200,200);text-anchor:middle;text-align:center;"> 0.1 </text><path d="M 338.96576 270 L 338.96576 272" style="stroke:rgb(200,200,200);stroke-width:1" /><text x="338.96576" y="282" style="font-size:10px;fill:rgb(200,200,200);text-anchor:middle;text-align:center;"> 0.15 </text><path d="M 292.11377 270 L 292.11377 272" style="stroke:rgb(200,200,200);stroke-width:1" /><text x="292.11377" y="282" style="font-size:10px;fill:rgb(200,200,200);text-anchor:middle;text-align:center;"> 0.2 </text><path d="M 255.7725 270 L 255.7725 272" style="stroke:rgb(200,200,200);stroke-width:1" /><text x="255.7725" y="282" style="font-size:10px;fill:rgb(200,200,200);text-anchor:middle;text-align:center;"> 0.25 </text><path d="M 142.88626 270 L 142.88626 272" style="stroke:rgb(200,200,200);stroke-width:1" /><text x="142.88626" y="282" style="font-size:10px;fill:rgb(200,200,200);text-anchor:middle;text-align:center;"> 0.5 </text><path d="M 30 270 L 30 272" style="stroke:rgb(200,200,200);stroke-width:1" /><text x="30" y="282" style="font-size:10px;fill:rgb(200,200,200);text-anchor:middle;text-align:center;"> 1 </text><path d="M 28 270 L 30 270" style="stroke:rgb(200,200,200);stroke-width:1" /><text x="26" y="274" style="font-size:10px;fill:rgb(200,200,200);text-anchor:end;text-align:right;"> 0 </text><path d="M 28 207.5 L 30 207.5" style="stroke:rgb(200,200,200);stroke-width:1" /><text x="26" y="211.5" style="font-size:10px;fill:rgb(200,200,200);text-anchor:end;text-align:right;"> 0.25 </text><path d="M 28 145 L 30 145" style="stroke:rgb(200,200,200);stroke-width:1" /><text x="26" y="149" style="font-size:10px;fill:rgb(200,200,200);text-anchor:end;text-align:right;"> 0.5 </text><path d="M 28 82.5 L 30 82.5" style="stroke:rgb(200,200,200);stroke-width:1" /><text x="26" y="86.5" style="font-size:10px;fill:rgb(200,200,200);text-anchor:end;text-align:right;"> 0.75 </text><path d="M 28 20 L 30 20" style="stroke:rgb(200,200,200);stroke-width:1" /><text x="26" y="24" style="font-size:10px;fill:rgb(200,200,200);text-anchor:end;text-align:right;"> 1 </text><text x="400" y="294" style="font-size:10px;fill:rgb(200,200,200);text-anchor:middle;text-align:center;"> Tolerance </text><circle cx="780" cy="56.807495" r="2" style="fill:rgb(128,214,87);stroke:none;fill-opacity:1;stroke-opacity:1;" /><path d="M 780 56.807495 L 630.77246 115.30499" style="stroke:rgb(128,214,87);stroke-width:1" /><circle cx="630.77246" cy="115.30499" r="2" style="fill:rgb(128,214,87);stroke:none;fill-opacity:1;stroke-opacity:1;" /><path d="M 630.77246 115.30499 L 517.8862 135.42" style="stroke:rgb(128,214,87);stroke-width:1" /><circle cx="517.8862" cy="135.42" r="2" style="fill:rgb(128,214,87);stroke:none;fill-opacity:1;stroke-opacity:1;" /><path d="M 517.8862 135.42 L 451.85202 143.8825" style="stroke:rgb(128,214,87);stroke-width:1" /><circle cx="451.85202" cy="143.8825" r="2" style="fill:rgb(128,214,87);stroke:none;fill-opacity:1;stroke-opacity:1;" /><path d="M 451.85202 143.8825 L 405 147.9125" style="stroke:rgb(128,214,87);stroke-width:1" /><circle cx="405" cy="147.9125" r="2" style="fill:rgb(128,214,87);stroke:none;fill-opacity:1;stroke-opacity:1;" /><path d="M 405 147.9125 L 338.96576 150.13501" style="stroke:rgb(128,214,87);stroke-width:1" /><circle cx="338.96576" cy="150.13501" r="2" style="fill:rgb(128,214,87);stroke:none;fill-opacity:1;stroke-opacity:1;" /><path d="M 338.96576 150.13501 L 292.11377 151.045" style="stroke:rgb(128,214,87);stroke-width:1" /><circle cx="292.11377" cy="151.045" r="2" style="fill:rgb(128,214,87);stroke:none;fill-opacity:1;stroke-opacity:1;" /><path d="M 292.11377 151.045 L 255.7725 151.95" style="stroke:rgb(128,214,87);stroke-width:1" /><circle cx="255.7725" cy="151.95" r="2" style="fill:rgb(128,214,87);stroke:none;fill-opacity:1;stroke-opacity:1;" /><path d="M 255.7725 151.95 L 142.88626 153.54251" style="stroke:rgb(128,214,87);stroke-width:1" /><circle cx="142.88626" cy="153.54251" r="2" style="fill:rgb(128,214,87);stroke:none;fill-opacity:1;stroke-opacity:1;" /><path d="M 142.88626 153.54251 L 30 153.64499" style="stroke:rgb(128,214,87);stroke-width:1" /><circle cx="30" cy="153.64499" r="2" style="fill:rgb(128,214,87);stroke:none;fill-opacity:1;stroke-opacity:1;" /><circle cx="780" cy="20" r="2" style="fill:rgb(253,127,111);stroke:none;fill-opacity:1;stroke-opacity:1;" /><path d="M 780 20 L 630.77246 96.042496" style="stroke:rgb(253,127,111);stroke-width:1" /><circle cx="630.77246" cy="96.042496" r="2" style="fill:rgb(253,127,111);stroke:none;fill-opacity:1;stroke-opacity:1;" /><path d="M 630.77246 96.042496 L 517.8862 125.36749" style="stroke:rgb(253,127,111);stroke-width:1" /><circle cx="517.8862" cy="125.36749" r="2" style="fill:rgb(253,127,111);stroke:none;fill-opacity:1;stroke-opacity:1;" /><path d="M 517.8862 125.36749 L 451.85202 137.6275" style="stroke:rgb(253,127,111);stroke-width:1" /><circle cx="451.85202" cy="137.6275" r="2" style="fill:rgb(253,127,111);stroke:none;fill-opacity:1;stroke-opacity:1;" /><path d="M 451.85202 137.6275 L 405 143.91" style="stroke:rgb(253,127,111);stroke-width:1" /><circle cx="405" cy="143.91" r="2" style="fill:rgb(253,127,111);stroke:none;fill-opacity:1;stroke-opacity:1;" /><path d="M 405 143.91 L 338.96576 148.985" style="stroke:rgb(253,127,111);stroke-width:1" /><circle cx="338.96576" cy="148.985" r="2" style="fill:rgb(253,127,111);stroke:none;fill-opacity:1;stroke-opacity:1;" /><path d="M 338.96576 148.985 L 292.11377 150.4075" style="stroke:rgb(253,127,111);stroke-width:1" /><circle cx="292.11377" cy="150.4075" r="2" style="fill:rgb(253,127,111);stroke:none;fill-opacity:1;stroke-opacity:1;" /><path d="M 292.11377 150.4075 L 255.7725 151.3275" style="stroke:rgb(253,127,111);stroke-width:1" /><circle cx="255.7725" cy="151.3275" r="2" style="fill:rgb(253,127,111);stroke:none;fill-opacity:1;stroke-opacity:1;" /><path d="M 255.7725 151.3275 L 142.88626 153.41" style="stroke:rgb(253,127,111);stroke-width:1" /><circle cx="142.88626" cy="153.41" r="2" style="fill:rgb(253,127,111);stroke:none;fill-opacity:1;stroke-opacity:1;" /><path d="M 142.88626 153.41 L 30 153.64499" style="stroke:rgb(253,127,111);stroke-width:1" /><circle cx="30" cy="153.64499" r="2" style="fill:rgb(253,127,111);stroke:none;fill-opacity:1;stroke-opacity:1;" /><circle cx="780" cy="47.914993" r="2" style="fill:rgb(255,238,101);stroke:none;fill-opacity:1;stroke-opacity:1;" /><path d="M 780 47.914993 L 630.77246 113.66" style="stroke:rgb(255,238,101);stroke-width:1" /><circle cx="630.77246" cy="113.66" r="2" style="fill:rgb(255,238,101);stroke:none;fill-opacity:1;stroke-opacity:1;" /><path d="M 630.77246 113.66 L 517.8862 134.1825" style="stroke:rgb(255,238,101);stroke-width:1" /><circle cx="517.8862" cy="134.1825" r="2" style="fill:rgb(255,238,101);stroke:none;fill-opacity:1;stroke-opacity:1;" /><path d="M 517.8862 134.1825 L 451.85202 143.245" style="stroke:rgb(255,238,101);stroke-width:1" /><circle cx="451.85202" cy="143.245" r="2" style="fill:rgb(255,238,101);stroke:none;fill-opacity:1;stroke-opacity:1;" /><path d="M 451.85202 143.245 L 405 147.6225" style="stroke:rgb(255,238,101);stroke-width:1" /><circle cx="405" cy="147.6225" r="2" style="fill:rgb(255,238,101);stroke:none;fill-opacity:1;stroke-opacity:1;" /><path d="M 405 147.6225 L 338.96576 150.1275" style="stroke:rgb(255,238,101);stroke-width:1" /><circle cx="338.96576" cy="150.1275" r="2" style="fill:rgb(255,238,101);stroke:none;fill-opacity:1;stroke-opacity:1;" /><path d="M 338.96576 150.1275 L 292.11377 151.045" style="stroke:rgb(255,238,101);stroke-width:1" /><circle cx="292.11377" cy="151.045" r="2" style="fill:rgb(255,238,101);stroke:none;fill-opacity:1;stroke-opacity:1;" /><path d="M 292.11377 151.045 L 255.7725 151.95" style="stroke:rgb(255,238,101);stroke-width:1" /><circle cx="255.7725" cy="151.95" r="2" style="fill:rgb(255,238,101);stroke:none;fill-opacity:1;stroke-opacity:1;" /><path d="M 255.7725 151.95 L 142.88626 153.54251" style="stroke:rgb(255,238,101);stroke-width:1" /><circle cx="142.88626" cy="153.54251" r="2" style="fill:rgb(255,238,101);stroke:none;fill-opacity:1;stroke-opacity:1;" /><path d="M 142.88626 153.54251 L 30 153.64499" style="stroke:rgb(255,238,101);stroke-width:1" /><circle cx="30" cy="153.64499" r="2" style="fill:rgb(255,238,101);stroke:none;fill-opacity:1;stroke-opacity:1;" /><circle cx="780" cy="20" r="2" style="fill:rgb(253,204,229);stroke:none;fill-opacity:1;stroke-opacity:1;" /><path d="M 780 20 L 630.77246 96.042496" style="stroke:rgb(253,204,229);stroke-width:1" /><circle cx="630.77246" cy="96.042496" r="2" style="fill:rgb(253,204,229);stroke:none;fill-opacity:1;stroke-opacity:1;" /><path d="M 630.77246 96.042496 L 517.8862 125.36749" style="stroke:rgb(253,204,229);stroke-width:1" /><circle cx="517.8862" cy="125.36749" r="2" style="fill:rgb(253,204,229);stroke:none;fill-opacity:1;stroke-opacity:1;" /><path d="M 517.8862 125.36749 L 451.85202 137.6275" style="stroke:rgb(253,204,229);stroke-width:1" /><circle cx="451.85202" cy="137.6275" r="2" style="fill:rgb(253,204,229);stroke:none;fill-opacity:1;stroke-opacity:1;" /><path d="M 451.85202 137.6275 L 405 143.91" style="stroke:rgb(253,204,229);stroke-width:1" /><circle cx="405" cy="143.91" r="2" style="fill:rgb(253,204,229);stroke:none;fill-opacity:1;stroke-opacity:1;" /><path d="M 405 143.91 L 338.96576 148.985" style="stroke:rgb(253,204,229);stroke-width:1" /><circle cx="338.96576" cy="148.985" r="2" style="fill:rgb(253,204,229);stroke:none;fill-opacity:1;stroke-opacity:1;" /><path d="M 338.96576 148.985 L 292.11377 150.4075" style="stroke:rgb(253,204,229);stroke-width:1" /><circle cx="292.11377" cy="150.4075" r="2" style="fill:rgb(253,204,229);stroke:none;fill-opacity:1;stroke-opacity:1;" /><path d="M 292.11377 150.4075 L 255.7725 151.3275" style="stroke:rgb(253,204,229);stroke-width:1" /><circle cx="255.7725" cy="151.3275" r="2" style="fill:rgb(253,204,229);stroke:none;fill-opacity:1;stroke-opacity:1;" /><path d="M 255.7725 151.3275 L 142.88626 153.41" style="stroke:rgb(253,204,229);stroke-width:1" /><circle cx="142.88626" cy="153.41" r="2" style="fill:rgb(253,204,229);stroke:none;fill-opacity:1;stroke-opacity:1;" /><path d="M 142.88626 153.41 L 30 153.64499" style="stroke:rgb(253,204,229);stroke-width:1" /><circle cx="30" cy="153.64499" r="2" style="fill:rgb(253,204,229);stroke:none;fill-opacity:1;stroke-opacity:1;" /><circle cx="780" cy="65.052505" r="2" style="fill:rgb(119,211,179);stroke:none;fill-opacity:1;stroke-opacity:1;" /><path d="M 780 65.052505 L 630.77246 116.505005" style="stroke:rgb(119,211,179);stroke-width:1" /><circle cx="630.77246" cy="116.505005" r="2" style="fill:rgb(119,211,179);stroke:none;fill-opacity:1;stroke-opacity:1;" /><path d="M 630.77246 116.505005 L 517.8862 135.5625" style="stroke:rgb(119,211,179);stroke-width:1" /><circle cx="517.8862" cy="135.5625" r="2" style="fill:rgb(119,211,179);stroke:none;fill-opacity:1;stroke-opacity:1;" /><path d="M 517.8862 135.5625 L 451.85202 143.95499" style="stroke:rgb(119,211,179);stroke-width:1" /><circle cx="451.85202" cy="143.95499" r="2" style="fill:rgb(119,211,179);stroke:none;fill-opacity:1;stroke-opacity:1;" /><path d="M 451.85202 143.95499 L 405 147.9125" style="stroke:rgb(119,211,179);stroke-width:1" /><circle cx="405" cy="147.9125" r="2" style="fill:rgb(119,211,179);stroke:none;fill-opacity:1;stroke-opacity:1;" /><path d="M 405 147.9125 L 338.96576 150.13501" style="stroke:rgb(119,211,179);stroke-width:1" /><circle cx="338.96576" cy="150.13501" r="2" style="fill:rgb(119,211,179);stroke:none;fill-opacity:1;stroke-opacity:1;" /><path d="M 338.96576 150.13501 L 292.11377 151.045" style="stroke:rgb(119,211,179);stroke-width:1" /><circle cx="292.11377" cy="151.045" r="2" style="fill:rgb(119,211,179);stroke:none;fill-opacity:1;stroke-opacity:1;" /><path d="M 292.11377 151.045 L 255.7725 151.95" style="stroke:rgb(119,211,179);stroke-width:1" /><circle cx="255.7725" cy="151.95" r="2" style="fill:rgb(119,211,179);stroke:none;fill-opacity:1;stroke-opacity:1;" /><path d="M 255.7725 151.95 L 142.88626 153.54251" style="stroke:rgb(119,211,179);stroke-width:1" /><circle cx="142.88626" cy="153.54251" r="2" style="fill:rgb(119,211,179);stroke:none;fill-opacity:1;stroke-opacity:1;" /><path d="M 142.88626 153.54251 L 30 153.64499" style="stroke:rgb(119,211,179);stroke-width:1" /><circle cx="30" cy="153.64499" r="2" style="fill:rgb(119,211,179);stroke:none;fill-opacity:1;stroke-opacity:1;" /><circle cx="780" cy="63.927505" r="2" style="fill:rgb(50,125,209);stroke:none;fill-opacity:1;stroke-opacity:1;" /><path d="M 780 63.927505 L 630.77246 115.64" style="stroke:rgb(50,125,209);stroke-width:1" /><circle cx="630.77246" cy="115.64" r="2" style="fill:rgb(50,125,209);stroke:none;fill-opacity:1;stroke-opacity:1;" /><path d="M 630.77246 115.64 L 517.8862 135.355" style="stroke:rgb(50,125,209);stroke-width:1" /><circle cx="517.8862" cy="135.355" r="2" style="fill:rgb(50,125,209);stroke:none;fill-opacity:1;stroke-opacity:1;" /><path d="M 517.8862 135.355 L 451.85202 143.785" style="stroke:rgb(50,125,209);stroke-width:1" /><circle cx="451.85202" cy="143.785" r="2" style="fill:rgb(50,125,209);stroke:none;fill-opacity:1;stroke-opacity:1;" /><path d="M 451.85202 143.785 L 405 147.3625" style="stroke:rgb(50,125,209);stroke-width:1" /><circle cx="405" cy="147.3625" r="2" style="fill:rgb(50,125,209);stroke:none;fill-opacity:1;stroke-opacity:1;" /><path d="M 405 147.3625 L 338.96576 150.0975" style="stroke:rgb(50,125,209);stroke-width:1" /><circle cx="338.96576" cy="150.0975" r="2" style="fill:rgb(50,125,209);stroke:none;fill-opacity:1;stroke-opacity:1;" /><path d="M 338.96576 150.0975 L 292.11377 150.9425" style="stroke:rgb(50,125,209);stroke-width:1" /><circle cx="292.11377" cy="150.9425" r="2" style="fill:rgb(50,125,209);stroke:none;fill-opacity:1;stroke-opacity:1;" /><path d="M 292.11377 150.9425 L 255.7725 151.795" style="stroke:rgb(50,125,209);stroke-width:1" /><circle cx="255.7725" cy="151.795" r="2" style="fill:rgb(50,125,209);stroke:none;fill-opacity:1;stroke-opacity:1;" /><path d="M 255.7725 151.795 L 142.88626 153.505" style="stroke:rgb(50,125,209);stroke-width:1" /><circle cx="142.88626" cy="153.505" r="2" style="fill:rgb(50,125,209);stroke:none;fill-opacity:1;stroke-opacity:1;" /><path d="M 142.88626 153.505 L 30 153.64499" style="stroke:rgb(50,125,209);stroke-width:1" /><circle cx="30" cy="153.64499" r="2" style="fill:rgb(50,125,209);stroke:none;fill-opacity:1;stroke-opacity:1;" /><rect x="676" y="16" width="80" height="133" ry="4" style="fill:rgb(30,30,30);stroke:none;fill-opacity:0.8;stroke-opacity:1;" /><rect x="680" y="20" width="20" height="20" ry="2" style="fill:rgb(253,127,111);stroke:none;fill-opacity:1;stroke-opacity:1;" /><text x="705" y="33" style="font-size:10px;fill:rgb(255,255,255);text-anchor:start;text-align:left;"> fwd-diff </text><rect x="680" y="41" width="20" height="20" ry="2" style="fill:rgb(50,125,209);stroke:none;fill-opacity:1;stroke-opacity:1;" /><text x="705" y="54" style="font-size:10px;fill:rgb(255,255,255);text-anchor:start;text-align:left;"> levien </text><rect x="680" y="62" width="20" height="20" ry="2" style="fill:rgb(119,211,179);stroke:none;fill-opacity:1;stroke-opacity:1;" /><text x="705" y="75" style="font-size:10px;fill:rgb(255,255,255);text-anchor:start;text-align:left;"> levien-linear </text><rect x="680" y="83" width="20" height="20" ry="2" style="fill:rgb(128,214,87);stroke:none;fill-opacity:1;stroke-opacity:1;" /><text x="705" y="96" style="font-size:10px;fill:rgb(255,255,255);text-anchor:start;text-align:left;"> linear </text><rect x="680" y="104" width="20" height="20" ry="2" style="fill:rgb(255,238,101);stroke:none;fill-opacity:1;stroke-opacity:1;" /><text x="705" y="117" style="font-size:10px;fill:rgb(255,255,255);text-anchor:start;text-align:left;"> recursive </text><rect x="680" y="125" width="20" height="20" ry="2" style="fill:rgb(253,204,229);stroke:none;fill-opacity:1;stroke-opacity:1;" /><text x="705" y="138" style="font-size:10px;fill:rgb(255,255,255);text-anchor:start;text-align:left;"> wang </text><text x="400" y="30" style="font-size:20px;fill:rgb(255,255,255);text-anchor:middle;text-align:center;"> Font </text><text x="400" y="42" style="font-size:8px;fill:rgb(200,200,200);text-anchor:middle;text-align:center;"> Normalized edge count score (lower is better) </text></svg>