<svg xmlns="http://www.w3.org/2000/svg" viewBox="0 0 800 300"><rect x="0" y="0" width="800" height="300" ry="6" style="fill:rgb(30,30,30);stroke:none;fill-opacity:1;stroke-opacity:1;" /><path d="M 30 20 L 30 270" style="stroke:rgb(200,200,200);stroke-width:1" /><path d="M 30 270 L 780 270" style="stroke:rgb(200,200,200);stroke-width:1" /><path d="M 780 270 L 780 272" style="stroke:rgb(200,200,200);stroke-width:1" /><text x="780" y="282" style="font-size:10px;fill:rgb(200,200,200);text-anchor:middle;text-align:center;"> 0.01 </text><path d="M 630.77246 270 L 630.77246 272" style="stroke:rgb(200,200,200);stroke-width:1" /><text x="630.77246" y="282" style="font-size:10px;fill:rgb(200,200,200);text-anchor:middle;text-align:center;"> 0.025 </text><path d="M 517.8862 270 L 517.8862 272" style="stroke:rgb(200,200,200);stroke-width:1" /><text x="517.8862" y="282" style="font-size:10px;fill:rgb(200,200,200);text-anchor:middle;text-align:center;"> 0.05 </text><path d="M 451.85202 270 L 451.85202 272" style="stroke:rgb(200,200,200);stroke-width:1" /><text x="451.85202" y="282" style="font-size:10px;fill:rgb(200,200,200);text-anchor:middle;text-align:center;"> 0.075 </text><path d="M 405 270 L 405 272" style="stroke:rgb(200,200,200);stroke-width:1" /><text x="405" y="282" style="font-size:10px;fill:rgb(200,200,200);text-anchor:middle;text-align:center;"> 0.1 </text><path d="M 338.96576 270 L 338.96576 272" style="stroke:rgb(200,200,200);stroke-width:1" /><text x="338.96576" y="282" style="font-size:10px;fill:rgb(200,200,200);text-anchor:middle;text-align:center;"> 0.15 </text><path d="M 292.11377 270 L 292.11377 272" style="stroke:rgb(200,200,200);stroke-width:1" /><text x="292.11377" y="282" style="font-size:10px;fill:rgb(200,200,200);text-anchor:middle;text-align:center;"> 0.2 </text><path d="M 255.7725 270 L 255.7725 272" style="stroke:rgb(200,200,200);stroke-width:1" /><text x="255.7725" y="282" style="font-size:10px;fill:rgb(200,200,200);text-anchor:middle;text-align:center;"> 0.25 </text><path d="M 142.88626 270 L 142.88626 272" style="stroke:rgb(200,200,200);stroke-width:1" /><text x="142.88626" y="282" style="font-size:10px;fill:rgb(200,200,200);text-anchor:middle;text-align:center;"> 0.5 </text><path d="M 30 270 L 30 272" style="stroke:rgb(200,200,200);stroke-width:1" /><text x="30" y="282" style="font-size:10px;fill:rgb(200,200,200);text-anchor:middle;text-align:center;"> 1 </text><path d="M 28 270 L 30 270" style="stroke:rgb(200,200,200);stroke-width:1" /><text x="26" y="274" style="font-size:10px;fill:rgb(200,200,200);text-anchor:end;text-align:right;"> 0 </text><path d="M 28 207.5 L 30 207.5" style="stroke:rgb(200,200,200);stroke-width:1" /><text x="26" y="211.5" style="font-size:10px;fill:rgb(200,200,200);text-anchor:end;text-align:right;"> 0.25 </text><path d="M 28 145 L 30 145" style="stroke:rgb(200,200,200);stroke-width:1" /><text x="26" y="149" style="font-size:10px;fill:rgb(200,200,200);text-anchor:end;text-align:right;"> 0.5 </text><path d="M 28 82.5 L 30 82.5" style="stroke:rgb(200,200,200);stroke-width:1" /><text x="26" y="86.5" style="font-size:10px;fill:rgb(200,200,200);text-anchor:end;text-align:right;"> 0.75 </text><path d="M 28 20 L 30 20" style="stroke:rgb(200,200,200);stroke-width:1" /><text x="26" y="24" style="font-size:10px;fill:rgb(200,200,200);text-anchor:end;text-align:right;"> 1 </text><text x="400" y="294" style="font-size:10px;fill:rgb(200,200,200);text-anchor:middle;text-align:center;"> Tolerance </text><circle cx="780" cy="20" r="2" style="fill:rgb(253,127,111);stroke:none;fill-opacity:1;stroke-opacity:1;" /><path d="M 780 20 L 630.77246 108.7475" style="stroke:rgb(253,127,111);stroke-width:1" /><circle cx="630.77246" cy="108.7475" r="2" style="fill:rgb(253,127,111);stroke:none;fill-opacity:1;stroke-opacity:1;" /><path d="M 630.77246 108.7475 L 517.8862 153.85501" style="stroke:rgb(253,127,111);stroke-width:1" /><circle cx="517.8862" cy="153.85501" r="2" style="fill:rgb(253,127,111);stroke:none;fill-opacity:1;stroke-opacity:1;" /><path d="M 517.8862 153.85501 L 451.85202 173.6325" style="stroke:rgb(253,127,111);stroke-width:1" /><circle cx="451.85202" cy="173.6325" r="2" style="fill:rgb(253,127,111);stroke:none;fill-opacity:1;stroke-opacity:1;" /><path d="M 451.85202 173.6325 L 405 185.43" style="stroke:rgb(253,127,111);stroke-width:1" /><circle cx="405" cy="185.43" r="2" style="fill:rgb(253,127,111);stroke:none;fill-opacity:1;stroke-opacity:1;" /><path d="M 405 185.43 L 338.96576 199.5975" style="stroke:rgb(253,127,111);stroke-width:1" /><circle cx="338.96576" cy="199.5975" r="2" style="fill:rgb(253,127,111);stroke:none;fill-opacity:1;stroke-opacity:1;" /><path d="M 338.96576 199.5975 L 292.11377 208.075" style="stroke:rgb(253,127,111);stroke-width:1" /><circle cx="292.11377" cy="208.075" r="2" style="fill:rgb(253,127,111);stroke:none;fill-opacity:1;stroke-opacity:1;" /><path d="M 292.11377 208.075 L 255.7725 213.7375" style="stroke:rgb(253,127,111);stroke-width:1" /><circle cx="255.7725" cy="213.7375" r="2" style="fill:rgb(253,127,111);stroke:none;fill-opacity:1;stroke-opacity:1;" /><path d="M 255.7725 213.7375 L 142.88626 227.7675" style="stroke:rgb(253,127,111);stroke-width:1" /><circle cx="142.88626" cy="227.7675" r="2" style="fill:rgb(253,127,111);stroke:none;fill-opacity:1;stroke-opacity:1;" /><path d="M 142.88626 227.7675 L 30 238.17" style="stroke:rgb(253,127,111);stroke-width:1" /><circle cx="30" cy="238.17" r="2" style="fill:rgb(253,127,111);stroke:none;fill-opacity:1;stroke-opacity:1;" /><circle cx="780" cy="108.177505" r="2" style="fill:rgb(119,211,179);stroke:none;fill-opacity:1;stroke-opacity:1;" /><path d="M 780 108.177505 L 630.77246 164.69" style="stroke:rgb(119,211,179);stroke-width:1" /><circle cx="630.77246" cy="164.69" r="2" style="fill:rgb(119,211,179);stroke:none;fill-opacity:1;stroke-opacity:1;" /><path d="M 630.77246 164.69 L 517.8862 193.2975" style="stroke:rgb(119,211,179);stroke-width:1" /><circle cx="517.8862" cy="193.2975" r="2" style="fill:rgb(119,211,179);stroke:none;fill-opacity:1;stroke-opacity:1;" /><path d="M 517.8862 193.2975 L 451.85202 205.3775" style="stroke:rgb(119,211,179);stroke-width:1" /><circle cx="451.85202" cy="205.3775" r="2" style="fill:rgb(119,211,179);stroke:none;fill-opacity:1;stroke-opacity:1;" /><path d="M 451.85202 205.3775 L 405 212.54001" style="stroke:rgb(119,211,179);stroke-width:1" /><circle cx="405" cy="212.54001" r="2" style="fill:rgb(119,211,179);stroke:none;fill-opacity:1;stroke-opacity:1;" /><path d="M 405 212.54001 L 338.96576 221.4425" style="stroke:rgb(119,211,179);stroke-width:1" /><circle cx="338.96576" cy="221.4425" r="2" style="fill:rgb(119,211,179);stroke:none;fill-opacity:1;stroke-opacity:1;" /><path d="M 338.96576 221.4425 L 292.11377 226.6275" style="stroke:rgb(119,211,179);stroke-width:1" /><circle cx="292.11377" cy="226.6275" r="2" style="fill:rgb(119,211,179);stroke:none;fill-opacity:1;stroke-opacity:1;" /><path d="M 292.11377 226.6275 L 255.7725 230.1375" style="stroke:rgb(119,211,179);stroke-width:1" /><circle cx="255.7725" cy="230.1375" r="2" style="fill:rgb(119,211,179);stroke:none;fill-opacity:1;stroke-opacity:1;" /><path d="M 255.7725 230.1375 L 142.88626 239.59" style="stroke:rgb(119,211,179);stroke-width:1" /><circle cx="142.88626" cy="239.59" r="2" style="fill:rgb(119,211,179);stroke:none;fill-opacity:1;stroke-opacity:1;" /><path d="M 142.88626 239.59 L 30 246.4975" style="stroke:rgb(119,211,179);stroke-width:1" /><circle cx="30" cy="246.4975" r="2" style="fill:rgb(119,211,179);stroke:none;fill-opacity:1;stroke-opacity:1;" /><circle cx="780" cy="107.92999" r="2" style="fill:rgb(50,125,209);stroke:none;fill-opacity:1;stroke-opacity:1;" /><path d="M 780 107.92999 L 630.77246 164.6175" style="stroke:rgb(50,125,209);stroke-width:1" /><circle cx="630.77246" cy="164.6175" r="2" style="fill:rgb(50,125,209);stroke:none;fill-opacity:1;stroke-opacity:1;" /><path d="M 630.77246 164.6175 L 517.8862 193.16751" style="stroke:rgb(50,125,209);stroke-width:1" /><circle cx="517.8862" cy="193.16751" r="2" style="fill:rgb(50,125,209);stroke:none;fill-opacity:1;stroke-opacity:1;" /><path d="M 517.8862 193.16751 L 451.85202 205.795" style="stroke:rgb(50,125,209);stroke-width:1" /><circle cx="451.85202" cy="205.795" r="2" style="fill:rgb(50,125,209);stroke:none;fill-opacity:1;stroke-opacity:1;" /><path d="M 451.85202 205.795 L 405 212.8675" style="stroke:rgb(50,125,209);stroke-width:1" /><circle cx="405" cy="212.8675" r="2" style="fill:rgb(50,125,209);stroke:none;fill-opacity:1;stroke-opacity:1;" /><path d="M 405 212.8675 L 338.96576 222.0525" style="stroke:rgb(50,125,209);stroke-width:1" /><circle cx="338.96576" cy="222.0525" r="2" style="fill:rgb(50,125,209);stroke:none;fill-opacity:1;stroke-opacity:1;" /><path d="M 338.96576 222.0525 L 292.11377 227.36" style="stroke:rgb(50,125,209);stroke-width:1" /><circle cx="292.11377" cy="227.36" r="2" style="fill:rgb(50,125,209);stroke:none;fill-opacity:1;stroke-opacity:1;" /><path d="M 292.11377 227.36 L 255.7725 231.0525" style="stroke:rgb(50,125,209);stroke-width:1" /><circle cx="255.7725" cy="231.0525" r="2" style="fill:rgb(50,125,209);stroke:none;fill-opacity:1;stroke-opacity:1;" /><path d="M 255.7725 231.0525 L 142.88626 239.8325" style="stroke:rgb(50,125,209);stroke-width:1" /><circle cx="142.88626" cy="239.8325" r="2" style="fill:rgb(50,125,209);stroke:none;fill-opacity:1;stroke-opacity:1;" /><path d="M 142.88626 239.8325 L 30 246.1425" style="stroke:rgb(50,125,209);stroke-width:1" /><circle cx="30" cy="246.1425" r="2" style="fill:rgb(50,125,209);stroke:none;fill-opacity:1;stroke-opacity:1;" /><circle cx="780" cy="50.960007" r="2" style="fill:rgb(255,238,101);stroke:none;fill-opacity:1;stroke-opacity:1;" /><path d="M 780 50.960007 L 630.77246 132.74" style="stroke:rgb(255,238,101);stroke-width:1" /><circle cx="630.77246" cy="132.74" r="2" style="fill:rgb(255,238,101);stroke:none;fill-opacity:1;stroke-opacity:1;" /><path d="M 630.77246 132.74 L 517.8862 172.775" style="stroke:rgb(255,238,101);stroke-width:1" /><circle cx="517.8862" cy="172.775" r="2" style="fill:rgb(255,238,101);stroke:none;fill-opacity:1;stroke-opacity:1;" /><path d="M 517.8862 172.775 L 451.85202 191.20999" style="stroke:rgb(255,238,101);stroke-width:1" /><circle cx="451.85202" cy="191.20999" r="2" style="fill:rgb(255,238,101);stroke:none;fill-opacity:1;stroke-opacity:1;" /><path d="M 451.85202 191.20999 L 405 201.01001" style="stroke:rgb(255,238,101);stroke-width:1" /><circle cx="405" cy="201.01001" r="2" style="fill:rgb(255,238,101);stroke:none;fill-opacity:1;stroke-opacity:1;" /><path d="M 405 201.01001 L 338.96576 213.075" style="stroke:rgb(255,238,101);stroke-width:1" /><circle cx="338.96576" cy="213.075" r="2" style="fill:rgb(255,238,101);stroke:none;fill-opacity:1;stroke-opacity:1;" /><path d="M 338.96576 213.075 L 292.11377 221.135" style="stroke:rgb(255,238,101);stroke-width:1" /><circle cx="292.11377" cy="221.135" r="2" style="fill:rgb(255,238,101);stroke:none;fill-opacity:1;stroke-opacity:1;" /><path d="M 292.11377 221.135 L 255.7725 226.19" style="stroke:rgb(255,238,101);stroke-width:1" /><circle cx="255.7725" cy="226.19" r="2" style="fill:rgb(255,238,101);stroke:none;fill-opacity:1;stroke-opacity:1;" /><path d="M 255.7725 226.19 L 142.88626 237.64" style="stroke:rgb(255,238,101);stroke-width:1" /><circle cx="142.88626" cy="237.64" r="2" style="fill:rgb(255,238,101);stroke:none;fill-opacity:1;stroke-opacity:1;" /><path d="M 142.88626 237.64 L 30 246.1425" style="stroke:rgb(255,238,101);stroke-width:1" /><circle cx="30" cy="246.1425" r="2" style="fill:rgb(255,238,101);stroke:none;fill-opacity:1;stroke-opacity:1;" /><circle cx="780" cy="61.25" r="2" style="fill:rgb(128,214,87);stroke:none;fill-opacity:1;stroke-opacity:1;" /><path d="M 780 61.25 L 630.77246 138.115" style="stroke:rgb(128,214,87);stroke-width:1" /><circle cx="630.77246" cy="138.115" r="2" style="fill:rgb(128,214,87);stroke:none;fill-opacity:1;stroke-opacity:1;" /><path d="M 630.77246 138.115 L 517.8862 177.435" style="stroke:rgb(128,214,87);stroke-width:1" /><circle cx="517.8862" cy="177.435" r="2" style="fill:rgb(128,214,87);stroke:none;fill-opacity:1;stroke-opacity:1;" /><path d="M 517.8862 177.435 L 451.85202 194.11" style="stroke:rgb(128,214,87);stroke-width:1" /><circle cx="451.85202" cy="194.11" r="2" style="fill:rgb(128,214,87);stroke:none;fill-opacity:1;stroke-opacity:1;" /><path d="M 451.85202 194.11 L 405 203.66751" style="stroke:rgb(128,214,87);stroke-width:1" /><circle cx="405" cy="203.66751" r="2" style="fill:rgb(128,214,87);stroke:none;fill-opacity:1;stroke-opacity:1;" /><path d="M 405 203.66751 L 338.96576 215.97751" style="stroke:rgb(128,214,87);stroke-width:1" /><circle cx="338.96576" cy="215.97751" r="2" style="fill:rgb(128,214,87);stroke:none;fill-opacity:1;stroke-opacity:1;" /><path d="M 338.96576 215.97751 L 292.11377 223.3025" style="stroke:rgb(128,214,87);stroke-width:1" /><circle cx="292.11377" cy="223.3025" r="2" style="fill:rgb(128,214,87);stroke:none;fill-opacity:1;stroke-opacity:1;" /><path d="M 292.11377 223.3025 L 255.7725 227.6225" style="stroke:rgb(128,214,87);stroke-width:1" /><circle cx="255.7725" cy="227.6225" r="2" style="fill:rgb(128,214,87);stroke:none;fill-opacity:1;stroke-opacity:1;" /><path d="M 255.7725 227.6225 L 142.88626 238.5825" style="stroke:rgb(128,214,87);stroke-width:1" /><circle cx="142.88626" cy="238.5825" r="2" style="fill:rgb(128,214,87);stroke:none;fill-opacity:1;stroke-opacity:1;" /><path d="M 142.88626 238.5825 L 30 246.34" style="stroke:rgb(128,214,87);stroke-width:1" /><circle cx="30" cy="246.34" r="2" style="fill:rgb(128,214,87);stroke:none;fill-opacity:1;stroke-opacity:1;" /><circle cx="780" cy="20" r="2" style="fill:rgb(253,204,229);stroke:none;fill-opacity:1;stroke-opacity:1;" /><path d="M 780 20 L 630.77246 108.7475" style="stroke:rgb(253,204,229);stroke-width:1" /><circle cx="630.77246" cy="108.7475" r="2" style="fill:rgb(253,204,229);stroke:none;fill-opacity:1;stroke-opacity:1;" /><path d="M 630.77246 108.7475 L 517.8862 153.85501" style="stroke:rgb(253,204,229);stroke-width:1" /><circle cx="517.8862" cy="153.85501" r="2" style="fill:rgb(253,204,229);stroke:none;fill-opacity:1;stroke-opacity:1;" /><path d="M 517.8862 153.85501 L 451.85202 173.6325" style="stroke:rgb(253,204,229);stroke-width:1" /><circle cx="451.85202" cy="173.6325" r="2" style="fill:rgb(253,204,229);stroke:none;fill-opacity:1;stroke-opacity:1;" /><path d="M 451.85202 173.6325 L 405 185.43" style="stroke:rgb(253,204,229);stroke-width:1" /><circle cx="405" cy="185.43" r="2" style="fill:rgb(253,204,229);stroke:none;fill-opacity:1;stroke-opacity:1;" /><path d="M 405 185.43 L 338.96576 199.5975" style="stroke:rgb(253,204,229);stroke-width:1" /><circle cx="338.96576" cy="199.5975" r="2" style="fill:rgb(253,204,229);stroke:none;fill-opacity:1;stroke-opacity:1;" /><path d="M 338.96576 199.5975 L 292.11377 208.075" style="stroke:rgb(253,204,229);stroke-width:1" /><circle cx="292.11377" cy="208.075" r="2" style="fill:rgb(253,204,229);stroke:none;fill-opacity:1;stroke-opacity:1;" /><path d="M 292.11377 208.075 L 255.7725 213.7375" style="stroke:rgb(253,204,229);stroke-width:1" /><circle cx="255.7725" cy="213.7375" r="2" style="fill:rgb(253,204,229);stroke:none;fill-opacity:1;stroke-opacity:1;" /><path d="M 255.7725 213.7375 L 142.88626 227.7675" style="stroke:rgb(253,204,229);stroke-width:1" /><circle cx="142.88626" cy="227.7675" r="2" style="fill:rgb(253,204,229);stroke:none;fill-opacity:1;stroke-opacity:1;" /><path d="M 142.88626 227.7675 L 30 238.17" style="stroke:rgb(253,204,229);stroke-width:1" /><circle cx="30" cy="238.17" r="2" style="fill:rgb(253,204,229);stroke:none;fill-opacity:1;stroke-opacity:1;" /><rect x="676" y="16" width="80" height="133" ry="4" style="fill:rgb(30,30,30);stroke:none;fill-opacity:0.8;stroke-opacity:1;" /><rect x="680" y="20" width="20" height="20" ry="2" style="fill:rgb(253,127,111);stroke:none;fill-opacity:1;stroke-opacity:1;" /><text x="705" y="33" style="font-size:10px;fill:rgb(255,255,255);text-anchor:start;text-align:left;"> fwd-diff </text><rect x="680" y="41" width="20" height="20" ry="2" style="fill:rgb(50,125,209);stroke:none;fill-opacity:1;stroke-opacity:1;" /><text x="705" y="54" style="font-size:10px;fill:rgb(255,255,255);text-anchor:start;text-align:left;"> levien </text><rect x="680" y="62" width="20" height="20" ry="2" style="fill:rgb(119,211,179);stroke:none;fill-opacity:1;stroke-opacity:1;" /><text x="705" y="75" style="font-size:10px;fill:rgb(255,255,255);text-anchor:start;text-align:left;"> levien-linear </text><rect x="680" y="83" width="20" height="20" ry="2" style="fill:rgb(128,214,87);stroke:none;fill-opacity:1;stroke-opacity:1;" /><text x="705" y="96" style="font-size:10px;fill:rgb(255,255,255);text-anchor:start;text-align:left;"> linear </text><rect x="680" y="104" width="20" height="20" ry="2" style="fill:rgb(255,238,101);stroke:none;fill-opacity:1;stroke-opacity:1;" /><text x="705" y="117" style="font-size:10px;fill:rgb(255,255,255);text-anchor:start;text-align:left;"> recursive </text><rect x="680" y="125" width="20" height="20" ry="2" style="fill:rgb(253,204,229);stroke:none;fill-opacity:1;stroke-opacity:1;" /><text x="705" y="138" style="font-size:10px;fill:rgb(255,255,255);text-anchor:start;text-align:left;"> wang </text><text x="400" y="30" style="font-size:20px;fill:rgb(255,255,255);text-anchor:middle;text-align:center;"> Tiger </text><text x="400" y="42" style="font-size:8px;fill:rgb(200,200,200);text-anchor:middle;text-align:center;"> Normalized edge count score (lower is better) </text></svg>