<svg xmlns="http://www.w3.org/2000/svg" viewBox="0 0 800 300"><rect x="0" y="0" width="800" height="300" ry="6" style="fill:rgb(30,30,30);stroke:none;fill-opacity:1;stroke-opacity:1;" /><path d="M 30 20 L 30 270" style="stroke:rgb(200,200,200);stroke-width:1" /><path d="M 30 270 L 780 270" style="stroke:rgb(200,200,200);stroke-width:1" /><path d="M 780 270 L 780 272" style="stroke:rgb(200,200,200);stroke-width:1" /><text x="780" y="282" style="font-size:10px;fill:rgb(200,200,200);text-anchor:middle;text-align:center;"> 0.01 </text><path d="M 630.77246 270 L 630.77246 272" style="stroke:rgb(200,200,200);stroke-width:1" /><text x="630.77246" y="282" style="font-size:10px;fill:rgb(200,200,200);text-anchor:middle;text-align:center;"> 0.025 </text><path d="M 517.8862 270 L 517.8862 272" style="stroke:rgb(200,200,200);stroke-width:1" /><text x="517.8862" y="282" style="font-size:10px;fill:rgb(200,200,200);text-anchor:middle;text-align:center;"> 0.05 </text><path d="M 451.85202 270 L 451.85202 272" style="stroke:rgb(200,200,200);stroke-width:1" /><text x="451.85202" y="282" style="font-size:10px;fill:rgb(200,200,200);text-anchor:middle;text-align:center;"> 0.075 </text><path d="M 405 270 L 405 272" style="stroke:rgb(200,200,200);stroke-width:1" /><text x="405" y="282" style="font-size:10px;fill:rgb(200,200,200);text-anchor:middle;text-align:center;"> 0.1 </text><path d="M 338.96576 270 L 338.96576 272" style="stroke:rgb(200,200,200);stroke-width:1" /><text x="338.96576" y="282" style="font-size:10px;fill:rgb(200,200,200);text-anchor:middle;text-align:center;"> 0.15 </text><path d="M 292.11377 270 L 292.11377 272" style="stroke:rgb(200,200,200);stroke-width:1" /><text x="292.11377" y="282" style="font-size:10px;fill:rgb(200,200,200);text-anchor:middle;text-align:center;"> 0.2 </text><path d="M 255.7725 270 L 255.7725 272" style="stroke:rgb(200,200,200);stroke-width:1" /><text x="255.7725" y="282" style="font-size:10px;fill:rgb(200,200,200);text-anchor:middle;text-align:center;"> 0.25 </text><path d="M 142.88626 270 L 142.88626 272" style="stroke:rgb(200,200,200);stroke-width:1" /><text x="142.88626" y="282" style="font-size:10px;fill:rgb(200,200,200);text-anchor:middle;text-align:center;"> 0.5 </text><path d="M 30 270 L 30 272" style="stroke:rgb(200,200,200);stroke-width:1" /><text x="30" y="282" style="font-size:10px;fill:rgb(200,200,200);text-anchor:middle;text-align:center;"> 1 </text><path d="M 28 270 L 30 270" style="stroke:rgb(200,200,200);stroke-width:1" /><text x="26" y="274" style="font-size:10px;fill:rgb(200,200,200);text-anchor:end;text-align:right;"> 0 </text><path d="M 28 207.5 L 30 207.5" style="stroke:rgb(200,200,200);stroke-width:1" /><text x="26" y="211.5" style="font-size:10px;fill:rgb(200,200,200);text-anchor:end;text-align:right;"> 0.25 </text><path d="M 28 145 L 30 145" style="stroke:rgb(200,200,200);stroke-width:1" /><text x="26" y="149" style="font-size:10px;fill:rgb(200,200,200);text-anchor:end;text-align:right;"> 0.5 </text><path d="M 28 82.5 L 30 82.5" style="stroke:rgb(200,200,200);stroke-width:1" /><text x="26" y="86.5" style="font-size:10px;fill:rgb(200,200,200);text-anchor:end;text-align:right;"> 0.75 </text><path d="M 28 20 L 30 20" style="stroke:rgb(200,200,200);stroke-width:1" /><text x="26" y="24" style="font-size:10px;fill:rgb(200,200,200);text-anchor:end;text-align:right;"> 1 </text><text x="400" y="294" style="font-size:10px;fill:rgb(200,200,200);text-anchor:middle;text-align:center;"> Tolerance </text><circle cx="780" cy="95.520004" r="2" style="fill:rgb(128,214,87);stroke:none;fill-opacity:1;stroke-opacity:1;" /><path d="M 780 95.520004 L 630.77246 143.6825" style="stroke:rgb(128,214,87);stroke-width:1" /><circle cx="630.77246" cy="143.6825" r="2" style="fill:rgb(128,214,87);stroke:none;fill-opacity:1;stroke-opacity:1;" /><path d="M 630.77246 143.6825 L 517.8862 162.535" style="stroke:rgb(128,214,87);stroke-width:1" /><circle cx="517.8862" cy="162.535" r="2" style="fill:rgb(128,214,87);stroke:none;fill-opacity:1;stroke-opacity:1;" /><path d="M 517.8862 162.535 L 451.85202 171.2325" style="stroke:rgb(128,214,87);stroke-width:1" /><circle cx="451.85202" cy="171.2325" r="2" style="fill:rgb(128,214,87);stroke:none;fill-opacity:1;stroke-opacity:1;" /><path d="M 451.85202 171.2325 L 405 178.405" style="stroke:rgb(128,214,87);stroke-width:1" /><circle cx="405" cy="178.405" r="2" style="fill:rgb(128,214,87);stroke:none;fill-opacity:1;stroke-opacity:1;" /><path d="M 405 178.405 L 338.96576 189.07251" style="stroke:rgb(128,214,87);stroke-width:1" /><circle cx="338.96576" cy="189.07251" r="2" style="fill:rgb(128,214,87);stroke:none;fill-opacity:1;stroke-opacity:1;" /><path d="M 338.96576 189.07251 L 292.11377 197.735" style="stroke:rgb(128,214,87);stroke-width:1" /><circle cx="292.11377" cy="197.735" r="2" style="fill:rgb(128,214,87);stroke:none;fill-opacity:1;stroke-opacity:1;" /><path d="M 292.11377 197.735 L 255.7725 206.1925" style="stroke:rgb(128,214,87);stroke-width:1" /><circle cx="255.7725" cy="206.1925" r="2" style="fill:rgb(128,214,87);stroke:none;fill-opacity:1;stroke-opacity:1;" /><path d="M 255.7725 206.1925 L 142.88626 242.5075" style="stroke:rgb(128,214,87);stroke-width:1" /><circle cx="142.88626" cy="242.5075" r="2" style="fill:rgb(128,214,87);stroke:none;fill-opacity:1;stroke-opacity:1;" /><path d="M 142.88626 242.5075 L 30 261.0975" style="stroke:rgb(128,214,87);stroke-width:1" /><circle cx="30" cy="261.0975" r="2" style="fill:rgb(128,214,87);stroke:none;fill-opacity:1;stroke-opacity:1;" /><circle cx="780" cy="101.4375" r="2" style="fill:rgb(255,181,90);stroke:none;fill-opacity:1;stroke-opacity:1;" /><path d="M 780 101.4375 L 630.77246 140.9425" style="stroke:rgb(255,181,90);stroke-width:1" /><circle cx="630.77246" cy="140.9425" r="2" style="fill:rgb(255,181,90);stroke:none;fill-opacity:1;stroke-opacity:1;" /><path d="M 630.77246 140.9425 L 517.8862 156.95" style="stroke:rgb(255,181,90);stroke-width:1" /><circle cx="517.8862" cy="156.95" r="2" style="fill:rgb(255,181,90);stroke:none;fill-opacity:1;stroke-opacity:1;" /><path d="M 517.8862 156.95 L 451.85202 162.5675" style="stroke:rgb(255,181,90);stroke-width:1" /><circle cx="451.85202" cy="162.5675" r="2" style="fill:rgb(255,181,90);stroke:none;fill-opacity:1;stroke-opacity:1;" /><path d="M 451.85202 162.5675 L 405 164.9925" style="stroke:rgb(255,181,90);stroke-width:1" /><circle cx="405" cy="164.9925" r="2" style="fill:rgb(255,181,90);stroke:none;fill-opacity:1;stroke-opacity:1;" /><path d="M 405 164.9925 L 338.96576 166.705" style="stroke:rgb(255,181,90);stroke-width:1" /><circle cx="338.96576" cy="166.705" r="2" style="fill:rgb(255,181,90);stroke:none;fill-opacity:1;stroke-opacity:1;" /><path d="M 338.96576 166.705 L 292.11377 166.3375" style="stroke:rgb(255,181,90);stroke-width:1" /><circle cx="292.11377" cy="166.3375" r="2" style="fill:rgb(255,181,90);stroke:none;fill-opacity:1;stroke-opacity:1;" /><path d="M 292.11377 166.3375 L 255.7725 164.7825" style="stroke:rgb(255,181,90);stroke-width:1" /><circle cx="255.7725" cy="164.7825" r="2" style="fill:rgb(255,181,90);stroke:none;fill-opacity:1;stroke-opacity:1;" /><path d="M 255.7725 164.7825 L 142.88626 171.91751" style="stroke:rgb(255,181,90);stroke-width:1" /><circle cx="142.88626" cy="171.91751" r="2" style="fill:rgb(255,181,90);stroke:none;fill-opacity:1;stroke-opacity:1;" /><path d="M 142.88626 171.91751 L 30 174.04001" style="stroke:rgb(255,181,90);stroke-width:1" /><circle cx="30" cy="174.04001" r="2" style="fill:rgb(255,181,90);stroke:none;fill-opacity:1;stroke-opacity:1;" /><circle cx="780" cy="99.845" r="2" style="fill:rgb(119,211,179);stroke:none;fill-opacity:1;stroke-opacity:1;" /><path d="M 780 99.845 L 630.77246 144.9425" style="stroke:rgb(119,211,179);stroke-width:1" /><circle cx="630.77246" cy="144.9425" r="2" style="fill:rgb(119,211,179);stroke:none;fill-opacity:1;stroke-opacity:1;" /><path d="M 630.77246 144.9425 L 517.8862 162.69751" style="stroke:rgb(119,211,179);stroke-width:1" /><circle cx="517.8862" cy="162.69751" r="2" style="fill:rgb(119,211,179);stroke:none;fill-opacity:1;stroke-opacity:1;" /><path d="M 517.8862 162.69751 L 451.85202 171.3175" style="stroke:rgb(119,211,179);stroke-width:1" /><circle cx="451.85202" cy="171.3175" r="2" style="fill:rgb(119,211,179);stroke:none;fill-opacity:1;stroke-opacity:1;" /><path d="M 451.85202 171.3175 L 405 178.405" style="stroke:rgb(119,211,179);stroke-width:1" /><circle cx="405" cy="178.405" r="2" style="fill:rgb(119,211,179);stroke:none;fill-opacity:1;stroke-opacity:1;" /><path d="M 405 178.405 L 338.96576 189.07251" style="stroke:rgb(119,211,179);stroke-width:1" /><circle cx="338.96576" cy="189.07251" r="2" style="fill:rgb(119,211,179);stroke:none;fill-opacity:1;stroke-opacity:1;" /><path d="M 338.96576 189.07251 L 292.11377 197.735" style="stroke:rgb(119,211,179);stroke-width:1" /><circle cx="292.11377" cy="197.735" r="2" style="fill:rgb(119,211,179);stroke:none;fill-opacity:1;stroke-opacity:1;" /><path d="M 292.11377 197.735 L 255.7725 206.1925" style="stroke:rgb(119,211,179);stroke-width:1" /><circle cx="255.7725" cy="206.1925" r="2" style="fill:rgb(119,211,179);stroke:none;fill-opacity:1;stroke-opacity:1;" /><path d="M 255.7725 206.1925 L 142.88626 242.5075" style="stroke:rgb(119,211,179);stroke-width:1" /><circle cx="142.88626" cy="242.5075" r="2" style="fill:rgb(119,211,179);stroke:none;fill-opacity:1;stroke-opacity:1;" /><path d="M 142.88626 242.5075 L 30 261.0975" style="stroke:rgb(119,211,179);stroke-width:1" /><circle cx="30" cy="261.0975" r="2" style="fill:rgb(119,211,179);stroke:none;fill-opacity:1;stroke-opacity:1;" /><circle cx="780" cy="96.1275" r="2" style="fill:rgb(50,125,209);stroke:none;fill-opacity:1;stroke-opacity:1;" /><path d="M 780 96.1275 L 630.77246 140.42" style="stroke:rgb(50,125,209);stroke-width:1" /><circle cx="630.77246" cy="140.42" r="2" style="fill:rgb(50,125,209);stroke:none;fill-opacity:1;stroke-opacity:1;" /><path d="M 630.77246 140.42 L 517.8862 158.70999" style="stroke:rgb(50,125,209);stroke-width:1" /><circle cx="517.8862" cy="158.70999" r="2" style="fill:rgb(50,125,209);stroke:none;fill-opacity:1;stroke-opacity:1;" /><path d="M 517.8862 158.70999 L 451.85202 165.83499" style="stroke:rgb(50,125,209);stroke-width:1" /><circle cx="451.85202" cy="165.83499" r="2" style="fill:rgb(50,125,209);stroke:none;fill-opacity:1;stroke-opacity:1;" /><path d="M 451.85202 165.83499 L 405 169.445" style="stroke:rgb(50,125,209);stroke-width:1" /><circle cx="405" cy="169.445" r="2" style="fill:rgb(50,125,209);stroke:none;fill-opacity:1;stroke-opacity:1;" /><path d="M 405 169.445 L 338.96576 172.2" style="stroke:rgb(50,125,209);stroke-width:1" /><circle cx="338.96576" cy="172.2" r="2" style="fill:rgb(50,125,209);stroke:none;fill-opacity:1;stroke-opacity:1;" /><path d="M 338.96576 172.2 L 292.11377 173.23999" style="stroke:rgb(50,125,209);stroke-width:1" /><circle cx="292.11377" cy="173.23999" r="2" style="fill:rgb(50,125,209);stroke:none;fill-opacity:1;stroke-opacity:1;" /><path d="M 292.11377 173.23999 L 255.7725 173.7625" style="stroke:rgb(50,125,209);stroke-width:1" /><circle cx="255.7725" cy="173.7625" r="2" style="fill:rgb(50,125,209);stroke:none;fill-opacity:1;stroke-opacity:1;" /><path d="M 255.7725 173.7625 L 142.88626 175.305" style="stroke:rgb(50,125,209);stroke-width:1" /><circle cx="142.88626" cy="175.305" r="2" style="fill:rgb(50,125,209);stroke:none;fill-opacity:1;stroke-opacity:1;" /><path d="M 142.88626 175.305 L 30 175.66" style="stroke:rgb(50,125,209);stroke-width:1" /><circle cx="30" cy="175.66" r="2" style="fill:rgb(50,125,209);stroke:none;fill-opacity:1;stroke-opacity:1;" /><circle cx="780" cy="88.479996" r="2" style="fill:rgb(255,238,101);stroke:none;fill-opacity:1;stroke-opacity:1;" /><path d="M 780 88.479996 L 630.77246 142.4375" style="stroke:rgb(255,238,101);stroke-width:1" /><circle cx="630.77246" cy="142.4375" r="2" style="fill:rgb(255,238,101);stroke:none;fill-opacity:1;stroke-opacity:1;" /><path d="M 630.77246 142.4375 L 517.8862 161.4375" style="stroke:rgb(255,238,101);stroke-width:1" /><circle cx="517.8862" cy="161.4375" r="2" style="fill:rgb(255,238,101);stroke:none;fill-opacity:1;stroke-opacity:1;" /><path d="M 517.8862 161.4375 L 451.85202 170.67" style="stroke:rgb(255,238,101);stroke-width:1" /><circle cx="451.85202" cy="170.67" r="2" style="fill:rgb(255,238,101);stroke:none;fill-opacity:1;stroke-opacity:1;" /><path d="M 451.85202 170.67 L 405 178.2125" style="stroke:rgb(255,238,101);stroke-width:1" /><circle cx="405" cy="178.2125" r="2" style="fill:rgb(255,238,101);stroke:none;fill-opacity:1;stroke-opacity:1;" /><path d="M 405 178.2125 L 338.96576 189.04251" style="stroke:rgb(255,238,101);stroke-width:1" /><circle cx="338.96576" cy="189.04251" r="2" style="fill:rgb(255,238,101);stroke:none;fill-opacity:1;stroke-opacity:1;" /><path d="M 338.96576 189.04251 L 292.11377 197.7" style="stroke:rgb(255,238,101);stroke-width:1" /><circle cx="292.11377" cy="197.7" r="2" style="fill:rgb(255,238,101);stroke:none;fill-opacity:1;stroke-opacity:1;" /><path d="M 292.11377 197.7 L 255.7725 206.18001" style="stroke:rgb(255,238,101);stroke-width:1" /><circle cx="255.7725" cy="206.18001" r="2" style="fill:rgb(255,238,101);stroke:none;fill-opacity:1;stroke-opacity:1;" /><path d="M 255.7725 206.18001 L 142.88626 242.5075" style="stroke:rgb(255,238,101);stroke-width:1" /><circle cx="142.88626" cy="242.5075" r="2" style="fill:rgb(255,238,101);stroke:none;fill-opacity:1;stroke-opacity:1;" /><path d="M 142.88626 242.5075 L 30 261.0975" style="stroke:rgb(255,238,101);stroke-width:1" /><circle cx="30" cy="261.0975" r="2" style="fill:rgb(255,238,101);stroke:none;fill-opacity:1;stroke-opacity:1;" /><circle cx="780" cy="78.3725" r="2" style="fill:rgb(120,68,33);stroke:none;fill-opacity:1;stroke-opacity:1;" /><path d="M 780 78.3725 L 630.77246 133.56" style="stroke:rgb(120,68,33);stroke-width:1" /><circle cx="630.77246" cy="133.56" r="2" style="fill:rgb(120,68,33);stroke:none;fill-opacity:1;stroke-opacity:1;" /><path d="M 630.77246 133.56 L 517.8862 156.30249" style="stroke:rgb(120,68,33);stroke-width:1" /><circle cx="517.8862" cy="156.30249" r="2" style="fill:rgb(120,68,33);stroke:none;fill-opacity:1;stroke-opacity:1;" /><path d="M 517.8862 156.30249 L 451.85202 164.285" style="stroke:rgb(120,68,33);stroke-width:1" /><circle cx="451.85202" cy="164.285" r="2" style="fill:rgb(120,68,33);stroke:none;fill-opacity:1;stroke-opacity:1;" /><path d="M 451.85202 164.285 L 405 168.0975" style="stroke:rgb(120,68,33);stroke-width:1" /><circle cx="405" cy="168.0975" r="2" style="fill:rgb(120,68,33);stroke:none;fill-opacity:1;stroke-opacity:1;" /><path d="M 405 168.0975 L 338.96576 171.925" style="stroke:rgb(120,68,33);stroke-width:1" /><circle cx="338.96576" cy="171.925" r="2" style="fill:rgb(120,68,33);stroke:none;fill-opacity:1;stroke-opacity:1;" /><path d="M 338.96576 171.925 L 292.11377 172.8675" style="stroke:rgb(120,68,33);stroke-width:1" /><circle cx="292.11377" cy="172.8675" r="2" style="fill:rgb(120,68,33);stroke:none;fill-opacity:1;stroke-opacity:1;" /><path d="M 292.11377 172.8675 L 255.7725 173.33499" style="stroke:rgb(120,68,33);stroke-width:1" /><circle cx="255.7725" cy="173.33499" r="2" style="fill:rgb(120,68,33);stroke:none;fill-opacity:1;stroke-opacity:1;" /><path d="M 255.7725 173.33499 L 142.88626 174.2425" style="stroke:rgb(120,68,33);stroke-width:1" /><circle cx="142.88626" cy="174.2425" r="2" style="fill:rgb(120,68,33);stroke:none;fill-opacity:1;stroke-opacity:1;" /><path d="M 142.88626 174.2425 L 30 172.23001" style="stroke:rgb(120,68,33);stroke-width:1" /><circle cx="30" cy="172.23001" r="2" style="fill:rgb(120,68,33);stroke:none;fill-opacity:1;stroke-opacity:1;" /><circle cx="780" cy="57.852493" r="2" style="fill:rgb(253,127,111);stroke:none;fill-opacity:1;stroke-opacity:1;" /><path d="M 780 57.852493 L 630.77246 122.875" style="stroke:rgb(253,127,111);stroke-width:1" /><circle cx="630.77246" cy="122.875" r="2" style="fill:rgb(253,127,111);stroke:none;fill-opacity:1;stroke-opacity:1;" /><path d="M 630.77246 122.875 L 517.8862 148.63" style="stroke:rgb(253,127,111);stroke-width:1" /><circle cx="517.8862" cy="148.63" r="2" style="fill:rgb(253,127,111);stroke:none;fill-opacity:1;stroke-opacity:1;" /><path d="M 517.8862 148.63 L 451.85202 159.32251" style="stroke:rgb(253,127,111);stroke-width:1" /><circle cx="451.85202" cy="159.32251" r="2" style="fill:rgb(253,127,111);stroke:none;fill-opacity:1;stroke-opacity:1;" /><path d="M 451.85202 159.32251 L 405 165.02249" style="stroke:rgb(253,127,111);stroke-width:1" /><circle cx="405" cy="165.02249" r="2" style="fill:rgb(253,127,111);stroke:none;fill-opacity:1;stroke-opacity:1;" /><path d="M 405 165.02249 L 338.96576 169.98999" style="stroke:rgb(253,127,111);stroke-width:1" /><circle cx="338.96576" cy="169.98999" r="2" style="fill:rgb(253,127,111);stroke:none;fill-opacity:1;stroke-opacity:1;" /><path d="M 338.96576 169.98999 L 292.11377 171.685" style="stroke:rgb(253,127,111);stroke-width:1" /><circle cx="292.11377" cy="171.685" r="2" style="fill:rgb(253,127,111);stroke:none;fill-opacity:1;stroke-opacity:1;" /><path d="M 292.11377 171.685 L 255.7725 172.5675" style="stroke:rgb(253,127,111);stroke-width:1" /><circle cx="255.7725" cy="172.5675" r="2" style="fill:rgb(253,127,111);stroke:none;fill-opacity:1;stroke-opacity:1;" /><path d="M 255.7725 172.5675 L 142.88626 175.065" style="stroke:rgb(253,127,111);stroke-width:1" /><circle cx="142.88626" cy="175.065" r="2" style="fill:rgb(253,127,111);stroke:none;fill-opacity:1;stroke-opacity:1;" /><path d="M 142.88626 175.065 L 30 175.5575" style="stroke:rgb(253,127,111);stroke-width:1" /><circle cx="30" cy="175.5575" r="2" style="fill:rgb(253,127,111);stroke:none;fill-opacity:1;stroke-opacity:1;" /><circle cx="780" cy="89.55" r="2" style="fill:rgb(139,211,199);stroke:none;fill-opacity:1;stroke-opacity:1;" /><path d="M 780 89.55 L 630.77246 135.05" style="stroke:rgb(139,211,199);stroke-width:1" /><circle cx="630.77246" cy="135.05" r="2" style="fill:rgb(139,211,199);stroke:none;fill-opacity:1;stroke-opacity:1;" /><path d="M 630.77246 135.05 L 517.8862 153.9" style="stroke:rgb(139,211,199);stroke-width:1" /><circle cx="517.8862" cy="153.9" r="2" style="fill:rgb(139,211,199);stroke:none;fill-opacity:1;stroke-opacity:1;" /><path d="M 517.8862 153.9 L 451.85202 162.5" style="stroke:rgb(139,211,199);stroke-width:1" /><circle cx="451.85202" cy="162.5" r="2" style="fill:rgb(139,211,199);stroke:none;fill-opacity:1;stroke-opacity:1;" /><path d="M 451.85202 162.5 L 405 167.0175" style="stroke:rgb(139,211,199);stroke-width:1" /><circle cx="405" cy="167.0175" r="2" style="fill:rgb(139,211,199);stroke:none;fill-opacity:1;stroke-opacity:1;" /><path d="M 405 167.0175 L 338.96576 170.76999" style="stroke:rgb(139,211,199);stroke-width:1" /><circle cx="338.96576" cy="170.76999" r="2" style="fill:rgb(139,211,199);stroke:none;fill-opacity:1;stroke-opacity:1;" /><path d="M 338.96576 170.76999 L 292.11377 172.195" style="stroke:rgb(139,211,199);stroke-width:1" /><circle cx="292.11377" cy="172.195" r="2" style="fill:rgb(139,211,199);stroke:none;fill-opacity:1;stroke-opacity:1;" /><path d="M 292.11377 172.195 L 255.7725 173.10251" style="stroke:rgb(139,211,199);stroke-width:1" /><circle cx="255.7725" cy="173.10251" r="2" style="fill:rgb(139,211,199);stroke:none;fill-opacity:1;stroke-opacity:1;" /><path d="M 255.7725 173.10251 L 142.88626 175.205" style="stroke:rgb(139,211,199);stroke-width:1" /><circle cx="142.88626" cy="175.205" r="2" style="fill:rgb(139,211,199);stroke:none;fill-opacity:1;stroke-opacity:1;" /><path d="M 142.88626 175.205 L 30 175.58249" style="stroke:rgb(139,211,199);stroke-width:1" /><circle cx="30" cy="175.58249" r="2" style="fill:rgb(139,211,199);stroke:none;fill-opacity:1;stroke-opacity:1;" /><circle cx="780" cy="20" r="2" style="fill:rgb(253,204,229);stroke:none;fill-opacity:1;stroke-opacity:1;" /><path d="M 780 20 L 630.77246 103.774994" style="stroke:rgb(253,204,229);stroke-width:1" /><circle cx="630.77246" cy="103.774994" r="2" style="fill:rgb(253,204,229);stroke:none;fill-opacity:1;stroke-opacity:1;" /><path d="M 630.77246 103.774994 L 517.8862 140.5275" style="stroke:rgb(253,204,229);stroke-width:1" /><circle cx="517.8862" cy="140.5275" r="2" style="fill:rgb(253,204,229);stroke:none;fill-opacity:1;stroke-opacity:1;" /><path d="M 517.8862 140.5275 L 451.85202 154.01999" style="stroke:rgb(253,204,229);stroke-width:1" /><circle cx="451.85202" cy="154.01999" r="2" style="fill:rgb(253,204,229);stroke:none;fill-opacity:1;stroke-opacity:1;" /><path d="M 451.85202 154.01999 L 405 160.68" style="stroke:rgb(253,204,229);stroke-width:1" /><circle cx="405" cy="160.68" r="2" style="fill:rgb(253,204,229);stroke:none;fill-opacity:1;stroke-opacity:1;" /><path d="M 405 160.68 L 338.96576 167.775" style="stroke:rgb(253,204,229);stroke-width:1" /><circle cx="338.96576" cy="167.775" r="2" style="fill:rgb(253,204,229);stroke:none;fill-opacity:1;stroke-opacity:1;" /><path d="M 338.96576 167.775 L 292.11377 170.3625" style="stroke:rgb(253,204,229);stroke-width:1" /><circle cx="292.11377" cy="170.3625" r="2" style="fill:rgb(253,204,229);stroke:none;fill-opacity:1;stroke-opacity:1;" /><path d="M 292.11377 170.3625 L 255.7725 171.69751" style="stroke:rgb(253,204,229);stroke-width:1" /><circle cx="255.7725" cy="171.69751" r="2" style="fill:rgb(253,204,229);stroke:none;fill-opacity:1;stroke-opacity:1;" /><path d="M 255.7725 171.69751 L 142.88626 174.6875" style="stroke:rgb(253,204,229);stroke-width:1" /><circle cx="142.88626" cy="174.6875" r="2" style="fill:rgb(253,204,229);stroke:none;fill-opacity:1;stroke-opacity:1;" /><path d="M 142.88626 174.6875 L 30 175.4975" style="stroke:rgb(253,204,229);stroke-width:1" /><circle cx="30" cy="175.4975" r="2" style="fill:rgb(253,204,229);stroke:none;fill-opacity:1;stroke-opacity:1;" /><circle cx="780" cy="57.852493" r="2" style="fill:rgb(253,204,229);stroke:none;fill-opacity:1;stroke-opacity:1;" /><path d="M 780 57.852493 L 630.77246 122.875" style="stroke:rgb(253,204,229);stroke-width:1" /><circle cx="630.77246" cy="122.875" r="2" style="fill:rgb(253,204,229);stroke:none;fill-opacity:1;stroke-opacity:1;" /><path d="M 630.77246 122.875 L 517.8862 148.63" style="stroke:rgb(253,204,229);stroke-width:1" /><circle cx="517.8862" cy="148.63" r="2" style="fill:rgb(253,204,229);stroke:none;fill-opacity:1;stroke-opacity:1;" /><path d="M 517.8862 148.63 L 451.85202 159.32251" style="stroke:rgb(253,204,229);stroke-width:1" /><circle cx="451.85202" cy="159.32251" r="2" style="fill:rgb(253,204,229);stroke:none;fill-opacity:1;stroke-opacity:1;" /><path d="M 451.85202 159.32251 L 405 165.02249" style="stroke:rgb(253,204,229);stroke-width:1" /><circle cx="405" cy="165.02249" r="2" style="fill:rgb(253,204,229);stroke:none;fill-opacity:1;stroke-opacity:1;" /><path d="M 405 165.02249 L 338.96576 169.98999" style="stroke:rgb(253,204,229);stroke-width:1" /><circle cx="338.96576" cy="169.98999" r="2" style="fill:rgb(253,204,229);stroke:none;fill-opacity:1;stroke-opacity:1;" /><path d="M 338.96576 169.98999 L 292.11377 171.685" style="stroke:rgb(253,204,229);stroke-width:1" /><circle cx="292.11377" cy="171.685" r="2" style="fill:rgb(253,204,229);stroke:none;fill-opacity:1;stroke-opacity:1;" /><path d="M 292.11377 171.685 L 255.7725 172.5675" style="stroke:rgb(253,204,229);stroke-width:1" /><circle cx="255.7725" cy="172.5675" r="2" style="fill:rgb(253,204,229);stroke:none;fill-opacity:1;stroke-opacity:1;" /><path d="M 255.7725 172.5675 L 142.88626 175.065" style="stroke:rgb(253,204,229);stroke-width:1" /><circle cx="142.88626" cy="175.065" r="2" style="fill:rgb(253,204,229);stroke:none;fill-opacity:1;stroke-opacity:1;" /><path d="M 142.88626 175.065 L 30 175.5575" style="stroke:rgb(253,204,229);stroke-width:1" /><circle cx="30" cy="175.5575" r="2" style="fill:rgb(253,204,229);stroke:none;fill-opacity:1;stroke-opacity:1;" /><rect x="676" y="16" width="80" height="217" ry="4" style="fill:rgb(30,30,30);stroke:none;fill-opacity:0.8;stroke-opacity:1;" /><rect x="680" y="20" width="20" height="20" ry="2" style="fill:rgb(253,127,111);stroke:none;fill-opacity:1;stroke-opacity:1;" /><text x="705" y="33" style="font-size:10px;fill:rgb(255,255,255);text-anchor:start;text-align:left;"> fwd-diff </text><rect x="680" y="41" width="20" height="20" ry="2" style="fill:rgb(255,181,90);stroke:none;fill-opacity:1;stroke-opacity:1;" /><text x="705" y="54" style="font-size:10px;fill:rgb(255,255,255);text-anchor:start;text-align:left;"> hain </text><rect x="680" y="62" width="20" height="20" ry="2" style="fill:rgb(253,204,229);stroke:none;fill-opacity:1;stroke-opacity:1;" /><text x="705" y="75" style="font-size:10px;fill:rgb(255,255,255);text-anchor:start;text-align:left;"> hfd </text><rect x="680" y="83" width="20" height="20" ry="2" style="fill:rgb(50,125,209);stroke:none;fill-opacity:1;stroke-opacity:1;" /><text x="705" y="96" style="font-size:10px;fill:rgb(255,255,255);text-anchor:start;text-align:left;"> levien </text><rect x="680" y="104" width="20" height="20" ry="2" style="fill:rgb(119,211,179);stroke:none;fill-opacity:1;stroke-opacity:1;" /><text x="705" y="117" style="font-size:10px;fill:rgb(255,255,255);text-anchor:start;text-align:left;"> levien-linear </text><rect x="680" y="125" width="20" height="20" ry="2" style="fill:rgb(139,211,199);stroke:none;fill-opacity:1;stroke-opacity:1;" /><text x="705" y="138" style="font-size:10px;fill:rgb(255,255,255);text-anchor:start;text-align:left;"> levien-quads </text><rect x="680" y="146" width="20" height="20" ry="2" style="fill:rgb(128,214,87);stroke:none;fill-opacity:1;stroke-opacity:1;" /><text x="705" y="159" style="font-size:10px;fill:rgb(255,255,255);text-anchor:start;text-align:left;"> linear </text><rect x="680" y="167" width="20" height="20" ry="2" style="fill:rgb(255,238,101);stroke:none;fill-opacity:1;stroke-opacity:1;" /><text x="705" y="180" style="font-size:10px;fill:rgb(255,255,255);text-anchor:start;text-align:left;"> recursive </text><rect x="680" y="188" width="20" height="20" ry="2" style="fill:rgb(253,204,229);stroke:none;fill-opacity:1;stroke-opacity:1;" /><text x="705" y="201" style="font-size:10px;fill:rgb(255,255,255);text-anchor:start;text-align:left;"> wang </text><rect x="680" y="209" width="20" height="20" ry="2" style="fill:rgb(120,68,33);stroke:none;fill-opacity:1;stroke-opacity:1;" /><text x="705" y="222" style="font-size:10px;fill:rgb(255,255,255);text-anchor:start;text-align:left;"> yzerman </text><text x="400" y="30" style="font-size:20px;fill:rgb(255,255,255);text-anchor:middle;text-align:center;"> Font </text><text x="400" y="42" style="font-size:8px;fill:rgb(200,200,200);text-anchor:middle;text-align:center;"> Normalized edge count score (lower is better) </text></svg>